%TF.GenerationSoftware,KiCad,Pcbnew,8.0.1-8.0.1-1~ubuntu22.04.1*%
%TF.CreationDate,2024-03-29T10:19:56+01:00*%
%TF.ProjectId,dsp_som,6473705f-736f-46d2-9e6b-696361645f70,1.0*%
%TF.SameCoordinates,Original*%
%TF.FileFunction,Copper,L6,Bot*%
%TF.FilePolarity,Positive*%
%FSLAX46Y46*%
G04 Gerber Fmt 4.6, Leading zero omitted, Abs format (unit mm)*
G04 Created by KiCad (PCBNEW 8.0.1-8.0.1-1~ubuntu22.04.1) date 2024-03-29 10:19:56*
%MOMM*%
%LPD*%
G01*
G04 APERTURE LIST*
G04 Aperture macros list*
%AMRoundRect*
0 Rectangle with rounded corners*
0 $1 Rounding radius*
0 $2 $3 $4 $5 $6 $7 $8 $9 X,Y pos of 4 corners*
0 Add a 4 corners polygon primitive as box body*
4,1,4,$2,$3,$4,$5,$6,$7,$8,$9,$2,$3,0*
0 Add four circle primitives for the rounded corners*
1,1,$1+$1,$2,$3*
1,1,$1+$1,$4,$5*
1,1,$1+$1,$6,$7*
1,1,$1+$1,$8,$9*
0 Add four rect primitives between the rounded corners*
20,1,$1+$1,$2,$3,$4,$5,0*
20,1,$1+$1,$4,$5,$6,$7,0*
20,1,$1+$1,$6,$7,$8,$9,0*
20,1,$1+$1,$8,$9,$2,$3,0*%
G04 Aperture macros list end*
%TA.AperFunction,ComponentPad*%
%ADD10C,0.800000*%
%TD*%
%TA.AperFunction,ComponentPad*%
%ADD11C,6.400000*%
%TD*%
%TA.AperFunction,SMDPad,CuDef*%
%ADD12RoundRect,0.225000X0.250000X-0.225000X0.250000X0.225000X-0.250000X0.225000X-0.250000X-0.225000X0*%
%TD*%
%TA.AperFunction,SMDPad,CuDef*%
%ADD13RoundRect,0.140000X0.140000X0.170000X-0.140000X0.170000X-0.140000X-0.170000X0.140000X-0.170000X0*%
%TD*%
%TA.AperFunction,SMDPad,CuDef*%
%ADD14RoundRect,0.140000X-0.140000X-0.170000X0.140000X-0.170000X0.140000X0.170000X-0.140000X0.170000X0*%
%TD*%
%TA.AperFunction,ComponentPad*%
%ADD15R,1.700000X1.700000*%
%TD*%
%TA.AperFunction,ComponentPad*%
%ADD16O,1.700000X1.700000*%
%TD*%
%TA.AperFunction,SMDPad,CuDef*%
%ADD17RoundRect,0.140000X-0.170000X0.140000X-0.170000X-0.140000X0.170000X-0.140000X0.170000X0.140000X0*%
%TD*%
%TA.AperFunction,SMDPad,CuDef*%
%ADD18RoundRect,0.140000X0.170000X-0.140000X0.170000X0.140000X-0.170000X0.140000X-0.170000X-0.140000X0*%
%TD*%
%TA.AperFunction,SMDPad,CuDef*%
%ADD19RoundRect,0.225000X-0.225000X-0.250000X0.225000X-0.250000X0.225000X0.250000X-0.225000X0.250000X0*%
%TD*%
%TA.AperFunction,SMDPad,CuDef*%
%ADD20RoundRect,0.225000X0.225000X0.250000X-0.225000X0.250000X-0.225000X-0.250000X0.225000X-0.250000X0*%
%TD*%
%TA.AperFunction,SMDPad,CuDef*%
%ADD21RoundRect,0.225000X-0.250000X0.225000X-0.250000X-0.225000X0.250000X-0.225000X0.250000X0.225000X0*%
%TD*%
%TA.AperFunction,ViaPad*%
%ADD22C,0.450000*%
%TD*%
%TA.AperFunction,Conductor*%
%ADD23C,0.200000*%
%TD*%
%TA.AperFunction,Conductor*%
%ADD24C,0.400000*%
%TD*%
%TA.AperFunction,Conductor*%
%ADD25C,0.500000*%
%TD*%
G04 APERTURE END LIST*
D10*
%TO.P,H1,1,1*%
%TO.N,GND*%
X123600000Y-54000000D03*
X124302944Y-52302944D03*
X124302944Y-55697056D03*
X126000000Y-51600000D03*
D11*
X126000000Y-54000000D03*
D10*
X126000000Y-56400000D03*
X127697056Y-52302944D03*
X127697056Y-55697056D03*
X128400000Y-54000000D03*
%TD*%
D12*
%TO.P,C32,1*%
%TO.N,+3.3V*%
X100300000Y-80825000D03*
%TO.P,C32,2*%
%TO.N,GND*%
X100300000Y-79275000D03*
%TD*%
D13*
%TO.P,C24,1*%
%TO.N,+3.3V*%
X104280000Y-62700000D03*
%TO.P,C24,2*%
%TO.N,GND*%
X103320000Y-62700000D03*
%TD*%
%TO.P,C12,1*%
%TO.N,+3.3V*%
X106480000Y-88100000D03*
%TO.P,C12,2*%
%TO.N,GND*%
X105520000Y-88100000D03*
%TD*%
%TO.P,C25,1*%
%TO.N,+3.3V*%
X108680000Y-62100000D03*
%TO.P,C25,2*%
%TO.N,GND*%
X107720000Y-62100000D03*
%TD*%
D14*
%TO.P,C15,1*%
%TO.N,+3.3VA*%
X121470000Y-70750000D03*
%TO.P,C15,2*%
%TO.N,GND*%
X122430000Y-70750000D03*
%TD*%
D13*
%TO.P,C9,1*%
%TO.N,+3.3V*%
X100230000Y-67950000D03*
%TO.P,C9,2*%
%TO.N,GND*%
X99270000Y-67950000D03*
%TD*%
D15*
%TO.P,J3,1,Pin_1*%
%TO.N,+3.3V*%
X94275000Y-53325000D03*
D16*
%TO.P,J3,2,Pin_2*%
%TO.N,GND*%
X91735000Y-53325000D03*
%TO.P,J3,3,Pin_3*%
%TO.N,/PB10*%
X94275000Y-55865000D03*
%TO.P,J3,4,Pin_4*%
%TO.N,GND*%
X91735000Y-55865000D03*
%TO.P,J3,5,Pin_5*%
%TO.N,/PB11*%
X94275000Y-58405000D03*
%TO.P,J3,6,Pin_6*%
%TO.N,GND*%
X91735000Y-58405000D03*
%TO.P,J3,7,Pin_7*%
%TO.N,/PD12*%
X94275000Y-60945000D03*
%TO.P,J3,8,Pin_8*%
%TO.N,GND*%
X91735000Y-60945000D03*
%TO.P,J3,9,Pin_9*%
%TO.N,/PD13*%
X94275000Y-63485000D03*
%TO.P,J3,10,Pin_10*%
%TO.N,GND*%
X91735000Y-63485000D03*
%TO.P,J3,11,Pin_11*%
%TO.N,/ADC3_IN2*%
X94275000Y-66025000D03*
%TO.P,J3,12,Pin_12*%
%TO.N,GND*%
X91735000Y-66025000D03*
%TO.P,J3,13,Pin_13*%
%TO.N,/ADC3_IN3*%
X94275000Y-68565000D03*
%TO.P,J3,14,Pin_14*%
%TO.N,GND*%
X91735000Y-68565000D03*
%TO.P,J3,15,Pin_15*%
%TO.N,/ADC3_IN13*%
X94275000Y-71105000D03*
%TO.P,J3,16,Pin_16*%
%TO.N,GND*%
X91735000Y-71105000D03*
%TO.P,J3,17,Pin_17*%
%TO.N,/ADC3_IN12*%
X94275000Y-73645000D03*
%TO.P,J3,18,Pin_18*%
%TO.N,GND*%
X91735000Y-73645000D03*
%TO.P,J3,19,Pin_19*%
%TO.N,/ADC3_IN11*%
X94275000Y-76185000D03*
%TO.P,J3,20,Pin_20*%
%TO.N,GND*%
X91735000Y-76185000D03*
%TO.P,J3,21,Pin_21*%
%TO.N,/ADC3_IN8*%
X94275000Y-78725000D03*
%TO.P,J3,22,Pin_22*%
%TO.N,GND*%
X91735000Y-78725000D03*
%TO.P,J3,23,Pin_23*%
%TO.N,/ADC3_IN7*%
X94275000Y-81265000D03*
%TO.P,J3,24,Pin_24*%
%TO.N,GND*%
X91735000Y-81265000D03*
%TO.P,J3,25,Pin_25*%
%TO.N,/USB_DM*%
X94275000Y-83805000D03*
%TO.P,J3,26,Pin_26*%
%TO.N,GND*%
X91735000Y-83805000D03*
%TO.P,J3,27,Pin_27*%
%TO.N,/USB_DP*%
X94275000Y-86345000D03*
%TO.P,J3,28,Pin_28*%
%TO.N,GND*%
X91735000Y-86345000D03*
%TO.P,J3,29,Pin_29*%
%TO.N,/ADC3_IN6*%
X94275000Y-88885000D03*
%TO.P,J3,30,Pin_30*%
%TO.N,GND*%
X91735000Y-88885000D03*
%TO.P,J3,31,Pin_31*%
%TO.N,/ADC3_IN5*%
X94275000Y-91425000D03*
%TO.P,J3,32,Pin_32*%
%TO.N,GND*%
X91735000Y-91425000D03*
%TO.P,J3,33,Pin_33*%
%TO.N,/ADC3_IN4*%
X94275000Y-93965000D03*
%TO.P,J3,34,Pin_34*%
%TO.N,GND*%
X91735000Y-93965000D03*
%TO.P,J3,35,Pin_35*%
X94275000Y-96505000D03*
%TO.P,J3,36,Pin_36*%
X91735000Y-96505000D03*
%TO.P,J3,37,Pin_37*%
%TO.N,/LINEOUT_R*%
X94275000Y-99045000D03*
%TO.P,J3,38,Pin_38*%
%TO.N,GND*%
X91735000Y-99045000D03*
%TO.P,J3,39,Pin_39*%
%TO.N,/LINEOUT_L*%
X94275000Y-101585000D03*
%TO.P,J3,40,Pin_40*%
%TO.N,GND*%
X91735000Y-101585000D03*
%TO.P,J3,41,Pin_41*%
%TO.N,/LINEIN_R*%
X94275000Y-104125000D03*
%TO.P,J3,42,Pin_42*%
%TO.N,GND*%
X91735000Y-104125000D03*
%TO.P,J3,43,Pin_43*%
%TO.N,/LINEIN_L*%
X94275000Y-106665000D03*
%TO.P,J3,44,Pin_44*%
%TO.N,GND*%
X91735000Y-106665000D03*
%TD*%
D14*
%TO.P,C23,1*%
%TO.N,+3.3V*%
X100920000Y-62700000D03*
%TO.P,C23,2*%
%TO.N,GND*%
X101880000Y-62700000D03*
%TD*%
%TO.P,C29,1*%
%TO.N,+3.3V*%
X121470000Y-72250000D03*
%TO.P,C29,2*%
%TO.N,GND*%
X122430000Y-72250000D03*
%TD*%
D17*
%TO.P,C4,1*%
%TO.N,+3.3V*%
X119050000Y-78520000D03*
%TO.P,C4,2*%
%TO.N,GND*%
X119050000Y-79480000D03*
%TD*%
D18*
%TO.P,C36,1*%
%TO.N,/VAG*%
X98450000Y-103730000D03*
%TO.P,C36,2*%
%TO.N,GND*%
X98450000Y-102770000D03*
%TD*%
D13*
%TO.P,C28,1*%
%TO.N,+3.3V*%
X106680000Y-51200000D03*
%TO.P,C28,2*%
%TO.N,GND*%
X105720000Y-51200000D03*
%TD*%
%TO.P,C3,1*%
%TO.N,+3.3V*%
X118430000Y-83650000D03*
%TO.P,C3,2*%
%TO.N,GND*%
X117470000Y-83650000D03*
%TD*%
D19*
%TO.P,C16,1*%
%TO.N,+3.3VA*%
X121175000Y-69500000D03*
%TO.P,C16,2*%
%TO.N,GND*%
X122725000Y-69500000D03*
%TD*%
D13*
%TO.P,C35,1*%
%TO.N,+3.3V*%
X100730000Y-107550000D03*
%TO.P,C35,2*%
%TO.N,GND*%
X99770000Y-107550000D03*
%TD*%
%TO.P,C37,1*%
%TO.N,+3.3VA*%
X100730000Y-102450000D03*
%TO.P,C37,2*%
%TO.N,GND*%
X99770000Y-102450000D03*
%TD*%
%TO.P,C13,1*%
%TO.N,+3.3V*%
X111480000Y-88050000D03*
%TO.P,C13,2*%
%TO.N,GND*%
X110520000Y-88050000D03*
%TD*%
D18*
%TO.P,C11,1*%
%TO.N,+3.3V*%
X98950000Y-86980000D03*
%TO.P,C11,2*%
%TO.N,GND*%
X98950000Y-86020000D03*
%TD*%
%TO.P,C14,1*%
%TO.N,+3.3V*%
X117900000Y-86830000D03*
%TO.P,C14,2*%
%TO.N,GND*%
X117900000Y-85870000D03*
%TD*%
%TO.P,C26,1*%
%TO.N,+3.3V*%
X119400000Y-61980000D03*
%TO.P,C26,2*%
%TO.N,GND*%
X119400000Y-61020000D03*
%TD*%
D14*
%TO.P,C8,1*%
%TO.N,+3.3V*%
X105020000Y-67950000D03*
%TO.P,C8,2*%
%TO.N,GND*%
X105980000Y-67950000D03*
%TD*%
D18*
%TO.P,C22,1*%
%TO.N,+3.3V*%
X98600000Y-62080000D03*
%TO.P,C22,2*%
%TO.N,GND*%
X98600000Y-61120000D03*
%TD*%
%TO.P,C38,1*%
%TO.N,+1V8*%
X103550000Y-104480000D03*
%TO.P,C38,2*%
%TO.N,GND*%
X103550000Y-103520000D03*
%TD*%
D20*
%TO.P,C40,1*%
%TO.N,/VCAP_1*%
X100035000Y-66710000D03*
%TO.P,C40,2*%
%TO.N,GND*%
X98485000Y-66710000D03*
%TD*%
D19*
%TO.P,C30,1*%
%TO.N,+3.3V*%
X121175000Y-73500000D03*
%TO.P,C30,2*%
%TO.N,GND*%
X122725000Y-73500000D03*
%TD*%
D13*
%TO.P,C27,1*%
%TO.N,+3.3V*%
X101880000Y-51200000D03*
%TO.P,C27,2*%
%TO.N,GND*%
X100920000Y-51200000D03*
%TD*%
D14*
%TO.P,C6,1*%
%TO.N,+3.3V*%
X116520000Y-67950000D03*
%TO.P,C6,2*%
%TO.N,GND*%
X117480000Y-67950000D03*
%TD*%
%TO.P,C7,1*%
%TO.N,+3.3V*%
X110020000Y-67950000D03*
%TO.P,C7,2*%
%TO.N,GND*%
X110980000Y-67950000D03*
%TD*%
D17*
%TO.P,C5,1*%
%TO.N,+3.3V*%
X119050000Y-71020000D03*
%TO.P,C5,2*%
%TO.N,GND*%
X119050000Y-71980000D03*
%TD*%
D13*
%TO.P,C10,1*%
%TO.N,+3.3V*%
X98480000Y-75080000D03*
%TO.P,C10,2*%
%TO.N,GND*%
X97520000Y-75080000D03*
%TD*%
D21*
%TO.P,C39,1*%
%TO.N,/VCAP_2*%
X97700000Y-85225000D03*
%TO.P,C39,2*%
%TO.N,GND*%
X97700000Y-86775000D03*
%TD*%
D13*
%TO.P,C2,1*%
%TO.N,/nRST*%
X120180000Y-75000000D03*
%TO.P,C2,2*%
%TO.N,GND*%
X119220000Y-75000000D03*
%TD*%
D18*
%TO.P,C31,1*%
%TO.N,+3.3V*%
X98950000Y-80480000D03*
%TO.P,C31,2*%
%TO.N,GND*%
X98950000Y-79520000D03*
%TD*%
D12*
%TO.P,C17,1*%
%TO.N,+3.3V*%
X116350000Y-86575000D03*
%TO.P,C17,2*%
%TO.N,GND*%
X116350000Y-85025000D03*
%TD*%
D22*
%TO.N,/SD_DETECT*%
X124700000Y-105920000D03*
X124320000Y-107940000D03*
%TO.N,/SD_DAT1*%
X96300000Y-88140000D03*
X96290000Y-83000000D03*
%TO.N,/SD_CMD*%
X116750000Y-99450000D03*
X114400000Y-100100000D03*
%TO.N,/CODEC_SCL*%
X116975000Y-90675000D03*
X110500000Y-103675000D03*
%TO.N,/CODEC_SDA*%
X111175000Y-104725000D03*
X117950000Y-89950000D03*
%TO.N,/nRST*%
X120900000Y-74500000D03*
X123850000Y-70850000D03*
%TO.N,/SWCLK*%
X125150000Y-62750000D03*
X101800000Y-85350000D03*
%TO.N,/SWDIO*%
X100150000Y-84550000D03*
X125400000Y-61500000D03*
%TO.N,/SWO*%
X113275000Y-85875000D03*
X125450000Y-64000000D03*
%TO.N,+1V8*%
X104975000Y-104125000D03*
%TO.N,/VCAP_2*%
X96950000Y-85470000D03*
%TO.N,/VCAP_1*%
X100750000Y-66306372D03*
%TO.N,+3.3V*%
X105100000Y-68530000D03*
X105000000Y-62700000D03*
X116600000Y-68530000D03*
X106400000Y-87500000D03*
X107400000Y-51200000D03*
X121560000Y-61460000D03*
X117900000Y-87450000D03*
X99550000Y-80400000D03*
X119400000Y-62700000D03*
X118450000Y-71100000D03*
X100250000Y-68550000D03*
X100200000Y-62700000D03*
X118450000Y-84250000D03*
X109700000Y-102000000D03*
X111400000Y-87450000D03*
X114050000Y-101650000D03*
X99550000Y-74750000D03*
X109700000Y-106400000D03*
X99550000Y-86900000D03*
X102600000Y-51200000D03*
X109000000Y-62700000D03*
X102400000Y-95900000D03*
X111350000Y-92800000D03*
X105850000Y-93700000D03*
X100625000Y-108225000D03*
X106950000Y-98400000D03*
X98600000Y-62700000D03*
X120900000Y-72250000D03*
X118125000Y-78600000D03*
X110100000Y-68775000D03*
%TO.N,+3.3VA*%
X100750000Y-101900000D03*
X120900000Y-70750000D03*
%TO.N,/DQ4*%
X106750000Y-69300000D03*
X106500000Y-61415628D03*
%TO.N,/A4*%
X118600000Y-53250000D03*
X122075000Y-80225000D03*
%TO.N,/CLK*%
X111400000Y-53250000D03*
X110250000Y-78950000D03*
%TO.N,/LDQM*%
X108325000Y-83775000D03*
X109400000Y-61450000D03*
%TO.N,GND*%
X115050000Y-75550000D03*
X101750000Y-101900000D03*
X123450000Y-73500000D03*
X117000000Y-100350000D03*
X125000000Y-77625000D03*
X100200000Y-51200000D03*
X128500000Y-92200000D03*
X119450000Y-58400000D03*
X114550000Y-100950000D03*
X105000000Y-51200000D03*
X102340000Y-103650000D03*
X101500000Y-57800000D03*
X110500000Y-55550000D03*
X105900000Y-68530000D03*
X122950000Y-72250000D03*
X102400000Y-61000000D03*
X99080000Y-102770000D03*
X118450000Y-71900000D03*
X104850000Y-107500000D03*
X93750000Y-108900000D03*
X100550000Y-85350000D03*
X117950000Y-57100000D03*
X126700000Y-100250000D03*
X96950000Y-86770000D03*
X100450000Y-58850000D03*
X95400000Y-59650000D03*
X128450000Y-103200000D03*
X128350000Y-106050000D03*
X114550000Y-61850000D03*
X103550000Y-97800000D03*
X117650000Y-97600000D03*
X127950000Y-79550000D03*
X110100000Y-60750000D03*
X122850000Y-102300000D03*
X117850000Y-50850000D03*
X97250000Y-88050000D03*
X113150000Y-54700000D03*
X102600000Y-58300000D03*
X126850000Y-89400000D03*
X102700000Y-56800000D03*
X126950000Y-104350000D03*
X115350000Y-84750000D03*
X118500000Y-75000000D03*
X101700000Y-81500000D03*
X121500000Y-51300000D03*
X113150000Y-50950000D03*
X98300000Y-54900000D03*
X101000000Y-105500000D03*
X96400000Y-79500000D03*
X120650000Y-108800000D03*
X105600000Y-87500000D03*
X121600000Y-81100000D03*
X120850000Y-53200000D03*
X96250000Y-76850000D03*
X97050000Y-108550000D03*
X117400000Y-68530000D03*
X97000000Y-96850000D03*
X126200000Y-73575000D03*
X107850000Y-93700000D03*
X105000000Y-53700000D03*
X102500000Y-70300000D03*
X122250000Y-95450000D03*
X100850000Y-95150000D03*
X109000000Y-51200000D03*
X124550000Y-109000000D03*
X125600000Y-105650000D03*
X109300000Y-56750000D03*
X125350000Y-79400000D03*
X122200000Y-91650000D03*
X103900000Y-95950000D03*
X96900000Y-83700000D03*
X114650000Y-50900000D03*
X117700000Y-61800000D03*
X113000000Y-53750000D03*
X100050000Y-90200000D03*
X126750000Y-102450000D03*
X101800000Y-87250000D03*
X95500000Y-102900000D03*
X109050000Y-79900000D03*
X107150000Y-86700000D03*
X96350000Y-105950000D03*
X102750000Y-101900000D03*
X105000000Y-70750000D03*
X100500000Y-105000000D03*
X97750000Y-98800000D03*
X113350000Y-60550000D03*
X128500000Y-85500000D03*
X128500000Y-70550000D03*
X111600000Y-50900000D03*
X110400000Y-72350000D03*
X118050000Y-95950000D03*
X100550000Y-60550000D03*
X98600000Y-60500000D03*
X97332688Y-52675373D03*
X117475000Y-107200000D03*
X121250000Y-103700000D03*
X127450000Y-87100000D03*
X101500000Y-105000000D03*
X96600000Y-94850000D03*
X101650000Y-92800000D03*
X119400000Y-60400000D03*
X121580000Y-66540000D03*
X96975000Y-75080000D03*
X106850000Y-70300000D03*
X102250000Y-59750000D03*
X128450000Y-101050000D03*
X113600000Y-86650000D03*
X127700000Y-83700000D03*
X125750000Y-82000000D03*
X98600000Y-51200000D03*
X108850000Y-75150000D03*
X122950000Y-70750000D03*
X123450000Y-69500000D03*
X126550000Y-96350000D03*
X104550000Y-86000000D03*
X128650000Y-77000000D03*
X126150000Y-107950000D03*
X118450000Y-89150000D03*
X128800000Y-73900000D03*
X99550000Y-79600000D03*
X122800000Y-84700000D03*
X122250000Y-97700000D03*
X119400000Y-51200000D03*
X99760000Y-108370000D03*
X119700000Y-94900000D03*
X122200000Y-93750000D03*
X125400000Y-86950000D03*
X113150000Y-107600000D03*
X113175000Y-96025000D03*
X97600000Y-90200000D03*
X96200000Y-100900000D03*
X119675000Y-91475000D03*
X99550000Y-86100000D03*
X127450000Y-98550000D03*
X120100000Y-105150000D03*
X108800000Y-104200000D03*
X98650000Y-96000000D03*
X102600000Y-62700000D03*
X116900000Y-83650000D03*
X128250000Y-81900000D03*
X121580000Y-64000000D03*
X107400000Y-53850000D03*
X99250000Y-68500000D03*
X126350000Y-85200000D03*
X102600000Y-55350000D03*
X99750000Y-76450000D03*
X128500000Y-90400000D03*
X99750000Y-97700000D03*
X102550000Y-53650000D03*
X110600000Y-87450000D03*
X111300000Y-86200000D03*
X118650000Y-54250000D03*
X107400000Y-62700000D03*
X105600000Y-74500000D03*
X108500000Y-99350000D03*
X106000000Y-98400000D03*
X116350000Y-84300000D03*
X100250000Y-53700000D03*
X110350000Y-58050000D03*
X98450000Y-92600000D03*
X114050000Y-103850000D03*
X118550000Y-93450000D03*
X110900000Y-68530000D03*
X107350000Y-60850000D03*
X126600000Y-71900000D03*
X96600000Y-54250000D03*
X117900000Y-85300000D03*
X121590000Y-62730000D03*
X115000000Y-77350000D03*
X128550000Y-88500000D03*
X126750000Y-91250000D03*
X104800000Y-80250000D03*
X122800000Y-79050000D03*
X101010000Y-104500000D03*
X109500000Y-54550000D03*
X118050000Y-59450000D03*
X96150000Y-51150000D03*
X111400000Y-95900000D03*
X127025000Y-94450000D03*
X122050000Y-57100000D03*
X96250000Y-57100000D03*
X121600000Y-89450000D03*
X116200000Y-50900000D03*
X98300000Y-100800000D03*
X109300000Y-59200000D03*
X118450000Y-79400000D03*
%TO.N,/DQ2*%
X102500000Y-86750000D03*
X101800000Y-61700000D03*
%TO.N,/DQ6*%
X106003768Y-65396232D03*
X106600000Y-62700000D03*
%TO.N,/A9*%
X114600000Y-54250000D03*
X115525000Y-71475000D03*
%TO.N,/A8*%
X115751398Y-70354906D03*
X115400000Y-53250000D03*
%TO.N,/A10*%
X115400000Y-64800000D03*
X115100000Y-72550000D03*
%TO.N,/DQ15*%
X99450000Y-72275000D03*
X99400000Y-53250000D03*
%TO.N,/A3*%
X118600000Y-61500000D03*
X120700000Y-80750000D03*
%TO.N,/nCAS*%
X111400000Y-62700000D03*
X111950000Y-85550000D03*
%TO.N,/DQ11*%
X102150000Y-69450000D03*
X104200000Y-54250000D03*
%TO.N,/DQ0*%
X99400000Y-64800000D03*
X100700000Y-74800000D03*
%TO.N,/DQ3*%
X103800000Y-86300000D03*
X103125000Y-61500000D03*
%TO.N,/BA0*%
X113900000Y-76400000D03*
X113800000Y-61500000D03*
%TO.N,/DQ9*%
X104450000Y-70000000D03*
X106600000Y-53250000D03*
%TO.N,/A11*%
X113800000Y-53250000D03*
X114600000Y-73600000D03*
%TO.N,/DQ7*%
X108200000Y-64800000D03*
X104796204Y-66346738D03*
%TO.N,/DQ1*%
X101400000Y-75700000D03*
X101000000Y-64800000D03*
%TO.N,/A7*%
X117000000Y-69800000D03*
X116200000Y-54250000D03*
%TO.N,/A2*%
X117800000Y-62700000D03*
X118650000Y-81250000D03*
%TO.N,/A5*%
X121400000Y-79100000D03*
X117800000Y-54250000D03*
%TO.N,/DQ10*%
X103300000Y-69800000D03*
X105800000Y-54250000D03*
%TO.N,/BA1*%
X114600000Y-62700000D03*
X114050000Y-78200000D03*
%TO.N,/DQ14*%
X100700000Y-72200000D03*
X101000000Y-54250000D03*
%TO.N,/A0*%
X116550000Y-82500000D03*
X118600000Y-66200000D03*
%TO.N,/UDQM*%
X115300000Y-85650000D03*
X112550000Y-55500000D03*
%TO.N,/nCS*%
X114400000Y-86950000D03*
X113000000Y-62700000D03*
%TO.N,/DQ12*%
X103400000Y-53500000D03*
X101350000Y-68550000D03*
%TO.N,/A1*%
X117575000Y-81775000D03*
X117750000Y-65200000D03*
%TO.N,/DQ8*%
X108200000Y-53250000D03*
X105750000Y-70150000D03*
%TO.N,/DQ13*%
X101800000Y-53250000D03*
X99650000Y-70950000D03*
%TO.N,/nWE*%
X108850000Y-74250000D03*
X110600000Y-61550000D03*
%TO.N,/A6*%
X117000000Y-53250000D03*
X117975000Y-69150000D03*
%TO.N,/CKE*%
X113100000Y-87300000D03*
X112250000Y-54250000D03*
%TO.N,/CODEC_SCLK*%
X105775000Y-107625000D03*
X123700000Y-84800000D03*
%TO.N,/CODEC_DOUT*%
X108400000Y-107000000D03*
X122650000Y-86700000D03*
%TO.N,/CODEC_DIN*%
X107100000Y-105800000D03*
X121875000Y-84575000D03*
%TO.N,/CODEC_LRCLK*%
X107150000Y-108275000D03*
X124525000Y-86700000D03*
%TO.N,/CODEC_MCLK*%
X109000000Y-109025000D03*
X125550000Y-87825000D03*
%TO.N,/VAG*%
X99059729Y-103675000D03*
%TO.N,/ADC3_IN5*%
X106600000Y-86000000D03*
%TO.N,/ADC3_IN7*%
X105100000Y-83900000D03*
%TO.N,/ADC3_IN4*%
X107700000Y-86000000D03*
%TO.N,/ADC3_IN11*%
X116975000Y-73725000D03*
%TO.N,/ADC3_IN13*%
X116975000Y-71500000D03*
%TO.N,/ADC3_IN8*%
X105200000Y-82600000D03*
%TO.N,/ADC3_IN6*%
X105400000Y-86000000D03*
%TO.N,/ADC3_IN12*%
X116975000Y-72600000D03*
%TO.N,/ADC3_IN3*%
X121400000Y-65400000D03*
%TO.N,/ADC3_IN2*%
X110800000Y-73100000D03*
%TD*%
D23*
%TO.N,/SD_DETECT*%
X124700000Y-105920000D02*
X124700000Y-107560000D01*
X124700000Y-107560000D02*
X124320000Y-107940000D01*
%TO.N,/SD_DAT1*%
X96290000Y-88130000D02*
X96300000Y-88140000D01*
X96290000Y-83000000D02*
X96290000Y-88130000D01*
%TO.N,/SD_CMD*%
X116100000Y-100100000D02*
X114400000Y-100100000D01*
X116750000Y-99450000D02*
X116100000Y-100100000D01*
%TO.N,/CODEC_SCL*%
X115625000Y-103050000D02*
X120650000Y-98025000D01*
X120650000Y-98025000D02*
X120650000Y-91675000D01*
X120650000Y-91675000D02*
X119650000Y-90675000D01*
X119650000Y-90675000D02*
X116975000Y-90675000D01*
X110500000Y-103675000D02*
X111125000Y-103050000D01*
X111125000Y-103050000D02*
X115625000Y-103050000D01*
%TO.N,/CODEC_SDA*%
X121500000Y-98800000D02*
X121500000Y-91350000D01*
X121500000Y-91350000D02*
X120100000Y-89950000D01*
X111175000Y-104725000D02*
X115575000Y-104725000D01*
X115575000Y-104725000D02*
X121500000Y-98800000D01*
X120100000Y-89950000D02*
X117950000Y-89950000D01*
%TO.N,/nRST*%
X120100000Y-72100000D02*
X120650000Y-71550000D01*
X120650000Y-71550000D02*
X123150000Y-71550000D01*
X120180000Y-75000000D02*
X120180000Y-74380000D01*
X120100000Y-74300000D02*
X120100000Y-72100000D01*
X123150000Y-71550000D02*
X123850000Y-70850000D01*
D24*
X120400000Y-75000000D02*
X120180000Y-75000000D01*
X120900000Y-74500000D02*
X120400000Y-75000000D01*
D23*
X120180000Y-74380000D02*
X120100000Y-74300000D01*
%TO.N,/SWCLK*%
X124550000Y-75300000D02*
X124550000Y-63350000D01*
X117625000Y-76775000D02*
X123075000Y-76775000D01*
X124550000Y-63350000D02*
X125150000Y-62750000D01*
X101800000Y-85350000D02*
X109050000Y-85350000D01*
X109050000Y-85350000D02*
X117625000Y-76775000D01*
X123075000Y-76775000D02*
X124550000Y-75300000D01*
%TO.N,/SWDIO*%
X108650000Y-84550000D02*
X117600000Y-75600000D01*
X122700000Y-67900000D02*
X123700000Y-66900000D01*
X123700000Y-63200000D02*
X125400000Y-61500000D01*
X117600000Y-70850000D02*
X120550000Y-67900000D01*
X117600000Y-75600000D02*
X117600000Y-70850000D01*
X100150000Y-84550000D02*
X108650000Y-84550000D01*
X120550000Y-67900000D02*
X122700000Y-67900000D01*
X123700000Y-66900000D02*
X123700000Y-63200000D01*
%TO.N,/SWO*%
X113275000Y-85875000D02*
X113275000Y-85825000D01*
X125450000Y-75500000D02*
X125450000Y-64000000D01*
X115750000Y-79750000D02*
X117800000Y-77700000D01*
X123250000Y-77700000D02*
X125450000Y-75500000D01*
X115750000Y-83350000D02*
X115750000Y-79750000D01*
X117800000Y-77700000D02*
X123250000Y-77700000D01*
X113275000Y-85825000D02*
X115750000Y-83350000D01*
D24*
%TO.N,+1V8*%
X104975000Y-104125000D02*
X104620000Y-104480000D01*
X104620000Y-104480000D02*
X103550000Y-104480000D01*
D25*
%TO.N,/VCAP_2*%
X96950000Y-85470000D02*
X97195000Y-85225000D01*
X97195000Y-85225000D02*
X97700000Y-85225000D01*
%TO.N,/VCAP_1*%
X100035000Y-66710000D02*
X100346372Y-66710000D01*
X100346372Y-66710000D02*
X100750000Y-66306372D01*
D24*
%TO.N,+3.3V*%
X99975000Y-80825000D02*
X99550000Y-80400000D01*
D25*
X104280000Y-62700000D02*
X105000000Y-62700000D01*
X120900000Y-72600000D02*
X121175000Y-72875000D01*
X98600000Y-62080000D02*
X98600000Y-62700000D01*
D24*
X111400000Y-87970000D02*
X111480000Y-88050000D01*
X100250000Y-68550000D02*
X100250000Y-67970000D01*
X118450000Y-84250000D02*
X118450000Y-83670000D01*
X105100000Y-68530000D02*
X105100000Y-68030000D01*
X99550000Y-80400000D02*
X99030000Y-80400000D01*
X118970000Y-71100000D02*
X119050000Y-71020000D01*
X99030000Y-80400000D02*
X98950000Y-80480000D01*
D25*
X120900000Y-72250000D02*
X121470000Y-72250000D01*
D24*
X100625000Y-108225000D02*
X100730000Y-108120000D01*
X117025000Y-86575000D02*
X117280000Y-86830000D01*
X116600000Y-68030000D02*
X116520000Y-67950000D01*
X116350000Y-86575000D02*
X117025000Y-86575000D01*
X100300000Y-80825000D02*
X99975000Y-80825000D01*
X106400000Y-88020000D02*
X106480000Y-88100000D01*
X111400000Y-87450000D02*
X111400000Y-87970000D01*
D25*
X101880000Y-51200000D02*
X102600000Y-51200000D01*
D24*
X99030000Y-86900000D02*
X98950000Y-86980000D01*
X116600000Y-68530000D02*
X116600000Y-68030000D01*
D25*
X121175000Y-72875000D02*
X121175000Y-73500000D01*
X99220000Y-75080000D02*
X99550000Y-74750000D01*
D24*
X118970000Y-78600000D02*
X119050000Y-78520000D01*
X100730000Y-108120000D02*
X100730000Y-107550000D01*
X118450000Y-83670000D02*
X118430000Y-83650000D01*
X118125000Y-78600000D02*
X118970000Y-78600000D01*
X105100000Y-68030000D02*
X105020000Y-67950000D01*
X99550000Y-86900000D02*
X99030000Y-86900000D01*
D25*
X106680000Y-51200000D02*
X107400000Y-51200000D01*
X108680000Y-62100000D02*
X108680000Y-62380000D01*
X108680000Y-62380000D02*
X109000000Y-62700000D01*
D24*
X110100000Y-68775000D02*
X110100000Y-68030000D01*
X106400000Y-87500000D02*
X106400000Y-88020000D01*
X110100000Y-68030000D02*
X110020000Y-67950000D01*
D25*
X98480000Y-75080000D02*
X99220000Y-75080000D01*
X100920000Y-62700000D02*
X100200000Y-62700000D01*
D24*
X117280000Y-86830000D02*
X117900000Y-86830000D01*
X117900000Y-87450000D02*
X117900000Y-86830000D01*
D25*
X120900000Y-72250000D02*
X120900000Y-72600000D01*
X119400000Y-61980000D02*
X119400000Y-62700000D01*
D24*
X118450000Y-71100000D02*
X118970000Y-71100000D01*
X100250000Y-67970000D02*
X100230000Y-67950000D01*
D25*
%TO.N,+3.3VA*%
X100730000Y-102450000D02*
X100730000Y-101920000D01*
X120900000Y-70350000D02*
X121175000Y-70075000D01*
X120900000Y-70750000D02*
X120900000Y-70350000D01*
X120900000Y-70750000D02*
X121470000Y-70750000D01*
X121175000Y-70075000D02*
X121175000Y-69500000D01*
X100730000Y-101920000D02*
X100750000Y-101900000D01*
%TO.N,GND*%
X119400000Y-60400000D02*
X119400000Y-61020000D01*
X107720000Y-62380000D02*
X107400000Y-62700000D01*
X123450000Y-73500000D02*
X122725000Y-73500000D01*
D24*
X99760000Y-107560000D02*
X99770000Y-107550000D01*
X118450000Y-71900000D02*
X118970000Y-71900000D01*
X118450000Y-79400000D02*
X118970000Y-79400000D01*
D25*
X122950000Y-70750000D02*
X122430000Y-70750000D01*
X96975000Y-75080000D02*
X97520000Y-75080000D01*
D24*
X117400000Y-68530000D02*
X117400000Y-68030000D01*
D25*
X101880000Y-62700000D02*
X102600000Y-62700000D01*
D24*
X99760000Y-108370000D02*
X99760000Y-107560000D01*
D25*
X100200000Y-51200000D02*
X100920000Y-51200000D01*
D24*
X110900000Y-68030000D02*
X110980000Y-67950000D01*
D25*
X107720000Y-62100000D02*
X107720000Y-62380000D01*
D24*
X116350000Y-84300000D02*
X116350000Y-85025000D01*
D25*
X98800000Y-67950000D02*
X98485000Y-67635000D01*
X99400000Y-102450000D02*
X99770000Y-102450000D01*
D24*
X99250000Y-67970000D02*
X99270000Y-67950000D01*
X105900000Y-68530000D02*
X105900000Y-68030000D01*
X99550000Y-79600000D02*
X99030000Y-79600000D01*
D25*
X97695000Y-86770000D02*
X97700000Y-86775000D01*
D24*
X99875000Y-79275000D02*
X99550000Y-79600000D01*
D25*
X99270000Y-67950000D02*
X98800000Y-67950000D01*
X99080000Y-102770000D02*
X99400000Y-102450000D01*
X105720000Y-51200000D02*
X105000000Y-51200000D01*
X122950000Y-72250000D02*
X122430000Y-72250000D01*
D24*
X105600000Y-87500000D02*
X105600000Y-88020000D01*
X102470000Y-103520000D02*
X103550000Y-103520000D01*
X105600000Y-88020000D02*
X105520000Y-88100000D01*
X118970000Y-79400000D02*
X119050000Y-79480000D01*
X110600000Y-87450000D02*
X110600000Y-87970000D01*
D25*
X98600000Y-60500000D02*
X98600000Y-61120000D01*
D24*
X99550000Y-86100000D02*
X99030000Y-86100000D01*
D25*
X98485000Y-67635000D02*
X98485000Y-66710000D01*
D24*
X117400000Y-68030000D02*
X117480000Y-67950000D01*
X110900000Y-68530000D02*
X110900000Y-68030000D01*
X100300000Y-79275000D02*
X99875000Y-79275000D01*
X99080000Y-102770000D02*
X98450000Y-102770000D01*
X99030000Y-86100000D02*
X98950000Y-86020000D01*
X117900000Y-85300000D02*
X117900000Y-85870000D01*
X116900000Y-83650000D02*
X117470000Y-83650000D01*
D25*
X123450000Y-69500000D02*
X122725000Y-69500000D01*
X118500000Y-75000000D02*
X119220000Y-75000000D01*
D24*
X118970000Y-71900000D02*
X119050000Y-71980000D01*
D25*
X96950000Y-86770000D02*
X97695000Y-86770000D01*
D24*
X102340000Y-103650000D02*
X102470000Y-103520000D01*
X110600000Y-87970000D02*
X110520000Y-88050000D01*
X99030000Y-79600000D02*
X98950000Y-79520000D01*
X105900000Y-68030000D02*
X105980000Y-67950000D01*
D25*
X103320000Y-62700000D02*
X102600000Y-62700000D01*
D24*
X99250000Y-68500000D02*
X99250000Y-67970000D01*
D23*
%TO.N,/CODEC_SCLK*%
X111700000Y-107000000D02*
X111075000Y-107625000D01*
X116875000Y-107000000D02*
X111700000Y-107000000D01*
X111075000Y-107625000D02*
X105775000Y-107625000D01*
X123700000Y-84800000D02*
X123700000Y-86617463D01*
X124200000Y-99675000D02*
X116875000Y-107000000D01*
X124200000Y-87117463D02*
X124200000Y-99675000D01*
X123700000Y-86617463D02*
X124200000Y-87117463D01*
%TO.N,/CODEC_DOUT*%
X110600000Y-107000000D02*
X111000000Y-106600000D01*
X108400000Y-107000000D02*
X110600000Y-107000000D01*
X111000000Y-106600000D02*
X116250000Y-106600000D01*
X123500000Y-99350000D02*
X123500000Y-87550000D01*
X116250000Y-106600000D02*
X123500000Y-99350000D01*
X123500000Y-87550000D02*
X122650000Y-86700000D01*
%TO.N,/CODEC_DIN*%
X115875000Y-105800000D02*
X122850000Y-98825000D01*
X122850000Y-98825000D02*
X122850000Y-88925000D01*
X121875000Y-87950000D02*
X121875000Y-84575000D01*
X122850000Y-88925000D02*
X121875000Y-87950000D01*
X107100000Y-105800000D02*
X115875000Y-105800000D01*
%TO.N,/CODEC_LRCLK*%
X124525000Y-86817463D02*
X124900000Y-87192463D01*
X107175000Y-108300000D02*
X107150000Y-108275000D01*
X124900000Y-87192463D02*
X124900000Y-101734314D01*
X124525000Y-86700000D02*
X124525000Y-86817463D01*
X118334314Y-108300000D02*
X107175000Y-108300000D01*
X124900000Y-101734314D02*
X118334314Y-108300000D01*
%TO.N,/CODEC_MCLK*%
X109025000Y-109000000D02*
X109000000Y-109025000D01*
X125550000Y-102250000D02*
X118800000Y-109000000D01*
X118800000Y-109000000D02*
X109025000Y-109000000D01*
X125550000Y-87825000D02*
X125550000Y-102250000D01*
D24*
%TO.N,/VAG*%
X99059729Y-103675000D02*
X98505000Y-103675000D01*
X98505000Y-103675000D02*
X98450000Y-103730000D01*
D23*
%TO.N,/ADC3_IN5*%
X100875000Y-91425000D02*
X106300000Y-86000000D01*
X106300000Y-86000000D02*
X106600000Y-86000000D01*
X94275000Y-91425000D02*
X100875000Y-91425000D01*
%TO.N,/ADC3_IN7*%
X98884314Y-83900000D02*
X105100000Y-83900000D01*
X96249314Y-81265000D02*
X98884314Y-83900000D01*
X94275000Y-81265000D02*
X96249314Y-81265000D01*
%TO.N,/ADC3_IN4*%
X104135000Y-93965000D02*
X107700000Y-90400000D01*
X107700000Y-90400000D02*
X107700000Y-86000000D01*
X94275000Y-93965000D02*
X104135000Y-93965000D01*
%TO.N,/ADC3_IN11*%
X94275000Y-76185000D02*
X98140000Y-80050000D01*
X104100000Y-82500000D02*
X106000000Y-80600000D01*
X110750000Y-80600000D02*
X116975000Y-74375000D01*
X98140000Y-81700000D02*
X98940000Y-82500000D01*
X106000000Y-80600000D02*
X110750000Y-80600000D01*
X98940000Y-82500000D02*
X104100000Y-82500000D01*
X116975000Y-74375000D02*
X116975000Y-73725000D01*
X98140000Y-80050000D02*
X98140000Y-81700000D01*
%TO.N,/ADC3_IN13*%
X115900000Y-71842463D02*
X116242463Y-71500000D01*
X100472463Y-73830000D02*
X97000000Y-73830000D01*
X94275000Y-71105000D02*
X95780000Y-72610000D01*
X97000000Y-73830000D02*
X95780000Y-72610000D01*
X103390000Y-76747537D02*
X100472463Y-73830000D01*
X103390000Y-76747537D02*
X103442463Y-76800000D01*
X103442463Y-76800000D02*
X112142463Y-76800000D01*
X116242463Y-71500000D02*
X116975000Y-71500000D01*
X112142463Y-76800000D02*
X115900000Y-73042463D01*
X115900000Y-73042463D02*
X115900000Y-71842463D01*
%TO.N,/ADC3_IN8*%
X104700000Y-83100000D02*
X105200000Y-82600000D01*
X94275000Y-78725000D02*
X98650000Y-83100000D01*
X98650000Y-83100000D02*
X104700000Y-83100000D01*
%TO.N,/ADC3_IN6*%
X105400000Y-86000000D02*
X102515000Y-88885000D01*
X102515000Y-88885000D02*
X94275000Y-88885000D01*
%TO.N,/ADC3_IN12*%
X112075000Y-77725000D02*
X113375000Y-76425000D01*
X116957537Y-72600000D02*
X116975000Y-72600000D01*
X98355000Y-77725000D02*
X112075000Y-77725000D01*
X94275000Y-73645000D02*
X98355000Y-77725000D01*
X113375000Y-76425000D02*
X113375000Y-76182537D01*
X113375000Y-76182537D02*
X116957537Y-72600000D01*
%TO.N,/ADC3_IN3*%
X121400000Y-65400000D02*
X119942157Y-66857843D01*
X116984314Y-70900000D02*
X115357537Y-70900000D01*
X110400000Y-75900000D02*
X103300000Y-75900000D01*
X119942157Y-67942157D02*
X116984314Y-70900000D01*
X113100000Y-73157537D02*
X113100000Y-73200000D01*
X103300000Y-75900000D02*
X100440000Y-73040000D01*
X100440000Y-73040000D02*
X98730000Y-73040000D01*
X119942157Y-66857843D02*
X119942157Y-67942157D01*
X94275000Y-68585000D02*
X94275000Y-68565000D01*
X115357537Y-70900000D02*
X113100000Y-73157537D01*
X98730000Y-73040000D02*
X94275000Y-68585000D01*
X113100000Y-73200000D02*
X110400000Y-75900000D01*
%TO.N,/ADC3_IN2*%
X110800000Y-73100000D02*
X104690000Y-73100000D01*
X95885000Y-66025000D02*
X102960000Y-73100000D01*
X94275000Y-66025000D02*
X95885000Y-66025000D01*
X102960000Y-73100000D02*
X104690000Y-73100000D01*
%TD*%
M02*
