%TF.GenerationSoftware,KiCad,Pcbnew,8.0.1-8.0.1-1~ubuntu22.04.1*%
%TF.CreationDate,2024-03-29T11:50:34+01:00*%
%TF.ProjectId,dsp_som,6473705f-736f-46d2-9e6b-696361645f70,1.0*%
%TF.SameCoordinates,Original*%
%TF.FileFunction,Legend,Top*%
%TF.FilePolarity,Positive*%
%FSLAX46Y46*%
G04 Gerber Fmt 4.6, Leading zero omitted, Abs format (unit mm)*
G04 Created by KiCad (PCBNEW 8.0.1-8.0.1-1~ubuntu22.04.1) date 2024-03-29 11:50:34*
%MOMM*%
%LPD*%
G01*
G04 APERTURE LIST*
%ADD10C,0.100000*%
%ADD11C,0.150000*%
%ADD12C,0.120000*%
G04 APERTURE END LIST*
D10*
X104380951Y-77457419D02*
X104380951Y-78171704D01*
X104380951Y-78171704D02*
X104333332Y-78314561D01*
X104333332Y-78314561D02*
X104238094Y-78409800D01*
X104238094Y-78409800D02*
X104095237Y-78457419D01*
X104095237Y-78457419D02*
X103999999Y-78457419D01*
X105333332Y-78457419D02*
X104857142Y-78457419D01*
X104857142Y-78457419D02*
X104857142Y-77457419D01*
X106238094Y-78362180D02*
X106190475Y-78409800D01*
X106190475Y-78409800D02*
X106047618Y-78457419D01*
X106047618Y-78457419D02*
X105952380Y-78457419D01*
X105952380Y-78457419D02*
X105809523Y-78409800D01*
X105809523Y-78409800D02*
X105714285Y-78314561D01*
X105714285Y-78314561D02*
X105666666Y-78219323D01*
X105666666Y-78219323D02*
X105619047Y-78028847D01*
X105619047Y-78028847D02*
X105619047Y-77885990D01*
X105619047Y-77885990D02*
X105666666Y-77695514D01*
X105666666Y-77695514D02*
X105714285Y-77600276D01*
X105714285Y-77600276D02*
X105809523Y-77505038D01*
X105809523Y-77505038D02*
X105952380Y-77457419D01*
X105952380Y-77457419D02*
X106047618Y-77457419D01*
X106047618Y-77457419D02*
X106190475Y-77505038D01*
X106190475Y-77505038D02*
X106238094Y-77552657D01*
X106952380Y-77457419D02*
X106952380Y-78171704D01*
X106952380Y-78171704D02*
X106904761Y-78314561D01*
X106904761Y-78314561D02*
X106809523Y-78409800D01*
X106809523Y-78409800D02*
X106666666Y-78457419D01*
X106666666Y-78457419D02*
X106571428Y-78457419D01*
X107904761Y-78457419D02*
X107428571Y-78457419D01*
X107428571Y-78457419D02*
X107428571Y-77457419D01*
X108809523Y-78362180D02*
X108761904Y-78409800D01*
X108761904Y-78409800D02*
X108619047Y-78457419D01*
X108619047Y-78457419D02*
X108523809Y-78457419D01*
X108523809Y-78457419D02*
X108380952Y-78409800D01*
X108380952Y-78409800D02*
X108285714Y-78314561D01*
X108285714Y-78314561D02*
X108238095Y-78219323D01*
X108238095Y-78219323D02*
X108190476Y-78028847D01*
X108190476Y-78028847D02*
X108190476Y-77885990D01*
X108190476Y-77885990D02*
X108238095Y-77695514D01*
X108238095Y-77695514D02*
X108285714Y-77600276D01*
X108285714Y-77600276D02*
X108380952Y-77505038D01*
X108380952Y-77505038D02*
X108523809Y-77457419D01*
X108523809Y-77457419D02*
X108619047Y-77457419D01*
X108619047Y-77457419D02*
X108761904Y-77505038D01*
X108761904Y-77505038D02*
X108809523Y-77552657D01*
X109523809Y-77457419D02*
X109523809Y-78171704D01*
X109523809Y-78171704D02*
X109476190Y-78314561D01*
X109476190Y-78314561D02*
X109380952Y-78409800D01*
X109380952Y-78409800D02*
X109238095Y-78457419D01*
X109238095Y-78457419D02*
X109142857Y-78457419D01*
X110476190Y-78457419D02*
X110000000Y-78457419D01*
X110000000Y-78457419D02*
X110000000Y-77457419D01*
X111380952Y-78362180D02*
X111333333Y-78409800D01*
X111333333Y-78409800D02*
X111190476Y-78457419D01*
X111190476Y-78457419D02*
X111095238Y-78457419D01*
X111095238Y-78457419D02*
X110952381Y-78409800D01*
X110952381Y-78409800D02*
X110857143Y-78314561D01*
X110857143Y-78314561D02*
X110809524Y-78219323D01*
X110809524Y-78219323D02*
X110761905Y-78028847D01*
X110761905Y-78028847D02*
X110761905Y-77885990D01*
X110761905Y-77885990D02*
X110809524Y-77695514D01*
X110809524Y-77695514D02*
X110857143Y-77600276D01*
X110857143Y-77600276D02*
X110952381Y-77505038D01*
X110952381Y-77505038D02*
X111095238Y-77457419D01*
X111095238Y-77457419D02*
X111190476Y-77457419D01*
X111190476Y-77457419D02*
X111333333Y-77505038D01*
X111333333Y-77505038D02*
X111380952Y-77552657D01*
X112095238Y-77457419D02*
X112095238Y-78171704D01*
X112095238Y-78171704D02*
X112047619Y-78314561D01*
X112047619Y-78314561D02*
X111952381Y-78409800D01*
X111952381Y-78409800D02*
X111809524Y-78457419D01*
X111809524Y-78457419D02*
X111714286Y-78457419D01*
X113047619Y-78457419D02*
X112571429Y-78457419D01*
X112571429Y-78457419D02*
X112571429Y-77457419D01*
X113952381Y-78362180D02*
X113904762Y-78409800D01*
X113904762Y-78409800D02*
X113761905Y-78457419D01*
X113761905Y-78457419D02*
X113666667Y-78457419D01*
X113666667Y-78457419D02*
X113523810Y-78409800D01*
X113523810Y-78409800D02*
X113428572Y-78314561D01*
X113428572Y-78314561D02*
X113380953Y-78219323D01*
X113380953Y-78219323D02*
X113333334Y-78028847D01*
X113333334Y-78028847D02*
X113333334Y-77885990D01*
X113333334Y-77885990D02*
X113380953Y-77695514D01*
X113380953Y-77695514D02*
X113428572Y-77600276D01*
X113428572Y-77600276D02*
X113523810Y-77505038D01*
X113523810Y-77505038D02*
X113666667Y-77457419D01*
X113666667Y-77457419D02*
X113761905Y-77457419D01*
X113761905Y-77457419D02*
X113904762Y-77505038D01*
X113904762Y-77505038D02*
X113952381Y-77552657D01*
X104418633Y-95716666D02*
X104085300Y-95949999D01*
X104418633Y-96116666D02*
X103718633Y-96116666D01*
X103718633Y-96116666D02*
X103718633Y-95849999D01*
X103718633Y-95849999D02*
X103751966Y-95783333D01*
X103751966Y-95783333D02*
X103785300Y-95749999D01*
X103785300Y-95749999D02*
X103851966Y-95716666D01*
X103851966Y-95716666D02*
X103951966Y-95716666D01*
X103951966Y-95716666D02*
X104018633Y-95749999D01*
X104018633Y-95749999D02*
X104051966Y-95783333D01*
X104051966Y-95783333D02*
X104085300Y-95849999D01*
X104085300Y-95849999D02*
X104085300Y-96116666D01*
X103951966Y-95116666D02*
X104418633Y-95116666D01*
X103685300Y-95283333D02*
X104185300Y-95449999D01*
X104185300Y-95449999D02*
X104185300Y-95016666D01*
X126951966Y-81400000D02*
X126985300Y-81433333D01*
X126985300Y-81433333D02*
X127018633Y-81533333D01*
X127018633Y-81533333D02*
X127018633Y-81600000D01*
X127018633Y-81600000D02*
X126985300Y-81700000D01*
X126985300Y-81700000D02*
X126918633Y-81766667D01*
X126918633Y-81766667D02*
X126851966Y-81800000D01*
X126851966Y-81800000D02*
X126718633Y-81833333D01*
X126718633Y-81833333D02*
X126618633Y-81833333D01*
X126618633Y-81833333D02*
X126485300Y-81800000D01*
X126485300Y-81800000D02*
X126418633Y-81766667D01*
X126418633Y-81766667D02*
X126351966Y-81700000D01*
X126351966Y-81700000D02*
X126318633Y-81600000D01*
X126318633Y-81600000D02*
X126318633Y-81533333D01*
X126318633Y-81533333D02*
X126351966Y-81433333D01*
X126351966Y-81433333D02*
X126385300Y-81400000D01*
X126385300Y-81133333D02*
X126351966Y-81100000D01*
X126351966Y-81100000D02*
X126318633Y-81033333D01*
X126318633Y-81033333D02*
X126318633Y-80866667D01*
X126318633Y-80866667D02*
X126351966Y-80800000D01*
X126351966Y-80800000D02*
X126385300Y-80766667D01*
X126385300Y-80766667D02*
X126451966Y-80733333D01*
X126451966Y-80733333D02*
X126518633Y-80733333D01*
X126518633Y-80733333D02*
X126618633Y-80766667D01*
X126618633Y-80766667D02*
X127018633Y-81166667D01*
X127018633Y-81166667D02*
X127018633Y-80733333D01*
X127018633Y-80066666D02*
X127018633Y-80466666D01*
X127018633Y-80266666D02*
X126318633Y-80266666D01*
X126318633Y-80266666D02*
X126418633Y-80333333D01*
X126418633Y-80333333D02*
X126485300Y-80400000D01*
X126485300Y-80400000D02*
X126518633Y-80466666D01*
D11*
X128028628Y-76076190D02*
X128504819Y-76076190D01*
X127504819Y-76409523D02*
X128028628Y-76076190D01*
X128028628Y-76076190D02*
X127504819Y-75742857D01*
X128504819Y-74885714D02*
X128504819Y-75457142D01*
X128504819Y-75171428D02*
X127504819Y-75171428D01*
X127504819Y-75171428D02*
X127647676Y-75266666D01*
X127647676Y-75266666D02*
X127742914Y-75361904D01*
X127742914Y-75361904D02*
X127790533Y-75457142D01*
D10*
X101118633Y-96316666D02*
X100785300Y-96549999D01*
X101118633Y-96716666D02*
X100418633Y-96716666D01*
X100418633Y-96716666D02*
X100418633Y-96449999D01*
X100418633Y-96449999D02*
X100451966Y-96383333D01*
X100451966Y-96383333D02*
X100485300Y-96349999D01*
X100485300Y-96349999D02*
X100551966Y-96316666D01*
X100551966Y-96316666D02*
X100651966Y-96316666D01*
X100651966Y-96316666D02*
X100718633Y-96349999D01*
X100718633Y-96349999D02*
X100751966Y-96383333D01*
X100751966Y-96383333D02*
X100785300Y-96449999D01*
X100785300Y-96449999D02*
X100785300Y-96716666D01*
X100418633Y-96083333D02*
X100418633Y-95649999D01*
X100418633Y-95649999D02*
X100685300Y-95883333D01*
X100685300Y-95883333D02*
X100685300Y-95783333D01*
X100685300Y-95783333D02*
X100718633Y-95716666D01*
X100718633Y-95716666D02*
X100751966Y-95683333D01*
X100751966Y-95683333D02*
X100818633Y-95649999D01*
X100818633Y-95649999D02*
X100985300Y-95649999D01*
X100985300Y-95649999D02*
X101051966Y-95683333D01*
X101051966Y-95683333D02*
X101085300Y-95716666D01*
X101085300Y-95716666D02*
X101118633Y-95783333D01*
X101118633Y-95783333D02*
X101118633Y-95983333D01*
X101118633Y-95983333D02*
X101085300Y-96049999D01*
X101085300Y-96049999D02*
X101051966Y-96083333D01*
X110818633Y-91816666D02*
X110485300Y-92049999D01*
X110818633Y-92216666D02*
X110118633Y-92216666D01*
X110118633Y-92216666D02*
X110118633Y-91949999D01*
X110118633Y-91949999D02*
X110151966Y-91883333D01*
X110151966Y-91883333D02*
X110185300Y-91849999D01*
X110185300Y-91849999D02*
X110251966Y-91816666D01*
X110251966Y-91816666D02*
X110351966Y-91816666D01*
X110351966Y-91816666D02*
X110418633Y-91849999D01*
X110418633Y-91849999D02*
X110451966Y-91883333D01*
X110451966Y-91883333D02*
X110485300Y-91949999D01*
X110485300Y-91949999D02*
X110485300Y-92216666D01*
X110118633Y-91183333D02*
X110118633Y-91516666D01*
X110118633Y-91516666D02*
X110451966Y-91549999D01*
X110451966Y-91549999D02*
X110418633Y-91516666D01*
X110418633Y-91516666D02*
X110385300Y-91449999D01*
X110385300Y-91449999D02*
X110385300Y-91283333D01*
X110385300Y-91283333D02*
X110418633Y-91216666D01*
X110418633Y-91216666D02*
X110451966Y-91183333D01*
X110451966Y-91183333D02*
X110518633Y-91149999D01*
X110518633Y-91149999D02*
X110685300Y-91149999D01*
X110685300Y-91149999D02*
X110751966Y-91183333D01*
X110751966Y-91183333D02*
X110785300Y-91216666D01*
X110785300Y-91216666D02*
X110818633Y-91283333D01*
X110818633Y-91283333D02*
X110818633Y-91449999D01*
X110818633Y-91449999D02*
X110785300Y-91516666D01*
X110785300Y-91516666D02*
X110751966Y-91549999D01*
X127049999Y-73251966D02*
X127016666Y-73285300D01*
X127016666Y-73285300D02*
X126916666Y-73318633D01*
X126916666Y-73318633D02*
X126849999Y-73318633D01*
X126849999Y-73318633D02*
X126749999Y-73285300D01*
X126749999Y-73285300D02*
X126683333Y-73218633D01*
X126683333Y-73218633D02*
X126649999Y-73151966D01*
X126649999Y-73151966D02*
X126616666Y-73018633D01*
X126616666Y-73018633D02*
X126616666Y-72918633D01*
X126616666Y-72918633D02*
X126649999Y-72785300D01*
X126649999Y-72785300D02*
X126683333Y-72718633D01*
X126683333Y-72718633D02*
X126749999Y-72651966D01*
X126749999Y-72651966D02*
X126849999Y-72618633D01*
X126849999Y-72618633D02*
X126916666Y-72618633D01*
X126916666Y-72618633D02*
X127016666Y-72651966D01*
X127016666Y-72651966D02*
X127049999Y-72685300D01*
X127716666Y-73318633D02*
X127316666Y-73318633D01*
X127516666Y-73318633D02*
X127516666Y-72618633D01*
X127516666Y-72618633D02*
X127449999Y-72718633D01*
X127449999Y-72718633D02*
X127383333Y-72785300D01*
X127383333Y-72785300D02*
X127316666Y-72818633D01*
X128050000Y-73318633D02*
X128183333Y-73318633D01*
X128183333Y-73318633D02*
X128250000Y-73285300D01*
X128250000Y-73285300D02*
X128283333Y-73251966D01*
X128283333Y-73251966D02*
X128350000Y-73151966D01*
X128350000Y-73151966D02*
X128383333Y-73018633D01*
X128383333Y-73018633D02*
X128383333Y-72751966D01*
X128383333Y-72751966D02*
X128350000Y-72685300D01*
X128350000Y-72685300D02*
X128316666Y-72651966D01*
X128316666Y-72651966D02*
X128250000Y-72618633D01*
X128250000Y-72618633D02*
X128116666Y-72618633D01*
X128116666Y-72618633D02*
X128050000Y-72651966D01*
X128050000Y-72651966D02*
X128016666Y-72685300D01*
X128016666Y-72685300D02*
X127983333Y-72751966D01*
X127983333Y-72751966D02*
X127983333Y-72918633D01*
X127983333Y-72918633D02*
X128016666Y-72985300D01*
X128016666Y-72985300D02*
X128050000Y-73018633D01*
X128050000Y-73018633D02*
X128116666Y-73051966D01*
X128116666Y-73051966D02*
X128250000Y-73051966D01*
X128250000Y-73051966D02*
X128316666Y-73018633D01*
X128316666Y-73018633D02*
X128350000Y-72985300D01*
X128350000Y-72985300D02*
X128383333Y-72918633D01*
D11*
X105832142Y-96759580D02*
X105784523Y-96807200D01*
X105784523Y-96807200D02*
X105641666Y-96854819D01*
X105641666Y-96854819D02*
X105546428Y-96854819D01*
X105546428Y-96854819D02*
X105403571Y-96807200D01*
X105403571Y-96807200D02*
X105308333Y-96711961D01*
X105308333Y-96711961D02*
X105260714Y-96616723D01*
X105260714Y-96616723D02*
X105213095Y-96426247D01*
X105213095Y-96426247D02*
X105213095Y-96283390D01*
X105213095Y-96283390D02*
X105260714Y-96092914D01*
X105260714Y-96092914D02*
X105308333Y-95997676D01*
X105308333Y-95997676D02*
X105403571Y-95902438D01*
X105403571Y-95902438D02*
X105546428Y-95854819D01*
X105546428Y-95854819D02*
X105641666Y-95854819D01*
X105641666Y-95854819D02*
X105784523Y-95902438D01*
X105784523Y-95902438D02*
X105832142Y-95950057D01*
X106165476Y-95854819D02*
X106784523Y-95854819D01*
X106784523Y-95854819D02*
X106451190Y-96235771D01*
X106451190Y-96235771D02*
X106594047Y-96235771D01*
X106594047Y-96235771D02*
X106689285Y-96283390D01*
X106689285Y-96283390D02*
X106736904Y-96331009D01*
X106736904Y-96331009D02*
X106784523Y-96426247D01*
X106784523Y-96426247D02*
X106784523Y-96664342D01*
X106784523Y-96664342D02*
X106736904Y-96759580D01*
X106736904Y-96759580D02*
X106689285Y-96807200D01*
X106689285Y-96807200D02*
X106594047Y-96854819D01*
X106594047Y-96854819D02*
X106308333Y-96854819D01*
X106308333Y-96854819D02*
X106213095Y-96807200D01*
X106213095Y-96807200D02*
X106165476Y-96759580D01*
X107117857Y-95854819D02*
X107736904Y-95854819D01*
X107736904Y-95854819D02*
X107403571Y-96235771D01*
X107403571Y-96235771D02*
X107546428Y-96235771D01*
X107546428Y-96235771D02*
X107641666Y-96283390D01*
X107641666Y-96283390D02*
X107689285Y-96331009D01*
X107689285Y-96331009D02*
X107736904Y-96426247D01*
X107736904Y-96426247D02*
X107736904Y-96664342D01*
X107736904Y-96664342D02*
X107689285Y-96759580D01*
X107689285Y-96759580D02*
X107641666Y-96807200D01*
X107641666Y-96807200D02*
X107546428Y-96854819D01*
X107546428Y-96854819D02*
X107260714Y-96854819D01*
X107260714Y-96854819D02*
X107165476Y-96807200D01*
X107165476Y-96807200D02*
X107117857Y-96759580D01*
D10*
X121983333Y-76518633D02*
X121750000Y-76185300D01*
X121583333Y-76518633D02*
X121583333Y-75818633D01*
X121583333Y-75818633D02*
X121850000Y-75818633D01*
X121850000Y-75818633D02*
X121916667Y-75851966D01*
X121916667Y-75851966D02*
X121950000Y-75885300D01*
X121950000Y-75885300D02*
X121983333Y-75951966D01*
X121983333Y-75951966D02*
X121983333Y-76051966D01*
X121983333Y-76051966D02*
X121950000Y-76118633D01*
X121950000Y-76118633D02*
X121916667Y-76151966D01*
X121916667Y-76151966D02*
X121850000Y-76185300D01*
X121850000Y-76185300D02*
X121583333Y-76185300D01*
X122650000Y-76518633D02*
X122250000Y-76518633D01*
X122450000Y-76518633D02*
X122450000Y-75818633D01*
X122450000Y-75818633D02*
X122383333Y-75918633D01*
X122383333Y-75918633D02*
X122316667Y-75985300D01*
X122316667Y-75985300D02*
X122250000Y-76018633D01*
D11*
X121878628Y-82476190D02*
X122354819Y-82476190D01*
X121354819Y-82809523D02*
X121878628Y-82476190D01*
X121878628Y-82476190D02*
X121354819Y-82142857D01*
X121354819Y-81904761D02*
X121354819Y-81285714D01*
X121354819Y-81285714D02*
X121735771Y-81619047D01*
X121735771Y-81619047D02*
X121735771Y-81476190D01*
X121735771Y-81476190D02*
X121783390Y-81380952D01*
X121783390Y-81380952D02*
X121831009Y-81333333D01*
X121831009Y-81333333D02*
X121926247Y-81285714D01*
X121926247Y-81285714D02*
X122164342Y-81285714D01*
X122164342Y-81285714D02*
X122259580Y-81333333D01*
X122259580Y-81333333D02*
X122307200Y-81380952D01*
X122307200Y-81380952D02*
X122354819Y-81476190D01*
X122354819Y-81476190D02*
X122354819Y-81761904D01*
X122354819Y-81761904D02*
X122307200Y-81857142D01*
X122307200Y-81857142D02*
X122259580Y-81904761D01*
D10*
X107818633Y-93466666D02*
X107485300Y-93699999D01*
X107818633Y-93866666D02*
X107118633Y-93866666D01*
X107118633Y-93866666D02*
X107118633Y-93599999D01*
X107118633Y-93599999D02*
X107151966Y-93533333D01*
X107151966Y-93533333D02*
X107185300Y-93499999D01*
X107185300Y-93499999D02*
X107251966Y-93466666D01*
X107251966Y-93466666D02*
X107351966Y-93466666D01*
X107351966Y-93466666D02*
X107418633Y-93499999D01*
X107418633Y-93499999D02*
X107451966Y-93533333D01*
X107451966Y-93533333D02*
X107485300Y-93599999D01*
X107485300Y-93599999D02*
X107485300Y-93866666D01*
X107118633Y-92866666D02*
X107118633Y-92999999D01*
X107118633Y-92999999D02*
X107151966Y-93066666D01*
X107151966Y-93066666D02*
X107185300Y-93099999D01*
X107185300Y-93099999D02*
X107285300Y-93166666D01*
X107285300Y-93166666D02*
X107418633Y-93199999D01*
X107418633Y-93199999D02*
X107685300Y-93199999D01*
X107685300Y-93199999D02*
X107751966Y-93166666D01*
X107751966Y-93166666D02*
X107785300Y-93133333D01*
X107785300Y-93133333D02*
X107818633Y-93066666D01*
X107818633Y-93066666D02*
X107818633Y-92933333D01*
X107818633Y-92933333D02*
X107785300Y-92866666D01*
X107785300Y-92866666D02*
X107751966Y-92833333D01*
X107751966Y-92833333D02*
X107685300Y-92799999D01*
X107685300Y-92799999D02*
X107518633Y-92799999D01*
X107518633Y-92799999D02*
X107451966Y-92833333D01*
X107451966Y-92833333D02*
X107418633Y-92866666D01*
X107418633Y-92866666D02*
X107385300Y-92933333D01*
X107385300Y-92933333D02*
X107385300Y-93066666D01*
X107385300Y-93066666D02*
X107418633Y-93133333D01*
X107418633Y-93133333D02*
X107451966Y-93166666D01*
X107451966Y-93166666D02*
X107518633Y-93199999D01*
D11*
X96454819Y-64461904D02*
X97264342Y-64461904D01*
X97264342Y-64461904D02*
X97359580Y-64414285D01*
X97359580Y-64414285D02*
X97407200Y-64366666D01*
X97407200Y-64366666D02*
X97454819Y-64271428D01*
X97454819Y-64271428D02*
X97454819Y-64080952D01*
X97454819Y-64080952D02*
X97407200Y-63985714D01*
X97407200Y-63985714D02*
X97359580Y-63938095D01*
X97359580Y-63938095D02*
X97264342Y-63890476D01*
X97264342Y-63890476D02*
X96454819Y-63890476D01*
X97454819Y-62890476D02*
X97454819Y-63461904D01*
X97454819Y-63176190D02*
X96454819Y-63176190D01*
X96454819Y-63176190D02*
X96597676Y-63271428D01*
X96597676Y-63271428D02*
X96692914Y-63366666D01*
X96692914Y-63366666D02*
X96740533Y-63461904D01*
X103284819Y-105761904D02*
X104094342Y-105761904D01*
X104094342Y-105761904D02*
X104189580Y-105714285D01*
X104189580Y-105714285D02*
X104237200Y-105666666D01*
X104237200Y-105666666D02*
X104284819Y-105571428D01*
X104284819Y-105571428D02*
X104284819Y-105380952D01*
X104284819Y-105380952D02*
X104237200Y-105285714D01*
X104237200Y-105285714D02*
X104189580Y-105238095D01*
X104189580Y-105238095D02*
X104094342Y-105190476D01*
X104094342Y-105190476D02*
X103284819Y-105190476D01*
X103380057Y-104761904D02*
X103332438Y-104714285D01*
X103332438Y-104714285D02*
X103284819Y-104619047D01*
X103284819Y-104619047D02*
X103284819Y-104380952D01*
X103284819Y-104380952D02*
X103332438Y-104285714D01*
X103332438Y-104285714D02*
X103380057Y-104238095D01*
X103380057Y-104238095D02*
X103475295Y-104190476D01*
X103475295Y-104190476D02*
X103570533Y-104190476D01*
X103570533Y-104190476D02*
X103713390Y-104238095D01*
X103713390Y-104238095D02*
X104284819Y-104809523D01*
X104284819Y-104809523D02*
X104284819Y-104190476D01*
X98366666Y-99181009D02*
X98033333Y-99181009D01*
X98033333Y-99704819D02*
X98033333Y-98704819D01*
X98033333Y-98704819D02*
X98509523Y-98704819D01*
X99223809Y-99181009D02*
X99366666Y-99228628D01*
X99366666Y-99228628D02*
X99414285Y-99276247D01*
X99414285Y-99276247D02*
X99461904Y-99371485D01*
X99461904Y-99371485D02*
X99461904Y-99514342D01*
X99461904Y-99514342D02*
X99414285Y-99609580D01*
X99414285Y-99609580D02*
X99366666Y-99657200D01*
X99366666Y-99657200D02*
X99271428Y-99704819D01*
X99271428Y-99704819D02*
X98890476Y-99704819D01*
X98890476Y-99704819D02*
X98890476Y-98704819D01*
X98890476Y-98704819D02*
X99223809Y-98704819D01*
X99223809Y-98704819D02*
X99319047Y-98752438D01*
X99319047Y-98752438D02*
X99366666Y-98800057D01*
X99366666Y-98800057D02*
X99414285Y-98895295D01*
X99414285Y-98895295D02*
X99414285Y-98990533D01*
X99414285Y-98990533D02*
X99366666Y-99085771D01*
X99366666Y-99085771D02*
X99319047Y-99133390D01*
X99319047Y-99133390D02*
X99223809Y-99181009D01*
X99223809Y-99181009D02*
X98890476Y-99181009D01*
X100414285Y-99704819D02*
X99842857Y-99704819D01*
X100128571Y-99704819D02*
X100128571Y-98704819D01*
X100128571Y-98704819D02*
X100033333Y-98847676D01*
X100033333Y-98847676D02*
X99938095Y-98942914D01*
X99938095Y-98942914D02*
X99842857Y-98990533D01*
X105238095Y-102654819D02*
X105238095Y-103464342D01*
X105238095Y-103464342D02*
X105285714Y-103559580D01*
X105285714Y-103559580D02*
X105333333Y-103607200D01*
X105333333Y-103607200D02*
X105428571Y-103654819D01*
X105428571Y-103654819D02*
X105619047Y-103654819D01*
X105619047Y-103654819D02*
X105714285Y-103607200D01*
X105714285Y-103607200D02*
X105761904Y-103559580D01*
X105761904Y-103559580D02*
X105809523Y-103464342D01*
X105809523Y-103464342D02*
X105809523Y-102654819D01*
X106714285Y-102988152D02*
X106714285Y-103654819D01*
X106476190Y-102607200D02*
X106238095Y-103321485D01*
X106238095Y-103321485D02*
X106857142Y-103321485D01*
D10*
X109118633Y-103216666D02*
X108785300Y-103449999D01*
X109118633Y-103616666D02*
X108418633Y-103616666D01*
X108418633Y-103616666D02*
X108418633Y-103349999D01*
X108418633Y-103349999D02*
X108451966Y-103283333D01*
X108451966Y-103283333D02*
X108485300Y-103249999D01*
X108485300Y-103249999D02*
X108551966Y-103216666D01*
X108551966Y-103216666D02*
X108651966Y-103216666D01*
X108651966Y-103216666D02*
X108718633Y-103249999D01*
X108718633Y-103249999D02*
X108751966Y-103283333D01*
X108751966Y-103283333D02*
X108785300Y-103349999D01*
X108785300Y-103349999D02*
X108785300Y-103616666D01*
X108718633Y-102816666D02*
X108685300Y-102883333D01*
X108685300Y-102883333D02*
X108651966Y-102916666D01*
X108651966Y-102916666D02*
X108585300Y-102949999D01*
X108585300Y-102949999D02*
X108551966Y-102949999D01*
X108551966Y-102949999D02*
X108485300Y-102916666D01*
X108485300Y-102916666D02*
X108451966Y-102883333D01*
X108451966Y-102883333D02*
X108418633Y-102816666D01*
X108418633Y-102816666D02*
X108418633Y-102683333D01*
X108418633Y-102683333D02*
X108451966Y-102616666D01*
X108451966Y-102616666D02*
X108485300Y-102583333D01*
X108485300Y-102583333D02*
X108551966Y-102549999D01*
X108551966Y-102549999D02*
X108585300Y-102549999D01*
X108585300Y-102549999D02*
X108651966Y-102583333D01*
X108651966Y-102583333D02*
X108685300Y-102616666D01*
X108685300Y-102616666D02*
X108718633Y-102683333D01*
X108718633Y-102683333D02*
X108718633Y-102816666D01*
X108718633Y-102816666D02*
X108751966Y-102883333D01*
X108751966Y-102883333D02*
X108785300Y-102916666D01*
X108785300Y-102916666D02*
X108851966Y-102949999D01*
X108851966Y-102949999D02*
X108985300Y-102949999D01*
X108985300Y-102949999D02*
X109051966Y-102916666D01*
X109051966Y-102916666D02*
X109085300Y-102883333D01*
X109085300Y-102883333D02*
X109118633Y-102816666D01*
X109118633Y-102816666D02*
X109118633Y-102683333D01*
X109118633Y-102683333D02*
X109085300Y-102616666D01*
X109085300Y-102616666D02*
X109051966Y-102583333D01*
X109051966Y-102583333D02*
X108985300Y-102549999D01*
X108985300Y-102549999D02*
X108851966Y-102549999D01*
X108851966Y-102549999D02*
X108785300Y-102583333D01*
X108785300Y-102583333D02*
X108751966Y-102616666D01*
X108751966Y-102616666D02*
X108718633Y-102683333D01*
X126951966Y-83470000D02*
X126985300Y-83503333D01*
X126985300Y-83503333D02*
X127018633Y-83603333D01*
X127018633Y-83603333D02*
X127018633Y-83670000D01*
X127018633Y-83670000D02*
X126985300Y-83770000D01*
X126985300Y-83770000D02*
X126918633Y-83836667D01*
X126918633Y-83836667D02*
X126851966Y-83870000D01*
X126851966Y-83870000D02*
X126718633Y-83903333D01*
X126718633Y-83903333D02*
X126618633Y-83903333D01*
X126618633Y-83903333D02*
X126485300Y-83870000D01*
X126485300Y-83870000D02*
X126418633Y-83836667D01*
X126418633Y-83836667D02*
X126351966Y-83770000D01*
X126351966Y-83770000D02*
X126318633Y-83670000D01*
X126318633Y-83670000D02*
X126318633Y-83603333D01*
X126318633Y-83603333D02*
X126351966Y-83503333D01*
X126351966Y-83503333D02*
X126385300Y-83470000D01*
X126385300Y-83203333D02*
X126351966Y-83170000D01*
X126351966Y-83170000D02*
X126318633Y-83103333D01*
X126318633Y-83103333D02*
X126318633Y-82936667D01*
X126318633Y-82936667D02*
X126351966Y-82870000D01*
X126351966Y-82870000D02*
X126385300Y-82836667D01*
X126385300Y-82836667D02*
X126451966Y-82803333D01*
X126451966Y-82803333D02*
X126518633Y-82803333D01*
X126518633Y-82803333D02*
X126618633Y-82836667D01*
X126618633Y-82836667D02*
X127018633Y-83236667D01*
X127018633Y-83236667D02*
X127018633Y-82803333D01*
X126318633Y-82370000D02*
X126318633Y-82303333D01*
X126318633Y-82303333D02*
X126351966Y-82236666D01*
X126351966Y-82236666D02*
X126385300Y-82203333D01*
X126385300Y-82203333D02*
X126451966Y-82170000D01*
X126451966Y-82170000D02*
X126585300Y-82136666D01*
X126585300Y-82136666D02*
X126751966Y-82136666D01*
X126751966Y-82136666D02*
X126885300Y-82170000D01*
X126885300Y-82170000D02*
X126951966Y-82203333D01*
X126951966Y-82203333D02*
X126985300Y-82236666D01*
X126985300Y-82236666D02*
X127018633Y-82303333D01*
X127018633Y-82303333D02*
X127018633Y-82370000D01*
X127018633Y-82370000D02*
X126985300Y-82436666D01*
X126985300Y-82436666D02*
X126951966Y-82470000D01*
X126951966Y-82470000D02*
X126885300Y-82503333D01*
X126885300Y-82503333D02*
X126751966Y-82536666D01*
X126751966Y-82536666D02*
X126585300Y-82536666D01*
X126585300Y-82536666D02*
X126451966Y-82503333D01*
X126451966Y-82503333D02*
X126385300Y-82470000D01*
X126385300Y-82470000D02*
X126351966Y-82436666D01*
X126351966Y-82436666D02*
X126318633Y-82370000D01*
X127049999Y-78451966D02*
X127016666Y-78485300D01*
X127016666Y-78485300D02*
X126916666Y-78518633D01*
X126916666Y-78518633D02*
X126849999Y-78518633D01*
X126849999Y-78518633D02*
X126749999Y-78485300D01*
X126749999Y-78485300D02*
X126683333Y-78418633D01*
X126683333Y-78418633D02*
X126649999Y-78351966D01*
X126649999Y-78351966D02*
X126616666Y-78218633D01*
X126616666Y-78218633D02*
X126616666Y-78118633D01*
X126616666Y-78118633D02*
X126649999Y-77985300D01*
X126649999Y-77985300D02*
X126683333Y-77918633D01*
X126683333Y-77918633D02*
X126749999Y-77851966D01*
X126749999Y-77851966D02*
X126849999Y-77818633D01*
X126849999Y-77818633D02*
X126916666Y-77818633D01*
X126916666Y-77818633D02*
X127016666Y-77851966D01*
X127016666Y-77851966D02*
X127049999Y-77885300D01*
X127716666Y-78518633D02*
X127316666Y-78518633D01*
X127516666Y-78518633D02*
X127516666Y-77818633D01*
X127516666Y-77818633D02*
X127449999Y-77918633D01*
X127449999Y-77918633D02*
X127383333Y-77985300D01*
X127383333Y-77985300D02*
X127316666Y-78018633D01*
X128116666Y-78118633D02*
X128050000Y-78085300D01*
X128050000Y-78085300D02*
X128016666Y-78051966D01*
X128016666Y-78051966D02*
X127983333Y-77985300D01*
X127983333Y-77985300D02*
X127983333Y-77951966D01*
X127983333Y-77951966D02*
X128016666Y-77885300D01*
X128016666Y-77885300D02*
X128050000Y-77851966D01*
X128050000Y-77851966D02*
X128116666Y-77818633D01*
X128116666Y-77818633D02*
X128250000Y-77818633D01*
X128250000Y-77818633D02*
X128316666Y-77851966D01*
X128316666Y-77851966D02*
X128350000Y-77885300D01*
X128350000Y-77885300D02*
X128383333Y-77951966D01*
X128383333Y-77951966D02*
X128383333Y-77985300D01*
X128383333Y-77985300D02*
X128350000Y-78051966D01*
X128350000Y-78051966D02*
X128316666Y-78085300D01*
X128316666Y-78085300D02*
X128250000Y-78118633D01*
X128250000Y-78118633D02*
X128116666Y-78118633D01*
X128116666Y-78118633D02*
X128050000Y-78151966D01*
X128050000Y-78151966D02*
X128016666Y-78185300D01*
X128016666Y-78185300D02*
X127983333Y-78251966D01*
X127983333Y-78251966D02*
X127983333Y-78385300D01*
X127983333Y-78385300D02*
X128016666Y-78451966D01*
X128016666Y-78451966D02*
X128050000Y-78485300D01*
X128050000Y-78485300D02*
X128116666Y-78518633D01*
X128116666Y-78518633D02*
X128250000Y-78518633D01*
X128250000Y-78518633D02*
X128316666Y-78485300D01*
X128316666Y-78485300D02*
X128350000Y-78451966D01*
X128350000Y-78451966D02*
X128383333Y-78385300D01*
X128383333Y-78385300D02*
X128383333Y-78251966D01*
X128383333Y-78251966D02*
X128350000Y-78185300D01*
X128350000Y-78185300D02*
X128316666Y-78151966D01*
X128316666Y-78151966D02*
X128250000Y-78118633D01*
D11*
X124666666Y-57949819D02*
X124666666Y-58664104D01*
X124666666Y-58664104D02*
X124619047Y-58806961D01*
X124619047Y-58806961D02*
X124523809Y-58902200D01*
X124523809Y-58902200D02*
X124380952Y-58949819D01*
X124380952Y-58949819D02*
X124285714Y-58949819D01*
X125095238Y-58045057D02*
X125142857Y-57997438D01*
X125142857Y-57997438D02*
X125238095Y-57949819D01*
X125238095Y-57949819D02*
X125476190Y-57949819D01*
X125476190Y-57949819D02*
X125571428Y-57997438D01*
X125571428Y-57997438D02*
X125619047Y-58045057D01*
X125619047Y-58045057D02*
X125666666Y-58140295D01*
X125666666Y-58140295D02*
X125666666Y-58235533D01*
X125666666Y-58235533D02*
X125619047Y-58378390D01*
X125619047Y-58378390D02*
X125047619Y-58949819D01*
X125047619Y-58949819D02*
X125666666Y-58949819D01*
X99483333Y-101109580D02*
X99435714Y-101157200D01*
X99435714Y-101157200D02*
X99292857Y-101204819D01*
X99292857Y-101204819D02*
X99197619Y-101204819D01*
X99197619Y-101204819D02*
X99054762Y-101157200D01*
X99054762Y-101157200D02*
X98959524Y-101061961D01*
X98959524Y-101061961D02*
X98911905Y-100966723D01*
X98911905Y-100966723D02*
X98864286Y-100776247D01*
X98864286Y-100776247D02*
X98864286Y-100633390D01*
X98864286Y-100633390D02*
X98911905Y-100442914D01*
X98911905Y-100442914D02*
X98959524Y-100347676D01*
X98959524Y-100347676D02*
X99054762Y-100252438D01*
X99054762Y-100252438D02*
X99197619Y-100204819D01*
X99197619Y-100204819D02*
X99292857Y-100204819D01*
X99292857Y-100204819D02*
X99435714Y-100252438D01*
X99435714Y-100252438D02*
X99483333Y-100300057D01*
X100435714Y-101204819D02*
X99864286Y-101204819D01*
X100150000Y-101204819D02*
X100150000Y-100204819D01*
X100150000Y-100204819D02*
X100054762Y-100347676D01*
X100054762Y-100347676D02*
X99959524Y-100442914D01*
X99959524Y-100442914D02*
X99864286Y-100490533D01*
X113466666Y-108454819D02*
X113466666Y-109169104D01*
X113466666Y-109169104D02*
X113419047Y-109311961D01*
X113419047Y-109311961D02*
X113323809Y-109407200D01*
X113323809Y-109407200D02*
X113180952Y-109454819D01*
X113180952Y-109454819D02*
X113085714Y-109454819D01*
X114466666Y-109454819D02*
X113895238Y-109454819D01*
X114180952Y-109454819D02*
X114180952Y-108454819D01*
X114180952Y-108454819D02*
X114085714Y-108597676D01*
X114085714Y-108597676D02*
X113990476Y-108692914D01*
X113990476Y-108692914D02*
X113895238Y-108740533D01*
X110159580Y-101492857D02*
X110207200Y-101540476D01*
X110207200Y-101540476D02*
X110254819Y-101683333D01*
X110254819Y-101683333D02*
X110254819Y-101778571D01*
X110254819Y-101778571D02*
X110207200Y-101921428D01*
X110207200Y-101921428D02*
X110111961Y-102016666D01*
X110111961Y-102016666D02*
X110016723Y-102064285D01*
X110016723Y-102064285D02*
X109826247Y-102111904D01*
X109826247Y-102111904D02*
X109683390Y-102111904D01*
X109683390Y-102111904D02*
X109492914Y-102064285D01*
X109492914Y-102064285D02*
X109397676Y-102016666D01*
X109397676Y-102016666D02*
X109302438Y-101921428D01*
X109302438Y-101921428D02*
X109254819Y-101778571D01*
X109254819Y-101778571D02*
X109254819Y-101683333D01*
X109254819Y-101683333D02*
X109302438Y-101540476D01*
X109302438Y-101540476D02*
X109350057Y-101492857D01*
X109254819Y-101159523D02*
X109254819Y-100540476D01*
X109254819Y-100540476D02*
X109635771Y-100873809D01*
X109635771Y-100873809D02*
X109635771Y-100730952D01*
X109635771Y-100730952D02*
X109683390Y-100635714D01*
X109683390Y-100635714D02*
X109731009Y-100588095D01*
X109731009Y-100588095D02*
X109826247Y-100540476D01*
X109826247Y-100540476D02*
X110064342Y-100540476D01*
X110064342Y-100540476D02*
X110159580Y-100588095D01*
X110159580Y-100588095D02*
X110207200Y-100635714D01*
X110207200Y-100635714D02*
X110254819Y-100730952D01*
X110254819Y-100730952D02*
X110254819Y-101016666D01*
X110254819Y-101016666D02*
X110207200Y-101111904D01*
X110207200Y-101111904D02*
X110159580Y-101159523D01*
X109588152Y-99683333D02*
X110254819Y-99683333D01*
X109207200Y-99921428D02*
X109921485Y-100159523D01*
X109921485Y-100159523D02*
X109921485Y-99540476D01*
X118938095Y-88454819D02*
X118938095Y-89264342D01*
X118938095Y-89264342D02*
X118985714Y-89359580D01*
X118985714Y-89359580D02*
X119033333Y-89407200D01*
X119033333Y-89407200D02*
X119128571Y-89454819D01*
X119128571Y-89454819D02*
X119319047Y-89454819D01*
X119319047Y-89454819D02*
X119414285Y-89407200D01*
X119414285Y-89407200D02*
X119461904Y-89359580D01*
X119461904Y-89359580D02*
X119509523Y-89264342D01*
X119509523Y-89264342D02*
X119509523Y-88454819D01*
X120461904Y-88454819D02*
X119985714Y-88454819D01*
X119985714Y-88454819D02*
X119938095Y-88931009D01*
X119938095Y-88931009D02*
X119985714Y-88883390D01*
X119985714Y-88883390D02*
X120080952Y-88835771D01*
X120080952Y-88835771D02*
X120319047Y-88835771D01*
X120319047Y-88835771D02*
X120414285Y-88883390D01*
X120414285Y-88883390D02*
X120461904Y-88931009D01*
X120461904Y-88931009D02*
X120509523Y-89026247D01*
X120509523Y-89026247D02*
X120509523Y-89264342D01*
X120509523Y-89264342D02*
X120461904Y-89359580D01*
X120461904Y-89359580D02*
X120414285Y-89407200D01*
X120414285Y-89407200D02*
X120319047Y-89454819D01*
X120319047Y-89454819D02*
X120080952Y-89454819D01*
X120080952Y-89454819D02*
X119985714Y-89407200D01*
X119985714Y-89407200D02*
X119938095Y-89359580D01*
D10*
X104518633Y-94066666D02*
X104185300Y-94299999D01*
X104518633Y-94466666D02*
X103818633Y-94466666D01*
X103818633Y-94466666D02*
X103818633Y-94199999D01*
X103818633Y-94199999D02*
X103851966Y-94133333D01*
X103851966Y-94133333D02*
X103885300Y-94099999D01*
X103885300Y-94099999D02*
X103951966Y-94066666D01*
X103951966Y-94066666D02*
X104051966Y-94066666D01*
X104051966Y-94066666D02*
X104118633Y-94099999D01*
X104118633Y-94099999D02*
X104151966Y-94133333D01*
X104151966Y-94133333D02*
X104185300Y-94199999D01*
X104185300Y-94199999D02*
X104185300Y-94466666D01*
X103818633Y-93833333D02*
X103818633Y-93366666D01*
X103818633Y-93366666D02*
X104518633Y-93666666D01*
X109118633Y-105416666D02*
X108785300Y-105649999D01*
X109118633Y-105816666D02*
X108418633Y-105816666D01*
X108418633Y-105816666D02*
X108418633Y-105549999D01*
X108418633Y-105549999D02*
X108451966Y-105483333D01*
X108451966Y-105483333D02*
X108485300Y-105449999D01*
X108485300Y-105449999D02*
X108551966Y-105416666D01*
X108551966Y-105416666D02*
X108651966Y-105416666D01*
X108651966Y-105416666D02*
X108718633Y-105449999D01*
X108718633Y-105449999D02*
X108751966Y-105483333D01*
X108751966Y-105483333D02*
X108785300Y-105549999D01*
X108785300Y-105549999D02*
X108785300Y-105816666D01*
X109118633Y-105083333D02*
X109118633Y-104949999D01*
X109118633Y-104949999D02*
X109085300Y-104883333D01*
X109085300Y-104883333D02*
X109051966Y-104849999D01*
X109051966Y-104849999D02*
X108951966Y-104783333D01*
X108951966Y-104783333D02*
X108818633Y-104749999D01*
X108818633Y-104749999D02*
X108551966Y-104749999D01*
X108551966Y-104749999D02*
X108485300Y-104783333D01*
X108485300Y-104783333D02*
X108451966Y-104816666D01*
X108451966Y-104816666D02*
X108418633Y-104883333D01*
X108418633Y-104883333D02*
X108418633Y-105016666D01*
X108418633Y-105016666D02*
X108451966Y-105083333D01*
X108451966Y-105083333D02*
X108485300Y-105116666D01*
X108485300Y-105116666D02*
X108551966Y-105149999D01*
X108551966Y-105149999D02*
X108718633Y-105149999D01*
X108718633Y-105149999D02*
X108785300Y-105116666D01*
X108785300Y-105116666D02*
X108818633Y-105083333D01*
X108818633Y-105083333D02*
X108851966Y-105016666D01*
X108851966Y-105016666D02*
X108851966Y-104883333D01*
X108851966Y-104883333D02*
X108818633Y-104816666D01*
X108818633Y-104816666D02*
X108785300Y-104783333D01*
X108785300Y-104783333D02*
X108718633Y-104749999D01*
X118358333Y-92718633D02*
X118125000Y-92385300D01*
X117958333Y-92718633D02*
X117958333Y-92018633D01*
X117958333Y-92018633D02*
X118225000Y-92018633D01*
X118225000Y-92018633D02*
X118291667Y-92051966D01*
X118291667Y-92051966D02*
X118325000Y-92085300D01*
X118325000Y-92085300D02*
X118358333Y-92151966D01*
X118358333Y-92151966D02*
X118358333Y-92251966D01*
X118358333Y-92251966D02*
X118325000Y-92318633D01*
X118325000Y-92318633D02*
X118291667Y-92351966D01*
X118291667Y-92351966D02*
X118225000Y-92385300D01*
X118225000Y-92385300D02*
X117958333Y-92385300D01*
X118625000Y-92085300D02*
X118658333Y-92051966D01*
X118658333Y-92051966D02*
X118725000Y-92018633D01*
X118725000Y-92018633D02*
X118891667Y-92018633D01*
X118891667Y-92018633D02*
X118958333Y-92051966D01*
X118958333Y-92051966D02*
X118991667Y-92085300D01*
X118991667Y-92085300D02*
X119025000Y-92151966D01*
X119025000Y-92151966D02*
X119025000Y-92218633D01*
X119025000Y-92218633D02*
X118991667Y-92318633D01*
X118991667Y-92318633D02*
X118591667Y-92718633D01*
X118591667Y-92718633D02*
X119025000Y-92718633D01*
D12*
%TO.C,R4*%
X102770000Y-95753641D02*
X102770000Y-95446359D01*
X103530000Y-95753641D02*
X103530000Y-95446359D01*
%TO.C,C21*%
X125390000Y-80842164D02*
X125390000Y-81057836D01*
X126110000Y-80842164D02*
X126110000Y-81057836D01*
%TO.C,*%
X123013738Y-59027416D02*
X122673738Y-58557416D01*
X123353738Y-58557416D01*
X123013738Y-59027416D01*
G36*
X123013738Y-59027416D02*
G01*
X122673738Y-58557416D01*
X123353738Y-58557416D01*
X123013738Y-59027416D01*
G37*
%TO.C,Y1*%
X124000000Y-73650000D02*
X124000000Y-77550000D01*
X127200000Y-73650000D02*
X124000000Y-73650000D01*
%TO.C,R3*%
X101270000Y-96046359D02*
X101270000Y-96353641D01*
X102030000Y-96046359D02*
X102030000Y-96353641D01*
%TO.C,R5*%
X110970000Y-91853641D02*
X110970000Y-91546359D01*
X111730000Y-91853641D02*
X111730000Y-91546359D01*
%TO.C,C19*%
X125707836Y-72640000D02*
X125492164Y-72640000D01*
X125707836Y-73360000D02*
X125492164Y-73360000D01*
%TO.C,C33*%
X106615580Y-97090000D02*
X106334420Y-97090000D01*
X106615580Y-98110000D02*
X106334420Y-98110000D01*
%TO.C,R1*%
X122253641Y-74870000D02*
X121946359Y-74870000D01*
X122253641Y-75630000D02*
X121946359Y-75630000D01*
%TO.C,Y3*%
X123025000Y-82675000D02*
X123025000Y-81325000D01*
X124775000Y-82675000D02*
X124775000Y-81325000D01*
%TO.C,R6*%
X106220000Y-93503641D02*
X106220000Y-93196359D01*
X106980000Y-93503641D02*
X106980000Y-93196359D01*
%TO.C,U1*%
X97700000Y-52700000D02*
X98100000Y-52700000D01*
X97700000Y-63300000D02*
X97700000Y-52700000D01*
X98100000Y-63300000D02*
X97700000Y-63300000D01*
X119900000Y-52700000D02*
X120300000Y-52700000D01*
X119900000Y-63300000D02*
X120300000Y-63300000D01*
X120300000Y-63300000D02*
X120300000Y-52700000D01*
X98100000Y-63700000D02*
X97770000Y-63940000D01*
X97770000Y-63460000D01*
X98100000Y-63700000D01*
G36*
X98100000Y-63700000D02*
G01*
X97770000Y-63940000D01*
X97770000Y-63460000D01*
X98100000Y-63700000D01*
G37*
%TO.C,U2*%
X99390000Y-103390000D02*
X99840000Y-103390000D01*
X99390000Y-103840000D02*
X99390000Y-103390000D01*
X99390000Y-106160000D02*
X99390000Y-106610000D01*
X99390000Y-106610000D02*
X99840000Y-106610000D01*
X102160000Y-103390000D02*
X102370000Y-103390000D01*
X102610000Y-103840000D02*
X102610000Y-103690000D01*
X102610000Y-106160000D02*
X102610000Y-106610000D01*
X102610000Y-106610000D02*
X102160000Y-106610000D01*
X102940000Y-103630000D02*
X102610000Y-103390000D01*
X102940000Y-103150000D01*
X102940000Y-103630000D01*
G36*
X102940000Y-103630000D02*
G01*
X102610000Y-103390000D01*
X102940000Y-103150000D01*
X102940000Y-103630000D01*
G37*
%TO.C,FB1*%
X102162779Y-98740000D02*
X101837221Y-98740000D01*
X102162779Y-99760000D02*
X101837221Y-99760000D01*
%TO.C,U4*%
X104440000Y-100500000D02*
X104440000Y-99700000D01*
X104440000Y-100500000D02*
X104440000Y-101300000D01*
X107560000Y-100500000D02*
X107560000Y-99700000D01*
X107560000Y-100500000D02*
X107560000Y-101300000D01*
X107840000Y-99440000D02*
X107510000Y-99200000D01*
X107840000Y-98960000D01*
X107840000Y-99440000D01*
G36*
X107840000Y-99440000D02*
G01*
X107510000Y-99200000D01*
X107840000Y-98960000D01*
X107840000Y-99440000D01*
G37*
%TO.C,R8*%
X109320000Y-102946359D02*
X109320000Y-103253641D01*
X110080000Y-102946359D02*
X110080000Y-103253641D01*
%TO.C,C20*%
X125390000Y-83157836D02*
X125390000Y-82942164D01*
X126110000Y-83157836D02*
X126110000Y-82942164D01*
%TO.C,C18*%
X125492164Y-77840000D02*
X125707836Y-77840000D01*
X125492164Y-78560000D02*
X125707836Y-78560000D01*
%TO.C,J2*%
X121910000Y-59560000D02*
X123235000Y-59560000D01*
X123235000Y-59495000D02*
X123235000Y-59560000D01*
X123235000Y-59495000D02*
X126765000Y-59495000D01*
X123235000Y-68440000D02*
X123235000Y-68505000D01*
X123235000Y-68505000D02*
X126765000Y-68505000D01*
X126765000Y-59495000D02*
X126765000Y-59560000D01*
X126765000Y-68440000D02*
X126765000Y-68505000D01*
%TO.C,C1*%
X101859420Y-100240000D02*
X102140580Y-100240000D01*
X101859420Y-101260000D02*
X102140580Y-101260000D01*
%TO.C,J1*%
X113005000Y-94125000D02*
X127015000Y-94125000D01*
X113005000Y-96045000D02*
X113005000Y-94125000D01*
X113005000Y-107645000D02*
X113005000Y-108095000D01*
X113005000Y-108095000D02*
X116615000Y-108095000D01*
X118315000Y-108095000D02*
X123015000Y-108095000D01*
X124315000Y-108095000D02*
X126115000Y-108095000D01*
X128925000Y-104995000D02*
X128925000Y-98625000D01*
X128925000Y-104995000D02*
X129075000Y-104995000D01*
X129075000Y-95605000D02*
X129075000Y-95345000D01*
X129275000Y-95805000D02*
X129075000Y-95605000D01*
X129275000Y-95805000D02*
X129275000Y-98115000D01*
X129275000Y-98115000D02*
X128925000Y-98625000D01*
X129275000Y-105205000D02*
X129075000Y-104995000D01*
X129275000Y-107065000D02*
X129075000Y-107265000D01*
X129275000Y-107065000D02*
X129275000Y-105205000D01*
%TO.C,C34*%
X107990000Y-100990580D02*
X107990000Y-100709420D01*
X109010000Y-100990580D02*
X109010000Y-100709420D01*
%TO.C,U5*%
X98890000Y-67890000D02*
X98890000Y-68840000D01*
X98890000Y-88110000D02*
X98890000Y-87160000D01*
X99840000Y-67890000D02*
X98890000Y-67890000D01*
X99840000Y-88110000D02*
X98890000Y-88110000D01*
X118160000Y-67890000D02*
X119110000Y-67890000D01*
X118160000Y-88110000D02*
X119110000Y-88110000D01*
X119110000Y-67890000D02*
X119110000Y-68840000D01*
X119110000Y-88110000D02*
X119110000Y-87160000D01*
X120040000Y-87630000D02*
X119360000Y-87630000D01*
X119700000Y-87160000D01*
X120040000Y-87630000D01*
G36*
X120040000Y-87630000D02*
G01*
X119360000Y-87630000D01*
X119700000Y-87160000D01*
X120040000Y-87630000D01*
G37*
%TO.C,R7*%
X104720000Y-93796359D02*
X104720000Y-94103641D01*
X105480000Y-93796359D02*
X105480000Y-94103641D01*
%TO.C,R9*%
X109320000Y-105453641D02*
X109320000Y-105146359D01*
X110080000Y-105453641D02*
X110080000Y-105146359D01*
%TO.C,R2*%
X118628641Y-91095000D02*
X118321359Y-91095000D01*
X118628641Y-91855000D02*
X118321359Y-91855000D01*
%TD*%
M02*
