%TF.GenerationSoftware,KiCad,Pcbnew,8.0.1-8.0.1-1~ubuntu22.04.1*%
%TF.CreationDate,2024-03-29T10:19:56+01:00*%
%TF.ProjectId,dsp_som,6473705f-736f-46d2-9e6b-696361645f70,1.0*%
%TF.SameCoordinates,Original*%
%TF.FileFunction,Copper,L4,Inr*%
%TF.FilePolarity,Positive*%
%FSLAX46Y46*%
G04 Gerber Fmt 4.6, Leading zero omitted, Abs format (unit mm)*
G04 Created by KiCad (PCBNEW 8.0.1-8.0.1-1~ubuntu22.04.1) date 2024-03-29 10:19:56*
%MOMM*%
%LPD*%
G01*
G04 APERTURE LIST*
%TA.AperFunction,ComponentPad*%
%ADD10C,0.800000*%
%TD*%
%TA.AperFunction,ComponentPad*%
%ADD11C,6.400000*%
%TD*%
%TA.AperFunction,ComponentPad*%
%ADD12R,1.700000X1.700000*%
%TD*%
%TA.AperFunction,ComponentPad*%
%ADD13O,1.700000X1.700000*%
%TD*%
%TA.AperFunction,ViaPad*%
%ADD14C,0.450000*%
%TD*%
%TA.AperFunction,Conductor*%
%ADD15C,0.200000*%
%TD*%
G04 APERTURE END LIST*
D10*
%TO.N,GND*%
%TO.C,H1*%
X123600000Y-54000000D03*
X124302944Y-52302944D03*
X124302944Y-55697056D03*
X126000000Y-51600000D03*
D11*
X126000000Y-54000000D03*
D10*
X126000000Y-56400000D03*
X127697056Y-52302944D03*
X127697056Y-55697056D03*
X128400000Y-54000000D03*
%TD*%
D12*
%TO.N,+3.3V*%
%TO.C,J3*%
X94275000Y-53325000D03*
D13*
%TO.N,GND*%
X91735000Y-53325000D03*
%TO.N,/PB10*%
X94275000Y-55865000D03*
%TO.N,GND*%
X91735000Y-55865000D03*
%TO.N,/PB11*%
X94275000Y-58405000D03*
%TO.N,GND*%
X91735000Y-58405000D03*
%TO.N,/PD12*%
X94275000Y-60945000D03*
%TO.N,GND*%
X91735000Y-60945000D03*
%TO.N,/PD13*%
X94275000Y-63485000D03*
%TO.N,GND*%
X91735000Y-63485000D03*
%TO.N,/ADC3_IN2*%
X94275000Y-66025000D03*
%TO.N,GND*%
X91735000Y-66025000D03*
%TO.N,/ADC3_IN3*%
X94275000Y-68565000D03*
%TO.N,GND*%
X91735000Y-68565000D03*
%TO.N,/ADC3_IN13*%
X94275000Y-71105000D03*
%TO.N,GND*%
X91735000Y-71105000D03*
%TO.N,/ADC3_IN12*%
X94275000Y-73645000D03*
%TO.N,GND*%
X91735000Y-73645000D03*
%TO.N,/ADC3_IN11*%
X94275000Y-76185000D03*
%TO.N,GND*%
X91735000Y-76185000D03*
%TO.N,/ADC3_IN8*%
X94275000Y-78725000D03*
%TO.N,GND*%
X91735000Y-78725000D03*
%TO.N,/ADC3_IN7*%
X94275000Y-81265000D03*
%TO.N,GND*%
X91735000Y-81265000D03*
%TO.N,/USB_DM*%
X94275000Y-83805000D03*
%TO.N,GND*%
X91735000Y-83805000D03*
%TO.N,/USB_DP*%
X94275000Y-86345000D03*
%TO.N,GND*%
X91735000Y-86345000D03*
%TO.N,/ADC3_IN6*%
X94275000Y-88885000D03*
%TO.N,GND*%
X91735000Y-88885000D03*
%TO.N,/ADC3_IN5*%
X94275000Y-91425000D03*
%TO.N,GND*%
X91735000Y-91425000D03*
%TO.N,/ADC3_IN4*%
X94275000Y-93965000D03*
%TO.N,GND*%
X91735000Y-93965000D03*
X94275000Y-96505000D03*
X91735000Y-96505000D03*
%TO.N,/LINEOUT_R*%
X94275000Y-99045000D03*
%TO.N,GND*%
X91735000Y-99045000D03*
%TO.N,/LINEOUT_L*%
X94275000Y-101585000D03*
%TO.N,GND*%
X91735000Y-101585000D03*
%TO.N,/LINEIN_R*%
X94275000Y-104125000D03*
%TO.N,GND*%
X91735000Y-104125000D03*
%TO.N,/LINEIN_L*%
X94275000Y-106665000D03*
%TO.N,GND*%
X91735000Y-106665000D03*
%TD*%
D14*
%TO.N,/SD_DETECT*%
X124700000Y-105920000D03*
X124320000Y-107940000D03*
%TO.N,/SD_DAT1*%
X96300000Y-88140000D03*
X96290000Y-83000000D03*
%TO.N,/SD_CMD*%
X116750000Y-99450000D03*
X114400000Y-100100000D03*
%TO.N,/CODEC_SCL*%
X116975000Y-90675000D03*
X110500000Y-103675000D03*
%TO.N,/CODEC_SDA*%
X111175000Y-104725000D03*
X117950000Y-89950000D03*
%TO.N,/nRST*%
X120900000Y-74500000D03*
X123850000Y-70850000D03*
%TO.N,/SWCLK*%
X125150000Y-62750000D03*
X101800000Y-85350000D03*
%TO.N,/SWDIO*%
X100150000Y-84550000D03*
X125400000Y-61500000D03*
%TO.N,/SWO*%
X113275000Y-85875000D03*
X125450000Y-64000000D03*
%TO.N,+1V8*%
X104975000Y-104125000D03*
%TO.N,/VCAP_2*%
X96950000Y-85470000D03*
%TO.N,/VCAP_1*%
X100750000Y-66306372D03*
%TO.N,+3.3V*%
X105100000Y-68530000D03*
X105000000Y-62700000D03*
X116600000Y-68530000D03*
X106400000Y-87500000D03*
X107400000Y-51200000D03*
X121560000Y-61460000D03*
X117900000Y-87450000D03*
X99550000Y-80400000D03*
X119400000Y-62700000D03*
X118450000Y-71100000D03*
X100250000Y-68550000D03*
X100200000Y-62700000D03*
X118450000Y-84250000D03*
X109700000Y-102000000D03*
X111400000Y-87450000D03*
X114050000Y-101650000D03*
X99550000Y-74750000D03*
X109700000Y-106400000D03*
X99550000Y-86900000D03*
X102600000Y-51200000D03*
X109000000Y-62700000D03*
X102400000Y-95900000D03*
X111350000Y-92800000D03*
X105850000Y-93700000D03*
X100625000Y-108225000D03*
X106950000Y-98400000D03*
X98600000Y-62700000D03*
X120900000Y-72250000D03*
X118125000Y-78600000D03*
X110100000Y-68775000D03*
%TO.N,+3.3VA*%
X100750000Y-101900000D03*
X120900000Y-70750000D03*
%TO.N,/DQ4*%
X106750000Y-69300000D03*
X106500000Y-61415628D03*
%TO.N,/A4*%
X118600000Y-53250000D03*
X122075000Y-80225000D03*
%TO.N,/CLK*%
X111400000Y-53250000D03*
X110250000Y-78950000D03*
%TO.N,/LDQM*%
X108325000Y-83775000D03*
X109400000Y-61450000D03*
%TO.N,GND*%
X115050000Y-75550000D03*
X101750000Y-101900000D03*
X123450000Y-73500000D03*
X117000000Y-100350000D03*
X125000000Y-77625000D03*
X100200000Y-51200000D03*
X128500000Y-92200000D03*
X119450000Y-58400000D03*
X114550000Y-100950000D03*
X105000000Y-51200000D03*
X102340000Y-103650000D03*
X101500000Y-57800000D03*
X110500000Y-55550000D03*
X105900000Y-68530000D03*
X122950000Y-72250000D03*
X102400000Y-61000000D03*
X99080000Y-102770000D03*
X118450000Y-71900000D03*
X104850000Y-107500000D03*
X93750000Y-108900000D03*
X100550000Y-85350000D03*
X117950000Y-57100000D03*
X126700000Y-100250000D03*
X96950000Y-86770000D03*
X100450000Y-58850000D03*
X95400000Y-59650000D03*
X128450000Y-103200000D03*
X128350000Y-106050000D03*
X114550000Y-61850000D03*
X103550000Y-97800000D03*
X117650000Y-97600000D03*
X127950000Y-79550000D03*
X110100000Y-60750000D03*
X122850000Y-102300000D03*
X117850000Y-50850000D03*
X97250000Y-88050000D03*
X113150000Y-54700000D03*
X102600000Y-58300000D03*
X126850000Y-89400000D03*
X102700000Y-56800000D03*
X126950000Y-104350000D03*
X115350000Y-84750000D03*
X118500000Y-75000000D03*
X101700000Y-81500000D03*
X121500000Y-51300000D03*
X113150000Y-50950000D03*
X98300000Y-54900000D03*
X101000000Y-105500000D03*
X96400000Y-79500000D03*
X120650000Y-108800000D03*
X105600000Y-87500000D03*
X121600000Y-81100000D03*
X120850000Y-53200000D03*
X96250000Y-76850000D03*
X97050000Y-108550000D03*
X117400000Y-68530000D03*
X97000000Y-96850000D03*
X126200000Y-73575000D03*
X107850000Y-93700000D03*
X105000000Y-53700000D03*
X102500000Y-70300000D03*
X122250000Y-95450000D03*
X100850000Y-95150000D03*
X109000000Y-51200000D03*
X124550000Y-109000000D03*
X125600000Y-105650000D03*
X109300000Y-56750000D03*
X125350000Y-79400000D03*
X122200000Y-91650000D03*
X103900000Y-95950000D03*
X96900000Y-83700000D03*
X114650000Y-50900000D03*
X117700000Y-61800000D03*
X113000000Y-53750000D03*
X100050000Y-90200000D03*
X126750000Y-102450000D03*
X101800000Y-87250000D03*
X95500000Y-102900000D03*
X109050000Y-79900000D03*
X107150000Y-86700000D03*
X96350000Y-105950000D03*
X102750000Y-101900000D03*
X105000000Y-70750000D03*
X100500000Y-105000000D03*
X97750000Y-98800000D03*
X113350000Y-60550000D03*
X128500000Y-85500000D03*
X128500000Y-70550000D03*
X111600000Y-50900000D03*
X110400000Y-72350000D03*
X118050000Y-95950000D03*
X100550000Y-60550000D03*
X98600000Y-60500000D03*
X97332688Y-52675373D03*
X117475000Y-107200000D03*
X121250000Y-103700000D03*
X127450000Y-87100000D03*
X101500000Y-105000000D03*
X96600000Y-94850000D03*
X101650000Y-92800000D03*
X119400000Y-60400000D03*
X121580000Y-66540000D03*
X96975000Y-75080000D03*
X106850000Y-70300000D03*
X102250000Y-59750000D03*
X128450000Y-101050000D03*
X113600000Y-86650000D03*
X127700000Y-83700000D03*
X125750000Y-82000000D03*
X98600000Y-51200000D03*
X108850000Y-75150000D03*
X122950000Y-70750000D03*
X123450000Y-69500000D03*
X126550000Y-96350000D03*
X104550000Y-86000000D03*
X128650000Y-77000000D03*
X126150000Y-107950000D03*
X118450000Y-89150000D03*
X128800000Y-73900000D03*
X99550000Y-79600000D03*
X122800000Y-84700000D03*
X122250000Y-97700000D03*
X119400000Y-51200000D03*
X99760000Y-108370000D03*
X119700000Y-94900000D03*
X122200000Y-93750000D03*
X125400000Y-86950000D03*
X113150000Y-107600000D03*
X113175000Y-96025000D03*
X97600000Y-90200000D03*
X96200000Y-100900000D03*
X119675000Y-91475000D03*
X99550000Y-86100000D03*
X127450000Y-98550000D03*
X120100000Y-105150000D03*
X108800000Y-104200000D03*
X98650000Y-96000000D03*
X102600000Y-62700000D03*
X116900000Y-83650000D03*
X128250000Y-81900000D03*
X121580000Y-64000000D03*
X107400000Y-53850000D03*
X99250000Y-68500000D03*
X126350000Y-85200000D03*
X102600000Y-55350000D03*
X99750000Y-76450000D03*
X128500000Y-90400000D03*
X99750000Y-97700000D03*
X102550000Y-53650000D03*
X110600000Y-87450000D03*
X111300000Y-86200000D03*
X118650000Y-54250000D03*
X107400000Y-62700000D03*
X105600000Y-74500000D03*
X108500000Y-99350000D03*
X106000000Y-98400000D03*
X116350000Y-84300000D03*
X100250000Y-53700000D03*
X110350000Y-58050000D03*
X98450000Y-92600000D03*
X114050000Y-103850000D03*
X118550000Y-93450000D03*
X110900000Y-68530000D03*
X107350000Y-60850000D03*
X126600000Y-71900000D03*
X96600000Y-54250000D03*
X117900000Y-85300000D03*
X121590000Y-62730000D03*
X115000000Y-77350000D03*
X128550000Y-88500000D03*
X126750000Y-91250000D03*
X104800000Y-80250000D03*
X122800000Y-79050000D03*
X101010000Y-104500000D03*
X109500000Y-54550000D03*
X118050000Y-59450000D03*
X96150000Y-51150000D03*
X111400000Y-95900000D03*
X127025000Y-94450000D03*
X122050000Y-57100000D03*
X96250000Y-57100000D03*
X121600000Y-89450000D03*
X116200000Y-50900000D03*
X98300000Y-100800000D03*
X109300000Y-59200000D03*
X118450000Y-79400000D03*
%TO.N,/DQ2*%
X102500000Y-86750000D03*
X101800000Y-61700000D03*
%TO.N,/DQ6*%
X106003768Y-65396232D03*
X106600000Y-62700000D03*
%TO.N,/A9*%
X114600000Y-54250000D03*
X115525000Y-71475000D03*
%TO.N,/A8*%
X115751398Y-70354906D03*
X115400000Y-53250000D03*
%TO.N,/A10*%
X115400000Y-64800000D03*
X115100000Y-72550000D03*
%TO.N,/DQ15*%
X99450000Y-72275000D03*
X99400000Y-53250000D03*
%TO.N,/A3*%
X118600000Y-61500000D03*
X120700000Y-80750000D03*
%TO.N,/nCAS*%
X111400000Y-62700000D03*
X111950000Y-85550000D03*
%TO.N,/DQ11*%
X102150000Y-69450000D03*
X104200000Y-54250000D03*
%TO.N,/DQ0*%
X99400000Y-64800000D03*
X100700000Y-74800000D03*
%TO.N,/DQ3*%
X103800000Y-86300000D03*
X103125000Y-61500000D03*
%TO.N,/BA0*%
X113900000Y-76400000D03*
X113800000Y-61500000D03*
%TO.N,/DQ9*%
X104450000Y-70000000D03*
X106600000Y-53250000D03*
%TO.N,/A11*%
X113800000Y-53250000D03*
X114600000Y-73600000D03*
%TO.N,/DQ7*%
X108200000Y-64800000D03*
X104796204Y-66346738D03*
%TO.N,/DQ1*%
X101400000Y-75700000D03*
X101000000Y-64800000D03*
%TO.N,/A7*%
X117000000Y-69800000D03*
X116200000Y-54250000D03*
%TO.N,/A2*%
X117800000Y-62700000D03*
X118650000Y-81250000D03*
%TO.N,/A5*%
X121400000Y-79100000D03*
X117800000Y-54250000D03*
%TO.N,/DQ10*%
X103300000Y-69800000D03*
X105800000Y-54250000D03*
%TO.N,/BA1*%
X114600000Y-62700000D03*
X114050000Y-78200000D03*
%TO.N,/DQ14*%
X100700000Y-72200000D03*
X101000000Y-54250000D03*
%TO.N,/A0*%
X116550000Y-82500000D03*
X118600000Y-66200000D03*
%TO.N,/UDQM*%
X115300000Y-85650000D03*
X112550000Y-55500000D03*
%TO.N,/nCS*%
X114400000Y-86950000D03*
X113000000Y-62700000D03*
%TO.N,/DQ12*%
X103400000Y-53500000D03*
X101350000Y-68550000D03*
%TO.N,/A1*%
X117575000Y-81775000D03*
X117750000Y-65200000D03*
%TO.N,/DQ8*%
X108200000Y-53250000D03*
X105750000Y-70150000D03*
%TO.N,/DQ13*%
X101800000Y-53250000D03*
X99650000Y-70950000D03*
%TO.N,/nWE*%
X108850000Y-74250000D03*
X110600000Y-61550000D03*
%TO.N,/A6*%
X117000000Y-53250000D03*
X117975000Y-69150000D03*
%TO.N,/CKE*%
X113100000Y-87300000D03*
X112250000Y-54250000D03*
%TO.N,/CODEC_SCLK*%
X105775000Y-107625000D03*
X123700000Y-84800000D03*
%TO.N,/CODEC_DOUT*%
X108400000Y-107000000D03*
X122650000Y-86700000D03*
%TO.N,/CODEC_DIN*%
X107100000Y-105800000D03*
X121875000Y-84575000D03*
%TO.N,/CODEC_LRCLK*%
X107150000Y-108275000D03*
X124525000Y-86700000D03*
%TO.N,/CODEC_MCLK*%
X109000000Y-109025000D03*
X125550000Y-87825000D03*
%TO.N,/VAG*%
X99059729Y-103675000D03*
%TO.N,/ADC3_IN5*%
X106600000Y-86000000D03*
%TO.N,/ADC3_IN7*%
X105100000Y-83900000D03*
%TO.N,/ADC3_IN4*%
X107700000Y-86000000D03*
%TO.N,/ADC3_IN11*%
X116975000Y-73725000D03*
%TO.N,/ADC3_IN13*%
X116975000Y-71500000D03*
%TO.N,/ADC3_IN8*%
X105200000Y-82600000D03*
%TO.N,/ADC3_IN6*%
X105400000Y-86000000D03*
%TO.N,/ADC3_IN12*%
X116975000Y-72600000D03*
%TO.N,/ADC3_IN3*%
X121400000Y-65400000D03*
%TO.N,/ADC3_IN2*%
X110800000Y-73100000D03*
%TD*%
D15*
%TO.N,/DQ4*%
X108725000Y-65075000D02*
X106750000Y-67050000D01*
X108725000Y-64582537D02*
X108725000Y-65075000D01*
X107950000Y-62507537D02*
X107950000Y-63807537D01*
X107950000Y-63807537D02*
X108725000Y-64582537D01*
X106500000Y-61415628D02*
X106858091Y-61415628D01*
X106750000Y-67050000D02*
X106750000Y-69300000D01*
X106858091Y-61415628D02*
X107950000Y-62507537D01*
%TO.N,/A4*%
X122075000Y-80225000D02*
X122100000Y-80200000D01*
X118600000Y-53350000D02*
X118600000Y-53250000D01*
X122100000Y-77300000D02*
X121500000Y-76700000D01*
X122100000Y-80200000D02*
X122100000Y-77300000D01*
X120750000Y-55500000D02*
X118600000Y-53350000D01*
X120750000Y-69550000D02*
X120750000Y-55500000D01*
X121500000Y-70300000D02*
X120750000Y-69550000D01*
X121500000Y-76700000D02*
X121500000Y-70300000D01*
%TO.N,/CLK*%
X111350000Y-53300000D02*
X111350000Y-61800000D01*
X111400000Y-53250000D02*
X111350000Y-53300000D01*
X110250000Y-74400000D02*
X110250000Y-78950000D01*
X108650000Y-66965686D02*
X108650000Y-72800000D01*
X108650000Y-72800000D02*
X110250000Y-74400000D01*
X109950000Y-65665686D02*
X108650000Y-66965686D01*
X111350000Y-61800000D02*
X109950000Y-63200000D01*
X109950000Y-63200000D02*
X109950000Y-65665686D01*
%TO.N,/LDQM*%
X108325000Y-83775000D02*
X107500000Y-82950000D01*
X108350000Y-62607537D02*
X109400000Y-61557537D01*
X109400000Y-61557537D02*
X109400000Y-61450000D01*
X107500000Y-66865686D02*
X109125000Y-65240685D01*
X109125000Y-64416852D02*
X108350000Y-63641851D01*
X108350000Y-63641851D02*
X108350000Y-62607537D01*
X109125000Y-65240685D02*
X109125000Y-64416852D01*
X107500000Y-82950000D02*
X107500000Y-66865686D01*
%TO.N,/DQ2*%
X101850000Y-61750000D02*
X101850000Y-64750000D01*
X101250000Y-65350000D02*
X100165686Y-65350000D01*
X101850000Y-64750000D02*
X101250000Y-65350000D01*
X98200000Y-69000000D02*
X98825000Y-69625000D01*
X101800000Y-61700000D02*
X101850000Y-61750000D01*
X100165686Y-65350000D02*
X98200000Y-67315686D01*
X98200000Y-67315686D02*
X98200000Y-69000000D01*
X100198833Y-69625000D02*
X102500000Y-71926166D01*
X98825000Y-69625000D02*
X100198833Y-69625000D01*
X102500000Y-71926166D02*
X102500000Y-86750000D01*
%TO.N,/DQ6*%
X106600000Y-64800000D02*
X106600000Y-62700000D01*
X106003768Y-65396232D02*
X106600000Y-64800000D01*
%TO.N,/A9*%
X115925000Y-65125000D02*
X115150000Y-65900000D01*
X114600000Y-54250000D02*
X114600000Y-59100000D01*
X115150000Y-65900000D02*
X115150000Y-71100000D01*
X115925000Y-60425000D02*
X115925000Y-65125000D01*
X114600000Y-59100000D02*
X115925000Y-60425000D01*
X115150000Y-71100000D02*
X115525000Y-71475000D01*
%TO.N,/A8*%
X115550000Y-66065686D02*
X115550000Y-70153508D01*
X115400000Y-53250000D02*
X115400000Y-58400000D01*
X115400000Y-58400000D02*
X116325000Y-59325000D01*
X116325000Y-65290685D02*
X115550000Y-66065686D01*
X115550000Y-70153508D02*
X115751398Y-70354906D01*
X116325000Y-59325000D02*
X116325000Y-65290685D01*
%TO.N,/A10*%
X115100000Y-72550000D02*
X114750000Y-72200000D01*
X114750000Y-65450000D02*
X115400000Y-64800000D01*
X114750000Y-72200000D02*
X114750000Y-65450000D01*
%TO.N,/DQ15*%
X96200000Y-69828426D02*
X98646574Y-72275000D01*
X99400000Y-55550000D02*
X96200000Y-58750000D01*
X98646574Y-72275000D02*
X99450000Y-72275000D01*
X96200000Y-58750000D02*
X96200000Y-69828426D01*
X99400000Y-53250000D02*
X99400000Y-55550000D01*
%TO.N,/A3*%
X118942463Y-61500000D02*
X119925000Y-62482537D01*
X118600000Y-61500000D02*
X118942463Y-61500000D01*
X119925000Y-62482537D02*
X119925000Y-79975000D01*
X119925000Y-79975000D02*
X120700000Y-80750000D01*
%TO.N,/nCAS*%
X111500000Y-85100000D02*
X111500000Y-62800000D01*
X111950000Y-85550000D02*
X111500000Y-85100000D01*
X111500000Y-62800000D02*
X111400000Y-62700000D01*
%TO.N,/DQ11*%
X104200000Y-54250000D02*
X104200000Y-61950000D01*
X103925000Y-62225000D02*
X103925000Y-64372057D01*
X102600000Y-69000000D02*
X102150000Y-69450000D01*
X103925000Y-64372057D02*
X102600000Y-65697057D01*
X102600000Y-65697057D02*
X102600000Y-69000000D01*
X104200000Y-61950000D02*
X103925000Y-62225000D01*
%TO.N,/DQ0*%
X99867463Y-70425000D02*
X98493628Y-70425000D01*
X97400000Y-69331371D02*
X97400000Y-66800000D01*
X98493628Y-70425000D02*
X97400000Y-69331371D01*
X101400000Y-71957537D02*
X99867463Y-70425000D01*
X97400000Y-66800000D02*
X99400000Y-64800000D01*
X101400000Y-74100000D02*
X101400000Y-71957537D01*
X100700000Y-74800000D02*
X101400000Y-74100000D01*
%TO.N,/DQ3*%
X100300000Y-65781372D02*
X101384314Y-65781372D01*
X103125000Y-64040686D02*
X103125000Y-61500000D01*
X98600000Y-68834314D02*
X98600000Y-67481372D01*
X103800000Y-72660482D02*
X100364518Y-69225000D01*
X98600000Y-67481372D02*
X100300000Y-65781372D01*
X100364518Y-69225000D02*
X98990686Y-69225000D01*
X101384314Y-65781372D02*
X103125000Y-64040686D01*
X103800000Y-86300000D02*
X103800000Y-72660482D01*
X98990686Y-69225000D02*
X98600000Y-68834314D01*
%TO.N,/BA0*%
X113550000Y-64300000D02*
X113950000Y-63900000D01*
X113550000Y-75150000D02*
X113550000Y-64300000D01*
X113950000Y-63900000D02*
X113950000Y-61650000D01*
X113900000Y-75500000D02*
X113550000Y-75150000D01*
X113900000Y-76400000D02*
X113900000Y-75500000D01*
X113950000Y-61650000D02*
X113800000Y-61500000D01*
%TO.N,/DQ9*%
X105525000Y-63903429D02*
X103400000Y-66028429D01*
X105525000Y-59725000D02*
X105525000Y-63903429D01*
X106600000Y-53250000D02*
X106600000Y-58650000D01*
X103400000Y-68950000D02*
X104450000Y-70000000D01*
X106600000Y-58650000D02*
X105525000Y-59725000D01*
X103400000Y-66028429D02*
X103400000Y-68950000D01*
%TO.N,/A11*%
X113750000Y-59750000D02*
X115125000Y-61125000D01*
X115125000Y-61125000D02*
X115125000Y-63856372D01*
X113750000Y-53300000D02*
X113750000Y-59750000D01*
X115125000Y-63856372D02*
X114350000Y-64631372D01*
X113800000Y-53250000D02*
X113750000Y-53300000D01*
X114350000Y-64631372D02*
X114350000Y-73350000D01*
X114350000Y-73350000D02*
X114600000Y-73600000D01*
%TO.N,/DQ7*%
X106653262Y-66346738D02*
X108200000Y-64800000D01*
X104796204Y-66346738D02*
X106653262Y-66346738D01*
%TO.N,/DQ1*%
X100033148Y-70025000D02*
X98659314Y-70025000D01*
X97800000Y-67150000D02*
X100150000Y-64800000D01*
X97800000Y-69165686D02*
X97800000Y-67150000D01*
X100150000Y-64800000D02*
X101000000Y-64800000D01*
X98659314Y-70025000D02*
X97800000Y-69165686D01*
X101400000Y-75700000D02*
X101900000Y-75200000D01*
X101900000Y-71891852D02*
X100033148Y-70025000D01*
X101900000Y-75200000D02*
X101900000Y-71891852D01*
%TO.N,/A7*%
X116050000Y-68850000D02*
X117000000Y-69800000D01*
X115950000Y-66231370D02*
X115950000Y-68850000D01*
X116725000Y-65456371D02*
X115950000Y-66231370D01*
X116725000Y-57859315D02*
X116725000Y-65456371D01*
X116200000Y-54250000D02*
X116200000Y-57334315D01*
X116200000Y-57334315D02*
X116725000Y-57859315D01*
X115950000Y-68850000D02*
X116050000Y-68850000D01*
%TO.N,/A2*%
X117800000Y-62700000D02*
X118250000Y-62700000D01*
X119525000Y-63975000D02*
X119525000Y-80375000D01*
X119525000Y-80375000D02*
X118650000Y-81250000D01*
X118250000Y-62700000D02*
X119525000Y-63975000D01*
%TO.N,/A5*%
X117800000Y-55300000D02*
X120325000Y-57825000D01*
X120325000Y-57825000D02*
X120325000Y-78025000D01*
X117800000Y-54250000D02*
X117800000Y-55300000D01*
X120325000Y-78025000D02*
X121400000Y-79100000D01*
%TO.N,/DQ10*%
X103000000Y-69500000D02*
X103300000Y-69800000D01*
X104325000Y-64537742D02*
X103000000Y-65862743D01*
X105800000Y-54250000D02*
X105800000Y-57700000D01*
X103000000Y-65862743D02*
X103000000Y-69500000D01*
X104600000Y-62115685D02*
X104325000Y-62390686D01*
X105800000Y-57700000D02*
X104600000Y-58900000D01*
X104600000Y-58900000D02*
X104600000Y-62115685D01*
X104325000Y-62390686D02*
X104325000Y-64537742D01*
%TO.N,/BA1*%
X114050000Y-78200000D02*
X114475000Y-77775000D01*
X113950000Y-74400000D02*
X113950000Y-64465686D01*
X114600000Y-63815686D02*
X114600000Y-62700000D01*
X114475000Y-77775000D02*
X114475000Y-74925000D01*
X114475000Y-74925000D02*
X113950000Y-74400000D01*
X113950000Y-64465686D02*
X114600000Y-63815686D01*
%TO.N,/DQ14*%
X100700000Y-72200000D02*
X100250000Y-71750000D01*
X96600000Y-69662741D02*
X96600000Y-59800000D01*
X100250000Y-71750000D02*
X98687259Y-71750000D01*
X101000000Y-55400000D02*
X101000000Y-54250000D01*
X96600000Y-59800000D02*
X101000000Y-55400000D01*
X98687259Y-71750000D02*
X96600000Y-69662741D01*
%TO.N,/A0*%
X117500000Y-80907537D02*
X116650000Y-81757537D01*
X118600000Y-69267463D02*
X117500000Y-70367463D01*
X117500000Y-70367463D02*
X117500000Y-77916851D01*
X117200000Y-78983149D02*
X117500000Y-79283149D01*
X117500000Y-77916851D02*
X117200000Y-78216851D01*
X116650000Y-82400000D02*
X116550000Y-82500000D01*
X118600000Y-66200000D02*
X118600000Y-69267463D01*
X116650000Y-81757537D02*
X116650000Y-82400000D01*
X117200000Y-78216851D02*
X117200000Y-78983149D01*
X117500000Y-79283149D02*
X117500000Y-80907537D01*
%TO.N,/UDQM*%
X113150000Y-83500000D02*
X115300000Y-85650000D01*
X113550000Y-63558149D02*
X113150000Y-63958149D01*
X113150000Y-63958149D02*
X113150000Y-83500000D01*
X112550000Y-61400000D02*
X113550000Y-62400000D01*
X113550000Y-62400000D02*
X113550000Y-63558149D01*
X112550000Y-55500000D02*
X112550000Y-61400000D01*
%TO.N,/nCS*%
X112750000Y-62950000D02*
X113000000Y-62700000D01*
X112750000Y-84000000D02*
X112750000Y-62950000D01*
X114400000Y-85650000D02*
X112750000Y-84000000D01*
X114400000Y-86950000D02*
X114400000Y-85650000D01*
%TO.N,/DQ12*%
X103775000Y-61792463D02*
X103775000Y-61025000D01*
X103525000Y-62042463D02*
X103775000Y-61792463D01*
X103775000Y-61025000D02*
X103400000Y-60650000D01*
X101350000Y-66381372D02*
X103525000Y-64206372D01*
X103525000Y-64206372D02*
X103525000Y-62042463D01*
X103400000Y-60650000D02*
X103400000Y-53500000D01*
X101350000Y-68550000D02*
X101350000Y-66381372D01*
%TO.N,/A1*%
X117900000Y-70533149D02*
X119125000Y-69308149D01*
X117600000Y-78382537D02*
X117900000Y-78082537D01*
X117900000Y-78082537D02*
X117900000Y-70533149D01*
X118817463Y-65667463D02*
X118350000Y-65200000D01*
X117900000Y-81450000D02*
X117900000Y-79117463D01*
X118817463Y-65675000D02*
X118817463Y-65667463D01*
X117575000Y-81775000D02*
X117900000Y-81450000D01*
X119125000Y-69308149D02*
X119125000Y-65982537D01*
X117900000Y-79117463D02*
X117600000Y-78817463D01*
X118350000Y-65200000D02*
X117750000Y-65200000D01*
X117600000Y-78817463D02*
X117600000Y-78382537D01*
X119125000Y-65982537D02*
X118817463Y-65675000D01*
%TO.N,/DQ8*%
X105925000Y-61075000D02*
X105925000Y-64075000D01*
X103850000Y-66150000D02*
X103850000Y-68250000D01*
X108200000Y-53250000D02*
X108200000Y-58800000D01*
X105925000Y-64075000D02*
X103850000Y-66150000D01*
X108200000Y-58800000D02*
X105925000Y-61075000D01*
X103850000Y-68250000D02*
X105750000Y-70150000D01*
%TO.N,/DQ13*%
X97000000Y-60650000D02*
X97000000Y-69497056D01*
X101800000Y-55850000D02*
X97000000Y-60650000D01*
X101800000Y-53250000D02*
X101800000Y-55850000D01*
X98452944Y-70950000D02*
X99650000Y-70950000D01*
X97000000Y-69497056D02*
X98452944Y-70950000D01*
%TO.N,/nWE*%
X109550000Y-62600000D02*
X109550000Y-65500000D01*
X110600000Y-61550000D02*
X109550000Y-62600000D01*
X108250000Y-73650000D02*
X108850000Y-74250000D01*
X109550000Y-65500000D02*
X108250000Y-66800000D01*
X108250000Y-66800000D02*
X108250000Y-73650000D01*
%TO.N,/A6*%
X117000000Y-53250000D02*
X117125000Y-53375000D01*
X117125000Y-67475000D02*
X117975000Y-68325000D01*
X117975000Y-68325000D02*
X117975000Y-69150000D01*
X117125000Y-53375000D02*
X117125000Y-67475000D01*
%TO.N,/CKE*%
X111800000Y-54700000D02*
X111800000Y-61700000D01*
X111900000Y-84400000D02*
X112600000Y-85100000D01*
X112600000Y-86800000D02*
X113100000Y-87300000D01*
X111900000Y-64700000D02*
X111900000Y-84400000D01*
X112000000Y-61900000D02*
X112000000Y-64600000D01*
X112000000Y-64600000D02*
X111900000Y-64700000D01*
X112250000Y-54250000D02*
X111800000Y-54700000D01*
X112600000Y-85100000D02*
X112600000Y-86800000D01*
X111800000Y-61700000D02*
X112000000Y-61900000D01*
%TD*%
M02*
