%TF.GenerationSoftware,KiCad,Pcbnew,8.0.1-8.0.1-1~ubuntu22.04.1*%
%TF.CreationDate,2024-03-29T11:50:34+01:00*%
%TF.ProjectId,dsp_som,6473705f-736f-46d2-9e6b-696361645f70,1.0*%
%TF.SameCoordinates,Original*%
%TF.FileFunction,Soldermask,Bot*%
%TF.FilePolarity,Negative*%
%FSLAX46Y46*%
G04 Gerber Fmt 4.6, Leading zero omitted, Abs format (unit mm)*
G04 Created by KiCad (PCBNEW 8.0.1-8.0.1-1~ubuntu22.04.1) date 2024-03-29 11:50:34*
%MOMM*%
%LPD*%
G01*
G04 APERTURE LIST*
G04 Aperture macros list*
%AMRoundRect*
0 Rectangle with rounded corners*
0 $1 Rounding radius*
0 $2 $3 $4 $5 $6 $7 $8 $9 X,Y pos of 4 corners*
0 Add a 4 corners polygon primitive as box body*
4,1,4,$2,$3,$4,$5,$6,$7,$8,$9,$2,$3,0*
0 Add four circle primitives for the rounded corners*
1,1,$1+$1,$2,$3*
1,1,$1+$1,$4,$5*
1,1,$1+$1,$6,$7*
1,1,$1+$1,$8,$9*
0 Add four rect primitives between the rounded corners*
20,1,$1+$1,$2,$3,$4,$5,0*
20,1,$1+$1,$4,$5,$6,$7,0*
20,1,$1+$1,$6,$7,$8,$9,0*
20,1,$1+$1,$8,$9,$2,$3,0*%
G04 Aperture macros list end*
%ADD10C,0.800000*%
%ADD11C,6.400000*%
%ADD12RoundRect,0.225000X0.250000X-0.225000X0.250000X0.225000X-0.250000X0.225000X-0.250000X-0.225000X0*%
%ADD13RoundRect,0.140000X0.140000X0.170000X-0.140000X0.170000X-0.140000X-0.170000X0.140000X-0.170000X0*%
%ADD14RoundRect,0.140000X-0.140000X-0.170000X0.140000X-0.170000X0.140000X0.170000X-0.140000X0.170000X0*%
%ADD15R,1.700000X1.700000*%
%ADD16O,1.700000X1.700000*%
%ADD17RoundRect,0.140000X-0.170000X0.140000X-0.170000X-0.140000X0.170000X-0.140000X0.170000X0.140000X0*%
%ADD18RoundRect,0.140000X0.170000X-0.140000X0.170000X0.140000X-0.170000X0.140000X-0.170000X-0.140000X0*%
%ADD19RoundRect,0.225000X-0.225000X-0.250000X0.225000X-0.250000X0.225000X0.250000X-0.225000X0.250000X0*%
%ADD20RoundRect,0.225000X0.225000X0.250000X-0.225000X0.250000X-0.225000X-0.250000X0.225000X-0.250000X0*%
%ADD21RoundRect,0.225000X-0.250000X0.225000X-0.250000X-0.225000X0.250000X-0.225000X0.250000X0.225000X0*%
G04 APERTURE END LIST*
D10*
%TO.C,H1*%
X123600000Y-54000000D03*
X124302944Y-52302944D03*
X124302944Y-55697056D03*
X126000000Y-51600000D03*
D11*
X126000000Y-54000000D03*
D10*
X126000000Y-56400000D03*
X127697056Y-52302944D03*
X127697056Y-55697056D03*
X128400000Y-54000000D03*
%TD*%
D12*
%TO.C,C32*%
X100300000Y-80825000D03*
X100300000Y-79275000D03*
%TD*%
D13*
%TO.C,C24*%
X104280000Y-62700000D03*
X103320000Y-62700000D03*
%TD*%
%TO.C,C12*%
X106480000Y-88100000D03*
X105520000Y-88100000D03*
%TD*%
%TO.C,C25*%
X108680000Y-62100000D03*
X107720000Y-62100000D03*
%TD*%
D14*
%TO.C,C15*%
X121470000Y-70750000D03*
X122430000Y-70750000D03*
%TD*%
D13*
%TO.C,C9*%
X100230000Y-67950000D03*
X99270000Y-67950000D03*
%TD*%
D15*
%TO.C,J3*%
X94275000Y-53325000D03*
D16*
X91735000Y-53325000D03*
X94275000Y-55865000D03*
X91735000Y-55865000D03*
X94275000Y-58405000D03*
X91735000Y-58405000D03*
X94275000Y-60945000D03*
X91735000Y-60945000D03*
X94275000Y-63485000D03*
X91735000Y-63485000D03*
X94275000Y-66025000D03*
X91735000Y-66025000D03*
X94275000Y-68565000D03*
X91735000Y-68565000D03*
X94275000Y-71105000D03*
X91735000Y-71105000D03*
X94275000Y-73645000D03*
X91735000Y-73645000D03*
X94275000Y-76185000D03*
X91735000Y-76185000D03*
X94275000Y-78725000D03*
X91735000Y-78725000D03*
X94275000Y-81265000D03*
X91735000Y-81265000D03*
X94275000Y-83805000D03*
X91735000Y-83805000D03*
X94275000Y-86345000D03*
X91735000Y-86345000D03*
X94275000Y-88885000D03*
X91735000Y-88885000D03*
X94275000Y-91425000D03*
X91735000Y-91425000D03*
X94275000Y-93965000D03*
X91735000Y-93965000D03*
X94275000Y-96505000D03*
X91735000Y-96505000D03*
X94275000Y-99045000D03*
X91735000Y-99045000D03*
X94275000Y-101585000D03*
X91735000Y-101585000D03*
X94275000Y-104125000D03*
X91735000Y-104125000D03*
X94275000Y-106665000D03*
X91735000Y-106665000D03*
%TD*%
D14*
%TO.C,C23*%
X100920000Y-62700000D03*
X101880000Y-62700000D03*
%TD*%
%TO.C,C29*%
X121470000Y-72250000D03*
X122430000Y-72250000D03*
%TD*%
D17*
%TO.C,C4*%
X119050000Y-78520000D03*
X119050000Y-79480000D03*
%TD*%
D18*
%TO.C,C36*%
X98450000Y-103730000D03*
X98450000Y-102770000D03*
%TD*%
D13*
%TO.C,C28*%
X106680000Y-51200000D03*
X105720000Y-51200000D03*
%TD*%
%TO.C,C3*%
X118430000Y-83650000D03*
X117470000Y-83650000D03*
%TD*%
D19*
%TO.C,C16*%
X121175000Y-69500000D03*
X122725000Y-69500000D03*
%TD*%
D13*
%TO.C,C35*%
X100730000Y-107550000D03*
X99770000Y-107550000D03*
%TD*%
%TO.C,C37*%
X100730000Y-102450000D03*
X99770000Y-102450000D03*
%TD*%
%TO.C,C13*%
X111480000Y-88050000D03*
X110520000Y-88050000D03*
%TD*%
D18*
%TO.C,C11*%
X98950000Y-86980000D03*
X98950000Y-86020000D03*
%TD*%
%TO.C,C14*%
X117900000Y-86830000D03*
X117900000Y-85870000D03*
%TD*%
%TO.C,C26*%
X119400000Y-61980000D03*
X119400000Y-61020000D03*
%TD*%
D14*
%TO.C,C8*%
X105020000Y-67950000D03*
X105980000Y-67950000D03*
%TD*%
D18*
%TO.C,C22*%
X98600000Y-62080000D03*
X98600000Y-61120000D03*
%TD*%
%TO.C,C38*%
X103550000Y-104480000D03*
X103550000Y-103520000D03*
%TD*%
D20*
%TO.C,C40*%
X100035000Y-66710000D03*
X98485000Y-66710000D03*
%TD*%
D19*
%TO.C,C30*%
X121175000Y-73500000D03*
X122725000Y-73500000D03*
%TD*%
D13*
%TO.C,C27*%
X101880000Y-51200000D03*
X100920000Y-51200000D03*
%TD*%
D14*
%TO.C,C6*%
X116520000Y-67950000D03*
X117480000Y-67950000D03*
%TD*%
%TO.C,C7*%
X110020000Y-67950000D03*
X110980000Y-67950000D03*
%TD*%
D17*
%TO.C,C5*%
X119050000Y-71020000D03*
X119050000Y-71980000D03*
%TD*%
D13*
%TO.C,C10*%
X98480000Y-75080000D03*
X97520000Y-75080000D03*
%TD*%
D21*
%TO.C,C39*%
X97700000Y-85225000D03*
X97700000Y-86775000D03*
%TD*%
D13*
%TO.C,C2*%
X120180000Y-75000000D03*
X119220000Y-75000000D03*
%TD*%
D18*
%TO.C,C31*%
X98950000Y-80480000D03*
X98950000Y-79520000D03*
%TD*%
D12*
%TO.C,C17*%
X116350000Y-86575000D03*
X116350000Y-85025000D03*
%TD*%
M02*
