%TF.GenerationSoftware,KiCad,Pcbnew,8.0.1-8.0.1-1~ubuntu22.04.1*%
%TF.CreationDate,2024-03-29T10:19:56+01:00*%
%TF.ProjectId,dsp_som,6473705f-736f-46d2-9e6b-696361645f70,1.0*%
%TF.SameCoordinates,Original*%
%TF.FileFunction,Copper,L1,Top*%
%TF.FilePolarity,Positive*%
%FSLAX46Y46*%
G04 Gerber Fmt 4.6, Leading zero omitted, Abs format (unit mm)*
G04 Created by KiCad (PCBNEW 8.0.1-8.0.1-1~ubuntu22.04.1) date 2024-03-29 10:19:56*
%MOMM*%
%LPD*%
G01*
G04 APERTURE LIST*
G04 Aperture macros list*
%AMRoundRect*
0 Rectangle with rounded corners*
0 $1 Rounding radius*
0 $2 $3 $4 $5 $6 $7 $8 $9 X,Y pos of 4 corners*
0 Add a 4 corners polygon primitive as box body*
4,1,4,$2,$3,$4,$5,$6,$7,$8,$9,$2,$3,0*
0 Add four circle primitives for the rounded corners*
1,1,$1+$1,$2,$3*
1,1,$1+$1,$4,$5*
1,1,$1+$1,$6,$7*
1,1,$1+$1,$8,$9*
0 Add four rect primitives between the rounded corners*
20,1,$1+$1,$2,$3,$4,$5,0*
20,1,$1+$1,$4,$5,$6,$7,0*
20,1,$1+$1,$6,$7,$8,$9,0*
20,1,$1+$1,$8,$9,$2,$3,0*%
G04 Aperture macros list end*
%TA.AperFunction,SMDPad,CuDef*%
%ADD10RoundRect,0.135000X0.185000X-0.135000X0.185000X0.135000X-0.185000X0.135000X-0.185000X-0.135000X0*%
%TD*%
%TA.AperFunction,SMDPad,CuDef*%
%ADD11RoundRect,0.140000X-0.170000X0.140000X-0.170000X-0.140000X0.170000X-0.140000X0.170000X0.140000X0*%
%TD*%
%TA.AperFunction,ComponentPad*%
%ADD12C,0.800000*%
%TD*%
%TA.AperFunction,ComponentPad*%
%ADD13C,6.400000*%
%TD*%
%TA.AperFunction,SMDPad,CuDef*%
%ADD14R,1.000000X1.300000*%
%TD*%
%TA.AperFunction,SMDPad,CuDef*%
%ADD15RoundRect,0.135000X-0.185000X0.135000X-0.185000X-0.135000X0.185000X-0.135000X0.185000X0.135000X0*%
%TD*%
%TA.AperFunction,SMDPad,CuDef*%
%ADD16RoundRect,0.140000X0.140000X0.170000X-0.140000X0.170000X-0.140000X-0.170000X0.140000X-0.170000X0*%
%TD*%
%TA.AperFunction,SMDPad,CuDef*%
%ADD17RoundRect,0.225000X0.225000X0.250000X-0.225000X0.250000X-0.225000X-0.250000X0.225000X-0.250000X0*%
%TD*%
%TA.AperFunction,SMDPad,CuDef*%
%ADD18RoundRect,0.135000X0.135000X0.185000X-0.135000X0.185000X-0.135000X-0.185000X0.135000X-0.185000X0*%
%TD*%
%TA.AperFunction,SMDPad,CuDef*%
%ADD19R,1.800000X1.000000*%
%TD*%
%TA.AperFunction,SMDPad,CuDef*%
%ADD20R,0.458000X1.510000*%
%TD*%
%TA.AperFunction,SMDPad,CuDef*%
%ADD21RoundRect,0.050000X-0.050000X0.375000X-0.050000X-0.375000X0.050000X-0.375000X0.050000X0.375000X0*%
%TD*%
%TA.AperFunction,SMDPad,CuDef*%
%ADD22RoundRect,0.050000X-0.375000X0.050000X-0.375000X-0.050000X0.375000X-0.050000X0.375000X0.050000X0*%
%TD*%
%TA.AperFunction,HeatsinkPad*%
%ADD23R,1.650000X1.650000*%
%TD*%
%TA.AperFunction,SMDPad,CuDef*%
%ADD24RoundRect,0.218750X0.218750X0.256250X-0.218750X0.256250X-0.218750X-0.256250X0.218750X-0.256250X0*%
%TD*%
%TA.AperFunction,SMDPad,CuDef*%
%ADD25RoundRect,0.150000X-0.150000X0.512500X-0.150000X-0.512500X0.150000X-0.512500X0.150000X0.512500X0*%
%TD*%
%TA.AperFunction,SMDPad,CuDef*%
%ADD26RoundRect,0.140000X0.170000X-0.140000X0.170000X0.140000X-0.170000X0.140000X-0.170000X-0.140000X0*%
%TD*%
%TA.AperFunction,SMDPad,CuDef*%
%ADD27RoundRect,0.140000X-0.140000X-0.170000X0.140000X-0.170000X0.140000X0.170000X-0.140000X0.170000X0*%
%TD*%
%TA.AperFunction,SMDPad,CuDef*%
%ADD28R,2.400000X0.740000*%
%TD*%
%TA.AperFunction,SMDPad,CuDef*%
%ADD29RoundRect,0.225000X-0.225000X-0.250000X0.225000X-0.250000X0.225000X0.250000X-0.225000X0.250000X0*%
%TD*%
%TA.AperFunction,SMDPad,CuDef*%
%ADD30R,1.200000X0.700000*%
%TD*%
%TA.AperFunction,SMDPad,CuDef*%
%ADD31R,0.800000X1.000000*%
%TD*%
%TA.AperFunction,SMDPad,CuDef*%
%ADD32R,1.200000X1.000000*%
%TD*%
%TA.AperFunction,SMDPad,CuDef*%
%ADD33R,2.800000X1.000000*%
%TD*%
%TA.AperFunction,SMDPad,CuDef*%
%ADD34R,1.900000X1.300000*%
%TD*%
%TA.AperFunction,SMDPad,CuDef*%
%ADD35RoundRect,0.225000X0.250000X-0.225000X0.250000X0.225000X-0.250000X0.225000X-0.250000X-0.225000X0*%
%TD*%
%TA.AperFunction,SMDPad,CuDef*%
%ADD36RoundRect,0.075000X0.662500X0.075000X-0.662500X0.075000X-0.662500X-0.075000X0.662500X-0.075000X0*%
%TD*%
%TA.AperFunction,SMDPad,CuDef*%
%ADD37RoundRect,0.075000X0.075000X0.662500X-0.075000X0.662500X-0.075000X-0.662500X0.075000X-0.662500X0*%
%TD*%
%TA.AperFunction,ComponentPad*%
%ADD38R,1.700000X1.700000*%
%TD*%
%TA.AperFunction,ComponentPad*%
%ADD39O,1.700000X1.700000*%
%TD*%
%TA.AperFunction,ViaPad*%
%ADD40C,0.450000*%
%TD*%
%TA.AperFunction,Conductor*%
%ADD41C,0.200000*%
%TD*%
%TA.AperFunction,Conductor*%
%ADD42C,0.500000*%
%TD*%
%TA.AperFunction,Conductor*%
%ADD43C,0.300000*%
%TD*%
%TA.AperFunction,Conductor*%
%ADD44C,0.400000*%
%TD*%
G04 APERTURE END LIST*
D10*
%TO.P,R4,1*%
%TO.N,+3.3V*%
X103150000Y-96110000D03*
%TO.P,R4,2*%
%TO.N,/SD_DAT0*%
X103150000Y-95090000D03*
%TD*%
D11*
%TO.P,C21,1*%
%TO.N,/OSC32_OUT*%
X125750000Y-80470000D03*
%TO.P,C21,2*%
%TO.N,GND*%
X125750000Y-81430000D03*
%TD*%
D12*
%TO.P,H1,1,1*%
%TO.N,GND*%
X123600000Y-54000000D03*
X124302944Y-52302944D03*
X124302944Y-55697056D03*
X126000000Y-51600000D03*
D13*
X126000000Y-54000000D03*
D12*
X126000000Y-56400000D03*
X127697056Y-52302944D03*
X127697056Y-55697056D03*
X128400000Y-54000000D03*
%TD*%
D14*
%TO.P,Y1,1,1*%
%TO.N,/XTAL_OUT*%
X124700000Y-74500000D03*
%TO.P,Y1,2,2*%
%TO.N,GND*%
X124700000Y-76700000D03*
%TO.P,Y1,3,3*%
%TO.N,/OSC_IN*%
X126500000Y-76700000D03*
%TO.P,Y1,4,4*%
%TO.N,GND*%
X126500000Y-74500000D03*
%TD*%
D15*
%TO.P,R3,1*%
%TO.N,+3.3V*%
X101650000Y-95690000D03*
%TO.P,R3,2*%
%TO.N,/SD_DAT1*%
X101650000Y-96710000D03*
%TD*%
D10*
%TO.P,R5,1*%
%TO.N,+3.3V*%
X111350000Y-92210000D03*
%TO.P,R5,2*%
%TO.N,/SD_CMD*%
X111350000Y-91190000D03*
%TD*%
D16*
%TO.P,C19,1*%
%TO.N,GND*%
X126080000Y-73000000D03*
%TO.P,C19,2*%
%TO.N,/XTAL_OUT*%
X125120000Y-73000000D03*
%TD*%
D17*
%TO.P,C33,1*%
%TO.N,+3.3V*%
X107250000Y-97600000D03*
%TO.P,C33,2*%
%TO.N,GND*%
X105700000Y-97600000D03*
%TD*%
D18*
%TO.P,R1,1*%
%TO.N,/XTAL_OUT*%
X122610000Y-75250000D03*
%TO.P,R1,2*%
%TO.N,/OSC_OUT*%
X121590000Y-75250000D03*
%TD*%
D19*
%TO.P,Y3,1,1*%
%TO.N,/OSC32_OUT*%
X123900000Y-80750000D03*
%TO.P,Y3,2,2*%
%TO.N,/OSC32_IN*%
X123900000Y-83250000D03*
%TD*%
D10*
%TO.P,R6,1*%
%TO.N,+3.3V*%
X106600000Y-93860000D03*
%TO.P,R6,2*%
%TO.N,/SD_DAT3*%
X106600000Y-92840000D03*
%TD*%
D20*
%TO.P,U1,1,VDD*%
%TO.N,+3.3V*%
X98600000Y-63750000D03*
%TO.P,U1,2,DQ0*%
%TO.N,/DQ0*%
X99400000Y-63750000D03*
%TO.P,U1,3,VDDQ*%
%TO.N,+3.3V*%
X100200000Y-63750000D03*
%TO.P,U1,4,DQ1*%
%TO.N,/DQ1*%
X101000000Y-63750000D03*
%TO.P,U1,5,DQ2*%
%TO.N,/DQ2*%
X101800000Y-63750000D03*
%TO.P,U1,6,GNDQ*%
%TO.N,GND*%
X102600000Y-63750000D03*
%TO.P,U1,7,DQ3*%
%TO.N,/DQ3*%
X103400000Y-63750000D03*
%TO.P,U1,8,DQ4*%
%TO.N,/DQ4*%
X104200000Y-63750000D03*
%TO.P,U1,9,VDDQ*%
%TO.N,+3.3V*%
X105000000Y-63750000D03*
%TO.P,U1,10,DQ5*%
%TO.N,/DQ5*%
X105800000Y-63750000D03*
%TO.P,U1,11,DQ6*%
%TO.N,/DQ6*%
X106600000Y-63750000D03*
%TO.P,U1,12,GNDQ*%
%TO.N,GND*%
X107400000Y-63750000D03*
%TO.P,U1,13,DQ7*%
%TO.N,/DQ7*%
X108200000Y-63750000D03*
%TO.P,U1,14,VDD*%
%TO.N,+3.3V*%
X109000000Y-63750000D03*
%TO.P,U1,15,LDQM*%
%TO.N,/LDQM*%
X109800000Y-63750000D03*
%TO.P,U1,16,~{WE}*%
%TO.N,/nWE*%
X110600000Y-63750000D03*
%TO.P,U1,17,~{CAS}*%
%TO.N,/nCAS*%
X111400000Y-63750000D03*
%TO.P,U1,18,~{RAS}*%
%TO.N,/nRAS*%
X112200000Y-63750000D03*
%TO.P,U1,19,~{CS}*%
%TO.N,/nCS*%
X113000000Y-63750000D03*
%TO.P,U1,20,BA0*%
%TO.N,/BA0*%
X113800000Y-63750000D03*
%TO.P,U1,21,BA1*%
%TO.N,/BA1*%
X114600000Y-63750000D03*
%TO.P,U1,22,A10*%
%TO.N,/A10*%
X115400000Y-63750000D03*
%TO.P,U1,23,A0*%
%TO.N,/A0*%
X116200000Y-63750000D03*
%TO.P,U1,24,A1*%
%TO.N,/A1*%
X117000000Y-63750000D03*
%TO.P,U1,25,A2*%
%TO.N,/A2*%
X117800000Y-63750000D03*
%TO.P,U1,26,A3*%
%TO.N,/A3*%
X118600000Y-63750000D03*
%TO.P,U1,27,VDD*%
%TO.N,+3.3V*%
X119400000Y-63750000D03*
%TO.P,U1,28,GND*%
%TO.N,GND*%
X119400000Y-52250000D03*
%TO.P,U1,29,A4*%
%TO.N,/A4*%
X118600000Y-52250000D03*
%TO.P,U1,30,A5*%
%TO.N,/A5*%
X117800000Y-52250000D03*
%TO.P,U1,31,A6*%
%TO.N,/A6*%
X117000000Y-52250000D03*
%TO.P,U1,32,A7*%
%TO.N,/A7*%
X116200000Y-52250000D03*
%TO.P,U1,33,A8*%
%TO.N,/A8*%
X115400000Y-52250000D03*
%TO.P,U1,34,A9*%
%TO.N,/A9*%
X114600000Y-52250000D03*
%TO.P,U1,35,A11*%
%TO.N,/A11*%
X113800000Y-52250000D03*
%TO.P,U1,36,NC*%
%TO.N,unconnected-(U1-NC-Pad36)*%
X113000000Y-52250000D03*
%TO.P,U1,37,CKE*%
%TO.N,/CKE*%
X112200000Y-52250000D03*
%TO.P,U1,38,CLK*%
%TO.N,/CLK*%
X111400000Y-52250000D03*
%TO.P,U1,39,UDQM*%
%TO.N,/UDQM*%
X110600000Y-52250000D03*
%TO.P,U1,40,NC*%
%TO.N,unconnected-(U1-NC-Pad40)*%
X109800000Y-52250000D03*
%TO.P,U1,41,GND*%
%TO.N,GND*%
X109000000Y-52250000D03*
%TO.P,U1,42,DQ8*%
%TO.N,/DQ8*%
X108200000Y-52250000D03*
%TO.P,U1,43,VDDQ*%
%TO.N,+3.3V*%
X107400000Y-52250000D03*
%TO.P,U1,44,DQ9*%
%TO.N,/DQ9*%
X106600000Y-52250000D03*
%TO.P,U1,45,DQ10*%
%TO.N,/DQ10*%
X105800000Y-52250000D03*
%TO.P,U1,46,GNDQ*%
%TO.N,GND*%
X105000000Y-52250000D03*
%TO.P,U1,47,DQ11*%
%TO.N,/DQ11*%
X104200000Y-52250000D03*
%TO.P,U1,48,DQ12*%
%TO.N,/DQ12*%
X103400000Y-52250000D03*
%TO.P,U1,49,VDDQ*%
%TO.N,+3.3V*%
X102600000Y-52250000D03*
%TO.P,U1,50,DQ13*%
%TO.N,/DQ13*%
X101800000Y-52250000D03*
%TO.P,U1,51,DQ14*%
%TO.N,/DQ14*%
X101000000Y-52250000D03*
%TO.P,U1,52,GNDQ*%
%TO.N,GND*%
X100200000Y-52250000D03*
%TO.P,U1,53,DQ15*%
%TO.N,/DQ15*%
X99400000Y-52250000D03*
%TO.P,U1,54,GND*%
%TO.N,GND*%
X98600000Y-52250000D03*
%TD*%
D21*
%TO.P,U2,1,HP_R*%
%TO.N,unconnected-(U2-HP_R-Pad1)*%
X101800000Y-103550000D03*
%TO.P,U2,2,HP_VGND*%
%TO.N,unconnected-(U2-HP_VGND-Pad2)*%
X101400000Y-103550000D03*
%TO.P,U2,3,VDDA*%
%TO.N,+3.3VA*%
X101000000Y-103550000D03*
%TO.P,U2,4,HP_L*%
%TO.N,unconnected-(U2-HP_L-Pad4)*%
X100600000Y-103550000D03*
%TO.P,U2,5,VAG*%
%TO.N,/VAG*%
X100200000Y-103550000D03*
D22*
%TO.P,U2,6,LINEOUT_R*%
%TO.N,/LINEOUT_R*%
X99550000Y-104200000D03*
%TO.P,U2,7,LINEOUT_L*%
%TO.N,/LINEOUT_L*%
X99550000Y-104600000D03*
%TO.P,U2,8,LINEIN_R*%
%TO.N,/LINEIN_R*%
X99550000Y-105000000D03*
%TO.P,U2,9,LINEIN_L*%
%TO.N,/LINEIN_L*%
X99550000Y-105400000D03*
%TO.P,U2,10,MIC*%
%TO.N,unconnected-(U2-MIC-Pad10)*%
X99550000Y-105800000D03*
D21*
%TO.P,U2,11,MIC_BIAS*%
%TO.N,unconnected-(U2-MIC_BIAS-Pad11)*%
X100200000Y-106450000D03*
%TO.P,U2,12,VDDIO*%
%TO.N,+3.3V*%
X100600000Y-106450000D03*
%TO.P,U2,13,SYS_MCLK*%
%TO.N,/CODEC_MCLK*%
X101000000Y-106450000D03*
%TO.P,U2,14,I2S_LRCLK*%
%TO.N,/CODEC_LRCLK*%
X101400000Y-106450000D03*
%TO.P,U2,15,I2S_SCLK*%
%TO.N,/CODEC_SCLK*%
X101800000Y-106450000D03*
D22*
%TO.P,U2,16,I2S_DOUT*%
%TO.N,/CODEC_DOUT*%
X102450000Y-105800000D03*
%TO.P,U2,17,I2S_DIN*%
%TO.N,/CODEC_DIN*%
X102450000Y-105400000D03*
%TO.P,U2,18,CTRL_DATA*%
%TO.N,/CODEC_SDA*%
X102450000Y-105000000D03*
%TO.P,U2,19,CTRL_CLK*%
%TO.N,/CODEC_SCL*%
X102450000Y-104600000D03*
%TO.P,U2,20,VDDD*%
%TO.N,+1V8*%
X102450000Y-104200000D03*
D23*
%TO.P,U2,21,GND*%
%TO.N,GND*%
X101000000Y-105000000D03*
%TD*%
D24*
%TO.P,FB1,1*%
%TO.N,+3.3V*%
X102787500Y-99250000D03*
%TO.P,FB1,2*%
%TO.N,+3.3VA*%
X101212500Y-99250000D03*
%TD*%
D25*
%TO.P,U4,1,IN*%
%TO.N,+3.3V*%
X106950000Y-99362500D03*
%TO.P,U4,2,GND*%
%TO.N,GND*%
X106000000Y-99362500D03*
%TO.P,U4,3,STBY*%
%TO.N,+3.3V*%
X105050000Y-99362500D03*
%TO.P,U4,4,NC*%
%TO.N,unconnected-(U4-NC-Pad4)*%
X105050000Y-101637500D03*
%TO.P,U4,5,OUT*%
%TO.N,+1V8*%
X106950000Y-101637500D03*
%TD*%
D15*
%TO.P,R8,1*%
%TO.N,+3.3V*%
X109700000Y-102590000D03*
%TO.P,R8,2*%
%TO.N,/CODEC_SCL*%
X109700000Y-103610000D03*
%TD*%
D26*
%TO.P,C20,1*%
%TO.N,/OSC32_IN*%
X125750000Y-83530000D03*
%TO.P,C20,2*%
%TO.N,GND*%
X125750000Y-82570000D03*
%TD*%
D27*
%TO.P,C18,1*%
%TO.N,GND*%
X125120000Y-78200000D03*
%TO.P,C18,2*%
%TO.N,/OSC_IN*%
X126080000Y-78200000D03*
%TD*%
D28*
%TO.P,J2,1,Pin_1*%
%TO.N,unconnected-(J2-Pin_1-Pad1)*%
X123050000Y-60190000D03*
%TO.P,J2,2,Pin_2*%
%TO.N,unconnected-(J2-Pin_2-Pad2)*%
X126950000Y-60190000D03*
%TO.P,J2,3,Pin_3*%
%TO.N,+3.3V*%
X123050000Y-61460000D03*
%TO.P,J2,4,Pin_4*%
%TO.N,/SWDIO*%
X126950000Y-61460000D03*
%TO.P,J2,5,Pin_5*%
%TO.N,GND*%
X123050000Y-62730000D03*
%TO.P,J2,6,Pin_6*%
%TO.N,/SWCLK*%
X126950000Y-62730000D03*
%TO.P,J2,7,Pin_7*%
%TO.N,GND*%
X123050000Y-64000000D03*
%TO.P,J2,8,Pin_8*%
%TO.N,/SWO*%
X126950000Y-64000000D03*
%TO.P,J2,9,Pin_9*%
%TO.N,unconnected-(J2-Pin_9-Pad9)*%
X123050000Y-65270000D03*
%TO.P,J2,10,Pin_10*%
%TO.N,unconnected-(J2-Pin_10-Pad10)*%
X126950000Y-65270000D03*
%TO.P,J2,11,Pin_11*%
%TO.N,GND*%
X123050000Y-66540000D03*
%TO.P,J2,12,Pin_12*%
%TO.N,/nRST*%
X126950000Y-66540000D03*
%TO.P,J2,13,Pin_13*%
%TO.N,/VCP_RX*%
X123050000Y-67810000D03*
%TO.P,J2,14,Pin_14*%
%TO.N,/VCP_TX*%
X126950000Y-67810000D03*
%TD*%
D29*
%TO.P,C1,1*%
%TO.N,+3.3VA*%
X101225000Y-100750000D03*
%TO.P,C1,2*%
%TO.N,GND*%
X102775000Y-100750000D03*
%TD*%
D30*
%TO.P,J1,1,DAT2*%
%TO.N,/SD_DAT2*%
X113165000Y-98345000D03*
%TO.P,J1,2,DAT3/CD*%
%TO.N,/SD_DAT3*%
X113165000Y-99445000D03*
%TO.P,J1,3,CMD*%
%TO.N,/SD_CMD*%
X113165000Y-100545000D03*
%TO.P,J1,4,VDD*%
%TO.N,+3.3V*%
X113165000Y-101645000D03*
%TO.P,J1,5,CLK*%
%TO.N,/SD_CLK*%
X113165000Y-102745000D03*
%TO.P,J1,6,VSS*%
%TO.N,GND*%
X113165000Y-103845000D03*
%TO.P,J1,7,DAT0*%
%TO.N,/SD_DAT0*%
X113165000Y-104945000D03*
%TO.P,J1,8,DAT1*%
%TO.N,/SD_DAT1*%
X113165000Y-106045000D03*
%TO.P,J1,9,DET_B*%
%TO.N,GND*%
X113165000Y-106995000D03*
D31*
%TO.P,J1,10,DET_A*%
%TO.N,/SD_DETECT*%
X123665000Y-107945000D03*
D32*
%TO.P,J1,11,SHIELD*%
%TO.N,GND*%
X117465000Y-107945000D03*
D33*
X127815000Y-107945000D03*
D32*
X113165000Y-96795000D03*
D34*
X128265000Y-94445000D03*
%TD*%
D35*
%TO.P,C34,1*%
%TO.N,+1V8*%
X108500000Y-101625000D03*
%TO.P,C34,2*%
%TO.N,GND*%
X108500000Y-100075000D03*
%TD*%
D36*
%TO.P,U5,1,PE2*%
%TO.N,/CODEC_MCLK*%
X119662500Y-86750000D03*
%TO.P,U5,2,PE3*%
%TO.N,/CODEC_DOUT*%
X119662500Y-86250000D03*
%TO.P,U5,3,PE4*%
%TO.N,/CODEC_LRCLK*%
X119662500Y-85750000D03*
%TO.P,U5,4,PE5*%
%TO.N,/CODEC_SCLK*%
X119662500Y-85250000D03*
%TO.P,U5,5,PE6*%
%TO.N,/CODEC_DIN*%
X119662500Y-84750000D03*
%TO.P,U5,6,VBAT*%
%TO.N,+3.3V*%
X119662500Y-84250000D03*
%TO.P,U5,7,PC13*%
%TO.N,unconnected-(U5-PC13-Pad7)*%
X119662500Y-83750000D03*
%TO.P,U5,8,PC14*%
%TO.N,/OSC32_IN*%
X119662500Y-83250000D03*
%TO.P,U5,9,PC15*%
%TO.N,/OSC32_OUT*%
X119662500Y-82750000D03*
%TO.P,U5,10,PF0*%
%TO.N,/A0*%
X119662500Y-82250000D03*
%TO.P,U5,11,PF1*%
%TO.N,/A1*%
X119662500Y-81750000D03*
%TO.P,U5,12,PF2*%
%TO.N,/A2*%
X119662500Y-81250000D03*
%TO.P,U5,13,PF3*%
%TO.N,/A3*%
X119662500Y-80750000D03*
%TO.P,U5,14,PF4*%
%TO.N,/A4*%
X119662500Y-80250000D03*
%TO.P,U5,15,PF5*%
%TO.N,/A5*%
X119662500Y-79750000D03*
%TO.P,U5,16,VSS*%
%TO.N,GND*%
X119662500Y-79250000D03*
%TO.P,U5,17,VDD*%
%TO.N,+3.3V*%
X119662500Y-78750000D03*
%TO.P,U5,18,PF6*%
%TO.N,/ADC3_IN4*%
X119662500Y-78250000D03*
%TO.P,U5,19,PF7*%
%TO.N,/ADC3_IN5*%
X119662500Y-77750000D03*
%TO.P,U5,20,PF8*%
%TO.N,/ADC3_IN6*%
X119662500Y-77250000D03*
%TO.P,U5,21,PF9*%
%TO.N,/ADC3_IN7*%
X119662500Y-76750000D03*
%TO.P,U5,22,PF10*%
%TO.N,/ADC3_IN8*%
X119662500Y-76250000D03*
%TO.P,U5,23,PH0*%
%TO.N,/OSC_IN*%
X119662500Y-75750000D03*
%TO.P,U5,24,PH1*%
%TO.N,/OSC_OUT*%
X119662500Y-75250000D03*
%TO.P,U5,25,NRST*%
%TO.N,/nRST*%
X119662500Y-74750000D03*
%TO.P,U5,26,PC0*%
%TO.N,/nWE*%
X119662500Y-74250000D03*
%TO.P,U5,27,PC1*%
%TO.N,/ADC3_IN11*%
X119662500Y-73750000D03*
%TO.P,U5,28,PC2*%
%TO.N,/ADC3_IN12*%
X119662500Y-73250000D03*
%TO.P,U5,29,PC3*%
%TO.N,/ADC3_IN13*%
X119662500Y-72750000D03*
%TO.P,U5,30,VDD*%
%TO.N,+3.3V*%
X119662500Y-72250000D03*
%TO.P,U5,31,VSSA*%
%TO.N,GND*%
X119662500Y-71750000D03*
%TO.P,U5,32,VREF+*%
%TO.N,+3.3V*%
X119662500Y-71250000D03*
%TO.P,U5,33,VDDA*%
%TO.N,+3.3VA*%
X119662500Y-70750000D03*
%TO.P,U5,34,PA0*%
%TO.N,/VCP_TX*%
X119662500Y-70250000D03*
%TO.P,U5,35,PA1*%
%TO.N,/VCP_RX*%
X119662500Y-69750000D03*
%TO.P,U5,36,PA2*%
%TO.N,/ADC3_IN2*%
X119662500Y-69250000D03*
D37*
%TO.P,U5,37,PA3*%
%TO.N,/ADC3_IN3*%
X117750000Y-67337500D03*
%TO.P,U5,38,VSS*%
%TO.N,GND*%
X117250000Y-67337500D03*
%TO.P,U5,39,VDD*%
%TO.N,+3.3V*%
X116750000Y-67337500D03*
%TO.P,U5,40,PA4*%
%TO.N,unconnected-(U5-PA4-Pad40)*%
X116250000Y-67337500D03*
%TO.P,U5,41,PA5*%
%TO.N,unconnected-(U5-PA5-Pad41)*%
X115750000Y-67337500D03*
%TO.P,U5,42,PA6*%
%TO.N,unconnected-(U5-PA6-Pad42)*%
X115250000Y-67337500D03*
%TO.P,U5,43,PA7*%
%TO.N,unconnected-(U5-PA7-Pad43)*%
X114750000Y-67337500D03*
%TO.P,U5,44,PC4*%
%TO.N,unconnected-(U5-PC4-Pad44)*%
X114250000Y-67337500D03*
%TO.P,U5,45,PC5*%
%TO.N,unconnected-(U5-PC5-Pad45)*%
X113750000Y-67337500D03*
%TO.P,U5,46,PB0*%
%TO.N,unconnected-(U5-PB0-Pad46)*%
X113250000Y-67337500D03*
%TO.P,U5,47,PB1*%
%TO.N,unconnected-(U5-PB1-Pad47)*%
X112750000Y-67337500D03*
%TO.P,U5,48,PB2*%
%TO.N,unconnected-(U5-PB2-Pad48)*%
X112250000Y-67337500D03*
%TO.P,U5,49,PF11*%
%TO.N,/nRAS*%
X111750000Y-67337500D03*
%TO.P,U5,50,PF12*%
%TO.N,/A6*%
X111250000Y-67337500D03*
%TO.P,U5,51,VSS*%
%TO.N,GND*%
X110750000Y-67337500D03*
%TO.P,U5,52,VDD*%
%TO.N,+3.3V*%
X110250000Y-67337500D03*
%TO.P,U5,53,PF13*%
%TO.N,/A7*%
X109750000Y-67337500D03*
%TO.P,U5,54,PF14*%
%TO.N,/A8*%
X109250000Y-67337500D03*
%TO.P,U5,55,PF15*%
%TO.N,/A9*%
X108750000Y-67337500D03*
%TO.P,U5,56,PG0*%
%TO.N,/A10*%
X108250000Y-67337500D03*
%TO.P,U5,57,PG1*%
%TO.N,/A11*%
X107750000Y-67337500D03*
%TO.P,U5,58,PE7*%
%TO.N,/DQ4*%
X107250000Y-67337500D03*
%TO.P,U5,59,PE8*%
%TO.N,/DQ5*%
X106750000Y-67337500D03*
%TO.P,U5,60,PE9*%
%TO.N,/DQ6*%
X106250000Y-67337500D03*
%TO.P,U5,61,VSS*%
%TO.N,GND*%
X105750000Y-67337500D03*
%TO.P,U5,62,VDD*%
%TO.N,+3.3V*%
X105250000Y-67337500D03*
%TO.P,U5,63,PE10*%
%TO.N,/DQ7*%
X104750000Y-67337500D03*
%TO.P,U5,64,PE11*%
%TO.N,/DQ8*%
X104250000Y-67337500D03*
%TO.P,U5,65,PE12*%
%TO.N,/DQ9*%
X103750000Y-67337500D03*
%TO.P,U5,66,PE13*%
%TO.N,/DQ10*%
X103250000Y-67337500D03*
%TO.P,U5,67,PE14*%
%TO.N,/DQ11*%
X102750000Y-67337500D03*
%TO.P,U5,68,PE15*%
%TO.N,/DQ12*%
X102250000Y-67337500D03*
%TO.P,U5,69,PB10*%
%TO.N,/PB10*%
X101750000Y-67337500D03*
%TO.P,U5,70,PB11*%
%TO.N,/PB11*%
X101250000Y-67337500D03*
%TO.P,U5,71,VCAP_1*%
%TO.N,/VCAP_1*%
X100750000Y-67337500D03*
%TO.P,U5,72,VDD*%
%TO.N,+3.3V*%
X100250000Y-67337500D03*
D36*
%TO.P,U5,73,PB12*%
%TO.N,unconnected-(U5-PB12-Pad73)*%
X98337500Y-69250000D03*
%TO.P,U5,74,PB13*%
%TO.N,unconnected-(U5-PB13-Pad74)*%
X98337500Y-69750000D03*
%TO.P,U5,75,PB14*%
%TO.N,unconnected-(U5-PB14-Pad75)*%
X98337500Y-70250000D03*
%TO.P,U5,76,PB15*%
%TO.N,unconnected-(U5-PB15-Pad76)*%
X98337500Y-70750000D03*
%TO.P,U5,77,PD8*%
%TO.N,/DQ13*%
X98337500Y-71250000D03*
%TO.P,U5,78,PD9*%
%TO.N,/DQ14*%
X98337500Y-71750000D03*
%TO.P,U5,79,PD10*%
%TO.N,/DQ15*%
X98337500Y-72250000D03*
%TO.P,U5,80,PD11*%
%TO.N,unconnected-(U5-PD11-Pad80)*%
X98337500Y-72750000D03*
%TO.P,U5,81,PD12*%
%TO.N,/PD12*%
X98337500Y-73250000D03*
%TO.P,U5,82,PD13*%
%TO.N,/PD13*%
X98337500Y-73750000D03*
%TO.P,U5,83,VSS*%
%TO.N,GND*%
X98337500Y-74250000D03*
%TO.P,U5,84,VDD*%
%TO.N,+3.3V*%
X98337500Y-74750000D03*
%TO.P,U5,85,PD14*%
%TO.N,/DQ0*%
X98337500Y-75250000D03*
%TO.P,U5,86,PD15*%
%TO.N,/DQ1*%
X98337500Y-75750000D03*
%TO.P,U5,87,PG2*%
%TO.N,unconnected-(U5-PG2-Pad87)*%
X98337500Y-76250000D03*
%TO.P,U5,88,PG3*%
%TO.N,unconnected-(U5-PG3-Pad88)*%
X98337500Y-76750000D03*
%TO.P,U5,89,PG4*%
%TO.N,/BA0*%
X98337500Y-77250000D03*
%TO.P,U5,90,PG5*%
%TO.N,/BA1*%
X98337500Y-77750000D03*
%TO.P,U5,91,PG6*%
%TO.N,unconnected-(U5-PG6-Pad91)*%
X98337500Y-78250000D03*
%TO.P,U5,92,PG7*%
%TO.N,unconnected-(U5-PG7-Pad92)*%
X98337500Y-78750000D03*
%TO.P,U5,93,PG8*%
%TO.N,/CLK*%
X98337500Y-79250000D03*
%TO.P,U5,94,VSS*%
%TO.N,GND*%
X98337500Y-79750000D03*
%TO.P,U5,95,VDDUSB*%
%TO.N,+3.3V*%
X98337500Y-80250000D03*
%TO.P,U5,96,PC6*%
%TO.N,unconnected-(U5-PC6-Pad96)*%
X98337500Y-80750000D03*
%TO.P,U5,97,PC7*%
%TO.N,unconnected-(U5-PC7-Pad97)*%
X98337500Y-81250000D03*
%TO.P,U5,98,PC8*%
%TO.N,/SD_DAT0*%
X98337500Y-81750000D03*
%TO.P,U5,99,PC9*%
%TO.N,/SD_DAT1*%
X98337500Y-82250000D03*
%TO.P,U5,100,PA8*%
%TO.N,unconnected-(U5-PA8-Pad100)*%
X98337500Y-82750000D03*
%TO.P,U5,101,PA9*%
%TO.N,unconnected-(U5-PA9-Pad101)*%
X98337500Y-83250000D03*
%TO.P,U5,102,PA10*%
%TO.N,unconnected-(U5-PA10-Pad102)*%
X98337500Y-83750000D03*
%TO.P,U5,103,PA11*%
%TO.N,/USB_DM*%
X98337500Y-84250000D03*
%TO.P,U5,104,PA12*%
%TO.N,/USB_DP*%
X98337500Y-84750000D03*
%TO.P,U5,105,PA13*%
%TO.N,/SWDIO*%
X98337500Y-85250000D03*
%TO.P,U5,106,VCAP_2*%
%TO.N,/VCAP_2*%
X98337500Y-85750000D03*
%TO.P,U5,107,VSS*%
%TO.N,GND*%
X98337500Y-86250000D03*
%TO.P,U5,108,VDD*%
%TO.N,+3.3V*%
X98337500Y-86750000D03*
D37*
%TO.P,U5,109,PA14*%
%TO.N,/SWCLK*%
X100250000Y-88662500D03*
%TO.P,U5,110,PA15*%
%TO.N,unconnected-(U5-PA15-Pad110)*%
X100750000Y-88662500D03*
%TO.P,U5,111,PC10*%
%TO.N,/SD_DAT2*%
X101250000Y-88662500D03*
%TO.P,U5,112,PC11*%
%TO.N,/SD_DAT3*%
X101750000Y-88662500D03*
%TO.P,U5,113,PC12*%
%TO.N,/SD_CLK*%
X102250000Y-88662500D03*
%TO.P,U5,114,PD0*%
%TO.N,/DQ2*%
X102750000Y-88662500D03*
%TO.P,U5,115,PD1*%
%TO.N,/DQ3*%
X103250000Y-88662500D03*
%TO.P,U5,116,PD2*%
%TO.N,/SD_CMD*%
X103750000Y-88662500D03*
%TO.P,U5,117,PD3*%
%TO.N,unconnected-(U5-PD3-Pad117)*%
X104250000Y-88662500D03*
%TO.P,U5,118,PD4*%
%TO.N,unconnected-(U5-PD4-Pad118)*%
X104750000Y-88662500D03*
%TO.P,U5,119,PD5*%
%TO.N,unconnected-(U5-PD5-Pad119)*%
X105250000Y-88662500D03*
%TO.P,U5,120,VSS*%
%TO.N,GND*%
X105750000Y-88662500D03*
%TO.P,U5,121,VDD*%
%TO.N,+3.3V*%
X106250000Y-88662500D03*
%TO.P,U5,122,PD6*%
%TO.N,unconnected-(U5-PD6-Pad122)*%
X106750000Y-88662500D03*
%TO.P,U5,123,PD7*%
%TO.N,unconnected-(U5-PD7-Pad123)*%
X107250000Y-88662500D03*
%TO.P,U5,124,PG9*%
%TO.N,unconnected-(U5-PG9-Pad124)*%
X107750000Y-88662500D03*
%TO.P,U5,125,PG10*%
%TO.N,unconnected-(U5-PG10-Pad125)*%
X108250000Y-88662500D03*
%TO.P,U5,126,PG11*%
%TO.N,unconnected-(U5-PG11-Pad126)*%
X108750000Y-88662500D03*
%TO.P,U5,127,PG12*%
%TO.N,unconnected-(U5-PG12-Pad127)*%
X109250000Y-88662500D03*
%TO.P,U5,128,PG13*%
%TO.N,unconnected-(U5-PG13-Pad128)*%
X109750000Y-88662500D03*
%TO.P,U5,129,PG14*%
%TO.N,unconnected-(U5-PG14-Pad129)*%
X110250000Y-88662500D03*
%TO.P,U5,130,VSS*%
%TO.N,GND*%
X110750000Y-88662500D03*
%TO.P,U5,131,VDD*%
%TO.N,+3.3V*%
X111250000Y-88662500D03*
%TO.P,U5,132,PG15*%
%TO.N,/nCAS*%
X111750000Y-88662500D03*
%TO.P,U5,133,PB3*%
%TO.N,/SWO*%
X112250000Y-88662500D03*
%TO.P,U5,134,PB4*%
%TO.N,unconnected-(U5-PB4-Pad134)*%
X112750000Y-88662500D03*
%TO.P,U5,135,PB5*%
%TO.N,/CKE*%
X113250000Y-88662500D03*
%TO.P,U5,136,PB6*%
%TO.N,/nCS*%
X113750000Y-88662500D03*
%TO.P,U5,137,PB7*%
%TO.N,/SD_DETECT*%
X114250000Y-88662500D03*
%TO.P,U5,138,BOOT0*%
%TO.N,/BOOT0*%
X114750000Y-88662500D03*
%TO.P,U5,139,PB8*%
%TO.N,/CODEC_SCL*%
X115250000Y-88662500D03*
%TO.P,U5,140,PB9*%
%TO.N,/CODEC_SDA*%
X115750000Y-88662500D03*
%TO.P,U5,141,PE0*%
%TO.N,/LDQM*%
X116250000Y-88662500D03*
%TO.P,U5,142,PE1*%
%TO.N,/UDQM*%
X116750000Y-88662500D03*
%TO.P,U5,143,PDR_ON*%
%TO.N,+3.3V*%
X117250000Y-88662500D03*
%TO.P,U5,144,VDD*%
X117750000Y-88662500D03*
%TD*%
D15*
%TO.P,R7,1*%
%TO.N,+3.3V*%
X105100000Y-93440000D03*
%TO.P,R7,2*%
%TO.N,/SD_DAT2*%
X105100000Y-94460000D03*
%TD*%
D10*
%TO.P,R9,1*%
%TO.N,+3.3V*%
X109700000Y-105810000D03*
%TO.P,R9,2*%
%TO.N,/CODEC_SDA*%
X109700000Y-104790000D03*
%TD*%
D18*
%TO.P,R2,1*%
%TO.N,GND*%
X118985000Y-91475000D03*
%TO.P,R2,2*%
%TO.N,/BOOT0*%
X117965000Y-91475000D03*
%TD*%
D38*
%TO.P,J3,1,Pin_1*%
%TO.N,+3.3V*%
X94275000Y-53325000D03*
D39*
%TO.P,J3,2,Pin_2*%
%TO.N,GND*%
X91735000Y-53325000D03*
%TO.P,J3,3,Pin_3*%
%TO.N,/PB10*%
X94275000Y-55865000D03*
%TO.P,J3,4,Pin_4*%
%TO.N,GND*%
X91735000Y-55865000D03*
%TO.P,J3,5,Pin_5*%
%TO.N,/PB11*%
X94275000Y-58405000D03*
%TO.P,J3,6,Pin_6*%
%TO.N,GND*%
X91735000Y-58405000D03*
%TO.P,J3,7,Pin_7*%
%TO.N,/PD12*%
X94275000Y-60945000D03*
%TO.P,J3,8,Pin_8*%
%TO.N,GND*%
X91735000Y-60945000D03*
%TO.P,J3,9,Pin_9*%
%TO.N,/PD13*%
X94275000Y-63485000D03*
%TO.P,J3,10,Pin_10*%
%TO.N,GND*%
X91735000Y-63485000D03*
%TO.P,J3,11,Pin_11*%
%TO.N,/ADC3_IN2*%
X94275000Y-66025000D03*
%TO.P,J3,12,Pin_12*%
%TO.N,GND*%
X91735000Y-66025000D03*
%TO.P,J3,13,Pin_13*%
%TO.N,/ADC3_IN3*%
X94275000Y-68565000D03*
%TO.P,J3,14,Pin_14*%
%TO.N,GND*%
X91735000Y-68565000D03*
%TO.P,J3,15,Pin_15*%
%TO.N,/ADC3_IN13*%
X94275000Y-71105000D03*
%TO.P,J3,16,Pin_16*%
%TO.N,GND*%
X91735000Y-71105000D03*
%TO.P,J3,17,Pin_17*%
%TO.N,/ADC3_IN12*%
X94275000Y-73645000D03*
%TO.P,J3,18,Pin_18*%
%TO.N,GND*%
X91735000Y-73645000D03*
%TO.P,J3,19,Pin_19*%
%TO.N,/ADC3_IN11*%
X94275000Y-76185000D03*
%TO.P,J3,20,Pin_20*%
%TO.N,GND*%
X91735000Y-76185000D03*
%TO.P,J3,21,Pin_21*%
%TO.N,/ADC3_IN8*%
X94275000Y-78725000D03*
%TO.P,J3,22,Pin_22*%
%TO.N,GND*%
X91735000Y-78725000D03*
%TO.P,J3,23,Pin_23*%
%TO.N,/ADC3_IN7*%
X94275000Y-81265000D03*
%TO.P,J3,24,Pin_24*%
%TO.N,GND*%
X91735000Y-81265000D03*
%TO.P,J3,25,Pin_25*%
%TO.N,/USB_DM*%
X94275000Y-83805000D03*
%TO.P,J3,26,Pin_26*%
%TO.N,GND*%
X91735000Y-83805000D03*
%TO.P,J3,27,Pin_27*%
%TO.N,/USB_DP*%
X94275000Y-86345000D03*
%TO.P,J3,28,Pin_28*%
%TO.N,GND*%
X91735000Y-86345000D03*
%TO.P,J3,29,Pin_29*%
%TO.N,/ADC3_IN6*%
X94275000Y-88885000D03*
%TO.P,J3,30,Pin_30*%
%TO.N,GND*%
X91735000Y-88885000D03*
%TO.P,J3,31,Pin_31*%
%TO.N,/ADC3_IN5*%
X94275000Y-91425000D03*
%TO.P,J3,32,Pin_32*%
%TO.N,GND*%
X91735000Y-91425000D03*
%TO.P,J3,33,Pin_33*%
%TO.N,/ADC3_IN4*%
X94275000Y-93965000D03*
%TO.P,J3,34,Pin_34*%
%TO.N,GND*%
X91735000Y-93965000D03*
%TO.P,J3,35,Pin_35*%
X94275000Y-96505000D03*
%TO.P,J3,36,Pin_36*%
X91735000Y-96505000D03*
%TO.P,J3,37,Pin_37*%
%TO.N,/LINEOUT_R*%
X94275000Y-99045000D03*
%TO.P,J3,38,Pin_38*%
%TO.N,GND*%
X91735000Y-99045000D03*
%TO.P,J3,39,Pin_39*%
%TO.N,/LINEOUT_L*%
X94275000Y-101585000D03*
%TO.P,J3,40,Pin_40*%
%TO.N,GND*%
X91735000Y-101585000D03*
%TO.P,J3,41,Pin_41*%
%TO.N,/LINEIN_R*%
X94275000Y-104125000D03*
%TO.P,J3,42,Pin_42*%
%TO.N,GND*%
X91735000Y-104125000D03*
%TO.P,J3,43,Pin_43*%
%TO.N,/LINEIN_L*%
X94275000Y-106665000D03*
%TO.P,J3,44,Pin_44*%
%TO.N,GND*%
X91735000Y-106665000D03*
%TD*%
D40*
%TO.N,/SD_DETECT*%
X124700000Y-105920000D03*
X124320000Y-107940000D03*
%TO.N,/SD_DAT1*%
X96300000Y-88140000D03*
X96290000Y-83000000D03*
%TO.N,/SD_CMD*%
X116750000Y-99450000D03*
X114400000Y-100100000D03*
%TO.N,/CODEC_SCL*%
X116975000Y-90675000D03*
X110500000Y-103675000D03*
%TO.N,/CODEC_SDA*%
X111175000Y-104725000D03*
X117950000Y-89950000D03*
%TO.N,/nRST*%
X120900000Y-74500000D03*
X123850000Y-70850000D03*
%TO.N,/SWCLK*%
X125150000Y-62750000D03*
X101800000Y-85350000D03*
%TO.N,/SWDIO*%
X100150000Y-84550000D03*
X125400000Y-61500000D03*
%TO.N,/SWO*%
X113275000Y-85875000D03*
X125450000Y-64000000D03*
%TO.N,+1V8*%
X104975000Y-104125000D03*
%TO.N,/VCAP_2*%
X96950000Y-85470000D03*
%TO.N,/VCAP_1*%
X100750000Y-66306372D03*
%TO.N,+3.3V*%
X105100000Y-68530000D03*
X105000000Y-62700000D03*
X116600000Y-68530000D03*
X106400000Y-87500000D03*
X107400000Y-51200000D03*
X121560000Y-61460000D03*
X117900000Y-87450000D03*
X99550000Y-80400000D03*
X119400000Y-62700000D03*
X118450000Y-71100000D03*
X100250000Y-68550000D03*
X100200000Y-62700000D03*
X118450000Y-84250000D03*
X109700000Y-102000000D03*
X111400000Y-87450000D03*
X114050000Y-101650000D03*
X99550000Y-74750000D03*
X109700000Y-106400000D03*
X99550000Y-86900000D03*
X102600000Y-51200000D03*
X109000000Y-62700000D03*
X102400000Y-95900000D03*
X111350000Y-92800000D03*
X105850000Y-93700000D03*
X100625000Y-108225000D03*
X106950000Y-98400000D03*
X98600000Y-62700000D03*
X120900000Y-72250000D03*
X118125000Y-78600000D03*
X110100000Y-68775000D03*
%TO.N,+3.3VA*%
X100750000Y-101900000D03*
X120900000Y-70750000D03*
%TO.N,/DQ4*%
X106750000Y-69300000D03*
X106500000Y-61415628D03*
%TO.N,/A4*%
X118600000Y-53250000D03*
X122075000Y-80225000D03*
%TO.N,/CLK*%
X111400000Y-53250000D03*
X110250000Y-78950000D03*
%TO.N,/LDQM*%
X108325000Y-83775000D03*
X109400000Y-61450000D03*
%TO.N,GND*%
X115050000Y-75550000D03*
X101750000Y-101900000D03*
X123450000Y-73500000D03*
X117000000Y-100350000D03*
X125000000Y-77625000D03*
X100200000Y-51200000D03*
X128500000Y-92200000D03*
X119450000Y-58400000D03*
X114550000Y-100950000D03*
X105000000Y-51200000D03*
X102340000Y-103650000D03*
X101500000Y-57800000D03*
X110500000Y-55550000D03*
X105900000Y-68530000D03*
X122950000Y-72250000D03*
X102400000Y-61000000D03*
X99080000Y-102770000D03*
X118450000Y-71900000D03*
X104850000Y-107500000D03*
X93750000Y-108900000D03*
X100550000Y-85350000D03*
X117950000Y-57100000D03*
X126700000Y-100250000D03*
X96950000Y-86770000D03*
X100450000Y-58850000D03*
X95400000Y-59650000D03*
X128450000Y-103200000D03*
X128350000Y-106050000D03*
X114550000Y-61850000D03*
X103550000Y-97800000D03*
X117650000Y-97600000D03*
X127950000Y-79550000D03*
X110100000Y-60750000D03*
X122850000Y-102300000D03*
X117850000Y-50850000D03*
X97250000Y-88050000D03*
X113150000Y-54700000D03*
X102600000Y-58300000D03*
X126850000Y-89400000D03*
X102700000Y-56800000D03*
X126950000Y-104350000D03*
X115350000Y-84750000D03*
X118500000Y-75000000D03*
X101700000Y-81500000D03*
X121500000Y-51300000D03*
X113150000Y-50950000D03*
X98300000Y-54900000D03*
X101000000Y-105500000D03*
X96400000Y-79500000D03*
X120650000Y-108800000D03*
X105600000Y-87500000D03*
X121600000Y-81100000D03*
X120850000Y-53200000D03*
X96250000Y-76850000D03*
X97050000Y-108550000D03*
X117400000Y-68530000D03*
X97000000Y-96850000D03*
X126200000Y-73575000D03*
X107850000Y-93700000D03*
X105000000Y-53700000D03*
X102500000Y-70300000D03*
X122250000Y-95450000D03*
X100850000Y-95150000D03*
X109000000Y-51200000D03*
X124550000Y-109000000D03*
X125600000Y-105650000D03*
X109300000Y-56750000D03*
X125350000Y-79400000D03*
X122200000Y-91650000D03*
X103900000Y-95950000D03*
X96900000Y-83700000D03*
X114650000Y-50900000D03*
X117700000Y-61800000D03*
X113000000Y-53750000D03*
X100050000Y-90200000D03*
X126750000Y-102450000D03*
X101800000Y-87250000D03*
X95500000Y-102900000D03*
X109050000Y-79900000D03*
X107150000Y-86700000D03*
X96350000Y-105950000D03*
X102750000Y-101900000D03*
X105000000Y-70750000D03*
X100500000Y-105000000D03*
X97750000Y-98800000D03*
X113350000Y-60550000D03*
X128500000Y-85500000D03*
X128500000Y-70550000D03*
X111600000Y-50900000D03*
X110400000Y-72350000D03*
X118050000Y-95950000D03*
X100550000Y-60550000D03*
X98600000Y-60500000D03*
X97332688Y-52675373D03*
X117475000Y-107200000D03*
X121250000Y-103700000D03*
X127450000Y-87100000D03*
X101500000Y-105000000D03*
X96600000Y-94850000D03*
X101650000Y-92800000D03*
X119400000Y-60400000D03*
X121580000Y-66540000D03*
X96975000Y-75080000D03*
X106850000Y-70300000D03*
X102250000Y-59750000D03*
X128450000Y-101050000D03*
X113600000Y-86650000D03*
X127700000Y-83700000D03*
X125750000Y-82000000D03*
X98600000Y-51200000D03*
X108850000Y-75150000D03*
X122950000Y-70750000D03*
X123450000Y-69500000D03*
X126550000Y-96350000D03*
X104550000Y-86000000D03*
X128650000Y-77000000D03*
X126150000Y-107950000D03*
X118450000Y-89150000D03*
X128800000Y-73900000D03*
X99550000Y-79600000D03*
X122800000Y-84700000D03*
X122250000Y-97700000D03*
X119400000Y-51200000D03*
X99760000Y-108370000D03*
X119700000Y-94900000D03*
X122200000Y-93750000D03*
X125400000Y-86950000D03*
X113150000Y-107600000D03*
X113175000Y-96025000D03*
X97600000Y-90200000D03*
X96200000Y-100900000D03*
X119675000Y-91475000D03*
X99550000Y-86100000D03*
X127450000Y-98550000D03*
X120100000Y-105150000D03*
X108800000Y-104200000D03*
X98650000Y-96000000D03*
X102600000Y-62700000D03*
X116900000Y-83650000D03*
X128250000Y-81900000D03*
X121580000Y-64000000D03*
X107400000Y-53850000D03*
X99250000Y-68500000D03*
X126350000Y-85200000D03*
X102600000Y-55350000D03*
X99750000Y-76450000D03*
X128500000Y-90400000D03*
X99750000Y-97700000D03*
X102550000Y-53650000D03*
X110600000Y-87450000D03*
X111300000Y-86200000D03*
X118650000Y-54250000D03*
X107400000Y-62700000D03*
X105600000Y-74500000D03*
X108500000Y-99350000D03*
X106000000Y-98400000D03*
X116350000Y-84300000D03*
X100250000Y-53700000D03*
X110350000Y-58050000D03*
X98450000Y-92600000D03*
X114050000Y-103850000D03*
X118550000Y-93450000D03*
X110900000Y-68530000D03*
X107350000Y-60850000D03*
X126600000Y-71900000D03*
X96600000Y-54250000D03*
X117900000Y-85300000D03*
X121590000Y-62730000D03*
X115000000Y-77350000D03*
X128550000Y-88500000D03*
X126750000Y-91250000D03*
X104800000Y-80250000D03*
X122800000Y-79050000D03*
X101010000Y-104500000D03*
X109500000Y-54550000D03*
X118050000Y-59450000D03*
X96150000Y-51150000D03*
X111400000Y-95900000D03*
X127025000Y-94450000D03*
X122050000Y-57100000D03*
X96250000Y-57100000D03*
X121600000Y-89450000D03*
X116200000Y-50900000D03*
X98300000Y-100800000D03*
X109300000Y-59200000D03*
X118450000Y-79400000D03*
%TO.N,/DQ2*%
X102500000Y-86750000D03*
X101800000Y-61700000D03*
%TO.N,/DQ6*%
X106003768Y-65396232D03*
X106600000Y-62700000D03*
%TO.N,/A9*%
X114600000Y-54250000D03*
X115525000Y-71475000D03*
%TO.N,/A8*%
X115751398Y-70354906D03*
X115400000Y-53250000D03*
%TO.N,/A10*%
X115400000Y-64800000D03*
X115100000Y-72550000D03*
%TO.N,/DQ15*%
X99450000Y-72275000D03*
X99400000Y-53250000D03*
%TO.N,/A3*%
X118600000Y-61500000D03*
X120700000Y-80750000D03*
%TO.N,/nCAS*%
X111400000Y-62700000D03*
X111950000Y-85550000D03*
%TO.N,/DQ11*%
X102150000Y-69450000D03*
X104200000Y-54250000D03*
%TO.N,/DQ0*%
X99400000Y-64800000D03*
X100700000Y-74800000D03*
%TO.N,/DQ3*%
X103800000Y-86300000D03*
X103125000Y-61500000D03*
%TO.N,/BA0*%
X113900000Y-76400000D03*
X113800000Y-61500000D03*
%TO.N,/DQ9*%
X104450000Y-70000000D03*
X106600000Y-53250000D03*
%TO.N,/A11*%
X113800000Y-53250000D03*
X114600000Y-73600000D03*
%TO.N,/DQ7*%
X108200000Y-64800000D03*
X104796204Y-66346738D03*
%TO.N,/DQ1*%
X101400000Y-75700000D03*
X101000000Y-64800000D03*
%TO.N,/A7*%
X117000000Y-69800000D03*
X116200000Y-54250000D03*
%TO.N,/A2*%
X117800000Y-62700000D03*
X118650000Y-81250000D03*
%TO.N,/A5*%
X121400000Y-79100000D03*
X117800000Y-54250000D03*
%TO.N,/DQ10*%
X103300000Y-69800000D03*
X105800000Y-54250000D03*
%TO.N,/BA1*%
X114600000Y-62700000D03*
X114050000Y-78200000D03*
%TO.N,/DQ14*%
X100700000Y-72200000D03*
X101000000Y-54250000D03*
%TO.N,/A0*%
X116550000Y-82500000D03*
X118600000Y-66200000D03*
%TO.N,/UDQM*%
X115300000Y-85650000D03*
X112550000Y-55500000D03*
%TO.N,/nCS*%
X114400000Y-86950000D03*
X113000000Y-62700000D03*
%TO.N,/DQ12*%
X103400000Y-53500000D03*
X101350000Y-68550000D03*
%TO.N,/A1*%
X117575000Y-81775000D03*
X117750000Y-65200000D03*
%TO.N,/DQ8*%
X108200000Y-53250000D03*
X105750000Y-70150000D03*
%TO.N,/DQ13*%
X101800000Y-53250000D03*
X99650000Y-70950000D03*
%TO.N,/nWE*%
X108850000Y-74250000D03*
X110600000Y-61550000D03*
%TO.N,/A6*%
X117000000Y-53250000D03*
X117975000Y-69150000D03*
%TO.N,/CKE*%
X113100000Y-87300000D03*
X112250000Y-54250000D03*
%TO.N,/CODEC_SCLK*%
X105775000Y-107625000D03*
X123700000Y-84800000D03*
%TO.N,/CODEC_DOUT*%
X108400000Y-107000000D03*
X122650000Y-86700000D03*
%TO.N,/CODEC_DIN*%
X107100000Y-105800000D03*
X121875000Y-84575000D03*
%TO.N,/CODEC_LRCLK*%
X107150000Y-108275000D03*
X124525000Y-86700000D03*
%TO.N,/CODEC_MCLK*%
X109000000Y-109025000D03*
X125550000Y-87825000D03*
%TO.N,/VAG*%
X99059729Y-103675000D03*
%TO.N,/ADC3_IN5*%
X106600000Y-86000000D03*
%TO.N,/ADC3_IN7*%
X105100000Y-83900000D03*
%TO.N,/ADC3_IN4*%
X107700000Y-86000000D03*
%TO.N,/ADC3_IN11*%
X116975000Y-73725000D03*
%TO.N,/ADC3_IN13*%
X116975000Y-71500000D03*
%TO.N,/ADC3_IN8*%
X105200000Y-82600000D03*
%TO.N,/ADC3_IN6*%
X105400000Y-86000000D03*
%TO.N,/ADC3_IN12*%
X116975000Y-72600000D03*
%TO.N,/ADC3_IN3*%
X121400000Y-65400000D03*
%TO.N,/ADC3_IN2*%
X110800000Y-73100000D03*
%TD*%
D41*
%TO.N,/SD_DETECT*%
X123670000Y-107940000D02*
X123665000Y-107945000D01*
D42*
X124320000Y-107940000D02*
X123670000Y-107940000D01*
D41*
X114250000Y-88662500D02*
X114250000Y-91050000D01*
X124700000Y-101500000D02*
X124700000Y-105920000D01*
X114250000Y-91050000D02*
X124700000Y-101500000D01*
%TO.N,/SD_DAT3*%
X115000000Y-96200000D02*
X115000000Y-98545000D01*
X114100000Y-99445000D02*
X113165000Y-99445000D01*
X107890000Y-92840000D02*
X109950000Y-94900000D01*
X101750000Y-88662500D02*
X101750000Y-90100000D01*
X113700000Y-94900000D02*
X115000000Y-96200000D01*
X104490000Y-92840000D02*
X107890000Y-92840000D01*
X109950000Y-94900000D02*
X113700000Y-94900000D01*
X115000000Y-98545000D02*
X114100000Y-99445000D01*
X101750000Y-90100000D02*
X104490000Y-92840000D01*
%TO.N,/SD_DAT1*%
X110725000Y-99525000D02*
X110725000Y-102325000D01*
X97040000Y-82250000D02*
X96290000Y-83000000D01*
X98337500Y-82250000D02*
X97040000Y-82250000D01*
X111700000Y-103300000D02*
X111700000Y-105380000D01*
X107900000Y-96700000D02*
X110725000Y-99525000D01*
X110725000Y-102325000D02*
X111700000Y-103300000D01*
X96300000Y-88140000D02*
X96300000Y-92000000D01*
X112365000Y-106045000D02*
X113165000Y-106045000D01*
X96300000Y-92000000D02*
X101000000Y-96700000D01*
X101000000Y-96700000D02*
X107900000Y-96700000D01*
X111700000Y-105380000D02*
X112365000Y-106045000D01*
%TO.N,/SD_CLK*%
X102750000Y-90200000D02*
X102250000Y-89700000D01*
X109950000Y-93650000D02*
X108125000Y-91825000D01*
X104825000Y-91825000D02*
X103200000Y-90200000D01*
X113165000Y-102745000D02*
X114200000Y-102745000D01*
X113750000Y-93650000D02*
X109950000Y-93650000D01*
X115800000Y-101145000D02*
X115800000Y-95700000D01*
X103200000Y-90200000D02*
X102750000Y-90200000D01*
X108125000Y-91825000D02*
X104825000Y-91825000D01*
X114200000Y-102745000D02*
X115800000Y-101145000D01*
X102250000Y-89700000D02*
X102250000Y-88662500D01*
X115800000Y-95700000D02*
X113750000Y-93650000D01*
%TO.N,/SD_DAT2*%
X108260000Y-94460000D02*
X104560000Y-94460000D01*
X104560000Y-94460000D02*
X101250000Y-91150000D01*
X112145000Y-98345000D02*
X108260000Y-94460000D01*
X113165000Y-98345000D02*
X112145000Y-98345000D01*
X101250000Y-91150000D02*
X101250000Y-88662500D01*
%TO.N,/SD_CMD*%
X112740000Y-91190000D02*
X111350000Y-91190000D01*
X113955000Y-100545000D02*
X113165000Y-100545000D01*
X103750000Y-89432410D02*
X104117590Y-89800000D01*
X104117590Y-89800000D02*
X105507590Y-91190000D01*
X105507590Y-91190000D02*
X111350000Y-91190000D01*
X116750000Y-99450000D02*
X116600000Y-99300000D01*
X116600000Y-95050000D02*
X112740000Y-91190000D01*
X116600000Y-99300000D02*
X116600000Y-95050000D01*
X114400000Y-100100000D02*
X113955000Y-100545000D01*
X103750000Y-88662500D02*
X103750000Y-89432410D01*
%TO.N,/SD_DAT0*%
X101100000Y-82750000D02*
X100100000Y-81750000D01*
X101100000Y-86200000D02*
X101100000Y-82750000D01*
X111650000Y-101500000D02*
X111650000Y-99150000D01*
X107590000Y-95090000D02*
X102290000Y-95090000D01*
X100100000Y-81750000D02*
X98337500Y-81750000D01*
X113165000Y-104945000D02*
X112365000Y-104945000D01*
X111650000Y-99150000D02*
X107590000Y-95090000D01*
X112365000Y-104945000D02*
X112100000Y-104680000D01*
X112100000Y-104680000D02*
X112100000Y-101950000D01*
X99050000Y-88250000D02*
X101100000Y-86200000D01*
X112100000Y-101950000D02*
X111650000Y-101500000D01*
X102290000Y-95090000D02*
X99050000Y-91850000D01*
X99050000Y-91850000D02*
X99050000Y-88250000D01*
%TO.N,/CODEC_SCL*%
X105950000Y-104750000D02*
X104550000Y-104750000D01*
X104400000Y-104600000D02*
X104550000Y-104750000D01*
X115250000Y-89498096D02*
X116426904Y-90675000D01*
X107025000Y-103675000D02*
X105950000Y-104750000D01*
X116426904Y-90675000D02*
X116975000Y-90675000D01*
X102450000Y-104600000D02*
X104400000Y-104600000D01*
X110500000Y-103675000D02*
X107025000Y-103675000D01*
X115250000Y-88662500D02*
X115250000Y-89498096D01*
%TO.N,/CODEC_SDA*%
X115750000Y-88662500D02*
X115750000Y-89432410D01*
X116267590Y-89950000D02*
X117950000Y-89950000D01*
X106800000Y-104725000D02*
X106462500Y-105062500D01*
X115750000Y-89432410D02*
X116267590Y-89950000D01*
X104384315Y-105150000D02*
X106375000Y-105150000D01*
X104234314Y-105000000D02*
X104384315Y-105150000D01*
X106375000Y-105150000D02*
X106462500Y-105062500D01*
X111175000Y-104725000D02*
X106800000Y-104725000D01*
X102450000Y-105000000D02*
X104234314Y-105000000D01*
%TO.N,/LINEIN_R*%
X95150000Y-105000000D02*
X94275000Y-104125000D01*
X99550000Y-105000000D02*
X95150000Y-105000000D01*
D43*
%TO.N,/nRST*%
X120650000Y-74750000D02*
X120900000Y-74500000D01*
D41*
X126550000Y-70850000D02*
X128700000Y-68700000D01*
X128700000Y-68700000D02*
X128700000Y-66900000D01*
X128340000Y-66540000D02*
X126950000Y-66540000D01*
D43*
X119662500Y-74750000D02*
X120650000Y-74750000D01*
D41*
X123850000Y-70850000D02*
X126550000Y-70850000D01*
X128700000Y-66900000D02*
X128340000Y-66540000D01*
%TO.N,/VCP_RX*%
X120638082Y-69750000D02*
X121138082Y-69250000D01*
X123050000Y-68600000D02*
X123050000Y-67810000D01*
X121138082Y-69250000D02*
X122400000Y-69250000D01*
X122400000Y-69250000D02*
X123050000Y-68600000D01*
X119662500Y-69750000D02*
X120638082Y-69750000D01*
%TO.N,/SWCLK*%
X125150000Y-62750000D02*
X126930000Y-62750000D01*
X101800000Y-86342590D02*
X101800000Y-85350000D01*
X100250000Y-88662500D02*
X100250000Y-87892590D01*
X126930000Y-62750000D02*
X126950000Y-62730000D01*
X100250000Y-87892590D02*
X101800000Y-86342590D01*
%TO.N,/SWDIO*%
X98337500Y-85250000D02*
X99450000Y-85250000D01*
X99450000Y-85250000D02*
X100150000Y-84550000D01*
X125400000Y-61500000D02*
X126910000Y-61500000D01*
X126910000Y-61500000D02*
X126950000Y-61460000D01*
%TO.N,/SWO*%
X112475000Y-86675000D02*
X112475000Y-87667590D01*
X125450000Y-64000000D02*
X126950000Y-64000000D01*
X112475000Y-87667590D02*
X112300000Y-87842590D01*
X112300000Y-87842590D02*
X112300000Y-88612500D01*
X113275000Y-85875000D02*
X112475000Y-86675000D01*
X112300000Y-88612500D02*
X112250000Y-88662500D01*
%TO.N,/VCP_TX*%
X120853768Y-70100000D02*
X120703768Y-70250000D01*
X120703768Y-70250000D02*
X119662500Y-70250000D01*
X125650000Y-70100000D02*
X120853768Y-70100000D01*
X126950000Y-68800000D02*
X125650000Y-70100000D01*
X126950000Y-67810000D02*
X126950000Y-68800000D01*
%TO.N,/OSC_OUT*%
X119662500Y-75250000D02*
X121590000Y-75250000D01*
%TO.N,/XTAL_OUT*%
X122610000Y-75250000D02*
X123150000Y-75250000D01*
X123900000Y-74500000D02*
X124700000Y-74500000D01*
X125100000Y-73020000D02*
X125120000Y-73000000D01*
X125100000Y-74100000D02*
X125100000Y-73020000D01*
X124700000Y-74500000D02*
X125100000Y-74100000D01*
X123150000Y-75250000D02*
X123900000Y-74500000D01*
%TO.N,/OSC32_OUT*%
X120700000Y-82750000D02*
X122700000Y-80750000D01*
D43*
X125280000Y-80470000D02*
X125000000Y-80750000D01*
D41*
X119662500Y-82750000D02*
X120700000Y-82750000D01*
X122700000Y-80750000D02*
X123900000Y-80750000D01*
D43*
X125750000Y-80470000D02*
X125280000Y-80470000D01*
X125000000Y-80750000D02*
X123900000Y-80750000D01*
D41*
%TO.N,/OSC_IN*%
X126100000Y-78180000D02*
X126080000Y-78200000D01*
X120750000Y-75750000D02*
X121050000Y-76050000D01*
X126200000Y-75600000D02*
X123750000Y-75600000D01*
X122850000Y-76050000D02*
X123300000Y-76050000D01*
X126100000Y-77100000D02*
X126100000Y-78180000D01*
X126500000Y-76700000D02*
X126500000Y-75900000D01*
X119662500Y-75750000D02*
X120750000Y-75750000D01*
X121200000Y-76050000D02*
X122850000Y-76050000D01*
X126500000Y-75900000D02*
X126200000Y-75600000D01*
X123750000Y-75600000D02*
X123300000Y-76050000D01*
X126500000Y-76700000D02*
X126100000Y-77100000D01*
X121050000Y-76050000D02*
X121200000Y-76050000D01*
%TO.N,/OSC32_IN*%
X119662500Y-83250000D02*
X123900000Y-83250000D01*
D43*
X125280000Y-83530000D02*
X125000000Y-83250000D01*
X125750000Y-83530000D02*
X125280000Y-83530000D01*
X125000000Y-83250000D02*
X123900000Y-83250000D01*
D41*
%TO.N,/BOOT0*%
X116300000Y-91475000D02*
X114750000Y-89925000D01*
X114750000Y-89925000D02*
X114750000Y-88662500D01*
X117965000Y-91475000D02*
X116300000Y-91475000D01*
D42*
%TO.N,+1V8*%
X105325000Y-104125000D02*
X106950000Y-102500000D01*
D41*
X104900000Y-104200000D02*
X104975000Y-104125000D01*
D42*
X106950000Y-101637500D02*
X108487500Y-101637500D01*
D41*
X102450000Y-104200000D02*
X104900000Y-104200000D01*
D42*
X104975000Y-104125000D02*
X105325000Y-104125000D01*
X106950000Y-102500000D02*
X106950000Y-101637500D01*
X108487500Y-101637500D02*
X108500000Y-101625000D01*
D43*
%TO.N,/VCAP_2*%
X97230000Y-85750000D02*
X98337500Y-85750000D01*
X96950000Y-85470000D02*
X97230000Y-85750000D01*
D41*
%TO.N,/VCAP_1*%
X100750000Y-67337500D02*
X100750000Y-66306372D01*
%TO.N,/USB_DP*%
X98337500Y-84750000D02*
X95870000Y-84750000D01*
X95870000Y-84750000D02*
X94275000Y-86345000D01*
%TO.N,/USB_DM*%
X95960000Y-84250000D02*
X95515000Y-83805000D01*
X98337500Y-84250000D02*
X95960000Y-84250000D01*
X95515000Y-83805000D02*
X94275000Y-83805000D01*
D44*
%TO.N,+3.3V*%
X109000000Y-62700000D02*
X109000000Y-63750000D01*
D43*
X119662500Y-84250000D02*
X118450000Y-84250000D01*
X116750000Y-68380000D02*
X116750000Y-67337500D01*
X119662500Y-72250000D02*
X120900000Y-72250000D01*
D44*
X106600000Y-93860000D02*
X106010000Y-93860000D01*
D43*
X106400000Y-87500000D02*
X106250000Y-87650000D01*
D42*
X114050000Y-101650000D02*
X113170000Y-101650000D01*
D43*
X100250000Y-67337500D02*
X100250000Y-68550000D01*
X111250000Y-87600000D02*
X111250000Y-88642500D01*
X106600000Y-100500000D02*
X105400000Y-100500000D01*
D42*
X102900000Y-99362500D02*
X102787500Y-99250000D01*
D44*
X100200000Y-62700000D02*
X100200000Y-63750000D01*
D43*
X118450000Y-71100000D02*
X118600000Y-71250000D01*
D44*
X107400000Y-52250000D02*
X107400000Y-51200000D01*
D43*
X106950000Y-100150000D02*
X106600000Y-100500000D01*
D44*
X105000000Y-62700000D02*
X105000000Y-63750000D01*
D43*
X111400000Y-87450000D02*
X111250000Y-87600000D01*
X117750000Y-87600000D02*
X117750000Y-88642500D01*
X105250000Y-68380000D02*
X105250000Y-67337500D01*
X118125000Y-78600000D02*
X118275000Y-78750000D01*
D41*
X100600000Y-108200000D02*
X100625000Y-108225000D01*
D44*
X103150000Y-96110000D02*
X102610000Y-96110000D01*
X101650000Y-95690000D02*
X102190000Y-95690000D01*
X105590000Y-93440000D02*
X105850000Y-93700000D01*
D43*
X99550000Y-86900000D02*
X99400000Y-86750000D01*
X105100000Y-68530000D02*
X105250000Y-68380000D01*
D42*
X106950000Y-97900000D02*
X107250000Y-97600000D01*
X106950000Y-99362500D02*
X106950000Y-97900000D01*
X121560000Y-61460000D02*
X123050000Y-61460000D01*
D43*
X118600000Y-71250000D02*
X119642500Y-71250000D01*
D44*
X102610000Y-96110000D02*
X102400000Y-95900000D01*
D42*
X109700000Y-105810000D02*
X109700000Y-106400000D01*
D43*
X105400000Y-100500000D02*
X105050000Y-100150000D01*
X110250000Y-68625000D02*
X110250000Y-67337500D01*
X99400000Y-80250000D02*
X98357500Y-80250000D01*
D41*
X117250000Y-88662500D02*
X117750000Y-88662500D01*
D44*
X105100000Y-93440000D02*
X105590000Y-93440000D01*
D43*
X117900000Y-87450000D02*
X117750000Y-87600000D01*
X118275000Y-78750000D02*
X119642500Y-78750000D01*
D42*
X105050000Y-99362500D02*
X102900000Y-99362500D01*
D43*
X110100000Y-68775000D02*
X110250000Y-68625000D01*
D44*
X102600000Y-52250000D02*
X102600000Y-51200000D01*
D43*
X106250000Y-87650000D02*
X106250000Y-88692500D01*
D42*
X113170000Y-101650000D02*
X113165000Y-101645000D01*
D44*
X102190000Y-95690000D02*
X102400000Y-95900000D01*
D43*
X116600000Y-68530000D02*
X116750000Y-68380000D01*
D44*
X98600000Y-62700000D02*
X98600000Y-63750000D01*
D43*
X98337500Y-74750000D02*
X99550000Y-74750000D01*
D41*
X100600000Y-106450000D02*
X100600000Y-108200000D01*
D44*
X111350000Y-92210000D02*
X111350000Y-92800000D01*
D43*
X99400000Y-86750000D02*
X98357500Y-86750000D01*
X106950000Y-99362500D02*
X106950000Y-100150000D01*
X105050000Y-100150000D02*
X105050000Y-99362500D01*
D42*
X109700000Y-102590000D02*
X109700000Y-102000000D01*
D43*
X99550000Y-80400000D02*
X99400000Y-80250000D01*
D44*
X106010000Y-93860000D02*
X105850000Y-93700000D01*
X119400000Y-62700000D02*
X119400000Y-63750000D01*
D42*
%TO.N,+3.3VA*%
X101212500Y-99250000D02*
X101212500Y-100737500D01*
D43*
X119662500Y-70750000D02*
X120900000Y-70750000D01*
D41*
X101000000Y-103550000D02*
X101000000Y-102800000D01*
X101000000Y-102800000D02*
X100750000Y-102550000D01*
D42*
X101225000Y-101425000D02*
X100750000Y-101900000D01*
X101225000Y-100750000D02*
X101225000Y-101425000D01*
X101212500Y-100737500D02*
X101225000Y-100750000D01*
D41*
X100750000Y-102550000D02*
X100750000Y-101900000D01*
%TO.N,/DQ4*%
X106500000Y-61415628D02*
X104934372Y-61415628D01*
X104200000Y-62150000D02*
X104200000Y-63750000D01*
X104934372Y-61415628D02*
X104200000Y-62150000D01*
X107250000Y-68800000D02*
X107250000Y-67337500D01*
X106750000Y-69300000D02*
X107250000Y-68800000D01*
%TO.N,/A4*%
X118600000Y-52250000D02*
X118600000Y-53250000D01*
X122075000Y-80225000D02*
X119687500Y-80225000D01*
X119687500Y-80225000D02*
X119662500Y-80250000D01*
%TO.N,/CLK*%
X111400000Y-52250000D02*
X111400000Y-53250000D01*
X99357537Y-79050000D02*
X99157537Y-79250000D01*
X110150000Y-79050000D02*
X99357537Y-79050000D01*
X99157537Y-79250000D02*
X98337500Y-79250000D01*
X110250000Y-78950000D02*
X110150000Y-79050000D01*
%TO.N,/LDQM*%
X109800000Y-63750000D02*
X109800000Y-61850000D01*
X108325000Y-83775000D02*
X108950000Y-84400000D01*
X108950000Y-84400000D02*
X112950000Y-84400000D01*
X112950000Y-84400000D02*
X116250000Y-87700000D01*
X116250000Y-87700000D02*
X116250000Y-88662500D01*
X109800000Y-61850000D02*
X109400000Y-61450000D01*
D42*
%TO.N,GND*%
X102750000Y-101900000D02*
X102750000Y-100775000D01*
D41*
X98337500Y-74250000D02*
X97390000Y-74250000D01*
D44*
X126080000Y-73455000D02*
X126200000Y-73575000D01*
X98600000Y-52250000D02*
X98600000Y-51200000D01*
D41*
X96975000Y-74665000D02*
X96975000Y-75080000D01*
D44*
X117475000Y-107200000D02*
X117475000Y-107935000D01*
D42*
X121580000Y-64000000D02*
X123050000Y-64000000D01*
D44*
X126200000Y-73575000D02*
X126200000Y-74200000D01*
X100200000Y-52250000D02*
X100200000Y-51200000D01*
D41*
X97390000Y-74250000D02*
X96975000Y-74665000D01*
D43*
X118600000Y-79250000D02*
X119642500Y-79250000D01*
D44*
X128260000Y-94450000D02*
X128265000Y-94445000D01*
D42*
X121580000Y-66540000D02*
X123050000Y-66540000D01*
D43*
X117400000Y-68530000D02*
X117250000Y-68380000D01*
D44*
X113175000Y-96025000D02*
X113175000Y-96785000D01*
D43*
X118450000Y-79400000D02*
X118600000Y-79250000D01*
D42*
X108500000Y-99350000D02*
X108500000Y-100075000D01*
D44*
X102600000Y-63750000D02*
X102600000Y-62700000D01*
X117475000Y-107935000D02*
X117465000Y-107945000D01*
X125000000Y-77625000D02*
X125000000Y-77000000D01*
X113150000Y-107010000D02*
X113165000Y-106995000D01*
X125120000Y-77745000D02*
X125000000Y-77625000D01*
D43*
X105900000Y-68530000D02*
X105750000Y-68380000D01*
X118600000Y-71750000D02*
X119642500Y-71750000D01*
D42*
X106000000Y-97900000D02*
X105700000Y-97600000D01*
D43*
X118450000Y-71900000D02*
X118600000Y-71750000D01*
D44*
X126080000Y-73000000D02*
X126080000Y-73455000D01*
D42*
X102750000Y-100775000D02*
X102775000Y-100750000D01*
D43*
X105600000Y-87500000D02*
X105750000Y-87650000D01*
D44*
X113175000Y-96785000D02*
X113165000Y-96795000D01*
D42*
X114050000Y-103850000D02*
X113170000Y-103850000D01*
X106000000Y-99362500D02*
X106000000Y-97900000D01*
D43*
X99400000Y-86250000D02*
X98357500Y-86250000D01*
D44*
X125000000Y-77000000D02*
X124700000Y-76700000D01*
D43*
X97470000Y-86250000D02*
X96950000Y-86770000D01*
X110900000Y-68530000D02*
X110750000Y-68380000D01*
D42*
X113170000Y-103850000D02*
X113165000Y-103845000D01*
D44*
X127815000Y-107945000D02*
X126155000Y-107945000D01*
X105000000Y-52250000D02*
X105000000Y-51200000D01*
D43*
X110750000Y-87600000D02*
X110750000Y-88642500D01*
X110600000Y-87450000D02*
X110750000Y-87600000D01*
X99400000Y-79750000D02*
X98357500Y-79750000D01*
X105750000Y-68380000D02*
X105750000Y-67337500D01*
D44*
X109000000Y-52250000D02*
X109000000Y-51200000D01*
D42*
X121590000Y-62730000D02*
X123050000Y-62730000D01*
D43*
X99550000Y-86100000D02*
X99400000Y-86250000D01*
D44*
X119400000Y-52250000D02*
X119400000Y-51200000D01*
D43*
X110750000Y-68380000D02*
X110750000Y-67337500D01*
D42*
X118985000Y-91475000D02*
X119675000Y-91475000D01*
D43*
X99550000Y-79600000D02*
X99400000Y-79750000D01*
D44*
X125750000Y-81430000D02*
X125750000Y-82000000D01*
X125120000Y-78200000D02*
X125120000Y-77745000D01*
D43*
X98337500Y-86250000D02*
X97470000Y-86250000D01*
D44*
X126155000Y-107945000D02*
X126150000Y-107950000D01*
X113150000Y-107600000D02*
X113150000Y-107010000D01*
X127025000Y-94450000D02*
X128260000Y-94450000D01*
X126200000Y-74200000D02*
X126500000Y-74500000D01*
X107400000Y-63750000D02*
X107400000Y-62700000D01*
X125750000Y-82570000D02*
X125750000Y-82000000D01*
D43*
X117250000Y-68380000D02*
X117250000Y-67337500D01*
X105750000Y-87650000D02*
X105750000Y-88692500D01*
D41*
%TO.N,/DQ2*%
X102750000Y-88662500D02*
X102750000Y-87000000D01*
X102750000Y-87000000D02*
X102500000Y-86750000D01*
X101800000Y-61700000D02*
X101800000Y-63750000D01*
%TO.N,/DQ6*%
X106600000Y-62700000D02*
X106600000Y-63750000D01*
X106250000Y-65642464D02*
X106250000Y-67337500D01*
X106003768Y-65396232D02*
X106250000Y-65642464D01*
%TO.N,/A9*%
X108700000Y-69700000D02*
X109800000Y-70800000D01*
X108750000Y-68173096D02*
X108700000Y-68223097D01*
X114850000Y-70800000D02*
X115525000Y-71475000D01*
X108700000Y-68223097D02*
X108700000Y-69700000D01*
X114600000Y-54250000D02*
X114600000Y-52250000D01*
X108750000Y-67337500D02*
X108750000Y-68173096D01*
X109800000Y-70800000D02*
X114850000Y-70800000D01*
%TO.N,/A8*%
X109100000Y-69300000D02*
X109100000Y-68388782D01*
X109250000Y-68238782D02*
X109250000Y-67337500D01*
X115751398Y-70354906D02*
X110154906Y-70354906D01*
X115400000Y-53250000D02*
X115400000Y-52250000D01*
X110154906Y-70354906D02*
X109100000Y-69300000D01*
X109100000Y-68388782D02*
X109250000Y-68238782D01*
%TO.N,/A10*%
X115100000Y-72550000D02*
X113850000Y-71300000D01*
X109550000Y-71300000D02*
X108250000Y-70000000D01*
X108250000Y-70000000D02*
X108250000Y-67337500D01*
X113850000Y-71300000D02*
X109550000Y-71300000D01*
X115400000Y-64800000D02*
X115400000Y-63750000D01*
%TO.N,/DQ15*%
X99450000Y-72275000D02*
X99425000Y-72250000D01*
X99425000Y-72250000D02*
X98337500Y-72250000D01*
X99400000Y-53250000D02*
X99400000Y-52250000D01*
%TO.N,/A3*%
X118600000Y-61500000D02*
X118600000Y-63750000D01*
X120700000Y-80750000D02*
X119662500Y-80750000D01*
%TO.N,/DQ5*%
X105800000Y-63750000D02*
X105800000Y-64450000D01*
X106750000Y-65400000D02*
X106750000Y-67337500D01*
X105800000Y-64450000D02*
X106750000Y-65400000D01*
%TO.N,/nCAS*%
X111950000Y-87642463D02*
X111750000Y-87842463D01*
X111750000Y-87842463D02*
X111750000Y-88662500D01*
X111950000Y-85550000D02*
X111950000Y-87642463D01*
X111400000Y-63750000D02*
X111400000Y-62700000D01*
%TO.N,/DQ11*%
X102150000Y-69450000D02*
X102750000Y-68850000D01*
X104200000Y-54250000D02*
X104200000Y-52250000D01*
X102750000Y-68850000D02*
X102750000Y-67337500D01*
%TO.N,/DQ0*%
X99400000Y-64800000D02*
X99400000Y-63750000D01*
X98337500Y-75250000D02*
X98362500Y-75275000D01*
X98362500Y-75275000D02*
X100225000Y-75275000D01*
X100225000Y-75275000D02*
X100700000Y-74800000D01*
%TO.N,/DQ3*%
X103400000Y-63750000D02*
X103400000Y-61775000D01*
X103800000Y-86300000D02*
X103250000Y-86850000D01*
X103250000Y-86850000D02*
X103250000Y-88662500D01*
X103400000Y-61775000D02*
X103125000Y-61500000D01*
%TO.N,/BA0*%
X100000000Y-77250000D02*
X98337500Y-77250000D01*
X113900000Y-76400000D02*
X113500000Y-76800000D01*
X113500000Y-76800000D02*
X100450000Y-76800000D01*
X100450000Y-76800000D02*
X100000000Y-77250000D01*
X113800000Y-63750000D02*
X113800000Y-61500000D01*
%TO.N,/DQ9*%
X106600000Y-52250000D02*
X106600000Y-53250000D01*
X103750000Y-69300000D02*
X103750000Y-67337500D01*
X104450000Y-70000000D02*
X103750000Y-69300000D01*
%TO.N,/A11*%
X107750000Y-70997058D02*
X107750000Y-67337500D01*
X114600000Y-73600000D02*
X114400000Y-73800000D01*
X110552942Y-73800000D02*
X107750000Y-70997058D01*
X113800000Y-53250000D02*
X113800000Y-52250000D01*
X114400000Y-73800000D02*
X110552942Y-73800000D01*
%TO.N,/DQ7*%
X104750000Y-66392942D02*
X104796204Y-66346738D01*
X104750000Y-67337500D02*
X104750000Y-66392942D01*
X108200000Y-64800000D02*
X108200000Y-63750000D01*
%TO.N,/DQ1*%
X101000000Y-64800000D02*
X101000000Y-63750000D01*
X101400000Y-75700000D02*
X101350000Y-75750000D01*
X101350000Y-75750000D02*
X98337500Y-75750000D01*
%TO.N,/A7*%
X115657537Y-69800000D02*
X117000000Y-69800000D01*
X109750000Y-67337500D02*
X109750000Y-68382537D01*
X109575000Y-68557537D02*
X109575000Y-68992463D01*
X109575000Y-68992463D02*
X110432537Y-69850000D01*
X109750000Y-68382537D02*
X109575000Y-68557537D01*
X110432537Y-69850000D02*
X115607537Y-69850000D01*
X115607537Y-69850000D02*
X115657537Y-69800000D01*
X116200000Y-54250000D02*
X116200000Y-52250000D01*
%TO.N,/A2*%
X119662500Y-81250000D02*
X118650000Y-81250000D01*
X117800000Y-63750000D02*
X117800000Y-62700000D01*
%TO.N,/A5*%
X120750000Y-79750000D02*
X119662500Y-79750000D01*
X121400000Y-79100000D02*
X120750000Y-79750000D01*
X117800000Y-52250000D02*
X117800000Y-54250000D01*
%TO.N,/DQ10*%
X103300000Y-69800000D02*
X103250000Y-69750000D01*
X105800000Y-54250000D02*
X105800000Y-52250000D01*
X103250000Y-69750000D02*
X103250000Y-67337500D01*
%TO.N,/BA1*%
X114050000Y-78200000D02*
X100500000Y-78200000D01*
X114600000Y-63750000D02*
X114600000Y-62700000D01*
X100500000Y-78200000D02*
X100050000Y-77750000D01*
X100050000Y-77750000D02*
X98337500Y-77750000D01*
%TO.N,/DQ14*%
X100250000Y-71750000D02*
X98337500Y-71750000D01*
X100700000Y-72200000D02*
X100250000Y-71750000D01*
X101000000Y-54250000D02*
X101000000Y-52250000D01*
%TO.N,/A0*%
X117600000Y-66200000D02*
X116200000Y-64800000D01*
X116200000Y-64800000D02*
X116200000Y-63750000D01*
X118600000Y-66200000D02*
X117600000Y-66200000D01*
X116550000Y-82500000D02*
X117750000Y-82500000D01*
X118000000Y-82250000D02*
X119662500Y-82250000D01*
X117750000Y-82500000D02*
X118000000Y-82250000D01*
%TO.N,/UDQM*%
X116750000Y-87100000D02*
X115300000Y-85650000D01*
X116750000Y-88662500D02*
X116750000Y-87100000D01*
X110600000Y-53550000D02*
X110600000Y-52250000D01*
X112550000Y-55500000D02*
X110600000Y-53550000D01*
%TO.N,/nCS*%
X113750000Y-88662500D02*
X113750000Y-87600000D01*
X113000000Y-63750000D02*
X113000000Y-62700000D01*
X113750000Y-87600000D02*
X114400000Y-86950000D01*
%TO.N,/DQ12*%
X101807410Y-68550000D02*
X102250000Y-68107410D01*
X102250000Y-68107410D02*
X102250000Y-67337500D01*
X101350000Y-68550000D02*
X101807410Y-68550000D01*
X103400000Y-53500000D02*
X103400000Y-52250000D01*
%TO.N,/A1*%
X117575000Y-81775000D02*
X119637500Y-81775000D01*
X117000000Y-64450000D02*
X117750000Y-65200000D01*
X119637500Y-81775000D02*
X119662500Y-81750000D01*
X117000000Y-63750000D02*
X117000000Y-64450000D01*
%TO.N,/nRAS*%
X112200000Y-65300000D02*
X111750000Y-65750000D01*
X111750000Y-65750000D02*
X111750000Y-67337500D01*
X112200000Y-63750000D02*
X112200000Y-65300000D01*
%TO.N,/DQ8*%
X104250000Y-68650000D02*
X104250000Y-67337500D01*
X108200000Y-52250000D02*
X108200000Y-53250000D01*
X105750000Y-70150000D02*
X104250000Y-68650000D01*
%TO.N,/DQ13*%
X99350000Y-71250000D02*
X99650000Y-70950000D01*
X101800000Y-52250000D02*
X101800000Y-53250000D01*
X98337500Y-71250000D02*
X99350000Y-71250000D01*
%TO.N,/nWE*%
X108850000Y-74250000D02*
X119662500Y-74250000D01*
X110600000Y-63750000D02*
X110600000Y-61550000D01*
%TO.N,/A6*%
X112492590Y-69350000D02*
X111250000Y-68107410D01*
X116000000Y-69350000D02*
X112492590Y-69350000D01*
X117000000Y-52250000D02*
X117000000Y-53250000D01*
X116200000Y-69150000D02*
X116000000Y-69350000D01*
X111250000Y-68107410D02*
X111250000Y-67337500D01*
X117975000Y-69150000D02*
X116200000Y-69150000D01*
%TO.N,/CKE*%
X113250000Y-87450000D02*
X113250000Y-88662500D01*
X112250000Y-54250000D02*
X112200000Y-54200000D01*
X112200000Y-54200000D02*
X112200000Y-52250000D01*
X113100000Y-87300000D02*
X113250000Y-87450000D01*
%TO.N,/CODEC_SCLK*%
X101800000Y-107075000D02*
X102750000Y-108025000D01*
X119662500Y-85250000D02*
X123250000Y-85250000D01*
X105175000Y-108225000D02*
X105775000Y-107625000D01*
X102950000Y-108225000D02*
X104300000Y-108225000D01*
X104300000Y-108225000D02*
X105175000Y-108225000D01*
X102750000Y-108025000D02*
X102950000Y-108225000D01*
X123250000Y-85250000D02*
X123700000Y-84800000D01*
X101800000Y-106450000D02*
X101800000Y-107075000D01*
%TO.N,/CODEC_DOUT*%
X103560000Y-105800000D02*
X104510000Y-106750000D01*
X122650000Y-86700000D02*
X122200000Y-86250000D01*
X104510000Y-106750000D02*
X105280000Y-106750000D01*
X108150000Y-106750000D02*
X105280000Y-106750000D01*
X102450000Y-105800000D02*
X103560000Y-105800000D01*
X122200000Y-86250000D02*
X119662500Y-86250000D01*
X108400000Y-107000000D02*
X108150000Y-106750000D01*
%TO.N,/CODEC_DIN*%
X121875000Y-84575000D02*
X121700000Y-84750000D01*
X102450000Y-105400000D02*
X104068629Y-105400000D01*
X104468629Y-105800000D02*
X107100000Y-105800000D01*
X104068629Y-105400000D02*
X104468629Y-105800000D01*
X121700000Y-84750000D02*
X119662500Y-84750000D01*
%TO.N,/LINEIN_L*%
X98820000Y-105400000D02*
X97555000Y-106665000D01*
X97555000Y-106665000D02*
X94275000Y-106665000D01*
X99550000Y-105400000D02*
X98820000Y-105400000D01*
%TO.N,/LINEOUT_L*%
X96350000Y-102450000D02*
X95485000Y-101585000D01*
X95485000Y-101585000D02*
X94275000Y-101585000D01*
X96350000Y-103830000D02*
X96350000Y-102450000D01*
X99550000Y-104600000D02*
X97120000Y-104600000D01*
X97120000Y-104600000D02*
X96350000Y-103830000D01*
%TO.N,/LINEOUT_R*%
X99550000Y-104200000D02*
X97632536Y-104200000D01*
X97476268Y-104043732D02*
X97250000Y-103817463D01*
X96045000Y-99045000D02*
X94275000Y-99045000D01*
X97250000Y-103817463D02*
X97250000Y-100250000D01*
X97250000Y-100250000D02*
X96045000Y-99045000D01*
X97632536Y-104200000D02*
X97476268Y-104043732D01*
%TO.N,/CODEC_LRCLK*%
X102784315Y-108625000D02*
X103775000Y-108625000D01*
X101400000Y-106450000D02*
X101400000Y-107240686D01*
X123575000Y-85750000D02*
X119662500Y-85750000D01*
X124525000Y-86700000D02*
X123575000Y-85750000D01*
X103775000Y-108625000D02*
X106800000Y-108625000D01*
X101400000Y-107240686D02*
X102250000Y-108090686D01*
X106800000Y-108625000D02*
X107150000Y-108275000D01*
X102250000Y-108090686D02*
X102784315Y-108625000D01*
%TO.N,/CODEC_MCLK*%
X121550000Y-86750000D02*
X119662500Y-86750000D01*
X101000000Y-107857537D02*
X101000000Y-106450000D01*
X125550000Y-87825000D02*
X122625000Y-87825000D01*
X102167463Y-109025000D02*
X101000000Y-107857537D01*
X109000000Y-109025000D02*
X102167463Y-109025000D01*
X122625000Y-87825000D02*
X121550000Y-86750000D01*
%TO.N,/VAG*%
X99059729Y-103675000D02*
X99184729Y-103550000D01*
X99184729Y-103550000D02*
X100200000Y-103550000D01*
%TO.N,/ADC3_IN5*%
X106600000Y-84134315D02*
X108184315Y-82550000D01*
X106600000Y-86000000D02*
X106600000Y-84134315D01*
X118583149Y-77750000D02*
X119662500Y-77750000D01*
X112625000Y-82550000D02*
X117500000Y-77675000D01*
X118508148Y-77675000D02*
X118583149Y-77750000D01*
X117500000Y-77675000D02*
X118508148Y-77675000D01*
X108184315Y-82550000D02*
X112625000Y-82550000D01*
%TO.N,/ADC3_IN7*%
X107600000Y-81400000D02*
X112643628Y-81400000D01*
X117293628Y-76750000D02*
X119662500Y-76750000D01*
X105100000Y-83900000D02*
X107600000Y-81400000D01*
X112643628Y-81400000D02*
X117293628Y-76750000D01*
%TO.N,/ADC3_IN4*%
X118517463Y-78250000D02*
X119662500Y-78250000D01*
X117665686Y-78075000D02*
X118342463Y-78075000D01*
X107700000Y-86000000D02*
X107700000Y-83600000D01*
X107700000Y-83600000D02*
X108175000Y-83125000D01*
X112615686Y-83125000D02*
X117665686Y-78075000D01*
X118342463Y-78075000D02*
X118517463Y-78250000D01*
X108175000Y-83125000D02*
X112615686Y-83125000D01*
%TO.N,/ADC3_IN11*%
X116975000Y-73725000D02*
X117000000Y-73750000D01*
X117000000Y-73750000D02*
X119662500Y-73750000D01*
%TO.N,/ADC3_IN13*%
X116975000Y-71500000D02*
X118225000Y-72750000D01*
X118225000Y-72750000D02*
X119662500Y-72750000D01*
%TO.N,/ADC3_IN8*%
X112627942Y-80850000D02*
X117227942Y-76250000D01*
X117227942Y-76250000D02*
X119662500Y-76250000D01*
X106950000Y-80850000D02*
X112627942Y-80850000D01*
X105200000Y-82600000D02*
X106950000Y-80850000D01*
%TO.N,/ADC3_IN6*%
X117359314Y-77250000D02*
X119662500Y-77250000D01*
X105400000Y-84768630D02*
X108193630Y-81975000D01*
X112634314Y-81975000D02*
X117359314Y-77250000D01*
X105400000Y-86000000D02*
X105400000Y-84768630D01*
X108193630Y-81975000D02*
X112634314Y-81975000D01*
%TO.N,/ADC3_IN12*%
X116975000Y-72600000D02*
X117625000Y-73250000D01*
X117625000Y-73250000D02*
X119662500Y-73250000D01*
%TO.N,/ADC3_IN3*%
X117750000Y-67337500D02*
X119462500Y-67337500D01*
X119462500Y-67337500D02*
X121400000Y-65400000D01*
%TO.N,/ADC3_IN2*%
X117182538Y-70550000D02*
X117600000Y-70550000D01*
X116450000Y-71282537D02*
X117182538Y-70550000D01*
X116450000Y-71957538D02*
X116450000Y-71282537D01*
X115332537Y-73075000D02*
X116450000Y-71957538D01*
X118500000Y-69642590D02*
X118500000Y-69650000D01*
X110825000Y-73075000D02*
X115332537Y-73075000D01*
X118500000Y-69642590D02*
X118892590Y-69250000D01*
X110800000Y-73100000D02*
X110825000Y-73075000D01*
X118892590Y-69250000D02*
X119662500Y-69250000D01*
X118500000Y-69650000D02*
X117600000Y-70550000D01*
%TO.N,/PB10*%
X101750000Y-65998223D02*
X101750000Y-67337500D01*
X94275000Y-55865000D02*
X96885000Y-55865000D01*
X97760000Y-64531372D02*
X98610000Y-65381372D01*
X97760000Y-56740000D02*
X97760000Y-64531372D01*
X96885000Y-55865000D02*
X97760000Y-56740000D01*
X98610000Y-65381372D02*
X101133148Y-65381372D01*
X101133148Y-65381372D02*
X101750000Y-65998223D01*
%TO.N,/PB11*%
X97360000Y-64697058D02*
X98444314Y-65781372D01*
X101275000Y-66088909D02*
X101275000Y-66523835D01*
X100967463Y-65781372D02*
X101275000Y-66088909D01*
X97360000Y-59140000D02*
X97360000Y-64697058D01*
X101250000Y-66548835D02*
X101250000Y-67337500D01*
X101275000Y-66523835D02*
X101250000Y-66548835D01*
X98444314Y-65781372D02*
X100967463Y-65781372D01*
X96625000Y-58405000D02*
X97360000Y-59140000D01*
X94275000Y-58405000D02*
X96625000Y-58405000D01*
%TO.N,/PD13*%
X96560000Y-72935686D02*
X97374314Y-73750000D01*
X97374314Y-73750000D02*
X98337500Y-73750000D01*
X94275000Y-63485000D02*
X96560000Y-65770000D01*
X96560000Y-65770000D02*
X96560000Y-72935686D01*
%TO.N,/PD12*%
X96960000Y-63630000D02*
X96960000Y-72770000D01*
X97440000Y-73250000D02*
X98337500Y-73250000D01*
X96960000Y-72770000D02*
X97440000Y-73250000D01*
X94275000Y-60945000D02*
X96960000Y-63630000D01*
%TD*%
M02*
