M48
; DRILL file {KiCad 8.0.1-8.0.1-1~ubuntu22.04.1} date 2024-03-29T10:29:48+0100
; FORMAT={-:-/ absolute / inch / decimal}
; #@! TF.CreationDate,2024-03-29T10:29:48+01:00
; #@! TF.GenerationSoftware,Kicad,Pcbnew,8.0.1-8.0.1-1~ubuntu22.04.1
; #@! TF.FileFunction,Plated,1,6,PTH
FMAT,2
INCH
; #@! TA.AperFunction,Plated,PTH,ViaDrill
T1C0.0118
; #@! TA.AperFunction,Plated,PTH,ComponentDrill
T2C0.0197
; #@! TA.AperFunction,Plated,PTH,ComponentDrill
T3C0.0394
; #@! TA.AperFunction,Plated,PTH,ComponentDrill
T4C0.1260
%
G90
G05
T1
X3.6909Y-4.2874
X3.7559Y-2.3484
X3.7598Y-4.0512
X3.7854Y-2.0138
X3.7874Y-3.9724
X3.7894Y-2.248
X3.7894Y-3.0256
X3.7909Y-3.2677
X3.7913Y-3.4701
X3.7933Y-4.1713
X3.7953Y-3.1299
X3.8031Y-2.1358
X3.8031Y-3.7343
X3.815Y-3.2953
X3.8169Y-3.365
X3.8169Y-3.4161
X3.8179Y-2.9559
X3.8189Y-3.813
X3.8209Y-4.2736
X3.8287Y-3.4665
X3.832Y-2.0738
X3.8425Y-3.5512
X3.8484Y-3.8898
X3.8701Y-2.1614
X3.8701Y-3.9685
X3.876Y-3.6457
X3.8819Y-2.0157
X3.8819Y-2.3819
X3.8819Y-2.4685
X3.8839Y-3.7795
X3.9Y-4.0817
X3.9008Y-4.0461
X3.9075Y-2.6969
X3.9134Y-2.0965
X3.9134Y-2.5512
X3.9154Y-2.8455
X3.9193Y-2.9429
X3.9193Y-3.1339
X3.9193Y-3.1654
X3.9193Y-3.3898
X3.9193Y-3.4213
X3.9232Y-2.7933
X3.9272Y-3.0098
X3.9272Y-3.8465
X3.9276Y-4.2665
X3.939Y-3.5512
X3.9429Y-3.3287
X3.9449Y-2.0157
X3.9449Y-2.4685
X3.9469Y-2.1142
X3.9469Y-2.6988
X3.9547Y-2.3169
X3.9567Y-4.1339
X3.9587Y-2.3839
X3.9587Y-3.3602
X3.9616Y-4.2608
X3.9646Y-2.8425
X3.9646Y-2.9449
X3.9665Y-2.6105
X3.9665Y-4.0118
X3.9705Y-3.7461
X3.9764Y-2.1358
X3.9764Y-2.5512
X3.9764Y-4.1535
X3.9768Y-4.1142
X3.9902Y-2.6988
X3.9921Y-2.9803
X3.9961Y-2.2756
X3.9961Y-4.1339
X4.002Y-3.6535
X4.0039Y-3.2087
X4.0059Y-4.0118
X4.0079Y-2.0965
X4.0079Y-2.4291
X4.0079Y-3.3602
X4.0079Y-3.435
X4.0217Y-2.7343
X4.0256Y-2.3524
X4.0291Y-4.0807
X4.0315Y-2.4016
X4.0315Y-3.7756
X4.0354Y-2.7677
X4.0354Y-3.4154
X4.0374Y-2.1122
X4.0394Y-2.0157
X4.0394Y-2.1791
X4.0394Y-2.2953
X4.0394Y-2.4685
X4.0433Y-2.2362
X4.0453Y-4.0118
X4.06Y-2.4213
X4.0669Y-2.748
X4.0709Y-2.1063
X4.0768Y-3.8504
X4.0866Y-3.3976
X4.0906Y-3.7776
X4.1024Y-2.1358
X4.1122Y-2.7559
X4.1161Y-3.3858
X4.1258Y-2.6121
X4.126Y-3.1594
X4.128Y-4.2323
X4.1329Y-4.0994
X4.1339Y-2.0157
X4.1339Y-2.1142
X4.1339Y-2.4685
X4.1339Y-2.7854
X4.1378Y-2.698
X4.1378Y-3.3031
X4.1417Y-3.252
X4.1496Y-3.3858
X4.1575Y-2.9331
X4.1575Y-3.4449
X4.1634Y-2.7618
X4.1644Y-4.2372
X4.1654Y-2.1358
X4.1673Y-3.689
X4.1693Y-2.698
X4.1732Y-3.874
X4.1734Y-2.5747
X4.189Y-3.4449
X4.1929Y-2.4179
X4.1969Y-2.0965
X4.1969Y-2.4685
X4.1969Y-3.3858
X4.2028Y-2.7283
X4.2067Y-2.7677
X4.2106Y-3.874
X4.2165Y-4.1654
X4.2185Y-3.4134
X4.2185Y-4.2628
X4.2264Y-2.3957
X4.2283Y-2.0157
X4.2283Y-2.1201
X4.2283Y-2.4685
X4.2402Y-3.3858
X4.2461Y-3.689
X4.2598Y-2.0965
X4.2598Y-2.5512
X4.2648Y-3.2982
X4.2677Y-4.2126
X4.2717Y-3.9114
X4.2835Y-4.1024
X4.2854Y-2.9232
X4.2854Y-2.9587
X4.2913Y-2.0157
X4.2913Y-2.4685
X4.2913Y-4.2923
X4.2933Y-3.1457
X4.3031Y-2.2343
X4.3031Y-2.3307
X4.3071Y-2.4193
X4.311Y-2.1476
X4.3189Y-4.0157
X4.3189Y-4.189
X4.3346Y-2.3917
X4.3346Y-2.7077
X4.3406Y-3.1083
X4.3445Y-2.2854
X4.3465Y-2.8484
X4.3504Y-2.187
X4.3504Y-4.0817
X4.3543Y-2.4232
X4.3543Y-3.4429
X4.3622Y-2.878
X4.3661Y-2.698
X4.377Y-4.123
X4.3819Y-3.3937
X4.3839Y-3.6535
X4.3858Y-2.0965
X4.3858Y-2.4685
X4.3858Y-3.4429
X4.3858Y-3.7756
X4.3937Y-2.0039
X4.4075Y-3.3681
X4.4193Y-2.1358
X4.4311Y-2.185
X4.4488Y-2.1161
X4.4488Y-2.4685
X4.4528Y-3.437
X4.4547Y-2.0059
X4.4547Y-2.1535
X4.4547Y-4.2362
X4.4557Y-3.7805
X4.4596Y-3.3809
X4.4626Y-2.3839
X4.4724Y-3.4114
X4.4803Y-2.0965
X4.4803Y-2.4213
X4.4843Y-3.0079
X4.4902Y-3.0787
X4.4902Y-4.002
X4.4902Y-4.0886
X4.5039Y-3.4232
X4.5039Y-3.9409
X4.5098Y-2.435
X4.5098Y-3.9744
X4.5118Y-2.1358
X4.5118Y-2.4685
X4.5118Y-2.8976
X4.5138Y-2.0039
X4.5276Y-3.0453
X4.5295Y-2.9744
X4.5315Y-2.8563
X4.5394Y-3.372
X4.5413Y-3.3366
X4.5433Y-2.0965
X4.5433Y-2.5512
X4.5482Y-2.814
X4.5571Y-2.7699
X4.5748Y-2.0039
X4.5748Y-2.1358
X4.5807Y-3.3189
X4.5886Y-3.248
X4.5906Y-2.698
X4.5965Y-3.9154
X4.6024Y-3.2933
X4.6053Y-2.815
X4.6053Y-2.8583
X4.6053Y-2.9026
X4.6053Y-3.5699
X4.6063Y-2.0965
X4.6063Y-2.748
X4.6063Y-3.9508
X4.622Y-2.698
X4.625Y-4.2205
X4.6289Y-3.2195
X4.6319Y-3.8425
X4.6339Y-2.4331
X4.6358Y-2.5669
X4.6378Y-2.1358
X4.6378Y-2.4685
X4.6398Y-2.002
X4.6417Y-3.3583
X4.6417Y-3.4429
X4.6437Y-2.248
X4.6437Y-3.5413
X4.6447Y-2.7224
X4.6476Y-2.3406
X4.6476Y-3.7776
X4.6506Y-3.0945
X4.6634Y-2.7992
X4.6634Y-2.8307
X4.6634Y-3.126
X4.6634Y-3.3169
X4.6634Y-3.5098
X4.6654Y-2.9528
X4.6673Y-3.6791
X4.6693Y-2.0965
X4.6693Y-2.4213
X4.6693Y-2.6063
X4.6713Y-2.1358
X4.6713Y-3.1988
X4.7008Y-2.0157
X4.7008Y-2.378
X4.7008Y-2.4685
X4.7028Y-2.2992
X4.7116Y-3.6014
X4.7126Y-3.7362
X4.7283Y-4.1398
X4.75Y-4.2835
X4.752Y-3.1791
X4.7579Y-2.0945
X4.7598Y-2.7854
X4.7598Y-2.8445
X4.7598Y-2.9331
X4.7736Y-4.0827
X4.7795Y-2.5748
X4.7795Y-3.1142
X4.7835Y-2.0197
X4.7858Y-2.4197
X4.7866Y-2.5197
X4.7866Y-2.6197
X4.787Y-2.4697
X4.7874Y-3.1929
X4.7874Y-3.5217
X4.7982Y-3.3297
X4.8051Y-2.248
X4.8061Y-3.1585
X4.811Y-3.6083
X4.811Y-3.6909
X4.813Y-3.7579
X4.813Y-3.8465
X4.8287Y-3.4134
X4.8346Y-3.1122
X4.8346Y-3.3346
X4.8366Y-4.0276
X4.8406Y-2.7854
X4.8406Y-2.8445
X4.8602Y-2.7362
X4.8602Y-2.8937
X4.8701Y-3.3386
X4.876Y-2.7894
X4.8945Y-4.2496
X4.9026Y-3.4134
X4.9035Y-4.2913
X4.9094Y-4.1701
X4.9213Y-3.0561
X4.9272Y-2.4705
X4.935Y-3.126
X4.937Y-2.4213
X4.937Y-3.4232
X4.939Y-2.5197
X4.9429Y-3.4577
X4.9449Y-4.1594
X4.9508Y-3.2283
X4.9665Y-4.25
X4.9685Y-2.8967
X4.9744Y-3.3543
X4.9823Y-3.7933
X4.9843Y-2.8307
X4.9882Y-3.9469
X4.9902Y-3.5925
X4.9902Y-4.0335
X4.9941Y-3.5197
X4.998Y-4.1083
X5.001Y-3.7185
X5.0177Y-3.4291
X5.0177Y-3.8799
X5.0276Y-3.2953
X5.0374Y-3.1319
X5.0492Y-3.2244
X5.0531Y-4.1752
X5.0571Y-3.9783
X5.0571Y-4.063
X5.0591Y-2.7776
X5.0591Y-3.3661
X5.0591Y-3.5591
X5.0591Y-3.6299
X5.061Y-3.4843
X5.065Y-3.0315
X5.0709Y-2.9094
T2
X4.8661Y-2.126
X4.8938Y-2.0592
X4.8938Y-2.1928
X4.9606Y-2.0315
X4.9606Y-2.2205
X5.0274Y-2.0592
X5.0274Y-2.1928
X5.0551Y-2.126
T3
X3.6116Y-2.0994
X3.6116Y-2.1994
X3.6116Y-2.2994
X3.6116Y-2.3994
X3.6116Y-2.4994
X3.6116Y-2.5994
X3.6116Y-2.6994
X3.6116Y-2.7994
X3.6116Y-2.8994
X3.6116Y-2.9994
X3.6116Y-3.0994
X3.6116Y-3.1994
X3.6116Y-3.2994
X3.6116Y-3.3994
X3.6116Y-3.4994
X3.6116Y-3.5994
X3.6116Y-3.6994
X3.6116Y-3.7994
X3.6116Y-3.8994
X3.6116Y-3.9994
X3.6116Y-4.0994
X3.6116Y-4.1994
X3.7116Y-2.0994
X3.7116Y-2.1994
X3.7116Y-2.2994
X3.7116Y-2.3994
X3.7116Y-2.4994
X3.7116Y-2.5994
X3.7116Y-2.6994
X3.7116Y-2.7994
X3.7116Y-2.8994
X3.7116Y-2.9994
X3.7116Y-3.0994
X3.7116Y-3.1994
X3.7116Y-3.2994
X3.7116Y-3.3994
X3.7116Y-3.4994
X3.7116Y-3.5994
X3.7116Y-3.6994
X3.7116Y-3.7994
X3.7116Y-3.8994
X3.7116Y-3.9994
X3.7116Y-4.0994
X3.7116Y-4.1994
T4
X4.9606Y-2.126
M30
