%TF.GenerationSoftware,KiCad,Pcbnew,8.0.1-8.0.1-1~ubuntu22.04.1*%
%TF.CreationDate,2024-03-29T10:29:51+01:00*%
%TF.ProjectId,dsp_som,6473705f-736f-46d2-9e6b-696361645f70,1.0*%
%TF.SameCoordinates,Original*%
%TF.FileFunction,Legend,Bot*%
%TF.FilePolarity,Positive*%
%FSLAX46Y46*%
G04 Gerber Fmt 4.6, Leading zero omitted, Abs format (unit mm)*
G04 Created by KiCad (PCBNEW 8.0.1-8.0.1-1~ubuntu22.04.1) date 2024-03-29 10:29:51*
%MOMM*%
%LPD*%
G01*
G04 APERTURE LIST*
%ADD10C,0.150000*%
%ADD11C,0.100000*%
%ADD12C,0.120000*%
G04 APERTURE END LIST*
D10*
X100659580Y-82357142D02*
X100707200Y-82309523D01*
X100707200Y-82309523D02*
X100754819Y-82166666D01*
X100754819Y-82166666D02*
X100754819Y-82071428D01*
X100754819Y-82071428D02*
X100707200Y-81928571D01*
X100707200Y-81928571D02*
X100611961Y-81833333D01*
X100611961Y-81833333D02*
X100516723Y-81785714D01*
X100516723Y-81785714D02*
X100326247Y-81738095D01*
X100326247Y-81738095D02*
X100183390Y-81738095D01*
X100183390Y-81738095D02*
X99992914Y-81785714D01*
X99992914Y-81785714D02*
X99897676Y-81833333D01*
X99897676Y-81833333D02*
X99802438Y-81928571D01*
X99802438Y-81928571D02*
X99754819Y-82071428D01*
X99754819Y-82071428D02*
X99754819Y-82166666D01*
X99754819Y-82166666D02*
X99802438Y-82309523D01*
X99802438Y-82309523D02*
X99850057Y-82357142D01*
X99754819Y-82690476D02*
X99754819Y-83309523D01*
X99754819Y-83309523D02*
X100135771Y-82976190D01*
X100135771Y-82976190D02*
X100135771Y-83119047D01*
X100135771Y-83119047D02*
X100183390Y-83214285D01*
X100183390Y-83214285D02*
X100231009Y-83261904D01*
X100231009Y-83261904D02*
X100326247Y-83309523D01*
X100326247Y-83309523D02*
X100564342Y-83309523D01*
X100564342Y-83309523D02*
X100659580Y-83261904D01*
X100659580Y-83261904D02*
X100707200Y-83214285D01*
X100707200Y-83214285D02*
X100754819Y-83119047D01*
X100754819Y-83119047D02*
X100754819Y-82833333D01*
X100754819Y-82833333D02*
X100707200Y-82738095D01*
X100707200Y-82738095D02*
X100659580Y-82690476D01*
X99850057Y-83690476D02*
X99802438Y-83738095D01*
X99802438Y-83738095D02*
X99754819Y-83833333D01*
X99754819Y-83833333D02*
X99754819Y-84071428D01*
X99754819Y-84071428D02*
X99802438Y-84166666D01*
X99802438Y-84166666D02*
X99850057Y-84214285D01*
X99850057Y-84214285D02*
X99945295Y-84261904D01*
X99945295Y-84261904D02*
X100040533Y-84261904D01*
X100040533Y-84261904D02*
X100183390Y-84214285D01*
X100183390Y-84214285D02*
X100754819Y-83642857D01*
X100754819Y-83642857D02*
X100754819Y-84261904D01*
D11*
X104250000Y-63951966D02*
X104283333Y-63985300D01*
X104283333Y-63985300D02*
X104383333Y-64018633D01*
X104383333Y-64018633D02*
X104450000Y-64018633D01*
X104450000Y-64018633D02*
X104550000Y-63985300D01*
X104550000Y-63985300D02*
X104616667Y-63918633D01*
X104616667Y-63918633D02*
X104650000Y-63851966D01*
X104650000Y-63851966D02*
X104683333Y-63718633D01*
X104683333Y-63718633D02*
X104683333Y-63618633D01*
X104683333Y-63618633D02*
X104650000Y-63485300D01*
X104650000Y-63485300D02*
X104616667Y-63418633D01*
X104616667Y-63418633D02*
X104550000Y-63351966D01*
X104550000Y-63351966D02*
X104450000Y-63318633D01*
X104450000Y-63318633D02*
X104383333Y-63318633D01*
X104383333Y-63318633D02*
X104283333Y-63351966D01*
X104283333Y-63351966D02*
X104250000Y-63385300D01*
X103983333Y-63385300D02*
X103950000Y-63351966D01*
X103950000Y-63351966D02*
X103883333Y-63318633D01*
X103883333Y-63318633D02*
X103716667Y-63318633D01*
X103716667Y-63318633D02*
X103650000Y-63351966D01*
X103650000Y-63351966D02*
X103616667Y-63385300D01*
X103616667Y-63385300D02*
X103583333Y-63451966D01*
X103583333Y-63451966D02*
X103583333Y-63518633D01*
X103583333Y-63518633D02*
X103616667Y-63618633D01*
X103616667Y-63618633D02*
X104016667Y-64018633D01*
X104016667Y-64018633D02*
X103583333Y-64018633D01*
X102983333Y-63551966D02*
X102983333Y-64018633D01*
X103150000Y-63285300D02*
X103316666Y-63785300D01*
X103316666Y-63785300D02*
X102883333Y-63785300D01*
X106450000Y-89351966D02*
X106483333Y-89385300D01*
X106483333Y-89385300D02*
X106583333Y-89418633D01*
X106583333Y-89418633D02*
X106650000Y-89418633D01*
X106650000Y-89418633D02*
X106750000Y-89385300D01*
X106750000Y-89385300D02*
X106816667Y-89318633D01*
X106816667Y-89318633D02*
X106850000Y-89251966D01*
X106850000Y-89251966D02*
X106883333Y-89118633D01*
X106883333Y-89118633D02*
X106883333Y-89018633D01*
X106883333Y-89018633D02*
X106850000Y-88885300D01*
X106850000Y-88885300D02*
X106816667Y-88818633D01*
X106816667Y-88818633D02*
X106750000Y-88751966D01*
X106750000Y-88751966D02*
X106650000Y-88718633D01*
X106650000Y-88718633D02*
X106583333Y-88718633D01*
X106583333Y-88718633D02*
X106483333Y-88751966D01*
X106483333Y-88751966D02*
X106450000Y-88785300D01*
X105783333Y-89418633D02*
X106183333Y-89418633D01*
X105983333Y-89418633D02*
X105983333Y-88718633D01*
X105983333Y-88718633D02*
X106050000Y-88818633D01*
X106050000Y-88818633D02*
X106116667Y-88885300D01*
X106116667Y-88885300D02*
X106183333Y-88918633D01*
X105516666Y-88785300D02*
X105483333Y-88751966D01*
X105483333Y-88751966D02*
X105416666Y-88718633D01*
X105416666Y-88718633D02*
X105250000Y-88718633D01*
X105250000Y-88718633D02*
X105183333Y-88751966D01*
X105183333Y-88751966D02*
X105150000Y-88785300D01*
X105150000Y-88785300D02*
X105116666Y-88851966D01*
X105116666Y-88851966D02*
X105116666Y-88918633D01*
X105116666Y-88918633D02*
X105150000Y-89018633D01*
X105150000Y-89018633D02*
X105550000Y-89418633D01*
X105550000Y-89418633D02*
X105116666Y-89418633D01*
X108650000Y-61451966D02*
X108683333Y-61485300D01*
X108683333Y-61485300D02*
X108783333Y-61518633D01*
X108783333Y-61518633D02*
X108850000Y-61518633D01*
X108850000Y-61518633D02*
X108950000Y-61485300D01*
X108950000Y-61485300D02*
X109016667Y-61418633D01*
X109016667Y-61418633D02*
X109050000Y-61351966D01*
X109050000Y-61351966D02*
X109083333Y-61218633D01*
X109083333Y-61218633D02*
X109083333Y-61118633D01*
X109083333Y-61118633D02*
X109050000Y-60985300D01*
X109050000Y-60985300D02*
X109016667Y-60918633D01*
X109016667Y-60918633D02*
X108950000Y-60851966D01*
X108950000Y-60851966D02*
X108850000Y-60818633D01*
X108850000Y-60818633D02*
X108783333Y-60818633D01*
X108783333Y-60818633D02*
X108683333Y-60851966D01*
X108683333Y-60851966D02*
X108650000Y-60885300D01*
X108383333Y-60885300D02*
X108350000Y-60851966D01*
X108350000Y-60851966D02*
X108283333Y-60818633D01*
X108283333Y-60818633D02*
X108116667Y-60818633D01*
X108116667Y-60818633D02*
X108050000Y-60851966D01*
X108050000Y-60851966D02*
X108016667Y-60885300D01*
X108016667Y-60885300D02*
X107983333Y-60951966D01*
X107983333Y-60951966D02*
X107983333Y-61018633D01*
X107983333Y-61018633D02*
X108016667Y-61118633D01*
X108016667Y-61118633D02*
X108416667Y-61518633D01*
X108416667Y-61518633D02*
X107983333Y-61518633D01*
X107350000Y-60818633D02*
X107683333Y-60818633D01*
X107683333Y-60818633D02*
X107716666Y-61151966D01*
X107716666Y-61151966D02*
X107683333Y-61118633D01*
X107683333Y-61118633D02*
X107616666Y-61085300D01*
X107616666Y-61085300D02*
X107450000Y-61085300D01*
X107450000Y-61085300D02*
X107383333Y-61118633D01*
X107383333Y-61118633D02*
X107350000Y-61151966D01*
X107350000Y-61151966D02*
X107316666Y-61218633D01*
X107316666Y-61218633D02*
X107316666Y-61385300D01*
X107316666Y-61385300D02*
X107350000Y-61451966D01*
X107350000Y-61451966D02*
X107383333Y-61485300D01*
X107383333Y-61485300D02*
X107450000Y-61518633D01*
X107450000Y-61518633D02*
X107616666Y-61518633D01*
X107616666Y-61518633D02*
X107683333Y-61485300D01*
X107683333Y-61485300D02*
X107716666Y-61451966D01*
X124650000Y-71001966D02*
X124683333Y-71035300D01*
X124683333Y-71035300D02*
X124783333Y-71068633D01*
X124783333Y-71068633D02*
X124850000Y-71068633D01*
X124850000Y-71068633D02*
X124950000Y-71035300D01*
X124950000Y-71035300D02*
X125016667Y-70968633D01*
X125016667Y-70968633D02*
X125050000Y-70901966D01*
X125050000Y-70901966D02*
X125083333Y-70768633D01*
X125083333Y-70768633D02*
X125083333Y-70668633D01*
X125083333Y-70668633D02*
X125050000Y-70535300D01*
X125050000Y-70535300D02*
X125016667Y-70468633D01*
X125016667Y-70468633D02*
X124950000Y-70401966D01*
X124950000Y-70401966D02*
X124850000Y-70368633D01*
X124850000Y-70368633D02*
X124783333Y-70368633D01*
X124783333Y-70368633D02*
X124683333Y-70401966D01*
X124683333Y-70401966D02*
X124650000Y-70435300D01*
X123983333Y-71068633D02*
X124383333Y-71068633D01*
X124183333Y-71068633D02*
X124183333Y-70368633D01*
X124183333Y-70368633D02*
X124250000Y-70468633D01*
X124250000Y-70468633D02*
X124316667Y-70535300D01*
X124316667Y-70535300D02*
X124383333Y-70568633D01*
X123350000Y-70368633D02*
X123683333Y-70368633D01*
X123683333Y-70368633D02*
X123716666Y-70701966D01*
X123716666Y-70701966D02*
X123683333Y-70668633D01*
X123683333Y-70668633D02*
X123616666Y-70635300D01*
X123616666Y-70635300D02*
X123450000Y-70635300D01*
X123450000Y-70635300D02*
X123383333Y-70668633D01*
X123383333Y-70668633D02*
X123350000Y-70701966D01*
X123350000Y-70701966D02*
X123316666Y-70768633D01*
X123316666Y-70768633D02*
X123316666Y-70935300D01*
X123316666Y-70935300D02*
X123350000Y-71001966D01*
X123350000Y-71001966D02*
X123383333Y-71035300D01*
X123383333Y-71035300D02*
X123450000Y-71068633D01*
X123450000Y-71068633D02*
X123616666Y-71068633D01*
X123616666Y-71068633D02*
X123683333Y-71035300D01*
X123683333Y-71035300D02*
X123716666Y-71001966D01*
X101466666Y-68201966D02*
X101499999Y-68235300D01*
X101499999Y-68235300D02*
X101599999Y-68268633D01*
X101599999Y-68268633D02*
X101666666Y-68268633D01*
X101666666Y-68268633D02*
X101766666Y-68235300D01*
X101766666Y-68235300D02*
X101833333Y-68168633D01*
X101833333Y-68168633D02*
X101866666Y-68101966D01*
X101866666Y-68101966D02*
X101899999Y-67968633D01*
X101899999Y-67968633D02*
X101899999Y-67868633D01*
X101899999Y-67868633D02*
X101866666Y-67735300D01*
X101866666Y-67735300D02*
X101833333Y-67668633D01*
X101833333Y-67668633D02*
X101766666Y-67601966D01*
X101766666Y-67601966D02*
X101666666Y-67568633D01*
X101666666Y-67568633D02*
X101599999Y-67568633D01*
X101599999Y-67568633D02*
X101499999Y-67601966D01*
X101499999Y-67601966D02*
X101466666Y-67635300D01*
X101133333Y-68268633D02*
X100999999Y-68268633D01*
X100999999Y-68268633D02*
X100933333Y-68235300D01*
X100933333Y-68235300D02*
X100899999Y-68201966D01*
X100899999Y-68201966D02*
X100833333Y-68101966D01*
X100833333Y-68101966D02*
X100799999Y-67968633D01*
X100799999Y-67968633D02*
X100799999Y-67701966D01*
X100799999Y-67701966D02*
X100833333Y-67635300D01*
X100833333Y-67635300D02*
X100866666Y-67601966D01*
X100866666Y-67601966D02*
X100933333Y-67568633D01*
X100933333Y-67568633D02*
X101066666Y-67568633D01*
X101066666Y-67568633D02*
X101133333Y-67601966D01*
X101133333Y-67601966D02*
X101166666Y-67635300D01*
X101166666Y-67635300D02*
X101199999Y-67701966D01*
X101199999Y-67701966D02*
X101199999Y-67868633D01*
X101199999Y-67868633D02*
X101166666Y-67935300D01*
X101166666Y-67935300D02*
X101133333Y-67968633D01*
X101133333Y-67968633D02*
X101066666Y-68001966D01*
X101066666Y-68001966D02*
X100933333Y-68001966D01*
X100933333Y-68001966D02*
X100866666Y-67968633D01*
X100866666Y-67968633D02*
X100833333Y-67935300D01*
X100833333Y-67935300D02*
X100799999Y-67868633D01*
D10*
X93338333Y-50449819D02*
X93338333Y-51164104D01*
X93338333Y-51164104D02*
X93385952Y-51306961D01*
X93385952Y-51306961D02*
X93481190Y-51402200D01*
X93481190Y-51402200D02*
X93624047Y-51449819D01*
X93624047Y-51449819D02*
X93719285Y-51449819D01*
X92957380Y-50449819D02*
X92338333Y-50449819D01*
X92338333Y-50449819D02*
X92671666Y-50830771D01*
X92671666Y-50830771D02*
X92528809Y-50830771D01*
X92528809Y-50830771D02*
X92433571Y-50878390D01*
X92433571Y-50878390D02*
X92385952Y-50926009D01*
X92385952Y-50926009D02*
X92338333Y-51021247D01*
X92338333Y-51021247D02*
X92338333Y-51259342D01*
X92338333Y-51259342D02*
X92385952Y-51354580D01*
X92385952Y-51354580D02*
X92433571Y-51402200D01*
X92433571Y-51402200D02*
X92528809Y-51449819D01*
X92528809Y-51449819D02*
X92814523Y-51449819D01*
X92814523Y-51449819D02*
X92909761Y-51402200D01*
X92909761Y-51402200D02*
X92957380Y-51354580D01*
D11*
X101850000Y-63951966D02*
X101883333Y-63985300D01*
X101883333Y-63985300D02*
X101983333Y-64018633D01*
X101983333Y-64018633D02*
X102050000Y-64018633D01*
X102050000Y-64018633D02*
X102150000Y-63985300D01*
X102150000Y-63985300D02*
X102216667Y-63918633D01*
X102216667Y-63918633D02*
X102250000Y-63851966D01*
X102250000Y-63851966D02*
X102283333Y-63718633D01*
X102283333Y-63718633D02*
X102283333Y-63618633D01*
X102283333Y-63618633D02*
X102250000Y-63485300D01*
X102250000Y-63485300D02*
X102216667Y-63418633D01*
X102216667Y-63418633D02*
X102150000Y-63351966D01*
X102150000Y-63351966D02*
X102050000Y-63318633D01*
X102050000Y-63318633D02*
X101983333Y-63318633D01*
X101983333Y-63318633D02*
X101883333Y-63351966D01*
X101883333Y-63351966D02*
X101850000Y-63385300D01*
X101583333Y-63385300D02*
X101550000Y-63351966D01*
X101550000Y-63351966D02*
X101483333Y-63318633D01*
X101483333Y-63318633D02*
X101316667Y-63318633D01*
X101316667Y-63318633D02*
X101250000Y-63351966D01*
X101250000Y-63351966D02*
X101216667Y-63385300D01*
X101216667Y-63385300D02*
X101183333Y-63451966D01*
X101183333Y-63451966D02*
X101183333Y-63518633D01*
X101183333Y-63518633D02*
X101216667Y-63618633D01*
X101216667Y-63618633D02*
X101616667Y-64018633D01*
X101616667Y-64018633D02*
X101183333Y-64018633D01*
X100950000Y-63318633D02*
X100516666Y-63318633D01*
X100516666Y-63318633D02*
X100750000Y-63585300D01*
X100750000Y-63585300D02*
X100650000Y-63585300D01*
X100650000Y-63585300D02*
X100583333Y-63618633D01*
X100583333Y-63618633D02*
X100550000Y-63651966D01*
X100550000Y-63651966D02*
X100516666Y-63718633D01*
X100516666Y-63718633D02*
X100516666Y-63885300D01*
X100516666Y-63885300D02*
X100550000Y-63951966D01*
X100550000Y-63951966D02*
X100583333Y-63985300D01*
X100583333Y-63985300D02*
X100650000Y-64018633D01*
X100650000Y-64018633D02*
X100850000Y-64018633D01*
X100850000Y-64018633D02*
X100916666Y-63985300D01*
X100916666Y-63985300D02*
X100950000Y-63951966D01*
X124550000Y-72501966D02*
X124583333Y-72535300D01*
X124583333Y-72535300D02*
X124683333Y-72568633D01*
X124683333Y-72568633D02*
X124750000Y-72568633D01*
X124750000Y-72568633D02*
X124850000Y-72535300D01*
X124850000Y-72535300D02*
X124916667Y-72468633D01*
X124916667Y-72468633D02*
X124950000Y-72401966D01*
X124950000Y-72401966D02*
X124983333Y-72268633D01*
X124983333Y-72268633D02*
X124983333Y-72168633D01*
X124983333Y-72168633D02*
X124950000Y-72035300D01*
X124950000Y-72035300D02*
X124916667Y-71968633D01*
X124916667Y-71968633D02*
X124850000Y-71901966D01*
X124850000Y-71901966D02*
X124750000Y-71868633D01*
X124750000Y-71868633D02*
X124683333Y-71868633D01*
X124683333Y-71868633D02*
X124583333Y-71901966D01*
X124583333Y-71901966D02*
X124550000Y-71935300D01*
X124283333Y-71935300D02*
X124250000Y-71901966D01*
X124250000Y-71901966D02*
X124183333Y-71868633D01*
X124183333Y-71868633D02*
X124016667Y-71868633D01*
X124016667Y-71868633D02*
X123950000Y-71901966D01*
X123950000Y-71901966D02*
X123916667Y-71935300D01*
X123916667Y-71935300D02*
X123883333Y-72001966D01*
X123883333Y-72001966D02*
X123883333Y-72068633D01*
X123883333Y-72068633D02*
X123916667Y-72168633D01*
X123916667Y-72168633D02*
X124316667Y-72568633D01*
X124316667Y-72568633D02*
X123883333Y-72568633D01*
X123550000Y-72568633D02*
X123416666Y-72568633D01*
X123416666Y-72568633D02*
X123350000Y-72535300D01*
X123350000Y-72535300D02*
X123316666Y-72501966D01*
X123316666Y-72501966D02*
X123250000Y-72401966D01*
X123250000Y-72401966D02*
X123216666Y-72268633D01*
X123216666Y-72268633D02*
X123216666Y-72001966D01*
X123216666Y-72001966D02*
X123250000Y-71935300D01*
X123250000Y-71935300D02*
X123283333Y-71901966D01*
X123283333Y-71901966D02*
X123350000Y-71868633D01*
X123350000Y-71868633D02*
X123483333Y-71868633D01*
X123483333Y-71868633D02*
X123550000Y-71901966D01*
X123550000Y-71901966D02*
X123583333Y-71935300D01*
X123583333Y-71935300D02*
X123616666Y-72001966D01*
X123616666Y-72001966D02*
X123616666Y-72168633D01*
X123616666Y-72168633D02*
X123583333Y-72235300D01*
X123583333Y-72235300D02*
X123550000Y-72268633D01*
X123550000Y-72268633D02*
X123483333Y-72301966D01*
X123483333Y-72301966D02*
X123350000Y-72301966D01*
X123350000Y-72301966D02*
X123283333Y-72268633D01*
X123283333Y-72268633D02*
X123250000Y-72235300D01*
X123250000Y-72235300D02*
X123216666Y-72168633D01*
X120251966Y-78883333D02*
X120285300Y-78850000D01*
X120285300Y-78850000D02*
X120318633Y-78750000D01*
X120318633Y-78750000D02*
X120318633Y-78683333D01*
X120318633Y-78683333D02*
X120285300Y-78583333D01*
X120285300Y-78583333D02*
X120218633Y-78516667D01*
X120218633Y-78516667D02*
X120151966Y-78483333D01*
X120151966Y-78483333D02*
X120018633Y-78450000D01*
X120018633Y-78450000D02*
X119918633Y-78450000D01*
X119918633Y-78450000D02*
X119785300Y-78483333D01*
X119785300Y-78483333D02*
X119718633Y-78516667D01*
X119718633Y-78516667D02*
X119651966Y-78583333D01*
X119651966Y-78583333D02*
X119618633Y-78683333D01*
X119618633Y-78683333D02*
X119618633Y-78750000D01*
X119618633Y-78750000D02*
X119651966Y-78850000D01*
X119651966Y-78850000D02*
X119685300Y-78883333D01*
X119851966Y-79483333D02*
X120318633Y-79483333D01*
X119585300Y-79316667D02*
X120085300Y-79150000D01*
X120085300Y-79150000D02*
X120085300Y-79583333D01*
X97601966Y-102799999D02*
X97635300Y-102766666D01*
X97635300Y-102766666D02*
X97668633Y-102666666D01*
X97668633Y-102666666D02*
X97668633Y-102599999D01*
X97668633Y-102599999D02*
X97635300Y-102499999D01*
X97635300Y-102499999D02*
X97568633Y-102433333D01*
X97568633Y-102433333D02*
X97501966Y-102399999D01*
X97501966Y-102399999D02*
X97368633Y-102366666D01*
X97368633Y-102366666D02*
X97268633Y-102366666D01*
X97268633Y-102366666D02*
X97135300Y-102399999D01*
X97135300Y-102399999D02*
X97068633Y-102433333D01*
X97068633Y-102433333D02*
X97001966Y-102499999D01*
X97001966Y-102499999D02*
X96968633Y-102599999D01*
X96968633Y-102599999D02*
X96968633Y-102666666D01*
X96968633Y-102666666D02*
X97001966Y-102766666D01*
X97001966Y-102766666D02*
X97035300Y-102799999D01*
X96968633Y-103033333D02*
X96968633Y-103466666D01*
X96968633Y-103466666D02*
X97235300Y-103233333D01*
X97235300Y-103233333D02*
X97235300Y-103333333D01*
X97235300Y-103333333D02*
X97268633Y-103399999D01*
X97268633Y-103399999D02*
X97301966Y-103433333D01*
X97301966Y-103433333D02*
X97368633Y-103466666D01*
X97368633Y-103466666D02*
X97535300Y-103466666D01*
X97535300Y-103466666D02*
X97601966Y-103433333D01*
X97601966Y-103433333D02*
X97635300Y-103399999D01*
X97635300Y-103399999D02*
X97668633Y-103333333D01*
X97668633Y-103333333D02*
X97668633Y-103133333D01*
X97668633Y-103133333D02*
X97635300Y-103066666D01*
X97635300Y-103066666D02*
X97601966Y-103033333D01*
X96968633Y-104066666D02*
X96968633Y-103933333D01*
X96968633Y-103933333D02*
X97001966Y-103866666D01*
X97001966Y-103866666D02*
X97035300Y-103833333D01*
X97035300Y-103833333D02*
X97135300Y-103766666D01*
X97135300Y-103766666D02*
X97268633Y-103733333D01*
X97268633Y-103733333D02*
X97535300Y-103733333D01*
X97535300Y-103733333D02*
X97601966Y-103766666D01*
X97601966Y-103766666D02*
X97635300Y-103800000D01*
X97635300Y-103800000D02*
X97668633Y-103866666D01*
X97668633Y-103866666D02*
X97668633Y-104000000D01*
X97668633Y-104000000D02*
X97635300Y-104066666D01*
X97635300Y-104066666D02*
X97601966Y-104100000D01*
X97601966Y-104100000D02*
X97535300Y-104133333D01*
X97535300Y-104133333D02*
X97368633Y-104133333D01*
X97368633Y-104133333D02*
X97301966Y-104100000D01*
X97301966Y-104100000D02*
X97268633Y-104066666D01*
X97268633Y-104066666D02*
X97235300Y-104000000D01*
X97235300Y-104000000D02*
X97235300Y-103866666D01*
X97235300Y-103866666D02*
X97268633Y-103800000D01*
X97268633Y-103800000D02*
X97301966Y-103766666D01*
X97301966Y-103766666D02*
X97368633Y-103733333D01*
X106650000Y-52451966D02*
X106683333Y-52485300D01*
X106683333Y-52485300D02*
X106783333Y-52518633D01*
X106783333Y-52518633D02*
X106850000Y-52518633D01*
X106850000Y-52518633D02*
X106950000Y-52485300D01*
X106950000Y-52485300D02*
X107016667Y-52418633D01*
X107016667Y-52418633D02*
X107050000Y-52351966D01*
X107050000Y-52351966D02*
X107083333Y-52218633D01*
X107083333Y-52218633D02*
X107083333Y-52118633D01*
X107083333Y-52118633D02*
X107050000Y-51985300D01*
X107050000Y-51985300D02*
X107016667Y-51918633D01*
X107016667Y-51918633D02*
X106950000Y-51851966D01*
X106950000Y-51851966D02*
X106850000Y-51818633D01*
X106850000Y-51818633D02*
X106783333Y-51818633D01*
X106783333Y-51818633D02*
X106683333Y-51851966D01*
X106683333Y-51851966D02*
X106650000Y-51885300D01*
X106383333Y-51885300D02*
X106350000Y-51851966D01*
X106350000Y-51851966D02*
X106283333Y-51818633D01*
X106283333Y-51818633D02*
X106116667Y-51818633D01*
X106116667Y-51818633D02*
X106050000Y-51851966D01*
X106050000Y-51851966D02*
X106016667Y-51885300D01*
X106016667Y-51885300D02*
X105983333Y-51951966D01*
X105983333Y-51951966D02*
X105983333Y-52018633D01*
X105983333Y-52018633D02*
X106016667Y-52118633D01*
X106016667Y-52118633D02*
X106416667Y-52518633D01*
X106416667Y-52518633D02*
X105983333Y-52518633D01*
X105583333Y-52118633D02*
X105650000Y-52085300D01*
X105650000Y-52085300D02*
X105683333Y-52051966D01*
X105683333Y-52051966D02*
X105716666Y-51985300D01*
X105716666Y-51985300D02*
X105716666Y-51951966D01*
X105716666Y-51951966D02*
X105683333Y-51885300D01*
X105683333Y-51885300D02*
X105650000Y-51851966D01*
X105650000Y-51851966D02*
X105583333Y-51818633D01*
X105583333Y-51818633D02*
X105450000Y-51818633D01*
X105450000Y-51818633D02*
X105383333Y-51851966D01*
X105383333Y-51851966D02*
X105350000Y-51885300D01*
X105350000Y-51885300D02*
X105316666Y-51951966D01*
X105316666Y-51951966D02*
X105316666Y-51985300D01*
X105316666Y-51985300D02*
X105350000Y-52051966D01*
X105350000Y-52051966D02*
X105383333Y-52085300D01*
X105383333Y-52085300D02*
X105450000Y-52118633D01*
X105450000Y-52118633D02*
X105583333Y-52118633D01*
X105583333Y-52118633D02*
X105650000Y-52151966D01*
X105650000Y-52151966D02*
X105683333Y-52185300D01*
X105683333Y-52185300D02*
X105716666Y-52251966D01*
X105716666Y-52251966D02*
X105716666Y-52385300D01*
X105716666Y-52385300D02*
X105683333Y-52451966D01*
X105683333Y-52451966D02*
X105650000Y-52485300D01*
X105650000Y-52485300D02*
X105583333Y-52518633D01*
X105583333Y-52518633D02*
X105450000Y-52518633D01*
X105450000Y-52518633D02*
X105383333Y-52485300D01*
X105383333Y-52485300D02*
X105350000Y-52451966D01*
X105350000Y-52451966D02*
X105316666Y-52385300D01*
X105316666Y-52385300D02*
X105316666Y-52251966D01*
X105316666Y-52251966D02*
X105350000Y-52185300D01*
X105350000Y-52185300D02*
X105383333Y-52151966D01*
X105383333Y-52151966D02*
X105450000Y-52118633D01*
X118066666Y-83001966D02*
X118099999Y-83035300D01*
X118099999Y-83035300D02*
X118199999Y-83068633D01*
X118199999Y-83068633D02*
X118266666Y-83068633D01*
X118266666Y-83068633D02*
X118366666Y-83035300D01*
X118366666Y-83035300D02*
X118433333Y-82968633D01*
X118433333Y-82968633D02*
X118466666Y-82901966D01*
X118466666Y-82901966D02*
X118499999Y-82768633D01*
X118499999Y-82768633D02*
X118499999Y-82668633D01*
X118499999Y-82668633D02*
X118466666Y-82535300D01*
X118466666Y-82535300D02*
X118433333Y-82468633D01*
X118433333Y-82468633D02*
X118366666Y-82401966D01*
X118366666Y-82401966D02*
X118266666Y-82368633D01*
X118266666Y-82368633D02*
X118199999Y-82368633D01*
X118199999Y-82368633D02*
X118099999Y-82401966D01*
X118099999Y-82401966D02*
X118066666Y-82435300D01*
X117833333Y-82368633D02*
X117399999Y-82368633D01*
X117399999Y-82368633D02*
X117633333Y-82635300D01*
X117633333Y-82635300D02*
X117533333Y-82635300D01*
X117533333Y-82635300D02*
X117466666Y-82668633D01*
X117466666Y-82668633D02*
X117433333Y-82701966D01*
X117433333Y-82701966D02*
X117399999Y-82768633D01*
X117399999Y-82768633D02*
X117399999Y-82935300D01*
X117399999Y-82935300D02*
X117433333Y-83001966D01*
X117433333Y-83001966D02*
X117466666Y-83035300D01*
X117466666Y-83035300D02*
X117533333Y-83068633D01*
X117533333Y-83068633D02*
X117733333Y-83068633D01*
X117733333Y-83068633D02*
X117799999Y-83035300D01*
X117799999Y-83035300D02*
X117833333Y-83001966D01*
D10*
X125642857Y-69859580D02*
X125690476Y-69907200D01*
X125690476Y-69907200D02*
X125833333Y-69954819D01*
X125833333Y-69954819D02*
X125928571Y-69954819D01*
X125928571Y-69954819D02*
X126071428Y-69907200D01*
X126071428Y-69907200D02*
X126166666Y-69811961D01*
X126166666Y-69811961D02*
X126214285Y-69716723D01*
X126214285Y-69716723D02*
X126261904Y-69526247D01*
X126261904Y-69526247D02*
X126261904Y-69383390D01*
X126261904Y-69383390D02*
X126214285Y-69192914D01*
X126214285Y-69192914D02*
X126166666Y-69097676D01*
X126166666Y-69097676D02*
X126071428Y-69002438D01*
X126071428Y-69002438D02*
X125928571Y-68954819D01*
X125928571Y-68954819D02*
X125833333Y-68954819D01*
X125833333Y-68954819D02*
X125690476Y-69002438D01*
X125690476Y-69002438D02*
X125642857Y-69050057D01*
X124690476Y-69954819D02*
X125261904Y-69954819D01*
X124976190Y-69954819D02*
X124976190Y-68954819D01*
X124976190Y-68954819D02*
X125071428Y-69097676D01*
X125071428Y-69097676D02*
X125166666Y-69192914D01*
X125166666Y-69192914D02*
X125261904Y-69240533D01*
X123833333Y-68954819D02*
X124023809Y-68954819D01*
X124023809Y-68954819D02*
X124119047Y-69002438D01*
X124119047Y-69002438D02*
X124166666Y-69050057D01*
X124166666Y-69050057D02*
X124261904Y-69192914D01*
X124261904Y-69192914D02*
X124309523Y-69383390D01*
X124309523Y-69383390D02*
X124309523Y-69764342D01*
X124309523Y-69764342D02*
X124261904Y-69859580D01*
X124261904Y-69859580D02*
X124214285Y-69907200D01*
X124214285Y-69907200D02*
X124119047Y-69954819D01*
X124119047Y-69954819D02*
X123928571Y-69954819D01*
X123928571Y-69954819D02*
X123833333Y-69907200D01*
X123833333Y-69907200D02*
X123785714Y-69859580D01*
X123785714Y-69859580D02*
X123738095Y-69764342D01*
X123738095Y-69764342D02*
X123738095Y-69526247D01*
X123738095Y-69526247D02*
X123785714Y-69431009D01*
X123785714Y-69431009D02*
X123833333Y-69383390D01*
X123833333Y-69383390D02*
X123928571Y-69335771D01*
X123928571Y-69335771D02*
X124119047Y-69335771D01*
X124119047Y-69335771D02*
X124214285Y-69383390D01*
X124214285Y-69383390D02*
X124261904Y-69431009D01*
X124261904Y-69431009D02*
X124309523Y-69526247D01*
D11*
X100700000Y-106851966D02*
X100733333Y-106885300D01*
X100733333Y-106885300D02*
X100833333Y-106918633D01*
X100833333Y-106918633D02*
X100900000Y-106918633D01*
X100900000Y-106918633D02*
X101000000Y-106885300D01*
X101000000Y-106885300D02*
X101066667Y-106818633D01*
X101066667Y-106818633D02*
X101100000Y-106751966D01*
X101100000Y-106751966D02*
X101133333Y-106618633D01*
X101133333Y-106618633D02*
X101133333Y-106518633D01*
X101133333Y-106518633D02*
X101100000Y-106385300D01*
X101100000Y-106385300D02*
X101066667Y-106318633D01*
X101066667Y-106318633D02*
X101000000Y-106251966D01*
X101000000Y-106251966D02*
X100900000Y-106218633D01*
X100900000Y-106218633D02*
X100833333Y-106218633D01*
X100833333Y-106218633D02*
X100733333Y-106251966D01*
X100733333Y-106251966D02*
X100700000Y-106285300D01*
X100466667Y-106218633D02*
X100033333Y-106218633D01*
X100033333Y-106218633D02*
X100266667Y-106485300D01*
X100266667Y-106485300D02*
X100166667Y-106485300D01*
X100166667Y-106485300D02*
X100100000Y-106518633D01*
X100100000Y-106518633D02*
X100066667Y-106551966D01*
X100066667Y-106551966D02*
X100033333Y-106618633D01*
X100033333Y-106618633D02*
X100033333Y-106785300D01*
X100033333Y-106785300D02*
X100066667Y-106851966D01*
X100066667Y-106851966D02*
X100100000Y-106885300D01*
X100100000Y-106885300D02*
X100166667Y-106918633D01*
X100166667Y-106918633D02*
X100366667Y-106918633D01*
X100366667Y-106918633D02*
X100433333Y-106885300D01*
X100433333Y-106885300D02*
X100466667Y-106851966D01*
X99400000Y-106218633D02*
X99733333Y-106218633D01*
X99733333Y-106218633D02*
X99766666Y-106551966D01*
X99766666Y-106551966D02*
X99733333Y-106518633D01*
X99733333Y-106518633D02*
X99666666Y-106485300D01*
X99666666Y-106485300D02*
X99500000Y-106485300D01*
X99500000Y-106485300D02*
X99433333Y-106518633D01*
X99433333Y-106518633D02*
X99400000Y-106551966D01*
X99400000Y-106551966D02*
X99366666Y-106618633D01*
X99366666Y-106618633D02*
X99366666Y-106785300D01*
X99366666Y-106785300D02*
X99400000Y-106851966D01*
X99400000Y-106851966D02*
X99433333Y-106885300D01*
X99433333Y-106885300D02*
X99500000Y-106918633D01*
X99500000Y-106918633D02*
X99666666Y-106918633D01*
X99666666Y-106918633D02*
X99733333Y-106885300D01*
X99733333Y-106885300D02*
X99766666Y-106851966D01*
X100700000Y-103701966D02*
X100733333Y-103735300D01*
X100733333Y-103735300D02*
X100833333Y-103768633D01*
X100833333Y-103768633D02*
X100900000Y-103768633D01*
X100900000Y-103768633D02*
X101000000Y-103735300D01*
X101000000Y-103735300D02*
X101066667Y-103668633D01*
X101066667Y-103668633D02*
X101100000Y-103601966D01*
X101100000Y-103601966D02*
X101133333Y-103468633D01*
X101133333Y-103468633D02*
X101133333Y-103368633D01*
X101133333Y-103368633D02*
X101100000Y-103235300D01*
X101100000Y-103235300D02*
X101066667Y-103168633D01*
X101066667Y-103168633D02*
X101000000Y-103101966D01*
X101000000Y-103101966D02*
X100900000Y-103068633D01*
X100900000Y-103068633D02*
X100833333Y-103068633D01*
X100833333Y-103068633D02*
X100733333Y-103101966D01*
X100733333Y-103101966D02*
X100700000Y-103135300D01*
X100466667Y-103068633D02*
X100033333Y-103068633D01*
X100033333Y-103068633D02*
X100266667Y-103335300D01*
X100266667Y-103335300D02*
X100166667Y-103335300D01*
X100166667Y-103335300D02*
X100100000Y-103368633D01*
X100100000Y-103368633D02*
X100066667Y-103401966D01*
X100066667Y-103401966D02*
X100033333Y-103468633D01*
X100033333Y-103468633D02*
X100033333Y-103635300D01*
X100033333Y-103635300D02*
X100066667Y-103701966D01*
X100066667Y-103701966D02*
X100100000Y-103735300D01*
X100100000Y-103735300D02*
X100166667Y-103768633D01*
X100166667Y-103768633D02*
X100366667Y-103768633D01*
X100366667Y-103768633D02*
X100433333Y-103735300D01*
X100433333Y-103735300D02*
X100466667Y-103701966D01*
X99800000Y-103068633D02*
X99333333Y-103068633D01*
X99333333Y-103068633D02*
X99633333Y-103768633D01*
X111450000Y-89351966D02*
X111483333Y-89385300D01*
X111483333Y-89385300D02*
X111583333Y-89418633D01*
X111583333Y-89418633D02*
X111650000Y-89418633D01*
X111650000Y-89418633D02*
X111750000Y-89385300D01*
X111750000Y-89385300D02*
X111816667Y-89318633D01*
X111816667Y-89318633D02*
X111850000Y-89251966D01*
X111850000Y-89251966D02*
X111883333Y-89118633D01*
X111883333Y-89118633D02*
X111883333Y-89018633D01*
X111883333Y-89018633D02*
X111850000Y-88885300D01*
X111850000Y-88885300D02*
X111816667Y-88818633D01*
X111816667Y-88818633D02*
X111750000Y-88751966D01*
X111750000Y-88751966D02*
X111650000Y-88718633D01*
X111650000Y-88718633D02*
X111583333Y-88718633D01*
X111583333Y-88718633D02*
X111483333Y-88751966D01*
X111483333Y-88751966D02*
X111450000Y-88785300D01*
X110783333Y-89418633D02*
X111183333Y-89418633D01*
X110983333Y-89418633D02*
X110983333Y-88718633D01*
X110983333Y-88718633D02*
X111050000Y-88818633D01*
X111050000Y-88818633D02*
X111116667Y-88885300D01*
X111116667Y-88885300D02*
X111183333Y-88918633D01*
X110550000Y-88718633D02*
X110116666Y-88718633D01*
X110116666Y-88718633D02*
X110350000Y-88985300D01*
X110350000Y-88985300D02*
X110250000Y-88985300D01*
X110250000Y-88985300D02*
X110183333Y-89018633D01*
X110183333Y-89018633D02*
X110150000Y-89051966D01*
X110150000Y-89051966D02*
X110116666Y-89118633D01*
X110116666Y-89118633D02*
X110116666Y-89285300D01*
X110116666Y-89285300D02*
X110150000Y-89351966D01*
X110150000Y-89351966D02*
X110183333Y-89385300D01*
X110183333Y-89385300D02*
X110250000Y-89418633D01*
X110250000Y-89418633D02*
X110450000Y-89418633D01*
X110450000Y-89418633D02*
X110516666Y-89385300D01*
X110516666Y-89385300D02*
X110550000Y-89351966D01*
X99201966Y-88049999D02*
X99235300Y-88016666D01*
X99235300Y-88016666D02*
X99268633Y-87916666D01*
X99268633Y-87916666D02*
X99268633Y-87849999D01*
X99268633Y-87849999D02*
X99235300Y-87749999D01*
X99235300Y-87749999D02*
X99168633Y-87683333D01*
X99168633Y-87683333D02*
X99101966Y-87649999D01*
X99101966Y-87649999D02*
X98968633Y-87616666D01*
X98968633Y-87616666D02*
X98868633Y-87616666D01*
X98868633Y-87616666D02*
X98735300Y-87649999D01*
X98735300Y-87649999D02*
X98668633Y-87683333D01*
X98668633Y-87683333D02*
X98601966Y-87749999D01*
X98601966Y-87749999D02*
X98568633Y-87849999D01*
X98568633Y-87849999D02*
X98568633Y-87916666D01*
X98568633Y-87916666D02*
X98601966Y-88016666D01*
X98601966Y-88016666D02*
X98635300Y-88049999D01*
X99268633Y-88716666D02*
X99268633Y-88316666D01*
X99268633Y-88516666D02*
X98568633Y-88516666D01*
X98568633Y-88516666D02*
X98668633Y-88449999D01*
X98668633Y-88449999D02*
X98735300Y-88383333D01*
X98735300Y-88383333D02*
X98768633Y-88316666D01*
X99268633Y-89383333D02*
X99268633Y-88983333D01*
X99268633Y-89183333D02*
X98568633Y-89183333D01*
X98568633Y-89183333D02*
X98668633Y-89116666D01*
X98668633Y-89116666D02*
X98735300Y-89050000D01*
X98735300Y-89050000D02*
X98768633Y-88983333D01*
X119151966Y-85899999D02*
X119185300Y-85866666D01*
X119185300Y-85866666D02*
X119218633Y-85766666D01*
X119218633Y-85766666D02*
X119218633Y-85699999D01*
X119218633Y-85699999D02*
X119185300Y-85599999D01*
X119185300Y-85599999D02*
X119118633Y-85533333D01*
X119118633Y-85533333D02*
X119051966Y-85499999D01*
X119051966Y-85499999D02*
X118918633Y-85466666D01*
X118918633Y-85466666D02*
X118818633Y-85466666D01*
X118818633Y-85466666D02*
X118685300Y-85499999D01*
X118685300Y-85499999D02*
X118618633Y-85533333D01*
X118618633Y-85533333D02*
X118551966Y-85599999D01*
X118551966Y-85599999D02*
X118518633Y-85699999D01*
X118518633Y-85699999D02*
X118518633Y-85766666D01*
X118518633Y-85766666D02*
X118551966Y-85866666D01*
X118551966Y-85866666D02*
X118585300Y-85899999D01*
X119218633Y-86566666D02*
X119218633Y-86166666D01*
X119218633Y-86366666D02*
X118518633Y-86366666D01*
X118518633Y-86366666D02*
X118618633Y-86299999D01*
X118618633Y-86299999D02*
X118685300Y-86233333D01*
X118685300Y-86233333D02*
X118718633Y-86166666D01*
X118751966Y-87166666D02*
X119218633Y-87166666D01*
X118485300Y-87000000D02*
X118985300Y-86833333D01*
X118985300Y-86833333D02*
X118985300Y-87266666D01*
X120651966Y-61049999D02*
X120685300Y-61016666D01*
X120685300Y-61016666D02*
X120718633Y-60916666D01*
X120718633Y-60916666D02*
X120718633Y-60849999D01*
X120718633Y-60849999D02*
X120685300Y-60749999D01*
X120685300Y-60749999D02*
X120618633Y-60683333D01*
X120618633Y-60683333D02*
X120551966Y-60649999D01*
X120551966Y-60649999D02*
X120418633Y-60616666D01*
X120418633Y-60616666D02*
X120318633Y-60616666D01*
X120318633Y-60616666D02*
X120185300Y-60649999D01*
X120185300Y-60649999D02*
X120118633Y-60683333D01*
X120118633Y-60683333D02*
X120051966Y-60749999D01*
X120051966Y-60749999D02*
X120018633Y-60849999D01*
X120018633Y-60849999D02*
X120018633Y-60916666D01*
X120018633Y-60916666D02*
X120051966Y-61016666D01*
X120051966Y-61016666D02*
X120085300Y-61049999D01*
X120085300Y-61316666D02*
X120051966Y-61349999D01*
X120051966Y-61349999D02*
X120018633Y-61416666D01*
X120018633Y-61416666D02*
X120018633Y-61583333D01*
X120018633Y-61583333D02*
X120051966Y-61649999D01*
X120051966Y-61649999D02*
X120085300Y-61683333D01*
X120085300Y-61683333D02*
X120151966Y-61716666D01*
X120151966Y-61716666D02*
X120218633Y-61716666D01*
X120218633Y-61716666D02*
X120318633Y-61683333D01*
X120318633Y-61683333D02*
X120718633Y-61283333D01*
X120718633Y-61283333D02*
X120718633Y-61716666D01*
X120018633Y-62316666D02*
X120018633Y-62183333D01*
X120018633Y-62183333D02*
X120051966Y-62116666D01*
X120051966Y-62116666D02*
X120085300Y-62083333D01*
X120085300Y-62083333D02*
X120185300Y-62016666D01*
X120185300Y-62016666D02*
X120318633Y-61983333D01*
X120318633Y-61983333D02*
X120585300Y-61983333D01*
X120585300Y-61983333D02*
X120651966Y-62016666D01*
X120651966Y-62016666D02*
X120685300Y-62050000D01*
X120685300Y-62050000D02*
X120718633Y-62116666D01*
X120718633Y-62116666D02*
X120718633Y-62250000D01*
X120718633Y-62250000D02*
X120685300Y-62316666D01*
X120685300Y-62316666D02*
X120651966Y-62350000D01*
X120651966Y-62350000D02*
X120585300Y-62383333D01*
X120585300Y-62383333D02*
X120418633Y-62383333D01*
X120418633Y-62383333D02*
X120351966Y-62350000D01*
X120351966Y-62350000D02*
X120318633Y-62316666D01*
X120318633Y-62316666D02*
X120285300Y-62250000D01*
X120285300Y-62250000D02*
X120285300Y-62116666D01*
X120285300Y-62116666D02*
X120318633Y-62050000D01*
X120318633Y-62050000D02*
X120351966Y-62016666D01*
X120351966Y-62016666D02*
X120418633Y-61983333D01*
X105616666Y-67251966D02*
X105649999Y-67285300D01*
X105649999Y-67285300D02*
X105749999Y-67318633D01*
X105749999Y-67318633D02*
X105816666Y-67318633D01*
X105816666Y-67318633D02*
X105916666Y-67285300D01*
X105916666Y-67285300D02*
X105983333Y-67218633D01*
X105983333Y-67218633D02*
X106016666Y-67151966D01*
X106016666Y-67151966D02*
X106049999Y-67018633D01*
X106049999Y-67018633D02*
X106049999Y-66918633D01*
X106049999Y-66918633D02*
X106016666Y-66785300D01*
X106016666Y-66785300D02*
X105983333Y-66718633D01*
X105983333Y-66718633D02*
X105916666Y-66651966D01*
X105916666Y-66651966D02*
X105816666Y-66618633D01*
X105816666Y-66618633D02*
X105749999Y-66618633D01*
X105749999Y-66618633D02*
X105649999Y-66651966D01*
X105649999Y-66651966D02*
X105616666Y-66685300D01*
X105216666Y-66918633D02*
X105283333Y-66885300D01*
X105283333Y-66885300D02*
X105316666Y-66851966D01*
X105316666Y-66851966D02*
X105349999Y-66785300D01*
X105349999Y-66785300D02*
X105349999Y-66751966D01*
X105349999Y-66751966D02*
X105316666Y-66685300D01*
X105316666Y-66685300D02*
X105283333Y-66651966D01*
X105283333Y-66651966D02*
X105216666Y-66618633D01*
X105216666Y-66618633D02*
X105083333Y-66618633D01*
X105083333Y-66618633D02*
X105016666Y-66651966D01*
X105016666Y-66651966D02*
X104983333Y-66685300D01*
X104983333Y-66685300D02*
X104949999Y-66751966D01*
X104949999Y-66751966D02*
X104949999Y-66785300D01*
X104949999Y-66785300D02*
X104983333Y-66851966D01*
X104983333Y-66851966D02*
X105016666Y-66885300D01*
X105016666Y-66885300D02*
X105083333Y-66918633D01*
X105083333Y-66918633D02*
X105216666Y-66918633D01*
X105216666Y-66918633D02*
X105283333Y-66951966D01*
X105283333Y-66951966D02*
X105316666Y-66985300D01*
X105316666Y-66985300D02*
X105349999Y-67051966D01*
X105349999Y-67051966D02*
X105349999Y-67185300D01*
X105349999Y-67185300D02*
X105316666Y-67251966D01*
X105316666Y-67251966D02*
X105283333Y-67285300D01*
X105283333Y-67285300D02*
X105216666Y-67318633D01*
X105216666Y-67318633D02*
X105083333Y-67318633D01*
X105083333Y-67318633D02*
X105016666Y-67285300D01*
X105016666Y-67285300D02*
X104983333Y-67251966D01*
X104983333Y-67251966D02*
X104949999Y-67185300D01*
X104949999Y-67185300D02*
X104949999Y-67051966D01*
X104949999Y-67051966D02*
X104983333Y-66985300D01*
X104983333Y-66985300D02*
X105016666Y-66951966D01*
X105016666Y-66951966D02*
X105083333Y-66918633D01*
X97951966Y-61149999D02*
X97985300Y-61116666D01*
X97985300Y-61116666D02*
X98018633Y-61016666D01*
X98018633Y-61016666D02*
X98018633Y-60949999D01*
X98018633Y-60949999D02*
X97985300Y-60849999D01*
X97985300Y-60849999D02*
X97918633Y-60783333D01*
X97918633Y-60783333D02*
X97851966Y-60749999D01*
X97851966Y-60749999D02*
X97718633Y-60716666D01*
X97718633Y-60716666D02*
X97618633Y-60716666D01*
X97618633Y-60716666D02*
X97485300Y-60749999D01*
X97485300Y-60749999D02*
X97418633Y-60783333D01*
X97418633Y-60783333D02*
X97351966Y-60849999D01*
X97351966Y-60849999D02*
X97318633Y-60949999D01*
X97318633Y-60949999D02*
X97318633Y-61016666D01*
X97318633Y-61016666D02*
X97351966Y-61116666D01*
X97351966Y-61116666D02*
X97385300Y-61149999D01*
X97385300Y-61416666D02*
X97351966Y-61449999D01*
X97351966Y-61449999D02*
X97318633Y-61516666D01*
X97318633Y-61516666D02*
X97318633Y-61683333D01*
X97318633Y-61683333D02*
X97351966Y-61749999D01*
X97351966Y-61749999D02*
X97385300Y-61783333D01*
X97385300Y-61783333D02*
X97451966Y-61816666D01*
X97451966Y-61816666D02*
X97518633Y-61816666D01*
X97518633Y-61816666D02*
X97618633Y-61783333D01*
X97618633Y-61783333D02*
X98018633Y-61383333D01*
X98018633Y-61383333D02*
X98018633Y-61816666D01*
X97385300Y-62083333D02*
X97351966Y-62116666D01*
X97351966Y-62116666D02*
X97318633Y-62183333D01*
X97318633Y-62183333D02*
X97318633Y-62350000D01*
X97318633Y-62350000D02*
X97351966Y-62416666D01*
X97351966Y-62416666D02*
X97385300Y-62450000D01*
X97385300Y-62450000D02*
X97451966Y-62483333D01*
X97451966Y-62483333D02*
X97518633Y-62483333D01*
X97518633Y-62483333D02*
X97618633Y-62450000D01*
X97618633Y-62450000D02*
X98018633Y-62050000D01*
X98018633Y-62050000D02*
X98018633Y-62483333D01*
X102851966Y-103549999D02*
X102885300Y-103516666D01*
X102885300Y-103516666D02*
X102918633Y-103416666D01*
X102918633Y-103416666D02*
X102918633Y-103349999D01*
X102918633Y-103349999D02*
X102885300Y-103249999D01*
X102885300Y-103249999D02*
X102818633Y-103183333D01*
X102818633Y-103183333D02*
X102751966Y-103149999D01*
X102751966Y-103149999D02*
X102618633Y-103116666D01*
X102618633Y-103116666D02*
X102518633Y-103116666D01*
X102518633Y-103116666D02*
X102385300Y-103149999D01*
X102385300Y-103149999D02*
X102318633Y-103183333D01*
X102318633Y-103183333D02*
X102251966Y-103249999D01*
X102251966Y-103249999D02*
X102218633Y-103349999D01*
X102218633Y-103349999D02*
X102218633Y-103416666D01*
X102218633Y-103416666D02*
X102251966Y-103516666D01*
X102251966Y-103516666D02*
X102285300Y-103549999D01*
X102218633Y-103783333D02*
X102218633Y-104216666D01*
X102218633Y-104216666D02*
X102485300Y-103983333D01*
X102485300Y-103983333D02*
X102485300Y-104083333D01*
X102485300Y-104083333D02*
X102518633Y-104149999D01*
X102518633Y-104149999D02*
X102551966Y-104183333D01*
X102551966Y-104183333D02*
X102618633Y-104216666D01*
X102618633Y-104216666D02*
X102785300Y-104216666D01*
X102785300Y-104216666D02*
X102851966Y-104183333D01*
X102851966Y-104183333D02*
X102885300Y-104149999D01*
X102885300Y-104149999D02*
X102918633Y-104083333D01*
X102918633Y-104083333D02*
X102918633Y-103883333D01*
X102918633Y-103883333D02*
X102885300Y-103816666D01*
X102885300Y-103816666D02*
X102851966Y-103783333D01*
X102518633Y-104616666D02*
X102485300Y-104550000D01*
X102485300Y-104550000D02*
X102451966Y-104516666D01*
X102451966Y-104516666D02*
X102385300Y-104483333D01*
X102385300Y-104483333D02*
X102351966Y-104483333D01*
X102351966Y-104483333D02*
X102285300Y-104516666D01*
X102285300Y-104516666D02*
X102251966Y-104550000D01*
X102251966Y-104550000D02*
X102218633Y-104616666D01*
X102218633Y-104616666D02*
X102218633Y-104750000D01*
X102218633Y-104750000D02*
X102251966Y-104816666D01*
X102251966Y-104816666D02*
X102285300Y-104850000D01*
X102285300Y-104850000D02*
X102351966Y-104883333D01*
X102351966Y-104883333D02*
X102385300Y-104883333D01*
X102385300Y-104883333D02*
X102451966Y-104850000D01*
X102451966Y-104850000D02*
X102485300Y-104816666D01*
X102485300Y-104816666D02*
X102518633Y-104750000D01*
X102518633Y-104750000D02*
X102518633Y-104616666D01*
X102518633Y-104616666D02*
X102551966Y-104550000D01*
X102551966Y-104550000D02*
X102585300Y-104516666D01*
X102585300Y-104516666D02*
X102651966Y-104483333D01*
X102651966Y-104483333D02*
X102785300Y-104483333D01*
X102785300Y-104483333D02*
X102851966Y-104516666D01*
X102851966Y-104516666D02*
X102885300Y-104550000D01*
X102885300Y-104550000D02*
X102918633Y-104616666D01*
X102918633Y-104616666D02*
X102918633Y-104750000D01*
X102918633Y-104750000D02*
X102885300Y-104816666D01*
X102885300Y-104816666D02*
X102851966Y-104850000D01*
X102851966Y-104850000D02*
X102785300Y-104883333D01*
X102785300Y-104883333D02*
X102651966Y-104883333D01*
X102651966Y-104883333D02*
X102585300Y-104850000D01*
X102585300Y-104850000D02*
X102551966Y-104816666D01*
X102551966Y-104816666D02*
X102518633Y-104750000D01*
D10*
X102942857Y-67059580D02*
X102990476Y-67107200D01*
X102990476Y-67107200D02*
X103133333Y-67154819D01*
X103133333Y-67154819D02*
X103228571Y-67154819D01*
X103228571Y-67154819D02*
X103371428Y-67107200D01*
X103371428Y-67107200D02*
X103466666Y-67011961D01*
X103466666Y-67011961D02*
X103514285Y-66916723D01*
X103514285Y-66916723D02*
X103561904Y-66726247D01*
X103561904Y-66726247D02*
X103561904Y-66583390D01*
X103561904Y-66583390D02*
X103514285Y-66392914D01*
X103514285Y-66392914D02*
X103466666Y-66297676D01*
X103466666Y-66297676D02*
X103371428Y-66202438D01*
X103371428Y-66202438D02*
X103228571Y-66154819D01*
X103228571Y-66154819D02*
X103133333Y-66154819D01*
X103133333Y-66154819D02*
X102990476Y-66202438D01*
X102990476Y-66202438D02*
X102942857Y-66250057D01*
X102085714Y-66488152D02*
X102085714Y-67154819D01*
X102323809Y-66107200D02*
X102561904Y-66821485D01*
X102561904Y-66821485D02*
X101942857Y-66821485D01*
X101371428Y-66154819D02*
X101276190Y-66154819D01*
X101276190Y-66154819D02*
X101180952Y-66202438D01*
X101180952Y-66202438D02*
X101133333Y-66250057D01*
X101133333Y-66250057D02*
X101085714Y-66345295D01*
X101085714Y-66345295D02*
X101038095Y-66535771D01*
X101038095Y-66535771D02*
X101038095Y-66773866D01*
X101038095Y-66773866D02*
X101085714Y-66964342D01*
X101085714Y-66964342D02*
X101133333Y-67059580D01*
X101133333Y-67059580D02*
X101180952Y-67107200D01*
X101180952Y-67107200D02*
X101276190Y-67154819D01*
X101276190Y-67154819D02*
X101371428Y-67154819D01*
X101371428Y-67154819D02*
X101466666Y-67107200D01*
X101466666Y-67107200D02*
X101514285Y-67059580D01*
X101514285Y-67059580D02*
X101561904Y-66964342D01*
X101561904Y-66964342D02*
X101609523Y-66773866D01*
X101609523Y-66773866D02*
X101609523Y-66535771D01*
X101609523Y-66535771D02*
X101561904Y-66345295D01*
X101561904Y-66345295D02*
X101514285Y-66250057D01*
X101514285Y-66250057D02*
X101466666Y-66202438D01*
X101466666Y-66202438D02*
X101371428Y-66154819D01*
X119592857Y-73859580D02*
X119640476Y-73907200D01*
X119640476Y-73907200D02*
X119783333Y-73954819D01*
X119783333Y-73954819D02*
X119878571Y-73954819D01*
X119878571Y-73954819D02*
X120021428Y-73907200D01*
X120021428Y-73907200D02*
X120116666Y-73811961D01*
X120116666Y-73811961D02*
X120164285Y-73716723D01*
X120164285Y-73716723D02*
X120211904Y-73526247D01*
X120211904Y-73526247D02*
X120211904Y-73383390D01*
X120211904Y-73383390D02*
X120164285Y-73192914D01*
X120164285Y-73192914D02*
X120116666Y-73097676D01*
X120116666Y-73097676D02*
X120021428Y-73002438D01*
X120021428Y-73002438D02*
X119878571Y-72954819D01*
X119878571Y-72954819D02*
X119783333Y-72954819D01*
X119783333Y-72954819D02*
X119640476Y-73002438D01*
X119640476Y-73002438D02*
X119592857Y-73050057D01*
X119259523Y-72954819D02*
X118640476Y-72954819D01*
X118640476Y-72954819D02*
X118973809Y-73335771D01*
X118973809Y-73335771D02*
X118830952Y-73335771D01*
X118830952Y-73335771D02*
X118735714Y-73383390D01*
X118735714Y-73383390D02*
X118688095Y-73431009D01*
X118688095Y-73431009D02*
X118640476Y-73526247D01*
X118640476Y-73526247D02*
X118640476Y-73764342D01*
X118640476Y-73764342D02*
X118688095Y-73859580D01*
X118688095Y-73859580D02*
X118735714Y-73907200D01*
X118735714Y-73907200D02*
X118830952Y-73954819D01*
X118830952Y-73954819D02*
X119116666Y-73954819D01*
X119116666Y-73954819D02*
X119211904Y-73907200D01*
X119211904Y-73907200D02*
X119259523Y-73859580D01*
X118021428Y-72954819D02*
X117926190Y-72954819D01*
X117926190Y-72954819D02*
X117830952Y-73002438D01*
X117830952Y-73002438D02*
X117783333Y-73050057D01*
X117783333Y-73050057D02*
X117735714Y-73145295D01*
X117735714Y-73145295D02*
X117688095Y-73335771D01*
X117688095Y-73335771D02*
X117688095Y-73573866D01*
X117688095Y-73573866D02*
X117735714Y-73764342D01*
X117735714Y-73764342D02*
X117783333Y-73859580D01*
X117783333Y-73859580D02*
X117830952Y-73907200D01*
X117830952Y-73907200D02*
X117926190Y-73954819D01*
X117926190Y-73954819D02*
X118021428Y-73954819D01*
X118021428Y-73954819D02*
X118116666Y-73907200D01*
X118116666Y-73907200D02*
X118164285Y-73859580D01*
X118164285Y-73859580D02*
X118211904Y-73764342D01*
X118211904Y-73764342D02*
X118259523Y-73573866D01*
X118259523Y-73573866D02*
X118259523Y-73335771D01*
X118259523Y-73335771D02*
X118211904Y-73145295D01*
X118211904Y-73145295D02*
X118164285Y-73050057D01*
X118164285Y-73050057D02*
X118116666Y-73002438D01*
X118116666Y-73002438D02*
X118021428Y-72954819D01*
D11*
X101850000Y-52451966D02*
X101883333Y-52485300D01*
X101883333Y-52485300D02*
X101983333Y-52518633D01*
X101983333Y-52518633D02*
X102050000Y-52518633D01*
X102050000Y-52518633D02*
X102150000Y-52485300D01*
X102150000Y-52485300D02*
X102216667Y-52418633D01*
X102216667Y-52418633D02*
X102250000Y-52351966D01*
X102250000Y-52351966D02*
X102283333Y-52218633D01*
X102283333Y-52218633D02*
X102283333Y-52118633D01*
X102283333Y-52118633D02*
X102250000Y-51985300D01*
X102250000Y-51985300D02*
X102216667Y-51918633D01*
X102216667Y-51918633D02*
X102150000Y-51851966D01*
X102150000Y-51851966D02*
X102050000Y-51818633D01*
X102050000Y-51818633D02*
X101983333Y-51818633D01*
X101983333Y-51818633D02*
X101883333Y-51851966D01*
X101883333Y-51851966D02*
X101850000Y-51885300D01*
X101583333Y-51885300D02*
X101550000Y-51851966D01*
X101550000Y-51851966D02*
X101483333Y-51818633D01*
X101483333Y-51818633D02*
X101316667Y-51818633D01*
X101316667Y-51818633D02*
X101250000Y-51851966D01*
X101250000Y-51851966D02*
X101216667Y-51885300D01*
X101216667Y-51885300D02*
X101183333Y-51951966D01*
X101183333Y-51951966D02*
X101183333Y-52018633D01*
X101183333Y-52018633D02*
X101216667Y-52118633D01*
X101216667Y-52118633D02*
X101616667Y-52518633D01*
X101616667Y-52518633D02*
X101183333Y-52518633D01*
X100950000Y-51818633D02*
X100483333Y-51818633D01*
X100483333Y-51818633D02*
X100783333Y-52518633D01*
X117116666Y-67251966D02*
X117149999Y-67285300D01*
X117149999Y-67285300D02*
X117249999Y-67318633D01*
X117249999Y-67318633D02*
X117316666Y-67318633D01*
X117316666Y-67318633D02*
X117416666Y-67285300D01*
X117416666Y-67285300D02*
X117483333Y-67218633D01*
X117483333Y-67218633D02*
X117516666Y-67151966D01*
X117516666Y-67151966D02*
X117549999Y-67018633D01*
X117549999Y-67018633D02*
X117549999Y-66918633D01*
X117549999Y-66918633D02*
X117516666Y-66785300D01*
X117516666Y-66785300D02*
X117483333Y-66718633D01*
X117483333Y-66718633D02*
X117416666Y-66651966D01*
X117416666Y-66651966D02*
X117316666Y-66618633D01*
X117316666Y-66618633D02*
X117249999Y-66618633D01*
X117249999Y-66618633D02*
X117149999Y-66651966D01*
X117149999Y-66651966D02*
X117116666Y-66685300D01*
X116516666Y-66618633D02*
X116649999Y-66618633D01*
X116649999Y-66618633D02*
X116716666Y-66651966D01*
X116716666Y-66651966D02*
X116749999Y-66685300D01*
X116749999Y-66685300D02*
X116816666Y-66785300D01*
X116816666Y-66785300D02*
X116849999Y-66918633D01*
X116849999Y-66918633D02*
X116849999Y-67185300D01*
X116849999Y-67185300D02*
X116816666Y-67251966D01*
X116816666Y-67251966D02*
X116783333Y-67285300D01*
X116783333Y-67285300D02*
X116716666Y-67318633D01*
X116716666Y-67318633D02*
X116583333Y-67318633D01*
X116583333Y-67318633D02*
X116516666Y-67285300D01*
X116516666Y-67285300D02*
X116483333Y-67251966D01*
X116483333Y-67251966D02*
X116449999Y-67185300D01*
X116449999Y-67185300D02*
X116449999Y-67018633D01*
X116449999Y-67018633D02*
X116483333Y-66951966D01*
X116483333Y-66951966D02*
X116516666Y-66918633D01*
X116516666Y-66918633D02*
X116583333Y-66885300D01*
X116583333Y-66885300D02*
X116716666Y-66885300D01*
X116716666Y-66885300D02*
X116783333Y-66918633D01*
X116783333Y-66918633D02*
X116816666Y-66951966D01*
X116816666Y-66951966D02*
X116849999Y-67018633D01*
X110616666Y-67251966D02*
X110649999Y-67285300D01*
X110649999Y-67285300D02*
X110749999Y-67318633D01*
X110749999Y-67318633D02*
X110816666Y-67318633D01*
X110816666Y-67318633D02*
X110916666Y-67285300D01*
X110916666Y-67285300D02*
X110983333Y-67218633D01*
X110983333Y-67218633D02*
X111016666Y-67151966D01*
X111016666Y-67151966D02*
X111049999Y-67018633D01*
X111049999Y-67018633D02*
X111049999Y-66918633D01*
X111049999Y-66918633D02*
X111016666Y-66785300D01*
X111016666Y-66785300D02*
X110983333Y-66718633D01*
X110983333Y-66718633D02*
X110916666Y-66651966D01*
X110916666Y-66651966D02*
X110816666Y-66618633D01*
X110816666Y-66618633D02*
X110749999Y-66618633D01*
X110749999Y-66618633D02*
X110649999Y-66651966D01*
X110649999Y-66651966D02*
X110616666Y-66685300D01*
X110383333Y-66618633D02*
X109916666Y-66618633D01*
X109916666Y-66618633D02*
X110216666Y-67318633D01*
D10*
X117959580Y-71333333D02*
X118007200Y-71285714D01*
X118007200Y-71285714D02*
X118054819Y-71142857D01*
X118054819Y-71142857D02*
X118054819Y-71047619D01*
X118054819Y-71047619D02*
X118007200Y-70904762D01*
X118007200Y-70904762D02*
X117911961Y-70809524D01*
X117911961Y-70809524D02*
X117816723Y-70761905D01*
X117816723Y-70761905D02*
X117626247Y-70714286D01*
X117626247Y-70714286D02*
X117483390Y-70714286D01*
X117483390Y-70714286D02*
X117292914Y-70761905D01*
X117292914Y-70761905D02*
X117197676Y-70809524D01*
X117197676Y-70809524D02*
X117102438Y-70904762D01*
X117102438Y-70904762D02*
X117054819Y-71047619D01*
X117054819Y-71047619D02*
X117054819Y-71142857D01*
X117054819Y-71142857D02*
X117102438Y-71285714D01*
X117102438Y-71285714D02*
X117150057Y-71333333D01*
X117054819Y-72238095D02*
X117054819Y-71761905D01*
X117054819Y-71761905D02*
X117531009Y-71714286D01*
X117531009Y-71714286D02*
X117483390Y-71761905D01*
X117483390Y-71761905D02*
X117435771Y-71857143D01*
X117435771Y-71857143D02*
X117435771Y-72095238D01*
X117435771Y-72095238D02*
X117483390Y-72190476D01*
X117483390Y-72190476D02*
X117531009Y-72238095D01*
X117531009Y-72238095D02*
X117626247Y-72285714D01*
X117626247Y-72285714D02*
X117864342Y-72285714D01*
X117864342Y-72285714D02*
X117959580Y-72238095D01*
X117959580Y-72238095D02*
X118007200Y-72190476D01*
X118007200Y-72190476D02*
X118054819Y-72095238D01*
X118054819Y-72095238D02*
X118054819Y-71857143D01*
X118054819Y-71857143D02*
X118007200Y-71761905D01*
X118007200Y-71761905D02*
X117959580Y-71714286D01*
X98642857Y-74279580D02*
X98690476Y-74327200D01*
X98690476Y-74327200D02*
X98833333Y-74374819D01*
X98833333Y-74374819D02*
X98928571Y-74374819D01*
X98928571Y-74374819D02*
X99071428Y-74327200D01*
X99071428Y-74327200D02*
X99166666Y-74231961D01*
X99166666Y-74231961D02*
X99214285Y-74136723D01*
X99214285Y-74136723D02*
X99261904Y-73946247D01*
X99261904Y-73946247D02*
X99261904Y-73803390D01*
X99261904Y-73803390D02*
X99214285Y-73612914D01*
X99214285Y-73612914D02*
X99166666Y-73517676D01*
X99166666Y-73517676D02*
X99071428Y-73422438D01*
X99071428Y-73422438D02*
X98928571Y-73374819D01*
X98928571Y-73374819D02*
X98833333Y-73374819D01*
X98833333Y-73374819D02*
X98690476Y-73422438D01*
X98690476Y-73422438D02*
X98642857Y-73470057D01*
X97690476Y-74374819D02*
X98261904Y-74374819D01*
X97976190Y-74374819D02*
X97976190Y-73374819D01*
X97976190Y-73374819D02*
X98071428Y-73517676D01*
X98071428Y-73517676D02*
X98166666Y-73612914D01*
X98166666Y-73612914D02*
X98261904Y-73660533D01*
X97071428Y-73374819D02*
X96976190Y-73374819D01*
X96976190Y-73374819D02*
X96880952Y-73422438D01*
X96880952Y-73422438D02*
X96833333Y-73470057D01*
X96833333Y-73470057D02*
X96785714Y-73565295D01*
X96785714Y-73565295D02*
X96738095Y-73755771D01*
X96738095Y-73755771D02*
X96738095Y-73993866D01*
X96738095Y-73993866D02*
X96785714Y-74184342D01*
X96785714Y-74184342D02*
X96833333Y-74279580D01*
X96833333Y-74279580D02*
X96880952Y-74327200D01*
X96880952Y-74327200D02*
X96976190Y-74374819D01*
X96976190Y-74374819D02*
X97071428Y-74374819D01*
X97071428Y-74374819D02*
X97166666Y-74327200D01*
X97166666Y-74327200D02*
X97214285Y-74279580D01*
X97214285Y-74279580D02*
X97261904Y-74184342D01*
X97261904Y-74184342D02*
X97309523Y-73993866D01*
X97309523Y-73993866D02*
X97309523Y-73755771D01*
X97309523Y-73755771D02*
X97261904Y-73565295D01*
X97261904Y-73565295D02*
X97214285Y-73470057D01*
X97214285Y-73470057D02*
X97166666Y-73422438D01*
X97166666Y-73422438D02*
X97071428Y-73374819D01*
X98059580Y-88257142D02*
X98107200Y-88209523D01*
X98107200Y-88209523D02*
X98154819Y-88066666D01*
X98154819Y-88066666D02*
X98154819Y-87971428D01*
X98154819Y-87971428D02*
X98107200Y-87828571D01*
X98107200Y-87828571D02*
X98011961Y-87733333D01*
X98011961Y-87733333D02*
X97916723Y-87685714D01*
X97916723Y-87685714D02*
X97726247Y-87638095D01*
X97726247Y-87638095D02*
X97583390Y-87638095D01*
X97583390Y-87638095D02*
X97392914Y-87685714D01*
X97392914Y-87685714D02*
X97297676Y-87733333D01*
X97297676Y-87733333D02*
X97202438Y-87828571D01*
X97202438Y-87828571D02*
X97154819Y-87971428D01*
X97154819Y-87971428D02*
X97154819Y-88066666D01*
X97154819Y-88066666D02*
X97202438Y-88209523D01*
X97202438Y-88209523D02*
X97250057Y-88257142D01*
X97154819Y-88590476D02*
X97154819Y-89209523D01*
X97154819Y-89209523D02*
X97535771Y-88876190D01*
X97535771Y-88876190D02*
X97535771Y-89019047D01*
X97535771Y-89019047D02*
X97583390Y-89114285D01*
X97583390Y-89114285D02*
X97631009Y-89161904D01*
X97631009Y-89161904D02*
X97726247Y-89209523D01*
X97726247Y-89209523D02*
X97964342Y-89209523D01*
X97964342Y-89209523D02*
X98059580Y-89161904D01*
X98059580Y-89161904D02*
X98107200Y-89114285D01*
X98107200Y-89114285D02*
X98154819Y-89019047D01*
X98154819Y-89019047D02*
X98154819Y-88733333D01*
X98154819Y-88733333D02*
X98107200Y-88638095D01*
X98107200Y-88638095D02*
X98059580Y-88590476D01*
X98154819Y-89685714D02*
X98154819Y-89876190D01*
X98154819Y-89876190D02*
X98107200Y-89971428D01*
X98107200Y-89971428D02*
X98059580Y-90019047D01*
X98059580Y-90019047D02*
X97916723Y-90114285D01*
X97916723Y-90114285D02*
X97726247Y-90161904D01*
X97726247Y-90161904D02*
X97345295Y-90161904D01*
X97345295Y-90161904D02*
X97250057Y-90114285D01*
X97250057Y-90114285D02*
X97202438Y-90066666D01*
X97202438Y-90066666D02*
X97154819Y-89971428D01*
X97154819Y-89971428D02*
X97154819Y-89780952D01*
X97154819Y-89780952D02*
X97202438Y-89685714D01*
X97202438Y-89685714D02*
X97250057Y-89638095D01*
X97250057Y-89638095D02*
X97345295Y-89590476D01*
X97345295Y-89590476D02*
X97583390Y-89590476D01*
X97583390Y-89590476D02*
X97678628Y-89638095D01*
X97678628Y-89638095D02*
X97726247Y-89685714D01*
X97726247Y-89685714D02*
X97773866Y-89780952D01*
X97773866Y-89780952D02*
X97773866Y-89971428D01*
X97773866Y-89971428D02*
X97726247Y-90066666D01*
X97726247Y-90066666D02*
X97678628Y-90114285D01*
X97678628Y-90114285D02*
X97583390Y-90161904D01*
D11*
X121616666Y-75251966D02*
X121649999Y-75285300D01*
X121649999Y-75285300D02*
X121749999Y-75318633D01*
X121749999Y-75318633D02*
X121816666Y-75318633D01*
X121816666Y-75318633D02*
X121916666Y-75285300D01*
X121916666Y-75285300D02*
X121983333Y-75218633D01*
X121983333Y-75218633D02*
X122016666Y-75151966D01*
X122016666Y-75151966D02*
X122049999Y-75018633D01*
X122049999Y-75018633D02*
X122049999Y-74918633D01*
X122049999Y-74918633D02*
X122016666Y-74785300D01*
X122016666Y-74785300D02*
X121983333Y-74718633D01*
X121983333Y-74718633D02*
X121916666Y-74651966D01*
X121916666Y-74651966D02*
X121816666Y-74618633D01*
X121816666Y-74618633D02*
X121749999Y-74618633D01*
X121749999Y-74618633D02*
X121649999Y-74651966D01*
X121649999Y-74651966D02*
X121616666Y-74685300D01*
X121349999Y-74685300D02*
X121316666Y-74651966D01*
X121316666Y-74651966D02*
X121249999Y-74618633D01*
X121249999Y-74618633D02*
X121083333Y-74618633D01*
X121083333Y-74618633D02*
X121016666Y-74651966D01*
X121016666Y-74651966D02*
X120983333Y-74685300D01*
X120983333Y-74685300D02*
X120949999Y-74751966D01*
X120949999Y-74751966D02*
X120949999Y-74818633D01*
X120949999Y-74818633D02*
X120983333Y-74918633D01*
X120983333Y-74918633D02*
X121383333Y-75318633D01*
X121383333Y-75318633D02*
X120949999Y-75318633D01*
X99201966Y-81499999D02*
X99235300Y-81466666D01*
X99235300Y-81466666D02*
X99268633Y-81366666D01*
X99268633Y-81366666D02*
X99268633Y-81299999D01*
X99268633Y-81299999D02*
X99235300Y-81199999D01*
X99235300Y-81199999D02*
X99168633Y-81133333D01*
X99168633Y-81133333D02*
X99101966Y-81099999D01*
X99101966Y-81099999D02*
X98968633Y-81066666D01*
X98968633Y-81066666D02*
X98868633Y-81066666D01*
X98868633Y-81066666D02*
X98735300Y-81099999D01*
X98735300Y-81099999D02*
X98668633Y-81133333D01*
X98668633Y-81133333D02*
X98601966Y-81199999D01*
X98601966Y-81199999D02*
X98568633Y-81299999D01*
X98568633Y-81299999D02*
X98568633Y-81366666D01*
X98568633Y-81366666D02*
X98601966Y-81466666D01*
X98601966Y-81466666D02*
X98635300Y-81499999D01*
X98568633Y-81733333D02*
X98568633Y-82166666D01*
X98568633Y-82166666D02*
X98835300Y-81933333D01*
X98835300Y-81933333D02*
X98835300Y-82033333D01*
X98835300Y-82033333D02*
X98868633Y-82099999D01*
X98868633Y-82099999D02*
X98901966Y-82133333D01*
X98901966Y-82133333D02*
X98968633Y-82166666D01*
X98968633Y-82166666D02*
X99135300Y-82166666D01*
X99135300Y-82166666D02*
X99201966Y-82133333D01*
X99201966Y-82133333D02*
X99235300Y-82099999D01*
X99235300Y-82099999D02*
X99268633Y-82033333D01*
X99268633Y-82033333D02*
X99268633Y-81833333D01*
X99268633Y-81833333D02*
X99235300Y-81766666D01*
X99235300Y-81766666D02*
X99201966Y-81733333D01*
X99268633Y-82833333D02*
X99268633Y-82433333D01*
X99268633Y-82633333D02*
X98568633Y-82633333D01*
X98568633Y-82633333D02*
X98668633Y-82566666D01*
X98668633Y-82566666D02*
X98735300Y-82500000D01*
X98735300Y-82500000D02*
X98768633Y-82433333D01*
D10*
X115359580Y-85157142D02*
X115407200Y-85109523D01*
X115407200Y-85109523D02*
X115454819Y-84966666D01*
X115454819Y-84966666D02*
X115454819Y-84871428D01*
X115454819Y-84871428D02*
X115407200Y-84728571D01*
X115407200Y-84728571D02*
X115311961Y-84633333D01*
X115311961Y-84633333D02*
X115216723Y-84585714D01*
X115216723Y-84585714D02*
X115026247Y-84538095D01*
X115026247Y-84538095D02*
X114883390Y-84538095D01*
X114883390Y-84538095D02*
X114692914Y-84585714D01*
X114692914Y-84585714D02*
X114597676Y-84633333D01*
X114597676Y-84633333D02*
X114502438Y-84728571D01*
X114502438Y-84728571D02*
X114454819Y-84871428D01*
X114454819Y-84871428D02*
X114454819Y-84966666D01*
X114454819Y-84966666D02*
X114502438Y-85109523D01*
X114502438Y-85109523D02*
X114550057Y-85157142D01*
X115454819Y-86109523D02*
X115454819Y-85538095D01*
X115454819Y-85823809D02*
X114454819Y-85823809D01*
X114454819Y-85823809D02*
X114597676Y-85728571D01*
X114597676Y-85728571D02*
X114692914Y-85633333D01*
X114692914Y-85633333D02*
X114740533Y-85538095D01*
X114454819Y-86442857D02*
X114454819Y-87109523D01*
X114454819Y-87109523D02*
X115454819Y-86680952D01*
D12*
%TO.C,C32*%
X99790000Y-79909420D02*
X99790000Y-80190580D01*
X100810000Y-79909420D02*
X100810000Y-80190580D01*
%TO.C,C24*%
X103692164Y-62340000D02*
X103907836Y-62340000D01*
X103692164Y-63060000D02*
X103907836Y-63060000D01*
%TO.C,C12*%
X105892164Y-87740000D02*
X106107836Y-87740000D01*
X105892164Y-88460000D02*
X106107836Y-88460000D01*
%TO.C,C25*%
X108092164Y-61740000D02*
X108307836Y-61740000D01*
X108092164Y-62460000D02*
X108307836Y-62460000D01*
%TO.C,C15*%
X122057836Y-70390000D02*
X121842164Y-70390000D01*
X122057836Y-71110000D02*
X121842164Y-71110000D01*
%TO.C,C9*%
X99642164Y-67590000D02*
X99857836Y-67590000D01*
X99642164Y-68310000D02*
X99857836Y-68310000D01*
%TO.C,J3*%
X90405000Y-51995000D02*
X90405000Y-107995000D01*
X93005000Y-51995000D02*
X90405000Y-51995000D01*
X93005000Y-54595000D02*
X93005000Y-51995000D01*
X95605000Y-51995000D02*
X94275000Y-51995000D01*
X95605000Y-53325000D02*
X95605000Y-51995000D01*
X95605000Y-54595000D02*
X93005000Y-54595000D01*
X95605000Y-54595000D02*
X95605000Y-107995000D01*
X95605000Y-107995000D02*
X90405000Y-107995000D01*
%TO.C,C23*%
X101507836Y-62340000D02*
X101292164Y-62340000D01*
X101507836Y-63060000D02*
X101292164Y-63060000D01*
%TO.C,C29*%
X122057836Y-71890000D02*
X121842164Y-71890000D01*
X122057836Y-72610000D02*
X121842164Y-72610000D01*
%TO.C,C4*%
X118690000Y-79107836D02*
X118690000Y-78892164D01*
X119410000Y-79107836D02*
X119410000Y-78892164D01*
%TO.C,C36*%
X98090000Y-103142164D02*
X98090000Y-103357836D01*
X98810000Y-103142164D02*
X98810000Y-103357836D01*
%TO.C,C28*%
X106092164Y-50840000D02*
X106307836Y-50840000D01*
X106092164Y-51560000D02*
X106307836Y-51560000D01*
%TO.C,C3*%
X117842164Y-83290000D02*
X118057836Y-83290000D01*
X117842164Y-84010000D02*
X118057836Y-84010000D01*
%TO.C,C16*%
X122090580Y-68990000D02*
X121809420Y-68990000D01*
X122090580Y-70010000D02*
X121809420Y-70010000D01*
%TO.C,C35*%
X100142164Y-107190000D02*
X100357836Y-107190000D01*
X100142164Y-107910000D02*
X100357836Y-107910000D01*
%TO.C,C37*%
X100142164Y-102090000D02*
X100357836Y-102090000D01*
X100142164Y-102810000D02*
X100357836Y-102810000D01*
%TO.C,C13*%
X110892164Y-87690000D02*
X111107836Y-87690000D01*
X110892164Y-88410000D02*
X111107836Y-88410000D01*
%TO.C,C11*%
X98590000Y-86392164D02*
X98590000Y-86607836D01*
X99310000Y-86392164D02*
X99310000Y-86607836D01*
%TO.C,C14*%
X117540000Y-86242164D02*
X117540000Y-86457836D01*
X118260000Y-86242164D02*
X118260000Y-86457836D01*
%TO.C,C26*%
X119040000Y-61392164D02*
X119040000Y-61607836D01*
X119760000Y-61392164D02*
X119760000Y-61607836D01*
%TO.C,C8*%
X105607836Y-67590000D02*
X105392164Y-67590000D01*
X105607836Y-68310000D02*
X105392164Y-68310000D01*
%TO.C,C22*%
X98240000Y-61492164D02*
X98240000Y-61707836D01*
X98960000Y-61492164D02*
X98960000Y-61707836D01*
%TO.C,C38*%
X103190000Y-103892164D02*
X103190000Y-104107836D01*
X103910000Y-103892164D02*
X103910000Y-104107836D01*
%TO.C,C40*%
X99119420Y-66200000D02*
X99400580Y-66200000D01*
X99119420Y-67220000D02*
X99400580Y-67220000D01*
%TO.C,C30*%
X122090580Y-72990000D02*
X121809420Y-72990000D01*
X122090580Y-74010000D02*
X121809420Y-74010000D01*
%TO.C,C27*%
X101292164Y-50840000D02*
X101507836Y-50840000D01*
X101292164Y-51560000D02*
X101507836Y-51560000D01*
%TO.C,C6*%
X117107836Y-67590000D02*
X116892164Y-67590000D01*
X117107836Y-68310000D02*
X116892164Y-68310000D01*
%TO.C,C7*%
X110607836Y-67590000D02*
X110392164Y-67590000D01*
X110607836Y-68310000D02*
X110392164Y-68310000D01*
%TO.C,C5*%
X118690000Y-71607836D02*
X118690000Y-71392164D01*
X119410000Y-71607836D02*
X119410000Y-71392164D01*
%TO.C,C10*%
X97892164Y-74720000D02*
X98107836Y-74720000D01*
X97892164Y-75440000D02*
X98107836Y-75440000D01*
%TO.C,C39*%
X97190000Y-86140580D02*
X97190000Y-85859420D01*
X98210000Y-86140580D02*
X98210000Y-85859420D01*
%TO.C,C2*%
X119592164Y-74640000D02*
X119807836Y-74640000D01*
X119592164Y-75360000D02*
X119807836Y-75360000D01*
%TO.C,C31*%
X98590000Y-79892164D02*
X98590000Y-80107836D01*
X99310000Y-79892164D02*
X99310000Y-80107836D01*
%TO.C,C17*%
X115840000Y-85659420D02*
X115840000Y-85940580D01*
X116860000Y-85659420D02*
X116860000Y-85940580D01*
%TD*%
M02*
