M48
; DRILL file {KiCad 9.0.4} date 2025-10-13T18:55:21+0200
; FORMAT={-:-/ absolute / metric / decimal}
; #@! TF.CreationDate,2025-10-13T18:55:21+02:00
; #@! TF.GenerationSoftware,Kicad,Pcbnew,9.0.4
; #@! TF.FileFunction,Plated,1,2,PTH
FMAT,2
METRIC
; #@! TA.AperFunction,Plated,PTH,ViaDrill
T1C0.300
; #@! TA.AperFunction,Plated,PTH,ComponentDrill
T2C0.500
; #@! TA.AperFunction,Plated,PTH,ComponentDrill
T3C0.800
; #@! TA.AperFunction,Plated,PTH,ComponentDrill
T4C1.000
; #@! TA.AperFunction,Plated,PTH,ComponentDrill
T5C1.400
; #@! TA.AperFunction,Plated,PTH,ComponentDrill
T6C2.200
; #@! TA.AperFunction,Plated,PTH,ComponentDrill
T7C3.200
%
G90
G05
T1
X56.6Y-47.0
X60.0Y-41.5
X60.1Y-48.9
X61.0Y-41.5
X62.0Y-41.5
X63.5Y-45.9
X67.0Y-41.5
X67.9Y-34.2
X68.4Y-67.6
X68.4Y-88.7
X81.5Y-39.8
X81.5Y-44.6
X83.605Y-90.0
X83.625Y-80.6
X85.9Y-81.4
X86.1Y-78.0
X87.0Y-58.5
X87.0Y-64.505
X88.405Y-93.2
X89.4Y-68.58
X92.0Y-66.0
X92.1Y-60.0
X92.2Y-82.1
X92.2Y-87.0
X94.2Y-77.1
X94.205Y-89.1
X94.8Y-47.6
X95.475Y-88.3
X96.2Y-75.4
X96.4Y-71.0
X96.416Y-69.339
X96.7Y-47.6
X96.905Y-93.4
X99.9Y-76.6
X100.1Y-81.7
X101.1Y-57.1
X102.375Y-80.9
X102.405Y-89.2
X106.7Y-34.2
X111.9Y-51.3
X111.9Y-72.4
X112.0Y-35.5
X112.0Y-45.5
X114.5Y-37.0
X114.5Y-44.0
X130.5Y-44.0
X133.0Y-45.5
T2
X41.6Y-34.0
X41.6Y-96.0
X42.303Y-32.303
X42.303Y-35.697
X42.303Y-94.303
X42.303Y-97.697
X44.0Y-31.6
X44.0Y-36.4
X44.0Y-93.6
X44.0Y-98.4
X45.697Y-32.303
X45.697Y-35.697
X45.697Y-94.303
X45.697Y-97.697
X46.4Y-34.0
X46.4Y-96.0
X103.6Y-40.0
X104.303Y-38.303
X104.303Y-41.697
X106.0Y-37.6
X106.0Y-42.4
X107.697Y-38.303
X107.697Y-41.697
X108.4Y-40.0
X133.6Y-34.0
X133.6Y-96.0
X134.303Y-32.303
X134.303Y-35.697
X134.303Y-94.303
X134.303Y-97.697
X136.0Y-31.6
X136.0Y-36.4
X136.0Y-93.6
X136.0Y-98.4
X137.697Y-32.303
X137.697Y-35.697
X137.697Y-94.303
X137.697Y-97.697
X138.4Y-34.0
X138.4Y-96.0
T4
X52.5Y-33.375
X55.0Y-33.375
X71.735Y-39.325
X71.735Y-41.865
X71.735Y-44.405
X71.735Y-46.945
X71.735Y-49.485
X71.735Y-52.025
X71.735Y-54.565
X71.735Y-57.105
X71.735Y-59.645
X71.735Y-62.185
X71.735Y-64.725
X71.735Y-67.265
X71.735Y-69.805
X71.735Y-72.345
X71.735Y-74.885
X71.735Y-77.425
X71.735Y-79.965
X71.735Y-82.505
X71.735Y-85.045
X71.735Y-87.585
X71.735Y-90.125
X71.735Y-92.665
X74.275Y-39.325
X74.275Y-41.865
X74.275Y-44.405
X74.275Y-46.945
X74.275Y-49.485
X74.275Y-52.025
X74.275Y-54.565
X74.275Y-57.105
X74.275Y-59.645
X74.275Y-62.185
X74.275Y-64.725
X74.275Y-67.265
X74.275Y-69.805
X74.275Y-72.345
X74.275Y-74.885
X74.275Y-77.425
X74.275Y-79.965
X74.275Y-82.505
X74.275Y-85.045
X74.275Y-87.585
X74.275Y-90.125
X74.275Y-92.665
X83.0Y-33.0
X85.54Y-33.0
X88.08Y-33.0
X90.62Y-33.0
X93.16Y-33.0
X95.7Y-33.0
X120.0Y-33.0
X120.0Y-47.5
X122.5Y-47.5
X125.0Y-33.0
X125.0Y-47.5
T5
X46.285Y-52.885
X46.285Y-69.115
X46.3Y-74.0
X46.3Y-90.23
X52.635Y-52.885
X52.635Y-69.115
X52.65Y-74.0
X52.65Y-90.23
X58.985Y-52.885
X58.985Y-69.115
X59.0Y-74.0
X59.0Y-90.23
X121.3Y-52.885
X121.3Y-69.115
X121.3Y-73.885
X121.3Y-90.115
X127.65Y-52.885
X127.65Y-69.115
X127.65Y-73.885
X127.65Y-90.115
X134.0Y-52.885
X134.0Y-69.115
X134.0Y-73.885
X134.0Y-90.115
T6
X116.9Y-40.0
X128.1Y-40.0
T7
X44.0Y-34.0
X44.0Y-96.0
X106.0Y-40.0
X136.0Y-34.0
X136.0Y-96.0
T3
G00X48.535Y-42.9
M15
G01X48.535Y-45.1
M16
G05
G00X50.235Y-48.8
M15
G01X52.435Y-48.8
M16
G05
G00X54.335Y-42.7
M15
G01X54.335Y-45.3
M16
G05
M30
