%TF.GenerationSoftware,KiCad,Pcbnew,9.0.4*%
%TF.CreationDate,2025-10-13T18:55:24+02:00*%
%TF.ProjectId,carry,63617272-792e-46b6-9963-61645f706362,rev?*%
%TF.SameCoordinates,Original*%
%TF.FileFunction,Legend,Top*%
%TF.FilePolarity,Positive*%
%FSLAX46Y46*%
G04 Gerber Fmt 4.6, Leading zero omitted, Abs format (unit mm)*
G04 Created by KiCad (PCBNEW 9.0.4) date 2025-10-13 18:55:24*
%MOMM*%
%LPD*%
G01*
G04 APERTURE LIST*
%ADD10C,0.250000*%
%ADD11C,0.100000*%
%ADD12C,0.150000*%
%ADD13C,0.120000*%
G04 APERTURE END LIST*
D10*
X78935901Y-49276276D02*
X79221615Y-50476276D01*
X79221615Y-50476276D02*
X79450187Y-49619134D01*
X79450187Y-49619134D02*
X79678758Y-50476276D01*
X79678758Y-50476276D02*
X79964473Y-49276276D01*
X80421616Y-50476276D02*
X80421616Y-49276276D01*
X80821616Y-49276276D02*
X81507331Y-49276276D01*
X81164473Y-50476276D02*
X81164473Y-49276276D01*
X81907331Y-50476276D02*
X81907331Y-49276276D01*
X81907331Y-49276276D02*
X82593045Y-50476276D01*
X82593045Y-50476276D02*
X82593045Y-49276276D01*
X83107331Y-50419134D02*
X83278760Y-50476276D01*
X83278760Y-50476276D02*
X83564474Y-50476276D01*
X83564474Y-50476276D02*
X83678760Y-50419134D01*
X83678760Y-50419134D02*
X83735902Y-50361991D01*
X83735902Y-50361991D02*
X83793045Y-50247705D01*
X83793045Y-50247705D02*
X83793045Y-50133419D01*
X83793045Y-50133419D02*
X83735902Y-50019134D01*
X83735902Y-50019134D02*
X83678760Y-49961991D01*
X83678760Y-49961991D02*
X83564474Y-49904848D01*
X83564474Y-49904848D02*
X83335902Y-49847705D01*
X83335902Y-49847705D02*
X83221617Y-49790562D01*
X83221617Y-49790562D02*
X83164474Y-49733419D01*
X83164474Y-49733419D02*
X83107331Y-49619134D01*
X83107331Y-49619134D02*
X83107331Y-49504848D01*
X83107331Y-49504848D02*
X83164474Y-49390562D01*
X83164474Y-49390562D02*
X83221617Y-49333419D01*
X83221617Y-49333419D02*
X83335902Y-49276276D01*
X83335902Y-49276276D02*
X83621617Y-49276276D01*
X83621617Y-49276276D02*
X83793045Y-49333419D01*
X85221617Y-50476276D02*
X85221617Y-49276276D01*
X85221617Y-49276276D02*
X85507331Y-49276276D01*
X85507331Y-49276276D02*
X85678760Y-49333419D01*
X85678760Y-49333419D02*
X85793045Y-49447705D01*
X85793045Y-49447705D02*
X85850188Y-49561991D01*
X85850188Y-49561991D02*
X85907331Y-49790562D01*
X85907331Y-49790562D02*
X85907331Y-49961991D01*
X85907331Y-49961991D02*
X85850188Y-50190562D01*
X85850188Y-50190562D02*
X85793045Y-50304848D01*
X85793045Y-50304848D02*
X85678760Y-50419134D01*
X85678760Y-50419134D02*
X85507331Y-50476276D01*
X85507331Y-50476276D02*
X85221617Y-50476276D01*
X86364474Y-50419134D02*
X86535903Y-50476276D01*
X86535903Y-50476276D02*
X86821617Y-50476276D01*
X86821617Y-50476276D02*
X86935903Y-50419134D01*
X86935903Y-50419134D02*
X86993045Y-50361991D01*
X86993045Y-50361991D02*
X87050188Y-50247705D01*
X87050188Y-50247705D02*
X87050188Y-50133419D01*
X87050188Y-50133419D02*
X86993045Y-50019134D01*
X86993045Y-50019134D02*
X86935903Y-49961991D01*
X86935903Y-49961991D02*
X86821617Y-49904848D01*
X86821617Y-49904848D02*
X86593045Y-49847705D01*
X86593045Y-49847705D02*
X86478760Y-49790562D01*
X86478760Y-49790562D02*
X86421617Y-49733419D01*
X86421617Y-49733419D02*
X86364474Y-49619134D01*
X86364474Y-49619134D02*
X86364474Y-49504848D01*
X86364474Y-49504848D02*
X86421617Y-49390562D01*
X86421617Y-49390562D02*
X86478760Y-49333419D01*
X86478760Y-49333419D02*
X86593045Y-49276276D01*
X86593045Y-49276276D02*
X86878760Y-49276276D01*
X86878760Y-49276276D02*
X87050188Y-49333419D01*
X87564474Y-50476276D02*
X87564474Y-49276276D01*
X87564474Y-49276276D02*
X88021617Y-49276276D01*
X88021617Y-49276276D02*
X88135902Y-49333419D01*
X88135902Y-49333419D02*
X88193045Y-49390562D01*
X88193045Y-49390562D02*
X88250188Y-49504848D01*
X88250188Y-49504848D02*
X88250188Y-49676276D01*
X88250188Y-49676276D02*
X88193045Y-49790562D01*
X88193045Y-49790562D02*
X88135902Y-49847705D01*
X88135902Y-49847705D02*
X88021617Y-49904848D01*
X88021617Y-49904848D02*
X87564474Y-49904848D01*
X89621617Y-50419134D02*
X89793046Y-50476276D01*
X89793046Y-50476276D02*
X90078760Y-50476276D01*
X90078760Y-50476276D02*
X90193046Y-50419134D01*
X90193046Y-50419134D02*
X90250188Y-50361991D01*
X90250188Y-50361991D02*
X90307331Y-50247705D01*
X90307331Y-50247705D02*
X90307331Y-50133419D01*
X90307331Y-50133419D02*
X90250188Y-50019134D01*
X90250188Y-50019134D02*
X90193046Y-49961991D01*
X90193046Y-49961991D02*
X90078760Y-49904848D01*
X90078760Y-49904848D02*
X89850188Y-49847705D01*
X89850188Y-49847705D02*
X89735903Y-49790562D01*
X89735903Y-49790562D02*
X89678760Y-49733419D01*
X89678760Y-49733419D02*
X89621617Y-49619134D01*
X89621617Y-49619134D02*
X89621617Y-49504848D01*
X89621617Y-49504848D02*
X89678760Y-49390562D01*
X89678760Y-49390562D02*
X89735903Y-49333419D01*
X89735903Y-49333419D02*
X89850188Y-49276276D01*
X89850188Y-49276276D02*
X90135903Y-49276276D01*
X90135903Y-49276276D02*
X90307331Y-49333419D01*
X91050188Y-49276276D02*
X91278760Y-49276276D01*
X91278760Y-49276276D02*
X91393045Y-49333419D01*
X91393045Y-49333419D02*
X91507331Y-49447705D01*
X91507331Y-49447705D02*
X91564474Y-49676276D01*
X91564474Y-49676276D02*
X91564474Y-50076276D01*
X91564474Y-50076276D02*
X91507331Y-50304848D01*
X91507331Y-50304848D02*
X91393045Y-50419134D01*
X91393045Y-50419134D02*
X91278760Y-50476276D01*
X91278760Y-50476276D02*
X91050188Y-50476276D01*
X91050188Y-50476276D02*
X90935903Y-50419134D01*
X90935903Y-50419134D02*
X90821617Y-50304848D01*
X90821617Y-50304848D02*
X90764474Y-50076276D01*
X90764474Y-50076276D02*
X90764474Y-49676276D01*
X90764474Y-49676276D02*
X90821617Y-49447705D01*
X90821617Y-49447705D02*
X90935903Y-49333419D01*
X90935903Y-49333419D02*
X91050188Y-49276276D01*
X92078760Y-50476276D02*
X92078760Y-49276276D01*
X92078760Y-49276276D02*
X92478760Y-50133419D01*
X92478760Y-50133419D02*
X92878760Y-49276276D01*
X92878760Y-49276276D02*
X92878760Y-50476276D01*
X95050189Y-50361991D02*
X94993046Y-50419134D01*
X94993046Y-50419134D02*
X94821618Y-50476276D01*
X94821618Y-50476276D02*
X94707332Y-50476276D01*
X94707332Y-50476276D02*
X94535903Y-50419134D01*
X94535903Y-50419134D02*
X94421618Y-50304848D01*
X94421618Y-50304848D02*
X94364475Y-50190562D01*
X94364475Y-50190562D02*
X94307332Y-49961991D01*
X94307332Y-49961991D02*
X94307332Y-49790562D01*
X94307332Y-49790562D02*
X94364475Y-49561991D01*
X94364475Y-49561991D02*
X94421618Y-49447705D01*
X94421618Y-49447705D02*
X94535903Y-49333419D01*
X94535903Y-49333419D02*
X94707332Y-49276276D01*
X94707332Y-49276276D02*
X94821618Y-49276276D01*
X94821618Y-49276276D02*
X94993046Y-49333419D01*
X94993046Y-49333419D02*
X95050189Y-49390562D01*
X95507332Y-50133419D02*
X96078761Y-50133419D01*
X95393046Y-50476276D02*
X95793046Y-49276276D01*
X95793046Y-49276276D02*
X96193046Y-50476276D01*
X97278760Y-50476276D02*
X96878760Y-49904848D01*
X96593046Y-50476276D02*
X96593046Y-49276276D01*
X96593046Y-49276276D02*
X97050189Y-49276276D01*
X97050189Y-49276276D02*
X97164474Y-49333419D01*
X97164474Y-49333419D02*
X97221617Y-49390562D01*
X97221617Y-49390562D02*
X97278760Y-49504848D01*
X97278760Y-49504848D02*
X97278760Y-49676276D01*
X97278760Y-49676276D02*
X97221617Y-49790562D01*
X97221617Y-49790562D02*
X97164474Y-49847705D01*
X97164474Y-49847705D02*
X97050189Y-49904848D01*
X97050189Y-49904848D02*
X96593046Y-49904848D01*
X98478760Y-50476276D02*
X98078760Y-49904848D01*
X97793046Y-50476276D02*
X97793046Y-49276276D01*
X97793046Y-49276276D02*
X98250189Y-49276276D01*
X98250189Y-49276276D02*
X98364474Y-49333419D01*
X98364474Y-49333419D02*
X98421617Y-49390562D01*
X98421617Y-49390562D02*
X98478760Y-49504848D01*
X98478760Y-49504848D02*
X98478760Y-49676276D01*
X98478760Y-49676276D02*
X98421617Y-49790562D01*
X98421617Y-49790562D02*
X98364474Y-49847705D01*
X98364474Y-49847705D02*
X98250189Y-49904848D01*
X98250189Y-49904848D02*
X97793046Y-49904848D01*
X99221617Y-49904848D02*
X99221617Y-50476276D01*
X98821617Y-49276276D02*
X99221617Y-49904848D01*
X99221617Y-49904848D02*
X99621617Y-49276276D01*
X101335903Y-49847705D02*
X101507331Y-49904848D01*
X101507331Y-49904848D02*
X101564474Y-49961991D01*
X101564474Y-49961991D02*
X101621617Y-50076276D01*
X101621617Y-50076276D02*
X101621617Y-50247705D01*
X101621617Y-50247705D02*
X101564474Y-50361991D01*
X101564474Y-50361991D02*
X101507331Y-50419134D01*
X101507331Y-50419134D02*
X101393046Y-50476276D01*
X101393046Y-50476276D02*
X100935903Y-50476276D01*
X100935903Y-50476276D02*
X100935903Y-49276276D01*
X100935903Y-49276276D02*
X101335903Y-49276276D01*
X101335903Y-49276276D02*
X101450189Y-49333419D01*
X101450189Y-49333419D02*
X101507331Y-49390562D01*
X101507331Y-49390562D02*
X101564474Y-49504848D01*
X101564474Y-49504848D02*
X101564474Y-49619134D01*
X101564474Y-49619134D02*
X101507331Y-49733419D01*
X101507331Y-49733419D02*
X101450189Y-49790562D01*
X101450189Y-49790562D02*
X101335903Y-49847705D01*
X101335903Y-49847705D02*
X100935903Y-49847705D01*
X102364474Y-49276276D02*
X102593046Y-49276276D01*
X102593046Y-49276276D02*
X102707331Y-49333419D01*
X102707331Y-49333419D02*
X102821617Y-49447705D01*
X102821617Y-49447705D02*
X102878760Y-49676276D01*
X102878760Y-49676276D02*
X102878760Y-50076276D01*
X102878760Y-50076276D02*
X102821617Y-50304848D01*
X102821617Y-50304848D02*
X102707331Y-50419134D01*
X102707331Y-50419134D02*
X102593046Y-50476276D01*
X102593046Y-50476276D02*
X102364474Y-50476276D01*
X102364474Y-50476276D02*
X102250189Y-50419134D01*
X102250189Y-50419134D02*
X102135903Y-50304848D01*
X102135903Y-50304848D02*
X102078760Y-50076276D01*
X102078760Y-50076276D02*
X102078760Y-49676276D01*
X102078760Y-49676276D02*
X102135903Y-49447705D01*
X102135903Y-49447705D02*
X102250189Y-49333419D01*
X102250189Y-49333419D02*
X102364474Y-49276276D01*
X103335903Y-50133419D02*
X103907332Y-50133419D01*
X103221617Y-50476276D02*
X103621617Y-49276276D01*
X103621617Y-49276276D02*
X104021617Y-50476276D01*
X105107331Y-50476276D02*
X104707331Y-49904848D01*
X104421617Y-50476276D02*
X104421617Y-49276276D01*
X104421617Y-49276276D02*
X104878760Y-49276276D01*
X104878760Y-49276276D02*
X104993045Y-49333419D01*
X104993045Y-49333419D02*
X105050188Y-49390562D01*
X105050188Y-49390562D02*
X105107331Y-49504848D01*
X105107331Y-49504848D02*
X105107331Y-49676276D01*
X105107331Y-49676276D02*
X105050188Y-49790562D01*
X105050188Y-49790562D02*
X104993045Y-49847705D01*
X104993045Y-49847705D02*
X104878760Y-49904848D01*
X104878760Y-49904848D02*
X104421617Y-49904848D01*
X105621617Y-50476276D02*
X105621617Y-49276276D01*
X105621617Y-49276276D02*
X105907331Y-49276276D01*
X105907331Y-49276276D02*
X106078760Y-49333419D01*
X106078760Y-49333419D02*
X106193045Y-49447705D01*
X106193045Y-49447705D02*
X106250188Y-49561991D01*
X106250188Y-49561991D02*
X106307331Y-49790562D01*
X106307331Y-49790562D02*
X106307331Y-49961991D01*
X106307331Y-49961991D02*
X106250188Y-50190562D01*
X106250188Y-50190562D02*
X106193045Y-50304848D01*
X106193045Y-50304848D02*
X106078760Y-50419134D01*
X106078760Y-50419134D02*
X105907331Y-50476276D01*
X105907331Y-50476276D02*
X105621617Y-50476276D01*
X79050187Y-52408209D02*
X79050187Y-51608209D01*
X79050187Y-51836781D02*
X79107330Y-51722495D01*
X79107330Y-51722495D02*
X79164473Y-51665352D01*
X79164473Y-51665352D02*
X79278758Y-51608209D01*
X79278758Y-51608209D02*
X79393044Y-51608209D01*
X80250187Y-52351067D02*
X80135901Y-52408209D01*
X80135901Y-52408209D02*
X79907330Y-52408209D01*
X79907330Y-52408209D02*
X79793044Y-52351067D01*
X79793044Y-52351067D02*
X79735901Y-52236781D01*
X79735901Y-52236781D02*
X79735901Y-51779638D01*
X79735901Y-51779638D02*
X79793044Y-51665352D01*
X79793044Y-51665352D02*
X79907330Y-51608209D01*
X79907330Y-51608209D02*
X80135901Y-51608209D01*
X80135901Y-51608209D02*
X80250187Y-51665352D01*
X80250187Y-51665352D02*
X80307330Y-51779638D01*
X80307330Y-51779638D02*
X80307330Y-51893924D01*
X80307330Y-51893924D02*
X79735901Y-52008209D01*
X80707329Y-51608209D02*
X80993043Y-52408209D01*
X80993043Y-52408209D02*
X81278758Y-51608209D01*
X82364472Y-52408209D02*
X81678758Y-52408209D01*
X82021615Y-52408209D02*
X82021615Y-51208209D01*
X82021615Y-51208209D02*
X81907329Y-51379638D01*
X81907329Y-51379638D02*
X81793044Y-51493924D01*
X81793044Y-51493924D02*
X81678758Y-51551067D01*
X82878758Y-52293924D02*
X82935901Y-52351067D01*
X82935901Y-52351067D02*
X82878758Y-52408209D01*
X82878758Y-52408209D02*
X82821615Y-52351067D01*
X82821615Y-52351067D02*
X82878758Y-52293924D01*
X82878758Y-52293924D02*
X82878758Y-52408209D01*
X83678758Y-51208209D02*
X83793044Y-51208209D01*
X83793044Y-51208209D02*
X83907330Y-51265352D01*
X83907330Y-51265352D02*
X83964473Y-51322495D01*
X83964473Y-51322495D02*
X84021615Y-51436781D01*
X84021615Y-51436781D02*
X84078758Y-51665352D01*
X84078758Y-51665352D02*
X84078758Y-51951067D01*
X84078758Y-51951067D02*
X84021615Y-52179638D01*
X84021615Y-52179638D02*
X83964473Y-52293924D01*
X83964473Y-52293924D02*
X83907330Y-52351067D01*
X83907330Y-52351067D02*
X83793044Y-52408209D01*
X83793044Y-52408209D02*
X83678758Y-52408209D01*
X83678758Y-52408209D02*
X83564473Y-52351067D01*
X83564473Y-52351067D02*
X83507330Y-52293924D01*
X83507330Y-52293924D02*
X83450187Y-52179638D01*
X83450187Y-52179638D02*
X83393044Y-51951067D01*
X83393044Y-51951067D02*
X83393044Y-51665352D01*
X83393044Y-51665352D02*
X83450187Y-51436781D01*
X83450187Y-51436781D02*
X83507330Y-51322495D01*
X83507330Y-51322495D02*
X83564473Y-51265352D01*
X83564473Y-51265352D02*
X83678758Y-51208209D01*
X86135901Y-52408209D02*
X85450187Y-52408209D01*
X85793044Y-52408209D02*
X85793044Y-51208209D01*
X85793044Y-51208209D02*
X85678758Y-51379638D01*
X85678758Y-51379638D02*
X85564473Y-51493924D01*
X85564473Y-51493924D02*
X85450187Y-51551067D01*
X86535901Y-51208209D02*
X87278758Y-51208209D01*
X87278758Y-51208209D02*
X86878758Y-51665352D01*
X86878758Y-51665352D02*
X87050187Y-51665352D01*
X87050187Y-51665352D02*
X87164473Y-51722495D01*
X87164473Y-51722495D02*
X87221615Y-51779638D01*
X87221615Y-51779638D02*
X87278758Y-51893924D01*
X87278758Y-51893924D02*
X87278758Y-52179638D01*
X87278758Y-52179638D02*
X87221615Y-52293924D01*
X87221615Y-52293924D02*
X87164473Y-52351067D01*
X87164473Y-52351067D02*
X87050187Y-52408209D01*
X87050187Y-52408209D02*
X86707330Y-52408209D01*
X86707330Y-52408209D02*
X86593044Y-52351067D01*
X86593044Y-52351067D02*
X86535901Y-52293924D01*
X88650187Y-51151067D02*
X87621615Y-52693924D01*
X89678758Y-52408209D02*
X88993044Y-52408209D01*
X89335901Y-52408209D02*
X89335901Y-51208209D01*
X89335901Y-51208209D02*
X89221615Y-51379638D01*
X89221615Y-51379638D02*
X89107330Y-51493924D01*
X89107330Y-51493924D02*
X88993044Y-51551067D01*
X90421615Y-51208209D02*
X90535901Y-51208209D01*
X90535901Y-51208209D02*
X90650187Y-51265352D01*
X90650187Y-51265352D02*
X90707330Y-51322495D01*
X90707330Y-51322495D02*
X90764472Y-51436781D01*
X90764472Y-51436781D02*
X90821615Y-51665352D01*
X90821615Y-51665352D02*
X90821615Y-51951067D01*
X90821615Y-51951067D02*
X90764472Y-52179638D01*
X90764472Y-52179638D02*
X90707330Y-52293924D01*
X90707330Y-52293924D02*
X90650187Y-52351067D01*
X90650187Y-52351067D02*
X90535901Y-52408209D01*
X90535901Y-52408209D02*
X90421615Y-52408209D01*
X90421615Y-52408209D02*
X90307330Y-52351067D01*
X90307330Y-52351067D02*
X90250187Y-52293924D01*
X90250187Y-52293924D02*
X90193044Y-52179638D01*
X90193044Y-52179638D02*
X90135901Y-51951067D01*
X90135901Y-51951067D02*
X90135901Y-51665352D01*
X90135901Y-51665352D02*
X90193044Y-51436781D01*
X90193044Y-51436781D02*
X90250187Y-51322495D01*
X90250187Y-51322495D02*
X90307330Y-51265352D01*
X90307330Y-51265352D02*
X90421615Y-51208209D01*
X92193044Y-51151067D02*
X91164472Y-52693924D01*
X92535901Y-51322495D02*
X92593044Y-51265352D01*
X92593044Y-51265352D02*
X92707330Y-51208209D01*
X92707330Y-51208209D02*
X92993044Y-51208209D01*
X92993044Y-51208209D02*
X93107330Y-51265352D01*
X93107330Y-51265352D02*
X93164472Y-51322495D01*
X93164472Y-51322495D02*
X93221615Y-51436781D01*
X93221615Y-51436781D02*
X93221615Y-51551067D01*
X93221615Y-51551067D02*
X93164472Y-51722495D01*
X93164472Y-51722495D02*
X92478758Y-52408209D01*
X92478758Y-52408209D02*
X93221615Y-52408209D01*
X93964472Y-51208209D02*
X94078758Y-51208209D01*
X94078758Y-51208209D02*
X94193044Y-51265352D01*
X94193044Y-51265352D02*
X94250187Y-51322495D01*
X94250187Y-51322495D02*
X94307329Y-51436781D01*
X94307329Y-51436781D02*
X94364472Y-51665352D01*
X94364472Y-51665352D02*
X94364472Y-51951067D01*
X94364472Y-51951067D02*
X94307329Y-52179638D01*
X94307329Y-52179638D02*
X94250187Y-52293924D01*
X94250187Y-52293924D02*
X94193044Y-52351067D01*
X94193044Y-52351067D02*
X94078758Y-52408209D01*
X94078758Y-52408209D02*
X93964472Y-52408209D01*
X93964472Y-52408209D02*
X93850187Y-52351067D01*
X93850187Y-52351067D02*
X93793044Y-52293924D01*
X93793044Y-52293924D02*
X93735901Y-52179638D01*
X93735901Y-52179638D02*
X93678758Y-51951067D01*
X93678758Y-51951067D02*
X93678758Y-51665352D01*
X93678758Y-51665352D02*
X93735901Y-51436781D01*
X93735901Y-51436781D02*
X93793044Y-51322495D01*
X93793044Y-51322495D02*
X93850187Y-51265352D01*
X93850187Y-51265352D02*
X93964472Y-51208209D01*
X94821615Y-51322495D02*
X94878758Y-51265352D01*
X94878758Y-51265352D02*
X94993044Y-51208209D01*
X94993044Y-51208209D02*
X95278758Y-51208209D01*
X95278758Y-51208209D02*
X95393044Y-51265352D01*
X95393044Y-51265352D02*
X95450186Y-51322495D01*
X95450186Y-51322495D02*
X95507329Y-51436781D01*
X95507329Y-51436781D02*
X95507329Y-51551067D01*
X95507329Y-51551067D02*
X95450186Y-51722495D01*
X95450186Y-51722495D02*
X94764472Y-52408209D01*
X94764472Y-52408209D02*
X95507329Y-52408209D01*
X96593043Y-51208209D02*
X96021615Y-51208209D01*
X96021615Y-51208209D02*
X95964472Y-51779638D01*
X95964472Y-51779638D02*
X96021615Y-51722495D01*
X96021615Y-51722495D02*
X96135901Y-51665352D01*
X96135901Y-51665352D02*
X96421615Y-51665352D01*
X96421615Y-51665352D02*
X96535901Y-51722495D01*
X96535901Y-51722495D02*
X96593043Y-51779638D01*
X96593043Y-51779638D02*
X96650186Y-51893924D01*
X96650186Y-51893924D02*
X96650186Y-52179638D01*
X96650186Y-52179638D02*
X96593043Y-52293924D01*
X96593043Y-52293924D02*
X96535901Y-52351067D01*
X96535901Y-52351067D02*
X96421615Y-52408209D01*
X96421615Y-52408209D02*
X96135901Y-52408209D01*
X96135901Y-52408209D02*
X96021615Y-52351067D01*
X96021615Y-52351067D02*
X95964472Y-52293924D01*
X79621615Y-54340142D02*
X79050187Y-54340142D01*
X79050187Y-54340142D02*
X79050187Y-53140142D01*
X80535902Y-54340142D02*
X80535902Y-53711571D01*
X80535902Y-53711571D02*
X80478759Y-53597285D01*
X80478759Y-53597285D02*
X80364473Y-53540142D01*
X80364473Y-53540142D02*
X80135902Y-53540142D01*
X80135902Y-53540142D02*
X80021616Y-53597285D01*
X80535902Y-54283000D02*
X80421616Y-54340142D01*
X80421616Y-54340142D02*
X80135902Y-54340142D01*
X80135902Y-54340142D02*
X80021616Y-54283000D01*
X80021616Y-54283000D02*
X79964473Y-54168714D01*
X79964473Y-54168714D02*
X79964473Y-54054428D01*
X79964473Y-54054428D02*
X80021616Y-53940142D01*
X80021616Y-53940142D02*
X80135902Y-53883000D01*
X80135902Y-53883000D02*
X80421616Y-53883000D01*
X80421616Y-53883000D02*
X80535902Y-53825857D01*
X81621616Y-53540142D02*
X81621616Y-54340142D01*
X81107330Y-53540142D02*
X81107330Y-54168714D01*
X81107330Y-54168714D02*
X81164473Y-54283000D01*
X81164473Y-54283000D02*
X81278758Y-54340142D01*
X81278758Y-54340142D02*
X81450187Y-54340142D01*
X81450187Y-54340142D02*
X81564473Y-54283000D01*
X81564473Y-54283000D02*
X81621616Y-54225857D01*
X82193044Y-54340142D02*
X82193044Y-53540142D01*
X82193044Y-53768714D02*
X82250187Y-53654428D01*
X82250187Y-53654428D02*
X82307330Y-53597285D01*
X82307330Y-53597285D02*
X82421615Y-53540142D01*
X82421615Y-53540142D02*
X82535901Y-53540142D01*
X83393044Y-54283000D02*
X83278758Y-54340142D01*
X83278758Y-54340142D02*
X83050187Y-54340142D01*
X83050187Y-54340142D02*
X82935901Y-54283000D01*
X82935901Y-54283000D02*
X82878758Y-54168714D01*
X82878758Y-54168714D02*
X82878758Y-53711571D01*
X82878758Y-53711571D02*
X82935901Y-53597285D01*
X82935901Y-53597285D02*
X83050187Y-53540142D01*
X83050187Y-53540142D02*
X83278758Y-53540142D01*
X83278758Y-53540142D02*
X83393044Y-53597285D01*
X83393044Y-53597285D02*
X83450187Y-53711571D01*
X83450187Y-53711571D02*
X83450187Y-53825857D01*
X83450187Y-53825857D02*
X82878758Y-53940142D01*
X83964472Y-53540142D02*
X83964472Y-54340142D01*
X83964472Y-53654428D02*
X84021615Y-53597285D01*
X84021615Y-53597285D02*
X84135900Y-53540142D01*
X84135900Y-53540142D02*
X84307329Y-53540142D01*
X84307329Y-53540142D02*
X84421615Y-53597285D01*
X84421615Y-53597285D02*
X84478758Y-53711571D01*
X84478758Y-53711571D02*
X84478758Y-54340142D01*
X84878757Y-53540142D02*
X85335900Y-53540142D01*
X85050186Y-53140142D02*
X85050186Y-54168714D01*
X85050186Y-54168714D02*
X85107329Y-54283000D01*
X85107329Y-54283000D02*
X85221614Y-54340142D01*
X85221614Y-54340142D02*
X85335900Y-54340142D01*
X87050186Y-53711571D02*
X86650186Y-53711571D01*
X86650186Y-54340142D02*
X86650186Y-53140142D01*
X86650186Y-53140142D02*
X87221614Y-53140142D01*
X87678757Y-54340142D02*
X87678757Y-53540142D01*
X87678757Y-53140142D02*
X87621614Y-53197285D01*
X87621614Y-53197285D02*
X87678757Y-53254428D01*
X87678757Y-53254428D02*
X87735900Y-53197285D01*
X87735900Y-53197285D02*
X87678757Y-53140142D01*
X87678757Y-53140142D02*
X87678757Y-53254428D01*
X88764472Y-54340142D02*
X88764472Y-53711571D01*
X88764472Y-53711571D02*
X88707329Y-53597285D01*
X88707329Y-53597285D02*
X88593043Y-53540142D01*
X88593043Y-53540142D02*
X88364472Y-53540142D01*
X88364472Y-53540142D02*
X88250186Y-53597285D01*
X88764472Y-54283000D02*
X88650186Y-54340142D01*
X88650186Y-54340142D02*
X88364472Y-54340142D01*
X88364472Y-54340142D02*
X88250186Y-54283000D01*
X88250186Y-54283000D02*
X88193043Y-54168714D01*
X88193043Y-54168714D02*
X88193043Y-54054428D01*
X88193043Y-54054428D02*
X88250186Y-53940142D01*
X88250186Y-53940142D02*
X88364472Y-53883000D01*
X88364472Y-53883000D02*
X88650186Y-53883000D01*
X88650186Y-53883000D02*
X88764472Y-53825857D01*
X89850186Y-54283000D02*
X89735900Y-54340142D01*
X89735900Y-54340142D02*
X89507328Y-54340142D01*
X89507328Y-54340142D02*
X89393043Y-54283000D01*
X89393043Y-54283000D02*
X89335900Y-54225857D01*
X89335900Y-54225857D02*
X89278757Y-54111571D01*
X89278757Y-54111571D02*
X89278757Y-53768714D01*
X89278757Y-53768714D02*
X89335900Y-53654428D01*
X89335900Y-53654428D02*
X89393043Y-53597285D01*
X89393043Y-53597285D02*
X89507328Y-53540142D01*
X89507328Y-53540142D02*
X89735900Y-53540142D01*
X89735900Y-53540142D02*
X89850186Y-53597285D01*
X90364471Y-54340142D02*
X90364471Y-53140142D01*
X90478757Y-53883000D02*
X90821614Y-54340142D01*
X90821614Y-53540142D02*
X90364471Y-53997285D01*
D11*
X70000000Y-95000000D02*
X70000000Y-37000000D01*
X106000000Y-36000000D02*
G75*
G02*
X110000000Y-40000000I0J-4000000D01*
G01*
X71000000Y-96000000D02*
G75*
G02*
X70000000Y-95000000I0J1000000D01*
G01*
X110000000Y-95000000D02*
G75*
G02*
X109000000Y-96000000I-1000000J0D01*
G01*
X71000000Y-36000000D02*
X106000000Y-36000000D01*
X70000000Y-37000000D02*
G75*
G02*
X71000000Y-36000000I1000000J0D01*
G01*
X110000000Y-40000000D02*
X110000000Y-95000000D01*
X109000000Y-96000000D02*
X71000000Y-96000000D01*
X54719048Y-37651466D02*
X55480953Y-37651466D01*
X52119048Y-37651466D02*
X52880953Y-37651466D01*
X52500000Y-38032419D02*
X52500000Y-37270514D01*
D12*
X72661905Y-33154819D02*
X72661905Y-32154819D01*
X72661905Y-32154819D02*
X72900000Y-32154819D01*
X72900000Y-32154819D02*
X73042857Y-32202438D01*
X73042857Y-32202438D02*
X73138095Y-32297676D01*
X73138095Y-32297676D02*
X73185714Y-32392914D01*
X73185714Y-32392914D02*
X73233333Y-32583390D01*
X73233333Y-32583390D02*
X73233333Y-32726247D01*
X73233333Y-32726247D02*
X73185714Y-32916723D01*
X73185714Y-32916723D02*
X73138095Y-33011961D01*
X73138095Y-33011961D02*
X73042857Y-33107200D01*
X73042857Y-33107200D02*
X72900000Y-33154819D01*
X72900000Y-33154819D02*
X72661905Y-33154819D01*
X73566667Y-32154819D02*
X74233333Y-32154819D01*
X74233333Y-32154819D02*
X73804762Y-33154819D01*
X104557142Y-33154819D02*
X104223809Y-32678628D01*
X103985714Y-33154819D02*
X103985714Y-32154819D01*
X103985714Y-32154819D02*
X104366666Y-32154819D01*
X104366666Y-32154819D02*
X104461904Y-32202438D01*
X104461904Y-32202438D02*
X104509523Y-32250057D01*
X104509523Y-32250057D02*
X104557142Y-32345295D01*
X104557142Y-32345295D02*
X104557142Y-32488152D01*
X104557142Y-32488152D02*
X104509523Y-32583390D01*
X104509523Y-32583390D02*
X104461904Y-32631009D01*
X104461904Y-32631009D02*
X104366666Y-32678628D01*
X104366666Y-32678628D02*
X103985714Y-32678628D01*
X104938095Y-32250057D02*
X104985714Y-32202438D01*
X104985714Y-32202438D02*
X105080952Y-32154819D01*
X105080952Y-32154819D02*
X105319047Y-32154819D01*
X105319047Y-32154819D02*
X105414285Y-32202438D01*
X105414285Y-32202438D02*
X105461904Y-32250057D01*
X105461904Y-32250057D02*
X105509523Y-32345295D01*
X105509523Y-32345295D02*
X105509523Y-32440533D01*
X105509523Y-32440533D02*
X105461904Y-32583390D01*
X105461904Y-32583390D02*
X104890476Y-33154819D01*
X104890476Y-33154819D02*
X105509523Y-33154819D01*
X106080952Y-32583390D02*
X105985714Y-32535771D01*
X105985714Y-32535771D02*
X105938095Y-32488152D01*
X105938095Y-32488152D02*
X105890476Y-32392914D01*
X105890476Y-32392914D02*
X105890476Y-32345295D01*
X105890476Y-32345295D02*
X105938095Y-32250057D01*
X105938095Y-32250057D02*
X105985714Y-32202438D01*
X105985714Y-32202438D02*
X106080952Y-32154819D01*
X106080952Y-32154819D02*
X106271428Y-32154819D01*
X106271428Y-32154819D02*
X106366666Y-32202438D01*
X106366666Y-32202438D02*
X106414285Y-32250057D01*
X106414285Y-32250057D02*
X106461904Y-32345295D01*
X106461904Y-32345295D02*
X106461904Y-32392914D01*
X106461904Y-32392914D02*
X106414285Y-32488152D01*
X106414285Y-32488152D02*
X106366666Y-32535771D01*
X106366666Y-32535771D02*
X106271428Y-32583390D01*
X106271428Y-32583390D02*
X106080952Y-32583390D01*
X106080952Y-32583390D02*
X105985714Y-32631009D01*
X105985714Y-32631009D02*
X105938095Y-32678628D01*
X105938095Y-32678628D02*
X105890476Y-32773866D01*
X105890476Y-32773866D02*
X105890476Y-32964342D01*
X105890476Y-32964342D02*
X105938095Y-33059580D01*
X105938095Y-33059580D02*
X105985714Y-33107200D01*
X105985714Y-33107200D02*
X106080952Y-33154819D01*
X106080952Y-33154819D02*
X106271428Y-33154819D01*
X106271428Y-33154819D02*
X106366666Y-33107200D01*
X106366666Y-33107200D02*
X106414285Y-33059580D01*
X106414285Y-33059580D02*
X106461904Y-32964342D01*
X106461904Y-32964342D02*
X106461904Y-32773866D01*
X106461904Y-32773866D02*
X106414285Y-32678628D01*
X106414285Y-32678628D02*
X106366666Y-32631009D01*
X106366666Y-32631009D02*
X106271428Y-32583390D01*
X101161905Y-33154819D02*
X101161905Y-32154819D01*
X101161905Y-32154819D02*
X101400000Y-32154819D01*
X101400000Y-32154819D02*
X101542857Y-32202438D01*
X101542857Y-32202438D02*
X101638095Y-32297676D01*
X101638095Y-32297676D02*
X101685714Y-32392914D01*
X101685714Y-32392914D02*
X101733333Y-32583390D01*
X101733333Y-32583390D02*
X101733333Y-32726247D01*
X101733333Y-32726247D02*
X101685714Y-32916723D01*
X101685714Y-32916723D02*
X101638095Y-33011961D01*
X101638095Y-33011961D02*
X101542857Y-33107200D01*
X101542857Y-33107200D02*
X101400000Y-33154819D01*
X101400000Y-33154819D02*
X101161905Y-33154819D01*
X102304762Y-32583390D02*
X102209524Y-32535771D01*
X102209524Y-32535771D02*
X102161905Y-32488152D01*
X102161905Y-32488152D02*
X102114286Y-32392914D01*
X102114286Y-32392914D02*
X102114286Y-32345295D01*
X102114286Y-32345295D02*
X102161905Y-32250057D01*
X102161905Y-32250057D02*
X102209524Y-32202438D01*
X102209524Y-32202438D02*
X102304762Y-32154819D01*
X102304762Y-32154819D02*
X102495238Y-32154819D01*
X102495238Y-32154819D02*
X102590476Y-32202438D01*
X102590476Y-32202438D02*
X102638095Y-32250057D01*
X102638095Y-32250057D02*
X102685714Y-32345295D01*
X102685714Y-32345295D02*
X102685714Y-32392914D01*
X102685714Y-32392914D02*
X102638095Y-32488152D01*
X102638095Y-32488152D02*
X102590476Y-32535771D01*
X102590476Y-32535771D02*
X102495238Y-32583390D01*
X102495238Y-32583390D02*
X102304762Y-32583390D01*
X102304762Y-32583390D02*
X102209524Y-32631009D01*
X102209524Y-32631009D02*
X102161905Y-32678628D01*
X102161905Y-32678628D02*
X102114286Y-32773866D01*
X102114286Y-32773866D02*
X102114286Y-32964342D01*
X102114286Y-32964342D02*
X102161905Y-33059580D01*
X102161905Y-33059580D02*
X102209524Y-33107200D01*
X102209524Y-33107200D02*
X102304762Y-33154819D01*
X102304762Y-33154819D02*
X102495238Y-33154819D01*
X102495238Y-33154819D02*
X102590476Y-33107200D01*
X102590476Y-33107200D02*
X102638095Y-33059580D01*
X102638095Y-33059580D02*
X102685714Y-32964342D01*
X102685714Y-32964342D02*
X102685714Y-32773866D01*
X102685714Y-32773866D02*
X102638095Y-32678628D01*
X102638095Y-32678628D02*
X102590476Y-32631009D01*
X102590476Y-32631009D02*
X102495238Y-32583390D01*
X77654819Y-43442857D02*
X77178628Y-43776190D01*
X77654819Y-44014285D02*
X76654819Y-44014285D01*
X76654819Y-44014285D02*
X76654819Y-43633333D01*
X76654819Y-43633333D02*
X76702438Y-43538095D01*
X76702438Y-43538095D02*
X76750057Y-43490476D01*
X76750057Y-43490476D02*
X76845295Y-43442857D01*
X76845295Y-43442857D02*
X76988152Y-43442857D01*
X76988152Y-43442857D02*
X77083390Y-43490476D01*
X77083390Y-43490476D02*
X77131009Y-43538095D01*
X77131009Y-43538095D02*
X77178628Y-43633333D01*
X77178628Y-43633333D02*
X77178628Y-44014285D01*
X76750057Y-43061904D02*
X76702438Y-43014285D01*
X76702438Y-43014285D02*
X76654819Y-42919047D01*
X76654819Y-42919047D02*
X76654819Y-42680952D01*
X76654819Y-42680952D02*
X76702438Y-42585714D01*
X76702438Y-42585714D02*
X76750057Y-42538095D01*
X76750057Y-42538095D02*
X76845295Y-42490476D01*
X76845295Y-42490476D02*
X76940533Y-42490476D01*
X76940533Y-42490476D02*
X77083390Y-42538095D01*
X77083390Y-42538095D02*
X77654819Y-43109523D01*
X77654819Y-43109523D02*
X77654819Y-42490476D01*
X76654819Y-41633333D02*
X76654819Y-41823809D01*
X76654819Y-41823809D02*
X76702438Y-41919047D01*
X76702438Y-41919047D02*
X76750057Y-41966666D01*
X76750057Y-41966666D02*
X76892914Y-42061904D01*
X76892914Y-42061904D02*
X77083390Y-42109523D01*
X77083390Y-42109523D02*
X77464342Y-42109523D01*
X77464342Y-42109523D02*
X77559580Y-42061904D01*
X77559580Y-42061904D02*
X77607200Y-42014285D01*
X77607200Y-42014285D02*
X77654819Y-41919047D01*
X77654819Y-41919047D02*
X77654819Y-41728571D01*
X77654819Y-41728571D02*
X77607200Y-41633333D01*
X77607200Y-41633333D02*
X77559580Y-41585714D01*
X77559580Y-41585714D02*
X77464342Y-41538095D01*
X77464342Y-41538095D02*
X77226247Y-41538095D01*
X77226247Y-41538095D02*
X77131009Y-41585714D01*
X77131009Y-41585714D02*
X77083390Y-41633333D01*
X77083390Y-41633333D02*
X77035771Y-41728571D01*
X77035771Y-41728571D02*
X77035771Y-41919047D01*
X77035771Y-41919047D02*
X77083390Y-42014285D01*
X77083390Y-42014285D02*
X77131009Y-42061904D01*
X77131009Y-42061904D02*
X77226247Y-42109523D01*
X57054819Y-46538094D02*
X56054819Y-46538094D01*
X56054819Y-46538094D02*
X56054819Y-46299999D01*
X56054819Y-46299999D02*
X56102438Y-46157142D01*
X56102438Y-46157142D02*
X56197676Y-46061904D01*
X56197676Y-46061904D02*
X56292914Y-46014285D01*
X56292914Y-46014285D02*
X56483390Y-45966666D01*
X56483390Y-45966666D02*
X56626247Y-45966666D01*
X56626247Y-45966666D02*
X56816723Y-46014285D01*
X56816723Y-46014285D02*
X56911961Y-46061904D01*
X56911961Y-46061904D02*
X57007200Y-46157142D01*
X57007200Y-46157142D02*
X57054819Y-46299999D01*
X57054819Y-46299999D02*
X57054819Y-46538094D01*
X56054819Y-45061904D02*
X56054819Y-45538094D01*
X56054819Y-45538094D02*
X56531009Y-45585713D01*
X56531009Y-45585713D02*
X56483390Y-45538094D01*
X56483390Y-45538094D02*
X56435771Y-45442856D01*
X56435771Y-45442856D02*
X56435771Y-45204761D01*
X56435771Y-45204761D02*
X56483390Y-45109523D01*
X56483390Y-45109523D02*
X56531009Y-45061904D01*
X56531009Y-45061904D02*
X56626247Y-45014285D01*
X56626247Y-45014285D02*
X56864342Y-45014285D01*
X56864342Y-45014285D02*
X56959580Y-45061904D01*
X56959580Y-45061904D02*
X57007200Y-45109523D01*
X57007200Y-45109523D02*
X57054819Y-45204761D01*
X57054819Y-45204761D02*
X57054819Y-45442856D01*
X57054819Y-45442856D02*
X57007200Y-45538094D01*
X57007200Y-45538094D02*
X56959580Y-45585713D01*
X134854819Y-47642857D02*
X134378628Y-47976190D01*
X134854819Y-48214285D02*
X133854819Y-48214285D01*
X133854819Y-48214285D02*
X133854819Y-47833333D01*
X133854819Y-47833333D02*
X133902438Y-47738095D01*
X133902438Y-47738095D02*
X133950057Y-47690476D01*
X133950057Y-47690476D02*
X134045295Y-47642857D01*
X134045295Y-47642857D02*
X134188152Y-47642857D01*
X134188152Y-47642857D02*
X134283390Y-47690476D01*
X134283390Y-47690476D02*
X134331009Y-47738095D01*
X134331009Y-47738095D02*
X134378628Y-47833333D01*
X134378628Y-47833333D02*
X134378628Y-48214285D01*
X133950057Y-47261904D02*
X133902438Y-47214285D01*
X133902438Y-47214285D02*
X133854819Y-47119047D01*
X133854819Y-47119047D02*
X133854819Y-46880952D01*
X133854819Y-46880952D02*
X133902438Y-46785714D01*
X133902438Y-46785714D02*
X133950057Y-46738095D01*
X133950057Y-46738095D02*
X134045295Y-46690476D01*
X134045295Y-46690476D02*
X134140533Y-46690476D01*
X134140533Y-46690476D02*
X134283390Y-46738095D01*
X134283390Y-46738095D02*
X134854819Y-47309523D01*
X134854819Y-47309523D02*
X134854819Y-46690476D01*
X133854819Y-45785714D02*
X133854819Y-46261904D01*
X133854819Y-46261904D02*
X134331009Y-46309523D01*
X134331009Y-46309523D02*
X134283390Y-46261904D01*
X134283390Y-46261904D02*
X134235771Y-46166666D01*
X134235771Y-46166666D02*
X134235771Y-45928571D01*
X134235771Y-45928571D02*
X134283390Y-45833333D01*
X134283390Y-45833333D02*
X134331009Y-45785714D01*
X134331009Y-45785714D02*
X134426247Y-45738095D01*
X134426247Y-45738095D02*
X134664342Y-45738095D01*
X134664342Y-45738095D02*
X134759580Y-45785714D01*
X134759580Y-45785714D02*
X134807200Y-45833333D01*
X134807200Y-45833333D02*
X134854819Y-45928571D01*
X134854819Y-45928571D02*
X134854819Y-46166666D01*
X134854819Y-46166666D02*
X134807200Y-46261904D01*
X134807200Y-46261904D02*
X134759580Y-46309523D01*
X103833333Y-92154819D02*
X103500000Y-91678628D01*
X103261905Y-92154819D02*
X103261905Y-91154819D01*
X103261905Y-91154819D02*
X103642857Y-91154819D01*
X103642857Y-91154819D02*
X103738095Y-91202438D01*
X103738095Y-91202438D02*
X103785714Y-91250057D01*
X103785714Y-91250057D02*
X103833333Y-91345295D01*
X103833333Y-91345295D02*
X103833333Y-91488152D01*
X103833333Y-91488152D02*
X103785714Y-91583390D01*
X103785714Y-91583390D02*
X103738095Y-91631009D01*
X103738095Y-91631009D02*
X103642857Y-91678628D01*
X103642857Y-91678628D02*
X103261905Y-91678628D01*
X104690476Y-91488152D02*
X104690476Y-92154819D01*
X104452381Y-91107200D02*
X104214286Y-91821485D01*
X104214286Y-91821485D02*
X104833333Y-91821485D01*
X106133333Y-93659580D02*
X106085714Y-93707200D01*
X106085714Y-93707200D02*
X105942857Y-93754819D01*
X105942857Y-93754819D02*
X105847619Y-93754819D01*
X105847619Y-93754819D02*
X105704762Y-93707200D01*
X105704762Y-93707200D02*
X105609524Y-93611961D01*
X105609524Y-93611961D02*
X105561905Y-93516723D01*
X105561905Y-93516723D02*
X105514286Y-93326247D01*
X105514286Y-93326247D02*
X105514286Y-93183390D01*
X105514286Y-93183390D02*
X105561905Y-92992914D01*
X105561905Y-92992914D02*
X105609524Y-92897676D01*
X105609524Y-92897676D02*
X105704762Y-92802438D01*
X105704762Y-92802438D02*
X105847619Y-92754819D01*
X105847619Y-92754819D02*
X105942857Y-92754819D01*
X105942857Y-92754819D02*
X106085714Y-92802438D01*
X106085714Y-92802438D02*
X106133333Y-92850057D01*
X106990476Y-93088152D02*
X106990476Y-93754819D01*
X106752381Y-92707200D02*
X106514286Y-93421485D01*
X106514286Y-93421485D02*
X107133333Y-93421485D01*
X81833333Y-91254819D02*
X81500000Y-90778628D01*
X81261905Y-91254819D02*
X81261905Y-90254819D01*
X81261905Y-90254819D02*
X81642857Y-90254819D01*
X81642857Y-90254819D02*
X81738095Y-90302438D01*
X81738095Y-90302438D02*
X81785714Y-90350057D01*
X81785714Y-90350057D02*
X81833333Y-90445295D01*
X81833333Y-90445295D02*
X81833333Y-90588152D01*
X81833333Y-90588152D02*
X81785714Y-90683390D01*
X81785714Y-90683390D02*
X81738095Y-90731009D01*
X81738095Y-90731009D02*
X81642857Y-90778628D01*
X81642857Y-90778628D02*
X81261905Y-90778628D01*
X82166667Y-90254819D02*
X82833333Y-90254819D01*
X82833333Y-90254819D02*
X82404762Y-91254819D01*
X80054819Y-44142857D02*
X79578628Y-44476190D01*
X80054819Y-44714285D02*
X79054819Y-44714285D01*
X79054819Y-44714285D02*
X79054819Y-44333333D01*
X79054819Y-44333333D02*
X79102438Y-44238095D01*
X79102438Y-44238095D02*
X79150057Y-44190476D01*
X79150057Y-44190476D02*
X79245295Y-44142857D01*
X79245295Y-44142857D02*
X79388152Y-44142857D01*
X79388152Y-44142857D02*
X79483390Y-44190476D01*
X79483390Y-44190476D02*
X79531009Y-44238095D01*
X79531009Y-44238095D02*
X79578628Y-44333333D01*
X79578628Y-44333333D02*
X79578628Y-44714285D01*
X79150057Y-43761904D02*
X79102438Y-43714285D01*
X79102438Y-43714285D02*
X79054819Y-43619047D01*
X79054819Y-43619047D02*
X79054819Y-43380952D01*
X79054819Y-43380952D02*
X79102438Y-43285714D01*
X79102438Y-43285714D02*
X79150057Y-43238095D01*
X79150057Y-43238095D02*
X79245295Y-43190476D01*
X79245295Y-43190476D02*
X79340533Y-43190476D01*
X79340533Y-43190476D02*
X79483390Y-43238095D01*
X79483390Y-43238095D02*
X80054819Y-43809523D01*
X80054819Y-43809523D02*
X80054819Y-43190476D01*
X79054819Y-42857142D02*
X79054819Y-42190476D01*
X79054819Y-42190476D02*
X80054819Y-42619047D01*
X126666667Y-32707200D02*
X126809524Y-32754819D01*
X126809524Y-32754819D02*
X127047619Y-32754819D01*
X127047619Y-32754819D02*
X127142857Y-32707200D01*
X127142857Y-32707200D02*
X127190476Y-32659580D01*
X127190476Y-32659580D02*
X127238095Y-32564342D01*
X127238095Y-32564342D02*
X127238095Y-32469104D01*
X127238095Y-32469104D02*
X127190476Y-32373866D01*
X127190476Y-32373866D02*
X127142857Y-32326247D01*
X127142857Y-32326247D02*
X127047619Y-32278628D01*
X127047619Y-32278628D02*
X126857143Y-32231009D01*
X126857143Y-32231009D02*
X126761905Y-32183390D01*
X126761905Y-32183390D02*
X126714286Y-32135771D01*
X126714286Y-32135771D02*
X126666667Y-32040533D01*
X126666667Y-32040533D02*
X126666667Y-31945295D01*
X126666667Y-31945295D02*
X126714286Y-31850057D01*
X126714286Y-31850057D02*
X126761905Y-31802438D01*
X126761905Y-31802438D02*
X126857143Y-31754819D01*
X126857143Y-31754819D02*
X127095238Y-31754819D01*
X127095238Y-31754819D02*
X127238095Y-31802438D01*
X127571429Y-31754819D02*
X127809524Y-32754819D01*
X127809524Y-32754819D02*
X128000000Y-32040533D01*
X128000000Y-32040533D02*
X128190476Y-32754819D01*
X128190476Y-32754819D02*
X128428572Y-31754819D01*
X129333333Y-32754819D02*
X128761905Y-32754819D01*
X129047619Y-32754819D02*
X129047619Y-31754819D01*
X129047619Y-31754819D02*
X128952381Y-31897676D01*
X128952381Y-31897676D02*
X128857143Y-31992914D01*
X128857143Y-31992914D02*
X128761905Y-32040533D01*
X85929580Y-66642857D02*
X85977200Y-66690476D01*
X85977200Y-66690476D02*
X86024819Y-66833333D01*
X86024819Y-66833333D02*
X86024819Y-66928571D01*
X86024819Y-66928571D02*
X85977200Y-67071428D01*
X85977200Y-67071428D02*
X85881961Y-67166666D01*
X85881961Y-67166666D02*
X85786723Y-67214285D01*
X85786723Y-67214285D02*
X85596247Y-67261904D01*
X85596247Y-67261904D02*
X85453390Y-67261904D01*
X85453390Y-67261904D02*
X85262914Y-67214285D01*
X85262914Y-67214285D02*
X85167676Y-67166666D01*
X85167676Y-67166666D02*
X85072438Y-67071428D01*
X85072438Y-67071428D02*
X85024819Y-66928571D01*
X85024819Y-66928571D02*
X85024819Y-66833333D01*
X85024819Y-66833333D02*
X85072438Y-66690476D01*
X85072438Y-66690476D02*
X85120057Y-66642857D01*
X85120057Y-66261904D02*
X85072438Y-66214285D01*
X85072438Y-66214285D02*
X85024819Y-66119047D01*
X85024819Y-66119047D02*
X85024819Y-65880952D01*
X85024819Y-65880952D02*
X85072438Y-65785714D01*
X85072438Y-65785714D02*
X85120057Y-65738095D01*
X85120057Y-65738095D02*
X85215295Y-65690476D01*
X85215295Y-65690476D02*
X85310533Y-65690476D01*
X85310533Y-65690476D02*
X85453390Y-65738095D01*
X85453390Y-65738095D02*
X86024819Y-66309523D01*
X86024819Y-66309523D02*
X86024819Y-65690476D01*
X85358152Y-64833333D02*
X86024819Y-64833333D01*
X84977200Y-65071428D02*
X85691485Y-65309523D01*
X85691485Y-65309523D02*
X85691485Y-64690476D01*
X107457142Y-80354819D02*
X107123809Y-79878628D01*
X106885714Y-80354819D02*
X106885714Y-79354819D01*
X106885714Y-79354819D02*
X107266666Y-79354819D01*
X107266666Y-79354819D02*
X107361904Y-79402438D01*
X107361904Y-79402438D02*
X107409523Y-79450057D01*
X107409523Y-79450057D02*
X107457142Y-79545295D01*
X107457142Y-79545295D02*
X107457142Y-79688152D01*
X107457142Y-79688152D02*
X107409523Y-79783390D01*
X107409523Y-79783390D02*
X107361904Y-79831009D01*
X107361904Y-79831009D02*
X107266666Y-79878628D01*
X107266666Y-79878628D02*
X106885714Y-79878628D01*
X108409523Y-80354819D02*
X107838095Y-80354819D01*
X108123809Y-80354819D02*
X108123809Y-79354819D01*
X108123809Y-79354819D02*
X108028571Y-79497676D01*
X108028571Y-79497676D02*
X107933333Y-79592914D01*
X107933333Y-79592914D02*
X107838095Y-79640533D01*
X108742857Y-79354819D02*
X109361904Y-79354819D01*
X109361904Y-79354819D02*
X109028571Y-79735771D01*
X109028571Y-79735771D02*
X109171428Y-79735771D01*
X109171428Y-79735771D02*
X109266666Y-79783390D01*
X109266666Y-79783390D02*
X109314285Y-79831009D01*
X109314285Y-79831009D02*
X109361904Y-79926247D01*
X109361904Y-79926247D02*
X109361904Y-80164342D01*
X109361904Y-80164342D02*
X109314285Y-80259580D01*
X109314285Y-80259580D02*
X109266666Y-80307200D01*
X109266666Y-80307200D02*
X109171428Y-80354819D01*
X109171428Y-80354819D02*
X108885714Y-80354819D01*
X108885714Y-80354819D02*
X108790476Y-80307200D01*
X108790476Y-80307200D02*
X108742857Y-80259580D01*
X67654819Y-69438094D02*
X66654819Y-69438094D01*
X66654819Y-69438094D02*
X66654819Y-69199999D01*
X66654819Y-69199999D02*
X66702438Y-69057142D01*
X66702438Y-69057142D02*
X66797676Y-68961904D01*
X66797676Y-68961904D02*
X66892914Y-68914285D01*
X66892914Y-68914285D02*
X67083390Y-68866666D01*
X67083390Y-68866666D02*
X67226247Y-68866666D01*
X67226247Y-68866666D02*
X67416723Y-68914285D01*
X67416723Y-68914285D02*
X67511961Y-68961904D01*
X67511961Y-68961904D02*
X67607200Y-69057142D01*
X67607200Y-69057142D02*
X67654819Y-69199999D01*
X67654819Y-69199999D02*
X67654819Y-69438094D01*
X67654819Y-67914285D02*
X67654819Y-68485713D01*
X67654819Y-68199999D02*
X66654819Y-68199999D01*
X66654819Y-68199999D02*
X66797676Y-68295237D01*
X66797676Y-68295237D02*
X66892914Y-68390475D01*
X66892914Y-68390475D02*
X66940533Y-68485713D01*
X80457142Y-80154819D02*
X80123809Y-79678628D01*
X79885714Y-80154819D02*
X79885714Y-79154819D01*
X79885714Y-79154819D02*
X80266666Y-79154819D01*
X80266666Y-79154819D02*
X80361904Y-79202438D01*
X80361904Y-79202438D02*
X80409523Y-79250057D01*
X80409523Y-79250057D02*
X80457142Y-79345295D01*
X80457142Y-79345295D02*
X80457142Y-79488152D01*
X80457142Y-79488152D02*
X80409523Y-79583390D01*
X80409523Y-79583390D02*
X80361904Y-79631009D01*
X80361904Y-79631009D02*
X80266666Y-79678628D01*
X80266666Y-79678628D02*
X79885714Y-79678628D01*
X81409523Y-80154819D02*
X80838095Y-80154819D01*
X81123809Y-80154819D02*
X81123809Y-79154819D01*
X81123809Y-79154819D02*
X81028571Y-79297676D01*
X81028571Y-79297676D02*
X80933333Y-79392914D01*
X80933333Y-79392914D02*
X80838095Y-79440533D01*
X81742857Y-79154819D02*
X82409523Y-79154819D01*
X82409523Y-79154819D02*
X81980952Y-80154819D01*
X77257142Y-76754819D02*
X76923809Y-76278628D01*
X76685714Y-76754819D02*
X76685714Y-75754819D01*
X76685714Y-75754819D02*
X77066666Y-75754819D01*
X77066666Y-75754819D02*
X77161904Y-75802438D01*
X77161904Y-75802438D02*
X77209523Y-75850057D01*
X77209523Y-75850057D02*
X77257142Y-75945295D01*
X77257142Y-75945295D02*
X77257142Y-76088152D01*
X77257142Y-76088152D02*
X77209523Y-76183390D01*
X77209523Y-76183390D02*
X77161904Y-76231009D01*
X77161904Y-76231009D02*
X77066666Y-76278628D01*
X77066666Y-76278628D02*
X76685714Y-76278628D01*
X78209523Y-76754819D02*
X77638095Y-76754819D01*
X77923809Y-76754819D02*
X77923809Y-75754819D01*
X77923809Y-75754819D02*
X77828571Y-75897676D01*
X77828571Y-75897676D02*
X77733333Y-75992914D01*
X77733333Y-75992914D02*
X77638095Y-76040533D01*
X79114285Y-75754819D02*
X78638095Y-75754819D01*
X78638095Y-75754819D02*
X78590476Y-76231009D01*
X78590476Y-76231009D02*
X78638095Y-76183390D01*
X78638095Y-76183390D02*
X78733333Y-76135771D01*
X78733333Y-76135771D02*
X78971428Y-76135771D01*
X78971428Y-76135771D02*
X79066666Y-76183390D01*
X79066666Y-76183390D02*
X79114285Y-76231009D01*
X79114285Y-76231009D02*
X79161904Y-76326247D01*
X79161904Y-76326247D02*
X79161904Y-76564342D01*
X79161904Y-76564342D02*
X79114285Y-76659580D01*
X79114285Y-76659580D02*
X79066666Y-76707200D01*
X79066666Y-76707200D02*
X78971428Y-76754819D01*
X78971428Y-76754819D02*
X78733333Y-76754819D01*
X78733333Y-76754819D02*
X78638095Y-76707200D01*
X78638095Y-76707200D02*
X78590476Y-76659580D01*
X80254819Y-33333333D02*
X80969104Y-33333333D01*
X80969104Y-33333333D02*
X81111961Y-33380952D01*
X81111961Y-33380952D02*
X81207200Y-33476190D01*
X81207200Y-33476190D02*
X81254819Y-33619047D01*
X81254819Y-33619047D02*
X81254819Y-33714285D01*
X80683390Y-32714285D02*
X80635771Y-32809523D01*
X80635771Y-32809523D02*
X80588152Y-32857142D01*
X80588152Y-32857142D02*
X80492914Y-32904761D01*
X80492914Y-32904761D02*
X80445295Y-32904761D01*
X80445295Y-32904761D02*
X80350057Y-32857142D01*
X80350057Y-32857142D02*
X80302438Y-32809523D01*
X80302438Y-32809523D02*
X80254819Y-32714285D01*
X80254819Y-32714285D02*
X80254819Y-32523809D01*
X80254819Y-32523809D02*
X80302438Y-32428571D01*
X80302438Y-32428571D02*
X80350057Y-32380952D01*
X80350057Y-32380952D02*
X80445295Y-32333333D01*
X80445295Y-32333333D02*
X80492914Y-32333333D01*
X80492914Y-32333333D02*
X80588152Y-32380952D01*
X80588152Y-32380952D02*
X80635771Y-32428571D01*
X80635771Y-32428571D02*
X80683390Y-32523809D01*
X80683390Y-32523809D02*
X80683390Y-32714285D01*
X80683390Y-32714285D02*
X80731009Y-32809523D01*
X80731009Y-32809523D02*
X80778628Y-32857142D01*
X80778628Y-32857142D02*
X80873866Y-32904761D01*
X80873866Y-32904761D02*
X81064342Y-32904761D01*
X81064342Y-32904761D02*
X81159580Y-32857142D01*
X81159580Y-32857142D02*
X81207200Y-32809523D01*
X81207200Y-32809523D02*
X81254819Y-32714285D01*
X81254819Y-32714285D02*
X81254819Y-32523809D01*
X81254819Y-32523809D02*
X81207200Y-32428571D01*
X81207200Y-32428571D02*
X81159580Y-32380952D01*
X81159580Y-32380952D02*
X81064342Y-32333333D01*
X81064342Y-32333333D02*
X80873866Y-32333333D01*
X80873866Y-32333333D02*
X80778628Y-32380952D01*
X80778628Y-32380952D02*
X80731009Y-32428571D01*
X80731009Y-32428571D02*
X80683390Y-32523809D01*
X89054819Y-72942857D02*
X88578628Y-73276190D01*
X89054819Y-73514285D02*
X88054819Y-73514285D01*
X88054819Y-73514285D02*
X88054819Y-73133333D01*
X88054819Y-73133333D02*
X88102438Y-73038095D01*
X88102438Y-73038095D02*
X88150057Y-72990476D01*
X88150057Y-72990476D02*
X88245295Y-72942857D01*
X88245295Y-72942857D02*
X88388152Y-72942857D01*
X88388152Y-72942857D02*
X88483390Y-72990476D01*
X88483390Y-72990476D02*
X88531009Y-73038095D01*
X88531009Y-73038095D02*
X88578628Y-73133333D01*
X88578628Y-73133333D02*
X88578628Y-73514285D01*
X89054819Y-71990476D02*
X89054819Y-72561904D01*
X89054819Y-72276190D02*
X88054819Y-72276190D01*
X88054819Y-72276190D02*
X88197676Y-72371428D01*
X88197676Y-72371428D02*
X88292914Y-72466666D01*
X88292914Y-72466666D02*
X88340533Y-72561904D01*
X88054819Y-71371428D02*
X88054819Y-71276190D01*
X88054819Y-71276190D02*
X88102438Y-71180952D01*
X88102438Y-71180952D02*
X88150057Y-71133333D01*
X88150057Y-71133333D02*
X88245295Y-71085714D01*
X88245295Y-71085714D02*
X88435771Y-71038095D01*
X88435771Y-71038095D02*
X88673866Y-71038095D01*
X88673866Y-71038095D02*
X88864342Y-71085714D01*
X88864342Y-71085714D02*
X88959580Y-71133333D01*
X88959580Y-71133333D02*
X89007200Y-71180952D01*
X89007200Y-71180952D02*
X89054819Y-71276190D01*
X89054819Y-71276190D02*
X89054819Y-71371428D01*
X89054819Y-71371428D02*
X89007200Y-71466666D01*
X89007200Y-71466666D02*
X88959580Y-71514285D01*
X88959580Y-71514285D02*
X88864342Y-71561904D01*
X88864342Y-71561904D02*
X88673866Y-71609523D01*
X88673866Y-71609523D02*
X88435771Y-71609523D01*
X88435771Y-71609523D02*
X88245295Y-71561904D01*
X88245295Y-71561904D02*
X88150057Y-71514285D01*
X88150057Y-71514285D02*
X88102438Y-71466666D01*
X88102438Y-71466666D02*
X88054819Y-71371428D01*
X115854819Y-34642857D02*
X115378628Y-34976190D01*
X115854819Y-35214285D02*
X114854819Y-35214285D01*
X114854819Y-35214285D02*
X114854819Y-34833333D01*
X114854819Y-34833333D02*
X114902438Y-34738095D01*
X114902438Y-34738095D02*
X114950057Y-34690476D01*
X114950057Y-34690476D02*
X115045295Y-34642857D01*
X115045295Y-34642857D02*
X115188152Y-34642857D01*
X115188152Y-34642857D02*
X115283390Y-34690476D01*
X115283390Y-34690476D02*
X115331009Y-34738095D01*
X115331009Y-34738095D02*
X115378628Y-34833333D01*
X115378628Y-34833333D02*
X115378628Y-35214285D01*
X114950057Y-34261904D02*
X114902438Y-34214285D01*
X114902438Y-34214285D02*
X114854819Y-34119047D01*
X114854819Y-34119047D02*
X114854819Y-33880952D01*
X114854819Y-33880952D02*
X114902438Y-33785714D01*
X114902438Y-33785714D02*
X114950057Y-33738095D01*
X114950057Y-33738095D02*
X115045295Y-33690476D01*
X115045295Y-33690476D02*
X115140533Y-33690476D01*
X115140533Y-33690476D02*
X115283390Y-33738095D01*
X115283390Y-33738095D02*
X115854819Y-34309523D01*
X115854819Y-34309523D02*
X115854819Y-33690476D01*
X114854819Y-33071428D02*
X114854819Y-32976190D01*
X114854819Y-32976190D02*
X114902438Y-32880952D01*
X114902438Y-32880952D02*
X114950057Y-32833333D01*
X114950057Y-32833333D02*
X115045295Y-32785714D01*
X115045295Y-32785714D02*
X115235771Y-32738095D01*
X115235771Y-32738095D02*
X115473866Y-32738095D01*
X115473866Y-32738095D02*
X115664342Y-32785714D01*
X115664342Y-32785714D02*
X115759580Y-32833333D01*
X115759580Y-32833333D02*
X115807200Y-32880952D01*
X115807200Y-32880952D02*
X115854819Y-32976190D01*
X115854819Y-32976190D02*
X115854819Y-33071428D01*
X115854819Y-33071428D02*
X115807200Y-33166666D01*
X115807200Y-33166666D02*
X115759580Y-33214285D01*
X115759580Y-33214285D02*
X115664342Y-33261904D01*
X115664342Y-33261904D02*
X115473866Y-33309523D01*
X115473866Y-33309523D02*
X115235771Y-33309523D01*
X115235771Y-33309523D02*
X115045295Y-33261904D01*
X115045295Y-33261904D02*
X114950057Y-33214285D01*
X114950057Y-33214285D02*
X114902438Y-33166666D01*
X114902438Y-33166666D02*
X114854819Y-33071428D01*
X79533333Y-92859580D02*
X79485714Y-92907200D01*
X79485714Y-92907200D02*
X79342857Y-92954819D01*
X79342857Y-92954819D02*
X79247619Y-92954819D01*
X79247619Y-92954819D02*
X79104762Y-92907200D01*
X79104762Y-92907200D02*
X79009524Y-92811961D01*
X79009524Y-92811961D02*
X78961905Y-92716723D01*
X78961905Y-92716723D02*
X78914286Y-92526247D01*
X78914286Y-92526247D02*
X78914286Y-92383390D01*
X78914286Y-92383390D02*
X78961905Y-92192914D01*
X78961905Y-92192914D02*
X79009524Y-92097676D01*
X79009524Y-92097676D02*
X79104762Y-92002438D01*
X79104762Y-92002438D02*
X79247619Y-91954819D01*
X79247619Y-91954819D02*
X79342857Y-91954819D01*
X79342857Y-91954819D02*
X79485714Y-92002438D01*
X79485714Y-92002438D02*
X79533333Y-92050057D01*
X79866667Y-91954819D02*
X80533333Y-91954819D01*
X80533333Y-91954819D02*
X80104762Y-92954819D01*
X77257142Y-78159580D02*
X77209523Y-78207200D01*
X77209523Y-78207200D02*
X77066666Y-78254819D01*
X77066666Y-78254819D02*
X76971428Y-78254819D01*
X76971428Y-78254819D02*
X76828571Y-78207200D01*
X76828571Y-78207200D02*
X76733333Y-78111961D01*
X76733333Y-78111961D02*
X76685714Y-78016723D01*
X76685714Y-78016723D02*
X76638095Y-77826247D01*
X76638095Y-77826247D02*
X76638095Y-77683390D01*
X76638095Y-77683390D02*
X76685714Y-77492914D01*
X76685714Y-77492914D02*
X76733333Y-77397676D01*
X76733333Y-77397676D02*
X76828571Y-77302438D01*
X76828571Y-77302438D02*
X76971428Y-77254819D01*
X76971428Y-77254819D02*
X77066666Y-77254819D01*
X77066666Y-77254819D02*
X77209523Y-77302438D01*
X77209523Y-77302438D02*
X77257142Y-77350057D01*
X78209523Y-78254819D02*
X77638095Y-78254819D01*
X77923809Y-78254819D02*
X77923809Y-77254819D01*
X77923809Y-77254819D02*
X77828571Y-77397676D01*
X77828571Y-77397676D02*
X77733333Y-77492914D01*
X77733333Y-77492914D02*
X77638095Y-77540533D01*
X79114285Y-77254819D02*
X78638095Y-77254819D01*
X78638095Y-77254819D02*
X78590476Y-77731009D01*
X78590476Y-77731009D02*
X78638095Y-77683390D01*
X78638095Y-77683390D02*
X78733333Y-77635771D01*
X78733333Y-77635771D02*
X78971428Y-77635771D01*
X78971428Y-77635771D02*
X79066666Y-77683390D01*
X79066666Y-77683390D02*
X79114285Y-77731009D01*
X79114285Y-77731009D02*
X79161904Y-77826247D01*
X79161904Y-77826247D02*
X79161904Y-78064342D01*
X79161904Y-78064342D02*
X79114285Y-78159580D01*
X79114285Y-78159580D02*
X79066666Y-78207200D01*
X79066666Y-78207200D02*
X78971428Y-78254819D01*
X78971428Y-78254819D02*
X78733333Y-78254819D01*
X78733333Y-78254819D02*
X78638095Y-78207200D01*
X78638095Y-78207200D02*
X78590476Y-78159580D01*
X91038095Y-87054819D02*
X91038095Y-87864342D01*
X91038095Y-87864342D02*
X91085714Y-87959580D01*
X91085714Y-87959580D02*
X91133333Y-88007200D01*
X91133333Y-88007200D02*
X91228571Y-88054819D01*
X91228571Y-88054819D02*
X91419047Y-88054819D01*
X91419047Y-88054819D02*
X91514285Y-88007200D01*
X91514285Y-88007200D02*
X91561904Y-87959580D01*
X91561904Y-87959580D02*
X91609523Y-87864342D01*
X91609523Y-87864342D02*
X91609523Y-87054819D01*
X92609523Y-88054819D02*
X92038095Y-88054819D01*
X92323809Y-88054819D02*
X92323809Y-87054819D01*
X92323809Y-87054819D02*
X92228571Y-87197676D01*
X92228571Y-87197676D02*
X92133333Y-87292914D01*
X92133333Y-87292914D02*
X92038095Y-87340533D01*
X94759580Y-66642857D02*
X94807200Y-66690476D01*
X94807200Y-66690476D02*
X94854819Y-66833333D01*
X94854819Y-66833333D02*
X94854819Y-66928571D01*
X94854819Y-66928571D02*
X94807200Y-67071428D01*
X94807200Y-67071428D02*
X94711961Y-67166666D01*
X94711961Y-67166666D02*
X94616723Y-67214285D01*
X94616723Y-67214285D02*
X94426247Y-67261904D01*
X94426247Y-67261904D02*
X94283390Y-67261904D01*
X94283390Y-67261904D02*
X94092914Y-67214285D01*
X94092914Y-67214285D02*
X93997676Y-67166666D01*
X93997676Y-67166666D02*
X93902438Y-67071428D01*
X93902438Y-67071428D02*
X93854819Y-66928571D01*
X93854819Y-66928571D02*
X93854819Y-66833333D01*
X93854819Y-66833333D02*
X93902438Y-66690476D01*
X93902438Y-66690476D02*
X93950057Y-66642857D01*
X93950057Y-66261904D02*
X93902438Y-66214285D01*
X93902438Y-66214285D02*
X93854819Y-66119047D01*
X93854819Y-66119047D02*
X93854819Y-65880952D01*
X93854819Y-65880952D02*
X93902438Y-65785714D01*
X93902438Y-65785714D02*
X93950057Y-65738095D01*
X93950057Y-65738095D02*
X94045295Y-65690476D01*
X94045295Y-65690476D02*
X94140533Y-65690476D01*
X94140533Y-65690476D02*
X94283390Y-65738095D01*
X94283390Y-65738095D02*
X94854819Y-66309523D01*
X94854819Y-66309523D02*
X94854819Y-65690476D01*
X93854819Y-65357142D02*
X93854819Y-64738095D01*
X93854819Y-64738095D02*
X94235771Y-65071428D01*
X94235771Y-65071428D02*
X94235771Y-64928571D01*
X94235771Y-64928571D02*
X94283390Y-64833333D01*
X94283390Y-64833333D02*
X94331009Y-64785714D01*
X94331009Y-64785714D02*
X94426247Y-64738095D01*
X94426247Y-64738095D02*
X94664342Y-64738095D01*
X94664342Y-64738095D02*
X94759580Y-64785714D01*
X94759580Y-64785714D02*
X94807200Y-64833333D01*
X94807200Y-64833333D02*
X94854819Y-64928571D01*
X94854819Y-64928571D02*
X94854819Y-65214285D01*
X94854819Y-65214285D02*
X94807200Y-65309523D01*
X94807200Y-65309523D02*
X94759580Y-65357142D01*
X60459580Y-50742857D02*
X60507200Y-50790476D01*
X60507200Y-50790476D02*
X60554819Y-50933333D01*
X60554819Y-50933333D02*
X60554819Y-51028571D01*
X60554819Y-51028571D02*
X60507200Y-51171428D01*
X60507200Y-51171428D02*
X60411961Y-51266666D01*
X60411961Y-51266666D02*
X60316723Y-51314285D01*
X60316723Y-51314285D02*
X60126247Y-51361904D01*
X60126247Y-51361904D02*
X59983390Y-51361904D01*
X59983390Y-51361904D02*
X59792914Y-51314285D01*
X59792914Y-51314285D02*
X59697676Y-51266666D01*
X59697676Y-51266666D02*
X59602438Y-51171428D01*
X59602438Y-51171428D02*
X59554819Y-51028571D01*
X59554819Y-51028571D02*
X59554819Y-50933333D01*
X59554819Y-50933333D02*
X59602438Y-50790476D01*
X59602438Y-50790476D02*
X59650057Y-50742857D01*
X59650057Y-50361904D02*
X59602438Y-50314285D01*
X59602438Y-50314285D02*
X59554819Y-50219047D01*
X59554819Y-50219047D02*
X59554819Y-49980952D01*
X59554819Y-49980952D02*
X59602438Y-49885714D01*
X59602438Y-49885714D02*
X59650057Y-49838095D01*
X59650057Y-49838095D02*
X59745295Y-49790476D01*
X59745295Y-49790476D02*
X59840533Y-49790476D01*
X59840533Y-49790476D02*
X59983390Y-49838095D01*
X59983390Y-49838095D02*
X60554819Y-50409523D01*
X60554819Y-50409523D02*
X60554819Y-49790476D01*
X59554819Y-49171428D02*
X59554819Y-49076190D01*
X59554819Y-49076190D02*
X59602438Y-48980952D01*
X59602438Y-48980952D02*
X59650057Y-48933333D01*
X59650057Y-48933333D02*
X59745295Y-48885714D01*
X59745295Y-48885714D02*
X59935771Y-48838095D01*
X59935771Y-48838095D02*
X60173866Y-48838095D01*
X60173866Y-48838095D02*
X60364342Y-48885714D01*
X60364342Y-48885714D02*
X60459580Y-48933333D01*
X60459580Y-48933333D02*
X60507200Y-48980952D01*
X60507200Y-48980952D02*
X60554819Y-49076190D01*
X60554819Y-49076190D02*
X60554819Y-49171428D01*
X60554819Y-49171428D02*
X60507200Y-49266666D01*
X60507200Y-49266666D02*
X60459580Y-49314285D01*
X60459580Y-49314285D02*
X60364342Y-49361904D01*
X60364342Y-49361904D02*
X60173866Y-49409523D01*
X60173866Y-49409523D02*
X59935771Y-49409523D01*
X59935771Y-49409523D02*
X59745295Y-49361904D01*
X59745295Y-49361904D02*
X59650057Y-49314285D01*
X59650057Y-49314285D02*
X59602438Y-49266666D01*
X59602438Y-49266666D02*
X59554819Y-49171428D01*
X112357142Y-38789580D02*
X112309523Y-38837200D01*
X112309523Y-38837200D02*
X112166666Y-38884819D01*
X112166666Y-38884819D02*
X112071428Y-38884819D01*
X112071428Y-38884819D02*
X111928571Y-38837200D01*
X111928571Y-38837200D02*
X111833333Y-38741961D01*
X111833333Y-38741961D02*
X111785714Y-38646723D01*
X111785714Y-38646723D02*
X111738095Y-38456247D01*
X111738095Y-38456247D02*
X111738095Y-38313390D01*
X111738095Y-38313390D02*
X111785714Y-38122914D01*
X111785714Y-38122914D02*
X111833333Y-38027676D01*
X111833333Y-38027676D02*
X111928571Y-37932438D01*
X111928571Y-37932438D02*
X112071428Y-37884819D01*
X112071428Y-37884819D02*
X112166666Y-37884819D01*
X112166666Y-37884819D02*
X112309523Y-37932438D01*
X112309523Y-37932438D02*
X112357142Y-37980057D01*
X112738095Y-37980057D02*
X112785714Y-37932438D01*
X112785714Y-37932438D02*
X112880952Y-37884819D01*
X112880952Y-37884819D02*
X113119047Y-37884819D01*
X113119047Y-37884819D02*
X113214285Y-37932438D01*
X113214285Y-37932438D02*
X113261904Y-37980057D01*
X113261904Y-37980057D02*
X113309523Y-38075295D01*
X113309523Y-38075295D02*
X113309523Y-38170533D01*
X113309523Y-38170533D02*
X113261904Y-38313390D01*
X113261904Y-38313390D02*
X112690476Y-38884819D01*
X112690476Y-38884819D02*
X113309523Y-38884819D01*
X114166666Y-37884819D02*
X113976190Y-37884819D01*
X113976190Y-37884819D02*
X113880952Y-37932438D01*
X113880952Y-37932438D02*
X113833333Y-37980057D01*
X113833333Y-37980057D02*
X113738095Y-38122914D01*
X113738095Y-38122914D02*
X113690476Y-38313390D01*
X113690476Y-38313390D02*
X113690476Y-38694342D01*
X113690476Y-38694342D02*
X113738095Y-38789580D01*
X113738095Y-38789580D02*
X113785714Y-38837200D01*
X113785714Y-38837200D02*
X113880952Y-38884819D01*
X113880952Y-38884819D02*
X114071428Y-38884819D01*
X114071428Y-38884819D02*
X114166666Y-38837200D01*
X114166666Y-38837200D02*
X114214285Y-38789580D01*
X114214285Y-38789580D02*
X114261904Y-38694342D01*
X114261904Y-38694342D02*
X114261904Y-38456247D01*
X114261904Y-38456247D02*
X114214285Y-38361009D01*
X114214285Y-38361009D02*
X114166666Y-38313390D01*
X114166666Y-38313390D02*
X114071428Y-38265771D01*
X114071428Y-38265771D02*
X113880952Y-38265771D01*
X113880952Y-38265771D02*
X113785714Y-38313390D01*
X113785714Y-38313390D02*
X113738095Y-38361009D01*
X113738095Y-38361009D02*
X113690476Y-38456247D01*
X68959580Y-40142857D02*
X69007200Y-40190476D01*
X69007200Y-40190476D02*
X69054819Y-40333333D01*
X69054819Y-40333333D02*
X69054819Y-40428571D01*
X69054819Y-40428571D02*
X69007200Y-40571428D01*
X69007200Y-40571428D02*
X68911961Y-40666666D01*
X68911961Y-40666666D02*
X68816723Y-40714285D01*
X68816723Y-40714285D02*
X68626247Y-40761904D01*
X68626247Y-40761904D02*
X68483390Y-40761904D01*
X68483390Y-40761904D02*
X68292914Y-40714285D01*
X68292914Y-40714285D02*
X68197676Y-40666666D01*
X68197676Y-40666666D02*
X68102438Y-40571428D01*
X68102438Y-40571428D02*
X68054819Y-40428571D01*
X68054819Y-40428571D02*
X68054819Y-40333333D01*
X68054819Y-40333333D02*
X68102438Y-40190476D01*
X68102438Y-40190476D02*
X68150057Y-40142857D01*
X69054819Y-39190476D02*
X69054819Y-39761904D01*
X69054819Y-39476190D02*
X68054819Y-39476190D01*
X68054819Y-39476190D02*
X68197676Y-39571428D01*
X68197676Y-39571428D02*
X68292914Y-39666666D01*
X68292914Y-39666666D02*
X68340533Y-39761904D01*
X69054819Y-38714285D02*
X69054819Y-38523809D01*
X69054819Y-38523809D02*
X69007200Y-38428571D01*
X69007200Y-38428571D02*
X68959580Y-38380952D01*
X68959580Y-38380952D02*
X68816723Y-38285714D01*
X68816723Y-38285714D02*
X68626247Y-38238095D01*
X68626247Y-38238095D02*
X68245295Y-38238095D01*
X68245295Y-38238095D02*
X68150057Y-38285714D01*
X68150057Y-38285714D02*
X68102438Y-38333333D01*
X68102438Y-38333333D02*
X68054819Y-38428571D01*
X68054819Y-38428571D02*
X68054819Y-38619047D01*
X68054819Y-38619047D02*
X68102438Y-38714285D01*
X68102438Y-38714285D02*
X68150057Y-38761904D01*
X68150057Y-38761904D02*
X68245295Y-38809523D01*
X68245295Y-38809523D02*
X68483390Y-38809523D01*
X68483390Y-38809523D02*
X68578628Y-38761904D01*
X68578628Y-38761904D02*
X68626247Y-38714285D01*
X68626247Y-38714285D02*
X68673866Y-38619047D01*
X68673866Y-38619047D02*
X68673866Y-38428571D01*
X68673866Y-38428571D02*
X68626247Y-38333333D01*
X68626247Y-38333333D02*
X68578628Y-38285714D01*
X68578628Y-38285714D02*
X68483390Y-38238095D01*
X137766666Y-52754819D02*
X137766666Y-53469104D01*
X137766666Y-53469104D02*
X137719047Y-53611961D01*
X137719047Y-53611961D02*
X137623809Y-53707200D01*
X137623809Y-53707200D02*
X137480952Y-53754819D01*
X137480952Y-53754819D02*
X137385714Y-53754819D01*
X138147619Y-52754819D02*
X138766666Y-52754819D01*
X138766666Y-52754819D02*
X138433333Y-53135771D01*
X138433333Y-53135771D02*
X138576190Y-53135771D01*
X138576190Y-53135771D02*
X138671428Y-53183390D01*
X138671428Y-53183390D02*
X138719047Y-53231009D01*
X138719047Y-53231009D02*
X138766666Y-53326247D01*
X138766666Y-53326247D02*
X138766666Y-53564342D01*
X138766666Y-53564342D02*
X138719047Y-53659580D01*
X138719047Y-53659580D02*
X138671428Y-53707200D01*
X138671428Y-53707200D02*
X138576190Y-53754819D01*
X138576190Y-53754819D02*
X138290476Y-53754819D01*
X138290476Y-53754819D02*
X138195238Y-53707200D01*
X138195238Y-53707200D02*
X138147619Y-53659580D01*
X94533333Y-86459580D02*
X94485714Y-86507200D01*
X94485714Y-86507200D02*
X94342857Y-86554819D01*
X94342857Y-86554819D02*
X94247619Y-86554819D01*
X94247619Y-86554819D02*
X94104762Y-86507200D01*
X94104762Y-86507200D02*
X94009524Y-86411961D01*
X94009524Y-86411961D02*
X93961905Y-86316723D01*
X93961905Y-86316723D02*
X93914286Y-86126247D01*
X93914286Y-86126247D02*
X93914286Y-85983390D01*
X93914286Y-85983390D02*
X93961905Y-85792914D01*
X93961905Y-85792914D02*
X94009524Y-85697676D01*
X94009524Y-85697676D02*
X94104762Y-85602438D01*
X94104762Y-85602438D02*
X94247619Y-85554819D01*
X94247619Y-85554819D02*
X94342857Y-85554819D01*
X94342857Y-85554819D02*
X94485714Y-85602438D01*
X94485714Y-85602438D02*
X94533333Y-85650057D01*
X95438095Y-85554819D02*
X94961905Y-85554819D01*
X94961905Y-85554819D02*
X94914286Y-86031009D01*
X94914286Y-86031009D02*
X94961905Y-85983390D01*
X94961905Y-85983390D02*
X95057143Y-85935771D01*
X95057143Y-85935771D02*
X95295238Y-85935771D01*
X95295238Y-85935771D02*
X95390476Y-85983390D01*
X95390476Y-85983390D02*
X95438095Y-86031009D01*
X95438095Y-86031009D02*
X95485714Y-86126247D01*
X95485714Y-86126247D02*
X95485714Y-86364342D01*
X95485714Y-86364342D02*
X95438095Y-86459580D01*
X95438095Y-86459580D02*
X95390476Y-86507200D01*
X95390476Y-86507200D02*
X95295238Y-86554819D01*
X95295238Y-86554819D02*
X95057143Y-86554819D01*
X95057143Y-86554819D02*
X94961905Y-86507200D01*
X94961905Y-86507200D02*
X94914286Y-86459580D01*
X107457142Y-82154819D02*
X107123809Y-81678628D01*
X106885714Y-82154819D02*
X106885714Y-81154819D01*
X106885714Y-81154819D02*
X107266666Y-81154819D01*
X107266666Y-81154819D02*
X107361904Y-81202438D01*
X107361904Y-81202438D02*
X107409523Y-81250057D01*
X107409523Y-81250057D02*
X107457142Y-81345295D01*
X107457142Y-81345295D02*
X107457142Y-81488152D01*
X107457142Y-81488152D02*
X107409523Y-81583390D01*
X107409523Y-81583390D02*
X107361904Y-81631009D01*
X107361904Y-81631009D02*
X107266666Y-81678628D01*
X107266666Y-81678628D02*
X106885714Y-81678628D01*
X108409523Y-82154819D02*
X107838095Y-82154819D01*
X108123809Y-82154819D02*
X108123809Y-81154819D01*
X108123809Y-81154819D02*
X108028571Y-81297676D01*
X108028571Y-81297676D02*
X107933333Y-81392914D01*
X107933333Y-81392914D02*
X107838095Y-81440533D01*
X109266666Y-81488152D02*
X109266666Y-82154819D01*
X109028571Y-81107200D02*
X108790476Y-81821485D01*
X108790476Y-81821485D02*
X109409523Y-81821485D01*
X79533333Y-89459580D02*
X79485714Y-89507200D01*
X79485714Y-89507200D02*
X79342857Y-89554819D01*
X79342857Y-89554819D02*
X79247619Y-89554819D01*
X79247619Y-89554819D02*
X79104762Y-89507200D01*
X79104762Y-89507200D02*
X79009524Y-89411961D01*
X79009524Y-89411961D02*
X78961905Y-89316723D01*
X78961905Y-89316723D02*
X78914286Y-89126247D01*
X78914286Y-89126247D02*
X78914286Y-88983390D01*
X78914286Y-88983390D02*
X78961905Y-88792914D01*
X78961905Y-88792914D02*
X79009524Y-88697676D01*
X79009524Y-88697676D02*
X79104762Y-88602438D01*
X79104762Y-88602438D02*
X79247619Y-88554819D01*
X79247619Y-88554819D02*
X79342857Y-88554819D01*
X79342857Y-88554819D02*
X79485714Y-88602438D01*
X79485714Y-88602438D02*
X79533333Y-88650057D01*
X80104762Y-88983390D02*
X80009524Y-88935771D01*
X80009524Y-88935771D02*
X79961905Y-88888152D01*
X79961905Y-88888152D02*
X79914286Y-88792914D01*
X79914286Y-88792914D02*
X79914286Y-88745295D01*
X79914286Y-88745295D02*
X79961905Y-88650057D01*
X79961905Y-88650057D02*
X80009524Y-88602438D01*
X80009524Y-88602438D02*
X80104762Y-88554819D01*
X80104762Y-88554819D02*
X80295238Y-88554819D01*
X80295238Y-88554819D02*
X80390476Y-88602438D01*
X80390476Y-88602438D02*
X80438095Y-88650057D01*
X80438095Y-88650057D02*
X80485714Y-88745295D01*
X80485714Y-88745295D02*
X80485714Y-88792914D01*
X80485714Y-88792914D02*
X80438095Y-88888152D01*
X80438095Y-88888152D02*
X80390476Y-88935771D01*
X80390476Y-88935771D02*
X80295238Y-88983390D01*
X80295238Y-88983390D02*
X80104762Y-88983390D01*
X80104762Y-88983390D02*
X80009524Y-89031009D01*
X80009524Y-89031009D02*
X79961905Y-89078628D01*
X79961905Y-89078628D02*
X79914286Y-89173866D01*
X79914286Y-89173866D02*
X79914286Y-89364342D01*
X79914286Y-89364342D02*
X79961905Y-89459580D01*
X79961905Y-89459580D02*
X80009524Y-89507200D01*
X80009524Y-89507200D02*
X80104762Y-89554819D01*
X80104762Y-89554819D02*
X80295238Y-89554819D01*
X80295238Y-89554819D02*
X80390476Y-89507200D01*
X80390476Y-89507200D02*
X80438095Y-89459580D01*
X80438095Y-89459580D02*
X80485714Y-89364342D01*
X80485714Y-89364342D02*
X80485714Y-89173866D01*
X80485714Y-89173866D02*
X80438095Y-89078628D01*
X80438095Y-89078628D02*
X80390476Y-89031009D01*
X80390476Y-89031009D02*
X80295238Y-88983390D01*
X58654819Y-45438094D02*
X57654819Y-45438094D01*
X57654819Y-45438094D02*
X57654819Y-45199999D01*
X57654819Y-45199999D02*
X57702438Y-45057142D01*
X57702438Y-45057142D02*
X57797676Y-44961904D01*
X57797676Y-44961904D02*
X57892914Y-44914285D01*
X57892914Y-44914285D02*
X58083390Y-44866666D01*
X58083390Y-44866666D02*
X58226247Y-44866666D01*
X58226247Y-44866666D02*
X58416723Y-44914285D01*
X58416723Y-44914285D02*
X58511961Y-44961904D01*
X58511961Y-44961904D02*
X58607200Y-45057142D01*
X58607200Y-45057142D02*
X58654819Y-45199999D01*
X58654819Y-45199999D02*
X58654819Y-45438094D01*
X57654819Y-44009523D02*
X57654819Y-44199999D01*
X57654819Y-44199999D02*
X57702438Y-44295237D01*
X57702438Y-44295237D02*
X57750057Y-44342856D01*
X57750057Y-44342856D02*
X57892914Y-44438094D01*
X57892914Y-44438094D02*
X58083390Y-44485713D01*
X58083390Y-44485713D02*
X58464342Y-44485713D01*
X58464342Y-44485713D02*
X58559580Y-44438094D01*
X58559580Y-44438094D02*
X58607200Y-44390475D01*
X58607200Y-44390475D02*
X58654819Y-44295237D01*
X58654819Y-44295237D02*
X58654819Y-44104761D01*
X58654819Y-44104761D02*
X58607200Y-44009523D01*
X58607200Y-44009523D02*
X58559580Y-43961904D01*
X58559580Y-43961904D02*
X58464342Y-43914285D01*
X58464342Y-43914285D02*
X58226247Y-43914285D01*
X58226247Y-43914285D02*
X58131009Y-43961904D01*
X58131009Y-43961904D02*
X58083390Y-44009523D01*
X58083390Y-44009523D02*
X58035771Y-44104761D01*
X58035771Y-44104761D02*
X58035771Y-44295237D01*
X58035771Y-44295237D02*
X58083390Y-44390475D01*
X58083390Y-44390475D02*
X58131009Y-44438094D01*
X58131009Y-44438094D02*
X58226247Y-44485713D01*
X113524819Y-53138094D02*
X112524819Y-53138094D01*
X112524819Y-53138094D02*
X112524819Y-52899999D01*
X112524819Y-52899999D02*
X112572438Y-52757142D01*
X112572438Y-52757142D02*
X112667676Y-52661904D01*
X112667676Y-52661904D02*
X112762914Y-52614285D01*
X112762914Y-52614285D02*
X112953390Y-52566666D01*
X112953390Y-52566666D02*
X113096247Y-52566666D01*
X113096247Y-52566666D02*
X113286723Y-52614285D01*
X113286723Y-52614285D02*
X113381961Y-52661904D01*
X113381961Y-52661904D02*
X113477200Y-52757142D01*
X113477200Y-52757142D02*
X113524819Y-52899999D01*
X113524819Y-52899999D02*
X113524819Y-53138094D01*
X112524819Y-52233332D02*
X112524819Y-51614285D01*
X112524819Y-51614285D02*
X112905771Y-51947618D01*
X112905771Y-51947618D02*
X112905771Y-51804761D01*
X112905771Y-51804761D02*
X112953390Y-51709523D01*
X112953390Y-51709523D02*
X113001009Y-51661904D01*
X113001009Y-51661904D02*
X113096247Y-51614285D01*
X113096247Y-51614285D02*
X113334342Y-51614285D01*
X113334342Y-51614285D02*
X113429580Y-51661904D01*
X113429580Y-51661904D02*
X113477200Y-51709523D01*
X113477200Y-51709523D02*
X113524819Y-51804761D01*
X113524819Y-51804761D02*
X113524819Y-52090475D01*
X113524819Y-52090475D02*
X113477200Y-52185713D01*
X113477200Y-52185713D02*
X113429580Y-52233332D01*
X85929580Y-60642857D02*
X85977200Y-60690476D01*
X85977200Y-60690476D02*
X86024819Y-60833333D01*
X86024819Y-60833333D02*
X86024819Y-60928571D01*
X86024819Y-60928571D02*
X85977200Y-61071428D01*
X85977200Y-61071428D02*
X85881961Y-61166666D01*
X85881961Y-61166666D02*
X85786723Y-61214285D01*
X85786723Y-61214285D02*
X85596247Y-61261904D01*
X85596247Y-61261904D02*
X85453390Y-61261904D01*
X85453390Y-61261904D02*
X85262914Y-61214285D01*
X85262914Y-61214285D02*
X85167676Y-61166666D01*
X85167676Y-61166666D02*
X85072438Y-61071428D01*
X85072438Y-61071428D02*
X85024819Y-60928571D01*
X85024819Y-60928571D02*
X85024819Y-60833333D01*
X85024819Y-60833333D02*
X85072438Y-60690476D01*
X85072438Y-60690476D02*
X85120057Y-60642857D01*
X85120057Y-60261904D02*
X85072438Y-60214285D01*
X85072438Y-60214285D02*
X85024819Y-60119047D01*
X85024819Y-60119047D02*
X85024819Y-59880952D01*
X85024819Y-59880952D02*
X85072438Y-59785714D01*
X85072438Y-59785714D02*
X85120057Y-59738095D01*
X85120057Y-59738095D02*
X85215295Y-59690476D01*
X85215295Y-59690476D02*
X85310533Y-59690476D01*
X85310533Y-59690476D02*
X85453390Y-59738095D01*
X85453390Y-59738095D02*
X86024819Y-60309523D01*
X86024819Y-60309523D02*
X86024819Y-59690476D01*
X85024819Y-58785714D02*
X85024819Y-59261904D01*
X85024819Y-59261904D02*
X85501009Y-59309523D01*
X85501009Y-59309523D02*
X85453390Y-59261904D01*
X85453390Y-59261904D02*
X85405771Y-59166666D01*
X85405771Y-59166666D02*
X85405771Y-58928571D01*
X85405771Y-58928571D02*
X85453390Y-58833333D01*
X85453390Y-58833333D02*
X85501009Y-58785714D01*
X85501009Y-58785714D02*
X85596247Y-58738095D01*
X85596247Y-58738095D02*
X85834342Y-58738095D01*
X85834342Y-58738095D02*
X85929580Y-58785714D01*
X85929580Y-58785714D02*
X85977200Y-58833333D01*
X85977200Y-58833333D02*
X86024819Y-58928571D01*
X86024819Y-58928571D02*
X86024819Y-59166666D01*
X86024819Y-59166666D02*
X85977200Y-59261904D01*
X85977200Y-59261904D02*
X85929580Y-59309523D01*
X130154819Y-47642857D02*
X129678628Y-47976190D01*
X130154819Y-48214285D02*
X129154819Y-48214285D01*
X129154819Y-48214285D02*
X129154819Y-47833333D01*
X129154819Y-47833333D02*
X129202438Y-47738095D01*
X129202438Y-47738095D02*
X129250057Y-47690476D01*
X129250057Y-47690476D02*
X129345295Y-47642857D01*
X129345295Y-47642857D02*
X129488152Y-47642857D01*
X129488152Y-47642857D02*
X129583390Y-47690476D01*
X129583390Y-47690476D02*
X129631009Y-47738095D01*
X129631009Y-47738095D02*
X129678628Y-47833333D01*
X129678628Y-47833333D02*
X129678628Y-48214285D01*
X129250057Y-47261904D02*
X129202438Y-47214285D01*
X129202438Y-47214285D02*
X129154819Y-47119047D01*
X129154819Y-47119047D02*
X129154819Y-46880952D01*
X129154819Y-46880952D02*
X129202438Y-46785714D01*
X129202438Y-46785714D02*
X129250057Y-46738095D01*
X129250057Y-46738095D02*
X129345295Y-46690476D01*
X129345295Y-46690476D02*
X129440533Y-46690476D01*
X129440533Y-46690476D02*
X129583390Y-46738095D01*
X129583390Y-46738095D02*
X130154819Y-47309523D01*
X130154819Y-47309523D02*
X130154819Y-46690476D01*
X129488152Y-45833333D02*
X130154819Y-45833333D01*
X129107200Y-46071428D02*
X129821485Y-46309523D01*
X129821485Y-46309523D02*
X129821485Y-45690476D01*
X41666666Y-52569819D02*
X41666666Y-53284104D01*
X41666666Y-53284104D02*
X41619047Y-53426961D01*
X41619047Y-53426961D02*
X41523809Y-53522200D01*
X41523809Y-53522200D02*
X41380952Y-53569819D01*
X41380952Y-53569819D02*
X41285714Y-53569819D01*
X42666666Y-53569819D02*
X42095238Y-53569819D01*
X42380952Y-53569819D02*
X42380952Y-52569819D01*
X42380952Y-52569819D02*
X42285714Y-52712676D01*
X42285714Y-52712676D02*
X42190476Y-52807914D01*
X42190476Y-52807914D02*
X42095238Y-52855533D01*
X77257142Y-80059580D02*
X77209523Y-80107200D01*
X77209523Y-80107200D02*
X77066666Y-80154819D01*
X77066666Y-80154819D02*
X76971428Y-80154819D01*
X76971428Y-80154819D02*
X76828571Y-80107200D01*
X76828571Y-80107200D02*
X76733333Y-80011961D01*
X76733333Y-80011961D02*
X76685714Y-79916723D01*
X76685714Y-79916723D02*
X76638095Y-79726247D01*
X76638095Y-79726247D02*
X76638095Y-79583390D01*
X76638095Y-79583390D02*
X76685714Y-79392914D01*
X76685714Y-79392914D02*
X76733333Y-79297676D01*
X76733333Y-79297676D02*
X76828571Y-79202438D01*
X76828571Y-79202438D02*
X76971428Y-79154819D01*
X76971428Y-79154819D02*
X77066666Y-79154819D01*
X77066666Y-79154819D02*
X77209523Y-79202438D01*
X77209523Y-79202438D02*
X77257142Y-79250057D01*
X78209523Y-80154819D02*
X77638095Y-80154819D01*
X77923809Y-80154819D02*
X77923809Y-79154819D01*
X77923809Y-79154819D02*
X77828571Y-79297676D01*
X77828571Y-79297676D02*
X77733333Y-79392914D01*
X77733333Y-79392914D02*
X77638095Y-79440533D01*
X78542857Y-79154819D02*
X79209523Y-79154819D01*
X79209523Y-79154819D02*
X78780952Y-80154819D01*
X94057142Y-74359580D02*
X94009523Y-74407200D01*
X94009523Y-74407200D02*
X93866666Y-74454819D01*
X93866666Y-74454819D02*
X93771428Y-74454819D01*
X93771428Y-74454819D02*
X93628571Y-74407200D01*
X93628571Y-74407200D02*
X93533333Y-74311961D01*
X93533333Y-74311961D02*
X93485714Y-74216723D01*
X93485714Y-74216723D02*
X93438095Y-74026247D01*
X93438095Y-74026247D02*
X93438095Y-73883390D01*
X93438095Y-73883390D02*
X93485714Y-73692914D01*
X93485714Y-73692914D02*
X93533333Y-73597676D01*
X93533333Y-73597676D02*
X93628571Y-73502438D01*
X93628571Y-73502438D02*
X93771428Y-73454819D01*
X93771428Y-73454819D02*
X93866666Y-73454819D01*
X93866666Y-73454819D02*
X94009523Y-73502438D01*
X94009523Y-73502438D02*
X94057142Y-73550057D01*
X95009523Y-74454819D02*
X94438095Y-74454819D01*
X94723809Y-74454819D02*
X94723809Y-73454819D01*
X94723809Y-73454819D02*
X94628571Y-73597676D01*
X94628571Y-73597676D02*
X94533333Y-73692914D01*
X94533333Y-73692914D02*
X94438095Y-73740533D01*
X95342857Y-73454819D02*
X95961904Y-73454819D01*
X95961904Y-73454819D02*
X95628571Y-73835771D01*
X95628571Y-73835771D02*
X95771428Y-73835771D01*
X95771428Y-73835771D02*
X95866666Y-73883390D01*
X95866666Y-73883390D02*
X95914285Y-73931009D01*
X95914285Y-73931009D02*
X95961904Y-74026247D01*
X95961904Y-74026247D02*
X95961904Y-74264342D01*
X95961904Y-74264342D02*
X95914285Y-74359580D01*
X95914285Y-74359580D02*
X95866666Y-74407200D01*
X95866666Y-74407200D02*
X95771428Y-74454819D01*
X95771428Y-74454819D02*
X95485714Y-74454819D01*
X95485714Y-74454819D02*
X95390476Y-74407200D01*
X95390476Y-74407200D02*
X95342857Y-74359580D01*
X87454819Y-71966666D02*
X86978628Y-72299999D01*
X87454819Y-72538094D02*
X86454819Y-72538094D01*
X86454819Y-72538094D02*
X86454819Y-72157142D01*
X86454819Y-72157142D02*
X86502438Y-72061904D01*
X86502438Y-72061904D02*
X86550057Y-72014285D01*
X86550057Y-72014285D02*
X86645295Y-71966666D01*
X86645295Y-71966666D02*
X86788152Y-71966666D01*
X86788152Y-71966666D02*
X86883390Y-72014285D01*
X86883390Y-72014285D02*
X86931009Y-72061904D01*
X86931009Y-72061904D02*
X86978628Y-72157142D01*
X86978628Y-72157142D02*
X86978628Y-72538094D01*
X87454819Y-71490475D02*
X87454819Y-71299999D01*
X87454819Y-71299999D02*
X87407200Y-71204761D01*
X87407200Y-71204761D02*
X87359580Y-71157142D01*
X87359580Y-71157142D02*
X87216723Y-71061904D01*
X87216723Y-71061904D02*
X87026247Y-71014285D01*
X87026247Y-71014285D02*
X86645295Y-71014285D01*
X86645295Y-71014285D02*
X86550057Y-71061904D01*
X86550057Y-71061904D02*
X86502438Y-71109523D01*
X86502438Y-71109523D02*
X86454819Y-71204761D01*
X86454819Y-71204761D02*
X86454819Y-71395237D01*
X86454819Y-71395237D02*
X86502438Y-71490475D01*
X86502438Y-71490475D02*
X86550057Y-71538094D01*
X86550057Y-71538094D02*
X86645295Y-71585713D01*
X86645295Y-71585713D02*
X86883390Y-71585713D01*
X86883390Y-71585713D02*
X86978628Y-71538094D01*
X86978628Y-71538094D02*
X87026247Y-71490475D01*
X87026247Y-71490475D02*
X87073866Y-71395237D01*
X87073866Y-71395237D02*
X87073866Y-71204761D01*
X87073866Y-71204761D02*
X87026247Y-71109523D01*
X87026247Y-71109523D02*
X86978628Y-71061904D01*
X86978628Y-71061904D02*
X86883390Y-71014285D01*
X111254819Y-47642857D02*
X110778628Y-47976190D01*
X111254819Y-48214285D02*
X110254819Y-48214285D01*
X110254819Y-48214285D02*
X110254819Y-47833333D01*
X110254819Y-47833333D02*
X110302438Y-47738095D01*
X110302438Y-47738095D02*
X110350057Y-47690476D01*
X110350057Y-47690476D02*
X110445295Y-47642857D01*
X110445295Y-47642857D02*
X110588152Y-47642857D01*
X110588152Y-47642857D02*
X110683390Y-47690476D01*
X110683390Y-47690476D02*
X110731009Y-47738095D01*
X110731009Y-47738095D02*
X110778628Y-47833333D01*
X110778628Y-47833333D02*
X110778628Y-48214285D01*
X110350057Y-47261904D02*
X110302438Y-47214285D01*
X110302438Y-47214285D02*
X110254819Y-47119047D01*
X110254819Y-47119047D02*
X110254819Y-46880952D01*
X110254819Y-46880952D02*
X110302438Y-46785714D01*
X110302438Y-46785714D02*
X110350057Y-46738095D01*
X110350057Y-46738095D02*
X110445295Y-46690476D01*
X110445295Y-46690476D02*
X110540533Y-46690476D01*
X110540533Y-46690476D02*
X110683390Y-46738095D01*
X110683390Y-46738095D02*
X111254819Y-47309523D01*
X111254819Y-47309523D02*
X111254819Y-46690476D01*
X110254819Y-46357142D02*
X110254819Y-45738095D01*
X110254819Y-45738095D02*
X110635771Y-46071428D01*
X110635771Y-46071428D02*
X110635771Y-45928571D01*
X110635771Y-45928571D02*
X110683390Y-45833333D01*
X110683390Y-45833333D02*
X110731009Y-45785714D01*
X110731009Y-45785714D02*
X110826247Y-45738095D01*
X110826247Y-45738095D02*
X111064342Y-45738095D01*
X111064342Y-45738095D02*
X111159580Y-45785714D01*
X111159580Y-45785714D02*
X111207200Y-45833333D01*
X111207200Y-45833333D02*
X111254819Y-45928571D01*
X111254819Y-45928571D02*
X111254819Y-46214285D01*
X111254819Y-46214285D02*
X111207200Y-46309523D01*
X111207200Y-46309523D02*
X111159580Y-46357142D01*
X80457142Y-78259580D02*
X80409523Y-78307200D01*
X80409523Y-78307200D02*
X80266666Y-78354819D01*
X80266666Y-78354819D02*
X80171428Y-78354819D01*
X80171428Y-78354819D02*
X80028571Y-78307200D01*
X80028571Y-78307200D02*
X79933333Y-78211961D01*
X79933333Y-78211961D02*
X79885714Y-78116723D01*
X79885714Y-78116723D02*
X79838095Y-77926247D01*
X79838095Y-77926247D02*
X79838095Y-77783390D01*
X79838095Y-77783390D02*
X79885714Y-77592914D01*
X79885714Y-77592914D02*
X79933333Y-77497676D01*
X79933333Y-77497676D02*
X80028571Y-77402438D01*
X80028571Y-77402438D02*
X80171428Y-77354819D01*
X80171428Y-77354819D02*
X80266666Y-77354819D01*
X80266666Y-77354819D02*
X80409523Y-77402438D01*
X80409523Y-77402438D02*
X80457142Y-77450057D01*
X81409523Y-78354819D02*
X80838095Y-78354819D01*
X81123809Y-78354819D02*
X81123809Y-77354819D01*
X81123809Y-77354819D02*
X81028571Y-77497676D01*
X81028571Y-77497676D02*
X80933333Y-77592914D01*
X80933333Y-77592914D02*
X80838095Y-77640533D01*
X82266666Y-77354819D02*
X82076190Y-77354819D01*
X82076190Y-77354819D02*
X81980952Y-77402438D01*
X81980952Y-77402438D02*
X81933333Y-77450057D01*
X81933333Y-77450057D02*
X81838095Y-77592914D01*
X81838095Y-77592914D02*
X81790476Y-77783390D01*
X81790476Y-77783390D02*
X81790476Y-78164342D01*
X81790476Y-78164342D02*
X81838095Y-78259580D01*
X81838095Y-78259580D02*
X81885714Y-78307200D01*
X81885714Y-78307200D02*
X81980952Y-78354819D01*
X81980952Y-78354819D02*
X82171428Y-78354819D01*
X82171428Y-78354819D02*
X82266666Y-78307200D01*
X82266666Y-78307200D02*
X82314285Y-78259580D01*
X82314285Y-78259580D02*
X82361904Y-78164342D01*
X82361904Y-78164342D02*
X82361904Y-77926247D01*
X82361904Y-77926247D02*
X82314285Y-77831009D01*
X82314285Y-77831009D02*
X82266666Y-77783390D01*
X82266666Y-77783390D02*
X82171428Y-77735771D01*
X82171428Y-77735771D02*
X81980952Y-77735771D01*
X81980952Y-77735771D02*
X81885714Y-77783390D01*
X81885714Y-77783390D02*
X81838095Y-77831009D01*
X81838095Y-77831009D02*
X81790476Y-77926247D01*
X113524819Y-74138094D02*
X112524819Y-74138094D01*
X112524819Y-74138094D02*
X112524819Y-73899999D01*
X112524819Y-73899999D02*
X112572438Y-73757142D01*
X112572438Y-73757142D02*
X112667676Y-73661904D01*
X112667676Y-73661904D02*
X112762914Y-73614285D01*
X112762914Y-73614285D02*
X112953390Y-73566666D01*
X112953390Y-73566666D02*
X113096247Y-73566666D01*
X113096247Y-73566666D02*
X113286723Y-73614285D01*
X113286723Y-73614285D02*
X113381961Y-73661904D01*
X113381961Y-73661904D02*
X113477200Y-73757142D01*
X113477200Y-73757142D02*
X113524819Y-73899999D01*
X113524819Y-73899999D02*
X113524819Y-74138094D01*
X112858152Y-72709523D02*
X113524819Y-72709523D01*
X112477200Y-72947618D02*
X113191485Y-73185713D01*
X113191485Y-73185713D02*
X113191485Y-72566666D01*
X103933333Y-88754819D02*
X103600000Y-88278628D01*
X103361905Y-88754819D02*
X103361905Y-87754819D01*
X103361905Y-87754819D02*
X103742857Y-87754819D01*
X103742857Y-87754819D02*
X103838095Y-87802438D01*
X103838095Y-87802438D02*
X103885714Y-87850057D01*
X103885714Y-87850057D02*
X103933333Y-87945295D01*
X103933333Y-87945295D02*
X103933333Y-88088152D01*
X103933333Y-88088152D02*
X103885714Y-88183390D01*
X103885714Y-88183390D02*
X103838095Y-88231009D01*
X103838095Y-88231009D02*
X103742857Y-88278628D01*
X103742857Y-88278628D02*
X103361905Y-88278628D01*
X104266667Y-87754819D02*
X104885714Y-87754819D01*
X104885714Y-87754819D02*
X104552381Y-88135771D01*
X104552381Y-88135771D02*
X104695238Y-88135771D01*
X104695238Y-88135771D02*
X104790476Y-88183390D01*
X104790476Y-88183390D02*
X104838095Y-88231009D01*
X104838095Y-88231009D02*
X104885714Y-88326247D01*
X104885714Y-88326247D02*
X104885714Y-88564342D01*
X104885714Y-88564342D02*
X104838095Y-88659580D01*
X104838095Y-88659580D02*
X104790476Y-88707200D01*
X104790476Y-88707200D02*
X104695238Y-88754819D01*
X104695238Y-88754819D02*
X104409524Y-88754819D01*
X104409524Y-88754819D02*
X104314286Y-88707200D01*
X104314286Y-88707200D02*
X104266667Y-88659580D01*
X89238095Y-61854819D02*
X89238095Y-62664342D01*
X89238095Y-62664342D02*
X89285714Y-62759580D01*
X89285714Y-62759580D02*
X89333333Y-62807200D01*
X89333333Y-62807200D02*
X89428571Y-62854819D01*
X89428571Y-62854819D02*
X89619047Y-62854819D01*
X89619047Y-62854819D02*
X89714285Y-62807200D01*
X89714285Y-62807200D02*
X89761904Y-62759580D01*
X89761904Y-62759580D02*
X89809523Y-62664342D01*
X89809523Y-62664342D02*
X89809523Y-61854819D01*
X90714285Y-62188152D02*
X90714285Y-62854819D01*
X90476190Y-61807200D02*
X90238095Y-62521485D01*
X90238095Y-62521485D02*
X90857142Y-62521485D01*
X41681666Y-73684819D02*
X41681666Y-74399104D01*
X41681666Y-74399104D02*
X41634047Y-74541961D01*
X41634047Y-74541961D02*
X41538809Y-74637200D01*
X41538809Y-74637200D02*
X41395952Y-74684819D01*
X41395952Y-74684819D02*
X41300714Y-74684819D01*
X42110238Y-73780057D02*
X42157857Y-73732438D01*
X42157857Y-73732438D02*
X42253095Y-73684819D01*
X42253095Y-73684819D02*
X42491190Y-73684819D01*
X42491190Y-73684819D02*
X42586428Y-73732438D01*
X42586428Y-73732438D02*
X42634047Y-73780057D01*
X42634047Y-73780057D02*
X42681666Y-73875295D01*
X42681666Y-73875295D02*
X42681666Y-73970533D01*
X42681666Y-73970533D02*
X42634047Y-74113390D01*
X42634047Y-74113390D02*
X42062619Y-74684819D01*
X42062619Y-74684819D02*
X42681666Y-74684819D01*
X104257142Y-76959580D02*
X104209523Y-77007200D01*
X104209523Y-77007200D02*
X104066666Y-77054819D01*
X104066666Y-77054819D02*
X103971428Y-77054819D01*
X103971428Y-77054819D02*
X103828571Y-77007200D01*
X103828571Y-77007200D02*
X103733333Y-76911961D01*
X103733333Y-76911961D02*
X103685714Y-76816723D01*
X103685714Y-76816723D02*
X103638095Y-76626247D01*
X103638095Y-76626247D02*
X103638095Y-76483390D01*
X103638095Y-76483390D02*
X103685714Y-76292914D01*
X103685714Y-76292914D02*
X103733333Y-76197676D01*
X103733333Y-76197676D02*
X103828571Y-76102438D01*
X103828571Y-76102438D02*
X103971428Y-76054819D01*
X103971428Y-76054819D02*
X104066666Y-76054819D01*
X104066666Y-76054819D02*
X104209523Y-76102438D01*
X104209523Y-76102438D02*
X104257142Y-76150057D01*
X105209523Y-77054819D02*
X104638095Y-77054819D01*
X104923809Y-77054819D02*
X104923809Y-76054819D01*
X104923809Y-76054819D02*
X104828571Y-76197676D01*
X104828571Y-76197676D02*
X104733333Y-76292914D01*
X104733333Y-76292914D02*
X104638095Y-76340533D01*
X105590476Y-76150057D02*
X105638095Y-76102438D01*
X105638095Y-76102438D02*
X105733333Y-76054819D01*
X105733333Y-76054819D02*
X105971428Y-76054819D01*
X105971428Y-76054819D02*
X106066666Y-76102438D01*
X106066666Y-76102438D02*
X106114285Y-76150057D01*
X106114285Y-76150057D02*
X106161904Y-76245295D01*
X106161904Y-76245295D02*
X106161904Y-76340533D01*
X106161904Y-76340533D02*
X106114285Y-76483390D01*
X106114285Y-76483390D02*
X105542857Y-77054819D01*
X105542857Y-77054819D02*
X106161904Y-77054819D01*
X81833333Y-89459580D02*
X81785714Y-89507200D01*
X81785714Y-89507200D02*
X81642857Y-89554819D01*
X81642857Y-89554819D02*
X81547619Y-89554819D01*
X81547619Y-89554819D02*
X81404762Y-89507200D01*
X81404762Y-89507200D02*
X81309524Y-89411961D01*
X81309524Y-89411961D02*
X81261905Y-89316723D01*
X81261905Y-89316723D02*
X81214286Y-89126247D01*
X81214286Y-89126247D02*
X81214286Y-88983390D01*
X81214286Y-88983390D02*
X81261905Y-88792914D01*
X81261905Y-88792914D02*
X81309524Y-88697676D01*
X81309524Y-88697676D02*
X81404762Y-88602438D01*
X81404762Y-88602438D02*
X81547619Y-88554819D01*
X81547619Y-88554819D02*
X81642857Y-88554819D01*
X81642857Y-88554819D02*
X81785714Y-88602438D01*
X81785714Y-88602438D02*
X81833333Y-88650057D01*
X82690476Y-88554819D02*
X82500000Y-88554819D01*
X82500000Y-88554819D02*
X82404762Y-88602438D01*
X82404762Y-88602438D02*
X82357143Y-88650057D01*
X82357143Y-88650057D02*
X82261905Y-88792914D01*
X82261905Y-88792914D02*
X82214286Y-88983390D01*
X82214286Y-88983390D02*
X82214286Y-89364342D01*
X82214286Y-89364342D02*
X82261905Y-89459580D01*
X82261905Y-89459580D02*
X82309524Y-89507200D01*
X82309524Y-89507200D02*
X82404762Y-89554819D01*
X82404762Y-89554819D02*
X82595238Y-89554819D01*
X82595238Y-89554819D02*
X82690476Y-89507200D01*
X82690476Y-89507200D02*
X82738095Y-89459580D01*
X82738095Y-89459580D02*
X82785714Y-89364342D01*
X82785714Y-89364342D02*
X82785714Y-89126247D01*
X82785714Y-89126247D02*
X82738095Y-89031009D01*
X82738095Y-89031009D02*
X82690476Y-88983390D01*
X82690476Y-88983390D02*
X82595238Y-88935771D01*
X82595238Y-88935771D02*
X82404762Y-88935771D01*
X82404762Y-88935771D02*
X82309524Y-88983390D01*
X82309524Y-88983390D02*
X82261905Y-89031009D01*
X82261905Y-89031009D02*
X82214286Y-89126247D01*
X81733333Y-92859580D02*
X81685714Y-92907200D01*
X81685714Y-92907200D02*
X81542857Y-92954819D01*
X81542857Y-92954819D02*
X81447619Y-92954819D01*
X81447619Y-92954819D02*
X81304762Y-92907200D01*
X81304762Y-92907200D02*
X81209524Y-92811961D01*
X81209524Y-92811961D02*
X81161905Y-92716723D01*
X81161905Y-92716723D02*
X81114286Y-92526247D01*
X81114286Y-92526247D02*
X81114286Y-92383390D01*
X81114286Y-92383390D02*
X81161905Y-92192914D01*
X81161905Y-92192914D02*
X81209524Y-92097676D01*
X81209524Y-92097676D02*
X81304762Y-92002438D01*
X81304762Y-92002438D02*
X81447619Y-91954819D01*
X81447619Y-91954819D02*
X81542857Y-91954819D01*
X81542857Y-91954819D02*
X81685714Y-92002438D01*
X81685714Y-92002438D02*
X81733333Y-92050057D01*
X82209524Y-92954819D02*
X82400000Y-92954819D01*
X82400000Y-92954819D02*
X82495238Y-92907200D01*
X82495238Y-92907200D02*
X82542857Y-92859580D01*
X82542857Y-92859580D02*
X82638095Y-92716723D01*
X82638095Y-92716723D02*
X82685714Y-92526247D01*
X82685714Y-92526247D02*
X82685714Y-92145295D01*
X82685714Y-92145295D02*
X82638095Y-92050057D01*
X82638095Y-92050057D02*
X82590476Y-92002438D01*
X82590476Y-92002438D02*
X82495238Y-91954819D01*
X82495238Y-91954819D02*
X82304762Y-91954819D01*
X82304762Y-91954819D02*
X82209524Y-92002438D01*
X82209524Y-92002438D02*
X82161905Y-92050057D01*
X82161905Y-92050057D02*
X82114286Y-92145295D01*
X82114286Y-92145295D02*
X82114286Y-92383390D01*
X82114286Y-92383390D02*
X82161905Y-92478628D01*
X82161905Y-92478628D02*
X82209524Y-92526247D01*
X82209524Y-92526247D02*
X82304762Y-92573866D01*
X82304762Y-92573866D02*
X82495238Y-92573866D01*
X82495238Y-92573866D02*
X82590476Y-92526247D01*
X82590476Y-92526247D02*
X82638095Y-92478628D01*
X82638095Y-92478628D02*
X82685714Y-92383390D01*
X77257142Y-81854819D02*
X76923809Y-81378628D01*
X76685714Y-81854819D02*
X76685714Y-80854819D01*
X76685714Y-80854819D02*
X77066666Y-80854819D01*
X77066666Y-80854819D02*
X77161904Y-80902438D01*
X77161904Y-80902438D02*
X77209523Y-80950057D01*
X77209523Y-80950057D02*
X77257142Y-81045295D01*
X77257142Y-81045295D02*
X77257142Y-81188152D01*
X77257142Y-81188152D02*
X77209523Y-81283390D01*
X77209523Y-81283390D02*
X77161904Y-81331009D01*
X77161904Y-81331009D02*
X77066666Y-81378628D01*
X77066666Y-81378628D02*
X76685714Y-81378628D01*
X78209523Y-81854819D02*
X77638095Y-81854819D01*
X77923809Y-81854819D02*
X77923809Y-80854819D01*
X77923809Y-80854819D02*
X77828571Y-80997676D01*
X77828571Y-80997676D02*
X77733333Y-81092914D01*
X77733333Y-81092914D02*
X77638095Y-81140533D01*
X78780952Y-81283390D02*
X78685714Y-81235771D01*
X78685714Y-81235771D02*
X78638095Y-81188152D01*
X78638095Y-81188152D02*
X78590476Y-81092914D01*
X78590476Y-81092914D02*
X78590476Y-81045295D01*
X78590476Y-81045295D02*
X78638095Y-80950057D01*
X78638095Y-80950057D02*
X78685714Y-80902438D01*
X78685714Y-80902438D02*
X78780952Y-80854819D01*
X78780952Y-80854819D02*
X78971428Y-80854819D01*
X78971428Y-80854819D02*
X79066666Y-80902438D01*
X79066666Y-80902438D02*
X79114285Y-80950057D01*
X79114285Y-80950057D02*
X79161904Y-81045295D01*
X79161904Y-81045295D02*
X79161904Y-81092914D01*
X79161904Y-81092914D02*
X79114285Y-81188152D01*
X79114285Y-81188152D02*
X79066666Y-81235771D01*
X79066666Y-81235771D02*
X78971428Y-81283390D01*
X78971428Y-81283390D02*
X78780952Y-81283390D01*
X78780952Y-81283390D02*
X78685714Y-81331009D01*
X78685714Y-81331009D02*
X78638095Y-81378628D01*
X78638095Y-81378628D02*
X78590476Y-81473866D01*
X78590476Y-81473866D02*
X78590476Y-81664342D01*
X78590476Y-81664342D02*
X78638095Y-81759580D01*
X78638095Y-81759580D02*
X78685714Y-81807200D01*
X78685714Y-81807200D02*
X78780952Y-81854819D01*
X78780952Y-81854819D02*
X78971428Y-81854819D01*
X78971428Y-81854819D02*
X79066666Y-81807200D01*
X79066666Y-81807200D02*
X79114285Y-81759580D01*
X79114285Y-81759580D02*
X79161904Y-81664342D01*
X79161904Y-81664342D02*
X79161904Y-81473866D01*
X79161904Y-81473866D02*
X79114285Y-81378628D01*
X79114285Y-81378628D02*
X79066666Y-81331009D01*
X79066666Y-81331009D02*
X78971428Y-81283390D01*
X107457142Y-77054819D02*
X107123809Y-76578628D01*
X106885714Y-77054819D02*
X106885714Y-76054819D01*
X106885714Y-76054819D02*
X107266666Y-76054819D01*
X107266666Y-76054819D02*
X107361904Y-76102438D01*
X107361904Y-76102438D02*
X107409523Y-76150057D01*
X107409523Y-76150057D02*
X107457142Y-76245295D01*
X107457142Y-76245295D02*
X107457142Y-76388152D01*
X107457142Y-76388152D02*
X107409523Y-76483390D01*
X107409523Y-76483390D02*
X107361904Y-76531009D01*
X107361904Y-76531009D02*
X107266666Y-76578628D01*
X107266666Y-76578628D02*
X106885714Y-76578628D01*
X108409523Y-77054819D02*
X107838095Y-77054819D01*
X108123809Y-77054819D02*
X108123809Y-76054819D01*
X108123809Y-76054819D02*
X108028571Y-76197676D01*
X108028571Y-76197676D02*
X107933333Y-76292914D01*
X107933333Y-76292914D02*
X107838095Y-76340533D01*
X109361904Y-77054819D02*
X108790476Y-77054819D01*
X109076190Y-77054819D02*
X109076190Y-76054819D01*
X109076190Y-76054819D02*
X108980952Y-76197676D01*
X108980952Y-76197676D02*
X108885714Y-76292914D01*
X108885714Y-76292914D02*
X108790476Y-76340533D01*
X94759580Y-60642857D02*
X94807200Y-60690476D01*
X94807200Y-60690476D02*
X94854819Y-60833333D01*
X94854819Y-60833333D02*
X94854819Y-60928571D01*
X94854819Y-60928571D02*
X94807200Y-61071428D01*
X94807200Y-61071428D02*
X94711961Y-61166666D01*
X94711961Y-61166666D02*
X94616723Y-61214285D01*
X94616723Y-61214285D02*
X94426247Y-61261904D01*
X94426247Y-61261904D02*
X94283390Y-61261904D01*
X94283390Y-61261904D02*
X94092914Y-61214285D01*
X94092914Y-61214285D02*
X93997676Y-61166666D01*
X93997676Y-61166666D02*
X93902438Y-61071428D01*
X93902438Y-61071428D02*
X93854819Y-60928571D01*
X93854819Y-60928571D02*
X93854819Y-60833333D01*
X93854819Y-60833333D02*
X93902438Y-60690476D01*
X93902438Y-60690476D02*
X93950057Y-60642857D01*
X93950057Y-60261904D02*
X93902438Y-60214285D01*
X93902438Y-60214285D02*
X93854819Y-60119047D01*
X93854819Y-60119047D02*
X93854819Y-59880952D01*
X93854819Y-59880952D02*
X93902438Y-59785714D01*
X93902438Y-59785714D02*
X93950057Y-59738095D01*
X93950057Y-59738095D02*
X94045295Y-59690476D01*
X94045295Y-59690476D02*
X94140533Y-59690476D01*
X94140533Y-59690476D02*
X94283390Y-59738095D01*
X94283390Y-59738095D02*
X94854819Y-60309523D01*
X94854819Y-60309523D02*
X94854819Y-59690476D01*
X93950057Y-59309523D02*
X93902438Y-59261904D01*
X93902438Y-59261904D02*
X93854819Y-59166666D01*
X93854819Y-59166666D02*
X93854819Y-58928571D01*
X93854819Y-58928571D02*
X93902438Y-58833333D01*
X93902438Y-58833333D02*
X93950057Y-58785714D01*
X93950057Y-58785714D02*
X94045295Y-58738095D01*
X94045295Y-58738095D02*
X94140533Y-58738095D01*
X94140533Y-58738095D02*
X94283390Y-58785714D01*
X94283390Y-58785714D02*
X94854819Y-59357142D01*
X94854819Y-59357142D02*
X94854819Y-58738095D01*
X61731009Y-50833333D02*
X61731009Y-51166666D01*
X62254819Y-51166666D02*
X61254819Y-51166666D01*
X61254819Y-51166666D02*
X61254819Y-50690476D01*
X61731009Y-49976190D02*
X61778628Y-49833333D01*
X61778628Y-49833333D02*
X61826247Y-49785714D01*
X61826247Y-49785714D02*
X61921485Y-49738095D01*
X61921485Y-49738095D02*
X62064342Y-49738095D01*
X62064342Y-49738095D02*
X62159580Y-49785714D01*
X62159580Y-49785714D02*
X62207200Y-49833333D01*
X62207200Y-49833333D02*
X62254819Y-49928571D01*
X62254819Y-49928571D02*
X62254819Y-50309523D01*
X62254819Y-50309523D02*
X61254819Y-50309523D01*
X61254819Y-50309523D02*
X61254819Y-49976190D01*
X61254819Y-49976190D02*
X61302438Y-49880952D01*
X61302438Y-49880952D02*
X61350057Y-49833333D01*
X61350057Y-49833333D02*
X61445295Y-49785714D01*
X61445295Y-49785714D02*
X61540533Y-49785714D01*
X61540533Y-49785714D02*
X61635771Y-49833333D01*
X61635771Y-49833333D02*
X61683390Y-49880952D01*
X61683390Y-49880952D02*
X61731009Y-49976190D01*
X61731009Y-49976190D02*
X61731009Y-50309523D01*
X62254819Y-48785714D02*
X62254819Y-49357142D01*
X62254819Y-49071428D02*
X61254819Y-49071428D01*
X61254819Y-49071428D02*
X61397676Y-49166666D01*
X61397676Y-49166666D02*
X61492914Y-49261904D01*
X61492914Y-49261904D02*
X61540533Y-49357142D01*
X79533333Y-91254819D02*
X79200000Y-90778628D01*
X78961905Y-91254819D02*
X78961905Y-90254819D01*
X78961905Y-90254819D02*
X79342857Y-90254819D01*
X79342857Y-90254819D02*
X79438095Y-90302438D01*
X79438095Y-90302438D02*
X79485714Y-90350057D01*
X79485714Y-90350057D02*
X79533333Y-90445295D01*
X79533333Y-90445295D02*
X79533333Y-90588152D01*
X79533333Y-90588152D02*
X79485714Y-90683390D01*
X79485714Y-90683390D02*
X79438095Y-90731009D01*
X79438095Y-90731009D02*
X79342857Y-90778628D01*
X79342857Y-90778628D02*
X78961905Y-90778628D01*
X80104762Y-90683390D02*
X80009524Y-90635771D01*
X80009524Y-90635771D02*
X79961905Y-90588152D01*
X79961905Y-90588152D02*
X79914286Y-90492914D01*
X79914286Y-90492914D02*
X79914286Y-90445295D01*
X79914286Y-90445295D02*
X79961905Y-90350057D01*
X79961905Y-90350057D02*
X80009524Y-90302438D01*
X80009524Y-90302438D02*
X80104762Y-90254819D01*
X80104762Y-90254819D02*
X80295238Y-90254819D01*
X80295238Y-90254819D02*
X80390476Y-90302438D01*
X80390476Y-90302438D02*
X80438095Y-90350057D01*
X80438095Y-90350057D02*
X80485714Y-90445295D01*
X80485714Y-90445295D02*
X80485714Y-90492914D01*
X80485714Y-90492914D02*
X80438095Y-90588152D01*
X80438095Y-90588152D02*
X80390476Y-90635771D01*
X80390476Y-90635771D02*
X80295238Y-90683390D01*
X80295238Y-90683390D02*
X80104762Y-90683390D01*
X80104762Y-90683390D02*
X80009524Y-90731009D01*
X80009524Y-90731009D02*
X79961905Y-90778628D01*
X79961905Y-90778628D02*
X79914286Y-90873866D01*
X79914286Y-90873866D02*
X79914286Y-91064342D01*
X79914286Y-91064342D02*
X79961905Y-91159580D01*
X79961905Y-91159580D02*
X80009524Y-91207200D01*
X80009524Y-91207200D02*
X80104762Y-91254819D01*
X80104762Y-91254819D02*
X80295238Y-91254819D01*
X80295238Y-91254819D02*
X80390476Y-91207200D01*
X80390476Y-91207200D02*
X80438095Y-91159580D01*
X80438095Y-91159580D02*
X80485714Y-91064342D01*
X80485714Y-91064342D02*
X80485714Y-90873866D01*
X80485714Y-90873866D02*
X80438095Y-90778628D01*
X80438095Y-90778628D02*
X80390476Y-90731009D01*
X80390476Y-90731009D02*
X80295238Y-90683390D01*
X81833333Y-87854819D02*
X81500000Y-87378628D01*
X81261905Y-87854819D02*
X81261905Y-86854819D01*
X81261905Y-86854819D02*
X81642857Y-86854819D01*
X81642857Y-86854819D02*
X81738095Y-86902438D01*
X81738095Y-86902438D02*
X81785714Y-86950057D01*
X81785714Y-86950057D02*
X81833333Y-87045295D01*
X81833333Y-87045295D02*
X81833333Y-87188152D01*
X81833333Y-87188152D02*
X81785714Y-87283390D01*
X81785714Y-87283390D02*
X81738095Y-87331009D01*
X81738095Y-87331009D02*
X81642857Y-87378628D01*
X81642857Y-87378628D02*
X81261905Y-87378628D01*
X82738095Y-86854819D02*
X82261905Y-86854819D01*
X82261905Y-86854819D02*
X82214286Y-87331009D01*
X82214286Y-87331009D02*
X82261905Y-87283390D01*
X82261905Y-87283390D02*
X82357143Y-87235771D01*
X82357143Y-87235771D02*
X82595238Y-87235771D01*
X82595238Y-87235771D02*
X82690476Y-87283390D01*
X82690476Y-87283390D02*
X82738095Y-87331009D01*
X82738095Y-87331009D02*
X82785714Y-87426247D01*
X82785714Y-87426247D02*
X82785714Y-87664342D01*
X82785714Y-87664342D02*
X82738095Y-87759580D01*
X82738095Y-87759580D02*
X82690476Y-87807200D01*
X82690476Y-87807200D02*
X82595238Y-87854819D01*
X82595238Y-87854819D02*
X82357143Y-87854819D01*
X82357143Y-87854819D02*
X82261905Y-87807200D01*
X82261905Y-87807200D02*
X82214286Y-87759580D01*
X67754819Y-90538094D02*
X66754819Y-90538094D01*
X66754819Y-90538094D02*
X66754819Y-90299999D01*
X66754819Y-90299999D02*
X66802438Y-90157142D01*
X66802438Y-90157142D02*
X66897676Y-90061904D01*
X66897676Y-90061904D02*
X66992914Y-90014285D01*
X66992914Y-90014285D02*
X67183390Y-89966666D01*
X67183390Y-89966666D02*
X67326247Y-89966666D01*
X67326247Y-89966666D02*
X67516723Y-90014285D01*
X67516723Y-90014285D02*
X67611961Y-90061904D01*
X67611961Y-90061904D02*
X67707200Y-90157142D01*
X67707200Y-90157142D02*
X67754819Y-90299999D01*
X67754819Y-90299999D02*
X67754819Y-90538094D01*
X66850057Y-89585713D02*
X66802438Y-89538094D01*
X66802438Y-89538094D02*
X66754819Y-89442856D01*
X66754819Y-89442856D02*
X66754819Y-89204761D01*
X66754819Y-89204761D02*
X66802438Y-89109523D01*
X66802438Y-89109523D02*
X66850057Y-89061904D01*
X66850057Y-89061904D02*
X66945295Y-89014285D01*
X66945295Y-89014285D02*
X67040533Y-89014285D01*
X67040533Y-89014285D02*
X67183390Y-89061904D01*
X67183390Y-89061904D02*
X67754819Y-89633332D01*
X67754819Y-89633332D02*
X67754819Y-89014285D01*
X103733333Y-93759580D02*
X103685714Y-93807200D01*
X103685714Y-93807200D02*
X103542857Y-93854819D01*
X103542857Y-93854819D02*
X103447619Y-93854819D01*
X103447619Y-93854819D02*
X103304762Y-93807200D01*
X103304762Y-93807200D02*
X103209524Y-93711961D01*
X103209524Y-93711961D02*
X103161905Y-93616723D01*
X103161905Y-93616723D02*
X103114286Y-93426247D01*
X103114286Y-93426247D02*
X103114286Y-93283390D01*
X103114286Y-93283390D02*
X103161905Y-93092914D01*
X103161905Y-93092914D02*
X103209524Y-92997676D01*
X103209524Y-92997676D02*
X103304762Y-92902438D01*
X103304762Y-92902438D02*
X103447619Y-92854819D01*
X103447619Y-92854819D02*
X103542857Y-92854819D01*
X103542857Y-92854819D02*
X103685714Y-92902438D01*
X103685714Y-92902438D02*
X103733333Y-92950057D01*
X104066667Y-92854819D02*
X104685714Y-92854819D01*
X104685714Y-92854819D02*
X104352381Y-93235771D01*
X104352381Y-93235771D02*
X104495238Y-93235771D01*
X104495238Y-93235771D02*
X104590476Y-93283390D01*
X104590476Y-93283390D02*
X104638095Y-93331009D01*
X104638095Y-93331009D02*
X104685714Y-93426247D01*
X104685714Y-93426247D02*
X104685714Y-93664342D01*
X104685714Y-93664342D02*
X104638095Y-93759580D01*
X104638095Y-93759580D02*
X104590476Y-93807200D01*
X104590476Y-93807200D02*
X104495238Y-93854819D01*
X104495238Y-93854819D02*
X104209524Y-93854819D01*
X104209524Y-93854819D02*
X104114286Y-93807200D01*
X104114286Y-93807200D02*
X104066667Y-93759580D01*
X131357142Y-42929580D02*
X131309523Y-42977200D01*
X131309523Y-42977200D02*
X131166666Y-43024819D01*
X131166666Y-43024819D02*
X131071428Y-43024819D01*
X131071428Y-43024819D02*
X130928571Y-42977200D01*
X130928571Y-42977200D02*
X130833333Y-42881961D01*
X130833333Y-42881961D02*
X130785714Y-42786723D01*
X130785714Y-42786723D02*
X130738095Y-42596247D01*
X130738095Y-42596247D02*
X130738095Y-42453390D01*
X130738095Y-42453390D02*
X130785714Y-42262914D01*
X130785714Y-42262914D02*
X130833333Y-42167676D01*
X130833333Y-42167676D02*
X130928571Y-42072438D01*
X130928571Y-42072438D02*
X131071428Y-42024819D01*
X131071428Y-42024819D02*
X131166666Y-42024819D01*
X131166666Y-42024819D02*
X131309523Y-42072438D01*
X131309523Y-42072438D02*
X131357142Y-42120057D01*
X131738095Y-42120057D02*
X131785714Y-42072438D01*
X131785714Y-42072438D02*
X131880952Y-42024819D01*
X131880952Y-42024819D02*
X132119047Y-42024819D01*
X132119047Y-42024819D02*
X132214285Y-42072438D01*
X132214285Y-42072438D02*
X132261904Y-42120057D01*
X132261904Y-42120057D02*
X132309523Y-42215295D01*
X132309523Y-42215295D02*
X132309523Y-42310533D01*
X132309523Y-42310533D02*
X132261904Y-42453390D01*
X132261904Y-42453390D02*
X131690476Y-43024819D01*
X131690476Y-43024819D02*
X132309523Y-43024819D01*
X132880952Y-42453390D02*
X132785714Y-42405771D01*
X132785714Y-42405771D02*
X132738095Y-42358152D01*
X132738095Y-42358152D02*
X132690476Y-42262914D01*
X132690476Y-42262914D02*
X132690476Y-42215295D01*
X132690476Y-42215295D02*
X132738095Y-42120057D01*
X132738095Y-42120057D02*
X132785714Y-42072438D01*
X132785714Y-42072438D02*
X132880952Y-42024819D01*
X132880952Y-42024819D02*
X133071428Y-42024819D01*
X133071428Y-42024819D02*
X133166666Y-42072438D01*
X133166666Y-42072438D02*
X133214285Y-42120057D01*
X133214285Y-42120057D02*
X133261904Y-42215295D01*
X133261904Y-42215295D02*
X133261904Y-42262914D01*
X133261904Y-42262914D02*
X133214285Y-42358152D01*
X133214285Y-42358152D02*
X133166666Y-42405771D01*
X133166666Y-42405771D02*
X133071428Y-42453390D01*
X133071428Y-42453390D02*
X132880952Y-42453390D01*
X132880952Y-42453390D02*
X132785714Y-42501009D01*
X132785714Y-42501009D02*
X132738095Y-42548628D01*
X132738095Y-42548628D02*
X132690476Y-42643866D01*
X132690476Y-42643866D02*
X132690476Y-42834342D01*
X132690476Y-42834342D02*
X132738095Y-42929580D01*
X132738095Y-42929580D02*
X132785714Y-42977200D01*
X132785714Y-42977200D02*
X132880952Y-43024819D01*
X132880952Y-43024819D02*
X133071428Y-43024819D01*
X133071428Y-43024819D02*
X133166666Y-42977200D01*
X133166666Y-42977200D02*
X133214285Y-42929580D01*
X133214285Y-42929580D02*
X133261904Y-42834342D01*
X133261904Y-42834342D02*
X133261904Y-42643866D01*
X133261904Y-42643866D02*
X133214285Y-42548628D01*
X133214285Y-42548628D02*
X133166666Y-42501009D01*
X133166666Y-42501009D02*
X133071428Y-42453390D01*
X68959580Y-44142857D02*
X69007200Y-44190476D01*
X69007200Y-44190476D02*
X69054819Y-44333333D01*
X69054819Y-44333333D02*
X69054819Y-44428571D01*
X69054819Y-44428571D02*
X69007200Y-44571428D01*
X69007200Y-44571428D02*
X68911961Y-44666666D01*
X68911961Y-44666666D02*
X68816723Y-44714285D01*
X68816723Y-44714285D02*
X68626247Y-44761904D01*
X68626247Y-44761904D02*
X68483390Y-44761904D01*
X68483390Y-44761904D02*
X68292914Y-44714285D01*
X68292914Y-44714285D02*
X68197676Y-44666666D01*
X68197676Y-44666666D02*
X68102438Y-44571428D01*
X68102438Y-44571428D02*
X68054819Y-44428571D01*
X68054819Y-44428571D02*
X68054819Y-44333333D01*
X68054819Y-44333333D02*
X68102438Y-44190476D01*
X68102438Y-44190476D02*
X68150057Y-44142857D01*
X69054819Y-43190476D02*
X69054819Y-43761904D01*
X69054819Y-43476190D02*
X68054819Y-43476190D01*
X68054819Y-43476190D02*
X68197676Y-43571428D01*
X68197676Y-43571428D02*
X68292914Y-43666666D01*
X68292914Y-43666666D02*
X68340533Y-43761904D01*
X68483390Y-42619047D02*
X68435771Y-42714285D01*
X68435771Y-42714285D02*
X68388152Y-42761904D01*
X68388152Y-42761904D02*
X68292914Y-42809523D01*
X68292914Y-42809523D02*
X68245295Y-42809523D01*
X68245295Y-42809523D02*
X68150057Y-42761904D01*
X68150057Y-42761904D02*
X68102438Y-42714285D01*
X68102438Y-42714285D02*
X68054819Y-42619047D01*
X68054819Y-42619047D02*
X68054819Y-42428571D01*
X68054819Y-42428571D02*
X68102438Y-42333333D01*
X68102438Y-42333333D02*
X68150057Y-42285714D01*
X68150057Y-42285714D02*
X68245295Y-42238095D01*
X68245295Y-42238095D02*
X68292914Y-42238095D01*
X68292914Y-42238095D02*
X68388152Y-42285714D01*
X68388152Y-42285714D02*
X68435771Y-42333333D01*
X68435771Y-42333333D02*
X68483390Y-42428571D01*
X68483390Y-42428571D02*
X68483390Y-42619047D01*
X68483390Y-42619047D02*
X68531009Y-42714285D01*
X68531009Y-42714285D02*
X68578628Y-42761904D01*
X68578628Y-42761904D02*
X68673866Y-42809523D01*
X68673866Y-42809523D02*
X68864342Y-42809523D01*
X68864342Y-42809523D02*
X68959580Y-42761904D01*
X68959580Y-42761904D02*
X69007200Y-42714285D01*
X69007200Y-42714285D02*
X69054819Y-42619047D01*
X69054819Y-42619047D02*
X69054819Y-42428571D01*
X69054819Y-42428571D02*
X69007200Y-42333333D01*
X69007200Y-42333333D02*
X68959580Y-42285714D01*
X68959580Y-42285714D02*
X68864342Y-42238095D01*
X68864342Y-42238095D02*
X68673866Y-42238095D01*
X68673866Y-42238095D02*
X68578628Y-42285714D01*
X68578628Y-42285714D02*
X68531009Y-42333333D01*
X68531009Y-42333333D02*
X68483390Y-42428571D01*
X90938095Y-75054819D02*
X90938095Y-75864342D01*
X90938095Y-75864342D02*
X90985714Y-75959580D01*
X90985714Y-75959580D02*
X91033333Y-76007200D01*
X91033333Y-76007200D02*
X91128571Y-76054819D01*
X91128571Y-76054819D02*
X91319047Y-76054819D01*
X91319047Y-76054819D02*
X91414285Y-76007200D01*
X91414285Y-76007200D02*
X91461904Y-75959580D01*
X91461904Y-75959580D02*
X91509523Y-75864342D01*
X91509523Y-75864342D02*
X91509523Y-75054819D01*
X91938095Y-75150057D02*
X91985714Y-75102438D01*
X91985714Y-75102438D02*
X92080952Y-75054819D01*
X92080952Y-75054819D02*
X92319047Y-75054819D01*
X92319047Y-75054819D02*
X92414285Y-75102438D01*
X92414285Y-75102438D02*
X92461904Y-75150057D01*
X92461904Y-75150057D02*
X92509523Y-75245295D01*
X92509523Y-75245295D02*
X92509523Y-75340533D01*
X92509523Y-75340533D02*
X92461904Y-75483390D01*
X92461904Y-75483390D02*
X91890476Y-76054819D01*
X91890476Y-76054819D02*
X92509523Y-76054819D01*
X106233333Y-90454819D02*
X105900000Y-89978628D01*
X105661905Y-90454819D02*
X105661905Y-89454819D01*
X105661905Y-89454819D02*
X106042857Y-89454819D01*
X106042857Y-89454819D02*
X106138095Y-89502438D01*
X106138095Y-89502438D02*
X106185714Y-89550057D01*
X106185714Y-89550057D02*
X106233333Y-89645295D01*
X106233333Y-89645295D02*
X106233333Y-89788152D01*
X106233333Y-89788152D02*
X106185714Y-89883390D01*
X106185714Y-89883390D02*
X106138095Y-89931009D01*
X106138095Y-89931009D02*
X106042857Y-89978628D01*
X106042857Y-89978628D02*
X105661905Y-89978628D01*
X106614286Y-89550057D02*
X106661905Y-89502438D01*
X106661905Y-89502438D02*
X106757143Y-89454819D01*
X106757143Y-89454819D02*
X106995238Y-89454819D01*
X106995238Y-89454819D02*
X107090476Y-89502438D01*
X107090476Y-89502438D02*
X107138095Y-89550057D01*
X107138095Y-89550057D02*
X107185714Y-89645295D01*
X107185714Y-89645295D02*
X107185714Y-89740533D01*
X107185714Y-89740533D02*
X107138095Y-89883390D01*
X107138095Y-89883390D02*
X106566667Y-90454819D01*
X106566667Y-90454819D02*
X107185714Y-90454819D01*
X112357142Y-42959580D02*
X112309523Y-43007200D01*
X112309523Y-43007200D02*
X112166666Y-43054819D01*
X112166666Y-43054819D02*
X112071428Y-43054819D01*
X112071428Y-43054819D02*
X111928571Y-43007200D01*
X111928571Y-43007200D02*
X111833333Y-42911961D01*
X111833333Y-42911961D02*
X111785714Y-42816723D01*
X111785714Y-42816723D02*
X111738095Y-42626247D01*
X111738095Y-42626247D02*
X111738095Y-42483390D01*
X111738095Y-42483390D02*
X111785714Y-42292914D01*
X111785714Y-42292914D02*
X111833333Y-42197676D01*
X111833333Y-42197676D02*
X111928571Y-42102438D01*
X111928571Y-42102438D02*
X112071428Y-42054819D01*
X112071428Y-42054819D02*
X112166666Y-42054819D01*
X112166666Y-42054819D02*
X112309523Y-42102438D01*
X112309523Y-42102438D02*
X112357142Y-42150057D01*
X112738095Y-42150057D02*
X112785714Y-42102438D01*
X112785714Y-42102438D02*
X112880952Y-42054819D01*
X112880952Y-42054819D02*
X113119047Y-42054819D01*
X113119047Y-42054819D02*
X113214285Y-42102438D01*
X113214285Y-42102438D02*
X113261904Y-42150057D01*
X113261904Y-42150057D02*
X113309523Y-42245295D01*
X113309523Y-42245295D02*
X113309523Y-42340533D01*
X113309523Y-42340533D02*
X113261904Y-42483390D01*
X113261904Y-42483390D02*
X112690476Y-43054819D01*
X112690476Y-43054819D02*
X113309523Y-43054819D01*
X113642857Y-42054819D02*
X114309523Y-42054819D01*
X114309523Y-42054819D02*
X113880952Y-43054819D01*
X89238095Y-63254819D02*
X89238095Y-64064342D01*
X89238095Y-64064342D02*
X89285714Y-64159580D01*
X89285714Y-64159580D02*
X89333333Y-64207200D01*
X89333333Y-64207200D02*
X89428571Y-64254819D01*
X89428571Y-64254819D02*
X89619047Y-64254819D01*
X89619047Y-64254819D02*
X89714285Y-64207200D01*
X89714285Y-64207200D02*
X89761904Y-64159580D01*
X89761904Y-64159580D02*
X89809523Y-64064342D01*
X89809523Y-64064342D02*
X89809523Y-63254819D01*
X90761904Y-63254819D02*
X90285714Y-63254819D01*
X90285714Y-63254819D02*
X90238095Y-63731009D01*
X90238095Y-63731009D02*
X90285714Y-63683390D01*
X90285714Y-63683390D02*
X90380952Y-63635771D01*
X90380952Y-63635771D02*
X90619047Y-63635771D01*
X90619047Y-63635771D02*
X90714285Y-63683390D01*
X90714285Y-63683390D02*
X90761904Y-63731009D01*
X90761904Y-63731009D02*
X90809523Y-63826247D01*
X90809523Y-63826247D02*
X90809523Y-64064342D01*
X90809523Y-64064342D02*
X90761904Y-64159580D01*
X90761904Y-64159580D02*
X90714285Y-64207200D01*
X90714285Y-64207200D02*
X90619047Y-64254819D01*
X90619047Y-64254819D02*
X90380952Y-64254819D01*
X90380952Y-64254819D02*
X90285714Y-64207200D01*
X90285714Y-64207200D02*
X90238095Y-64159580D01*
X104257142Y-78754819D02*
X103923809Y-78278628D01*
X103685714Y-78754819D02*
X103685714Y-77754819D01*
X103685714Y-77754819D02*
X104066666Y-77754819D01*
X104066666Y-77754819D02*
X104161904Y-77802438D01*
X104161904Y-77802438D02*
X104209523Y-77850057D01*
X104209523Y-77850057D02*
X104257142Y-77945295D01*
X104257142Y-77945295D02*
X104257142Y-78088152D01*
X104257142Y-78088152D02*
X104209523Y-78183390D01*
X104209523Y-78183390D02*
X104161904Y-78231009D01*
X104161904Y-78231009D02*
X104066666Y-78278628D01*
X104066666Y-78278628D02*
X103685714Y-78278628D01*
X105209523Y-78754819D02*
X104638095Y-78754819D01*
X104923809Y-78754819D02*
X104923809Y-77754819D01*
X104923809Y-77754819D02*
X104828571Y-77897676D01*
X104828571Y-77897676D02*
X104733333Y-77992914D01*
X104733333Y-77992914D02*
X104638095Y-78040533D01*
X105590476Y-77850057D02*
X105638095Y-77802438D01*
X105638095Y-77802438D02*
X105733333Y-77754819D01*
X105733333Y-77754819D02*
X105971428Y-77754819D01*
X105971428Y-77754819D02*
X106066666Y-77802438D01*
X106066666Y-77802438D02*
X106114285Y-77850057D01*
X106114285Y-77850057D02*
X106161904Y-77945295D01*
X106161904Y-77945295D02*
X106161904Y-78040533D01*
X106161904Y-78040533D02*
X106114285Y-78183390D01*
X106114285Y-78183390D02*
X105542857Y-78754819D01*
X105542857Y-78754819D02*
X106161904Y-78754819D01*
X104257142Y-80359580D02*
X104209523Y-80407200D01*
X104209523Y-80407200D02*
X104066666Y-80454819D01*
X104066666Y-80454819D02*
X103971428Y-80454819D01*
X103971428Y-80454819D02*
X103828571Y-80407200D01*
X103828571Y-80407200D02*
X103733333Y-80311961D01*
X103733333Y-80311961D02*
X103685714Y-80216723D01*
X103685714Y-80216723D02*
X103638095Y-80026247D01*
X103638095Y-80026247D02*
X103638095Y-79883390D01*
X103638095Y-79883390D02*
X103685714Y-79692914D01*
X103685714Y-79692914D02*
X103733333Y-79597676D01*
X103733333Y-79597676D02*
X103828571Y-79502438D01*
X103828571Y-79502438D02*
X103971428Y-79454819D01*
X103971428Y-79454819D02*
X104066666Y-79454819D01*
X104066666Y-79454819D02*
X104209523Y-79502438D01*
X104209523Y-79502438D02*
X104257142Y-79550057D01*
X105209523Y-80454819D02*
X104638095Y-80454819D01*
X104923809Y-80454819D02*
X104923809Y-79454819D01*
X104923809Y-79454819D02*
X104828571Y-79597676D01*
X104828571Y-79597676D02*
X104733333Y-79692914D01*
X104733333Y-79692914D02*
X104638095Y-79740533D01*
X106066666Y-79788152D02*
X106066666Y-80454819D01*
X105828571Y-79407200D02*
X105590476Y-80121485D01*
X105590476Y-80121485D02*
X106209523Y-80121485D01*
X106233333Y-92154819D02*
X105900000Y-91678628D01*
X105661905Y-92154819D02*
X105661905Y-91154819D01*
X105661905Y-91154819D02*
X106042857Y-91154819D01*
X106042857Y-91154819D02*
X106138095Y-91202438D01*
X106138095Y-91202438D02*
X106185714Y-91250057D01*
X106185714Y-91250057D02*
X106233333Y-91345295D01*
X106233333Y-91345295D02*
X106233333Y-91488152D01*
X106233333Y-91488152D02*
X106185714Y-91583390D01*
X106185714Y-91583390D02*
X106138095Y-91631009D01*
X106138095Y-91631009D02*
X106042857Y-91678628D01*
X106042857Y-91678628D02*
X105661905Y-91678628D01*
X107185714Y-92154819D02*
X106614286Y-92154819D01*
X106900000Y-92154819D02*
X106900000Y-91154819D01*
X106900000Y-91154819D02*
X106804762Y-91297676D01*
X106804762Y-91297676D02*
X106709524Y-91392914D01*
X106709524Y-91392914D02*
X106614286Y-91440533D01*
X41366666Y-37754819D02*
X41366666Y-38469104D01*
X41366666Y-38469104D02*
X41319047Y-38611961D01*
X41319047Y-38611961D02*
X41223809Y-38707200D01*
X41223809Y-38707200D02*
X41080952Y-38754819D01*
X41080952Y-38754819D02*
X40985714Y-38754819D01*
X42319047Y-37754819D02*
X41842857Y-37754819D01*
X41842857Y-37754819D02*
X41795238Y-38231009D01*
X41795238Y-38231009D02*
X41842857Y-38183390D01*
X41842857Y-38183390D02*
X41938095Y-38135771D01*
X41938095Y-38135771D02*
X42176190Y-38135771D01*
X42176190Y-38135771D02*
X42271428Y-38183390D01*
X42271428Y-38183390D02*
X42319047Y-38231009D01*
X42319047Y-38231009D02*
X42366666Y-38326247D01*
X42366666Y-38326247D02*
X42366666Y-38564342D01*
X42366666Y-38564342D02*
X42319047Y-38659580D01*
X42319047Y-38659580D02*
X42271428Y-38707200D01*
X42271428Y-38707200D02*
X42176190Y-38754819D01*
X42176190Y-38754819D02*
X41938095Y-38754819D01*
X41938095Y-38754819D02*
X41842857Y-38707200D01*
X41842857Y-38707200D02*
X41795238Y-38659580D01*
X103833333Y-90359580D02*
X103785714Y-90407200D01*
X103785714Y-90407200D02*
X103642857Y-90454819D01*
X103642857Y-90454819D02*
X103547619Y-90454819D01*
X103547619Y-90454819D02*
X103404762Y-90407200D01*
X103404762Y-90407200D02*
X103309524Y-90311961D01*
X103309524Y-90311961D02*
X103261905Y-90216723D01*
X103261905Y-90216723D02*
X103214286Y-90026247D01*
X103214286Y-90026247D02*
X103214286Y-89883390D01*
X103214286Y-89883390D02*
X103261905Y-89692914D01*
X103261905Y-89692914D02*
X103309524Y-89597676D01*
X103309524Y-89597676D02*
X103404762Y-89502438D01*
X103404762Y-89502438D02*
X103547619Y-89454819D01*
X103547619Y-89454819D02*
X103642857Y-89454819D01*
X103642857Y-89454819D02*
X103785714Y-89502438D01*
X103785714Y-89502438D02*
X103833333Y-89550057D01*
X104214286Y-89550057D02*
X104261905Y-89502438D01*
X104261905Y-89502438D02*
X104357143Y-89454819D01*
X104357143Y-89454819D02*
X104595238Y-89454819D01*
X104595238Y-89454819D02*
X104690476Y-89502438D01*
X104690476Y-89502438D02*
X104738095Y-89550057D01*
X104738095Y-89550057D02*
X104785714Y-89645295D01*
X104785714Y-89645295D02*
X104785714Y-89740533D01*
X104785714Y-89740533D02*
X104738095Y-89883390D01*
X104738095Y-89883390D02*
X104166667Y-90454819D01*
X104166667Y-90454819D02*
X104785714Y-90454819D01*
X68757142Y-33154819D02*
X68423809Y-32678628D01*
X68185714Y-33154819D02*
X68185714Y-32154819D01*
X68185714Y-32154819D02*
X68566666Y-32154819D01*
X68566666Y-32154819D02*
X68661904Y-32202438D01*
X68661904Y-32202438D02*
X68709523Y-32250057D01*
X68709523Y-32250057D02*
X68757142Y-32345295D01*
X68757142Y-32345295D02*
X68757142Y-32488152D01*
X68757142Y-32488152D02*
X68709523Y-32583390D01*
X68709523Y-32583390D02*
X68661904Y-32631009D01*
X68661904Y-32631009D02*
X68566666Y-32678628D01*
X68566666Y-32678628D02*
X68185714Y-32678628D01*
X69709523Y-33154819D02*
X69138095Y-33154819D01*
X69423809Y-33154819D02*
X69423809Y-32154819D01*
X69423809Y-32154819D02*
X69328571Y-32297676D01*
X69328571Y-32297676D02*
X69233333Y-32392914D01*
X69233333Y-32392914D02*
X69138095Y-32440533D01*
X70185714Y-33154819D02*
X70376190Y-33154819D01*
X70376190Y-33154819D02*
X70471428Y-33107200D01*
X70471428Y-33107200D02*
X70519047Y-33059580D01*
X70519047Y-33059580D02*
X70614285Y-32916723D01*
X70614285Y-32916723D02*
X70661904Y-32726247D01*
X70661904Y-32726247D02*
X70661904Y-32345295D01*
X70661904Y-32345295D02*
X70614285Y-32250057D01*
X70614285Y-32250057D02*
X70566666Y-32202438D01*
X70566666Y-32202438D02*
X70471428Y-32154819D01*
X70471428Y-32154819D02*
X70280952Y-32154819D01*
X70280952Y-32154819D02*
X70185714Y-32202438D01*
X70185714Y-32202438D02*
X70138095Y-32250057D01*
X70138095Y-32250057D02*
X70090476Y-32345295D01*
X70090476Y-32345295D02*
X70090476Y-32583390D01*
X70090476Y-32583390D02*
X70138095Y-32678628D01*
X70138095Y-32678628D02*
X70185714Y-32726247D01*
X70185714Y-32726247D02*
X70280952Y-32773866D01*
X70280952Y-32773866D02*
X70471428Y-32773866D01*
X70471428Y-32773866D02*
X70566666Y-32726247D01*
X70566666Y-32726247D02*
X70614285Y-32678628D01*
X70614285Y-32678628D02*
X70661904Y-32583390D01*
X79633333Y-87854819D02*
X79300000Y-87378628D01*
X79061905Y-87854819D02*
X79061905Y-86854819D01*
X79061905Y-86854819D02*
X79442857Y-86854819D01*
X79442857Y-86854819D02*
X79538095Y-86902438D01*
X79538095Y-86902438D02*
X79585714Y-86950057D01*
X79585714Y-86950057D02*
X79633333Y-87045295D01*
X79633333Y-87045295D02*
X79633333Y-87188152D01*
X79633333Y-87188152D02*
X79585714Y-87283390D01*
X79585714Y-87283390D02*
X79538095Y-87331009D01*
X79538095Y-87331009D02*
X79442857Y-87378628D01*
X79442857Y-87378628D02*
X79061905Y-87378628D01*
X80490476Y-86854819D02*
X80300000Y-86854819D01*
X80300000Y-86854819D02*
X80204762Y-86902438D01*
X80204762Y-86902438D02*
X80157143Y-86950057D01*
X80157143Y-86950057D02*
X80061905Y-87092914D01*
X80061905Y-87092914D02*
X80014286Y-87283390D01*
X80014286Y-87283390D02*
X80014286Y-87664342D01*
X80014286Y-87664342D02*
X80061905Y-87759580D01*
X80061905Y-87759580D02*
X80109524Y-87807200D01*
X80109524Y-87807200D02*
X80204762Y-87854819D01*
X80204762Y-87854819D02*
X80395238Y-87854819D01*
X80395238Y-87854819D02*
X80490476Y-87807200D01*
X80490476Y-87807200D02*
X80538095Y-87759580D01*
X80538095Y-87759580D02*
X80585714Y-87664342D01*
X80585714Y-87664342D02*
X80585714Y-87426247D01*
X80585714Y-87426247D02*
X80538095Y-87331009D01*
X80538095Y-87331009D02*
X80490476Y-87283390D01*
X80490476Y-87283390D02*
X80395238Y-87235771D01*
X80395238Y-87235771D02*
X80204762Y-87235771D01*
X80204762Y-87235771D02*
X80109524Y-87283390D01*
X80109524Y-87283390D02*
X80061905Y-87331009D01*
X80061905Y-87331009D02*
X80014286Y-87426247D01*
X63859580Y-50642857D02*
X63907200Y-50690476D01*
X63907200Y-50690476D02*
X63954819Y-50833333D01*
X63954819Y-50833333D02*
X63954819Y-50928571D01*
X63954819Y-50928571D02*
X63907200Y-51071428D01*
X63907200Y-51071428D02*
X63811961Y-51166666D01*
X63811961Y-51166666D02*
X63716723Y-51214285D01*
X63716723Y-51214285D02*
X63526247Y-51261904D01*
X63526247Y-51261904D02*
X63383390Y-51261904D01*
X63383390Y-51261904D02*
X63192914Y-51214285D01*
X63192914Y-51214285D02*
X63097676Y-51166666D01*
X63097676Y-51166666D02*
X63002438Y-51071428D01*
X63002438Y-51071428D02*
X62954819Y-50928571D01*
X62954819Y-50928571D02*
X62954819Y-50833333D01*
X62954819Y-50833333D02*
X63002438Y-50690476D01*
X63002438Y-50690476D02*
X63050057Y-50642857D01*
X63050057Y-50261904D02*
X63002438Y-50214285D01*
X63002438Y-50214285D02*
X62954819Y-50119047D01*
X62954819Y-50119047D02*
X62954819Y-49880952D01*
X62954819Y-49880952D02*
X63002438Y-49785714D01*
X63002438Y-49785714D02*
X63050057Y-49738095D01*
X63050057Y-49738095D02*
X63145295Y-49690476D01*
X63145295Y-49690476D02*
X63240533Y-49690476D01*
X63240533Y-49690476D02*
X63383390Y-49738095D01*
X63383390Y-49738095D02*
X63954819Y-50309523D01*
X63954819Y-50309523D02*
X63954819Y-49690476D01*
X63954819Y-48738095D02*
X63954819Y-49309523D01*
X63954819Y-49023809D02*
X62954819Y-49023809D01*
X62954819Y-49023809D02*
X63097676Y-49119047D01*
X63097676Y-49119047D02*
X63192914Y-49214285D01*
X63192914Y-49214285D02*
X63240533Y-49309523D01*
X80457142Y-76754819D02*
X80123809Y-76278628D01*
X79885714Y-76754819D02*
X79885714Y-75754819D01*
X79885714Y-75754819D02*
X80266666Y-75754819D01*
X80266666Y-75754819D02*
X80361904Y-75802438D01*
X80361904Y-75802438D02*
X80409523Y-75850057D01*
X80409523Y-75850057D02*
X80457142Y-75945295D01*
X80457142Y-75945295D02*
X80457142Y-76088152D01*
X80457142Y-76088152D02*
X80409523Y-76183390D01*
X80409523Y-76183390D02*
X80361904Y-76231009D01*
X80361904Y-76231009D02*
X80266666Y-76278628D01*
X80266666Y-76278628D02*
X79885714Y-76278628D01*
X81409523Y-76754819D02*
X80838095Y-76754819D01*
X81123809Y-76754819D02*
X81123809Y-75754819D01*
X81123809Y-75754819D02*
X81028571Y-75897676D01*
X81028571Y-75897676D02*
X80933333Y-75992914D01*
X80933333Y-75992914D02*
X80838095Y-76040533D01*
X82266666Y-75754819D02*
X82076190Y-75754819D01*
X82076190Y-75754819D02*
X81980952Y-75802438D01*
X81980952Y-75802438D02*
X81933333Y-75850057D01*
X81933333Y-75850057D02*
X81838095Y-75992914D01*
X81838095Y-75992914D02*
X81790476Y-76183390D01*
X81790476Y-76183390D02*
X81790476Y-76564342D01*
X81790476Y-76564342D02*
X81838095Y-76659580D01*
X81838095Y-76659580D02*
X81885714Y-76707200D01*
X81885714Y-76707200D02*
X81980952Y-76754819D01*
X81980952Y-76754819D02*
X82171428Y-76754819D01*
X82171428Y-76754819D02*
X82266666Y-76707200D01*
X82266666Y-76707200D02*
X82314285Y-76659580D01*
X82314285Y-76659580D02*
X82361904Y-76564342D01*
X82361904Y-76564342D02*
X82361904Y-76326247D01*
X82361904Y-76326247D02*
X82314285Y-76231009D01*
X82314285Y-76231009D02*
X82266666Y-76183390D01*
X82266666Y-76183390D02*
X82171428Y-76135771D01*
X82171428Y-76135771D02*
X81980952Y-76135771D01*
X81980952Y-76135771D02*
X81885714Y-76183390D01*
X81885714Y-76183390D02*
X81838095Y-76231009D01*
X81838095Y-76231009D02*
X81790476Y-76326247D01*
X90559580Y-72942857D02*
X90607200Y-72990476D01*
X90607200Y-72990476D02*
X90654819Y-73133333D01*
X90654819Y-73133333D02*
X90654819Y-73228571D01*
X90654819Y-73228571D02*
X90607200Y-73371428D01*
X90607200Y-73371428D02*
X90511961Y-73466666D01*
X90511961Y-73466666D02*
X90416723Y-73514285D01*
X90416723Y-73514285D02*
X90226247Y-73561904D01*
X90226247Y-73561904D02*
X90083390Y-73561904D01*
X90083390Y-73561904D02*
X89892914Y-73514285D01*
X89892914Y-73514285D02*
X89797676Y-73466666D01*
X89797676Y-73466666D02*
X89702438Y-73371428D01*
X89702438Y-73371428D02*
X89654819Y-73228571D01*
X89654819Y-73228571D02*
X89654819Y-73133333D01*
X89654819Y-73133333D02*
X89702438Y-72990476D01*
X89702438Y-72990476D02*
X89750057Y-72942857D01*
X90654819Y-71990476D02*
X90654819Y-72561904D01*
X90654819Y-72276190D02*
X89654819Y-72276190D01*
X89654819Y-72276190D02*
X89797676Y-72371428D01*
X89797676Y-72371428D02*
X89892914Y-72466666D01*
X89892914Y-72466666D02*
X89940533Y-72561904D01*
X89654819Y-71371428D02*
X89654819Y-71276190D01*
X89654819Y-71276190D02*
X89702438Y-71180952D01*
X89702438Y-71180952D02*
X89750057Y-71133333D01*
X89750057Y-71133333D02*
X89845295Y-71085714D01*
X89845295Y-71085714D02*
X90035771Y-71038095D01*
X90035771Y-71038095D02*
X90273866Y-71038095D01*
X90273866Y-71038095D02*
X90464342Y-71085714D01*
X90464342Y-71085714D02*
X90559580Y-71133333D01*
X90559580Y-71133333D02*
X90607200Y-71180952D01*
X90607200Y-71180952D02*
X90654819Y-71276190D01*
X90654819Y-71276190D02*
X90654819Y-71371428D01*
X90654819Y-71371428D02*
X90607200Y-71466666D01*
X90607200Y-71466666D02*
X90559580Y-71514285D01*
X90559580Y-71514285D02*
X90464342Y-71561904D01*
X90464342Y-71561904D02*
X90273866Y-71609523D01*
X90273866Y-71609523D02*
X90035771Y-71609523D01*
X90035771Y-71609523D02*
X89845295Y-71561904D01*
X89845295Y-71561904D02*
X89750057Y-71514285D01*
X89750057Y-71514285D02*
X89702438Y-71466666D01*
X89702438Y-71466666D02*
X89654819Y-71371428D01*
X59238095Y-36654819D02*
X59238095Y-37464342D01*
X59238095Y-37464342D02*
X59285714Y-37559580D01*
X59285714Y-37559580D02*
X59333333Y-37607200D01*
X59333333Y-37607200D02*
X59428571Y-37654819D01*
X59428571Y-37654819D02*
X59619047Y-37654819D01*
X59619047Y-37654819D02*
X59714285Y-37607200D01*
X59714285Y-37607200D02*
X59761904Y-37559580D01*
X59761904Y-37559580D02*
X59809523Y-37464342D01*
X59809523Y-37464342D02*
X59809523Y-36654819D01*
X60190476Y-36654819D02*
X60809523Y-36654819D01*
X60809523Y-36654819D02*
X60476190Y-37035771D01*
X60476190Y-37035771D02*
X60619047Y-37035771D01*
X60619047Y-37035771D02*
X60714285Y-37083390D01*
X60714285Y-37083390D02*
X60761904Y-37131009D01*
X60761904Y-37131009D02*
X60809523Y-37226247D01*
X60809523Y-37226247D02*
X60809523Y-37464342D01*
X60809523Y-37464342D02*
X60761904Y-37559580D01*
X60761904Y-37559580D02*
X60714285Y-37607200D01*
X60714285Y-37607200D02*
X60619047Y-37654819D01*
X60619047Y-37654819D02*
X60333333Y-37654819D01*
X60333333Y-37654819D02*
X60238095Y-37607200D01*
X60238095Y-37607200D02*
X60190476Y-37559580D01*
X138066666Y-73754819D02*
X138066666Y-74469104D01*
X138066666Y-74469104D02*
X138019047Y-74611961D01*
X138019047Y-74611961D02*
X137923809Y-74707200D01*
X137923809Y-74707200D02*
X137780952Y-74754819D01*
X137780952Y-74754819D02*
X137685714Y-74754819D01*
X138971428Y-74088152D02*
X138971428Y-74754819D01*
X138733333Y-73707200D02*
X138495238Y-74421485D01*
X138495238Y-74421485D02*
X139114285Y-74421485D01*
X110954819Y-34642857D02*
X110478628Y-34976190D01*
X110954819Y-35214285D02*
X109954819Y-35214285D01*
X109954819Y-35214285D02*
X109954819Y-34833333D01*
X109954819Y-34833333D02*
X110002438Y-34738095D01*
X110002438Y-34738095D02*
X110050057Y-34690476D01*
X110050057Y-34690476D02*
X110145295Y-34642857D01*
X110145295Y-34642857D02*
X110288152Y-34642857D01*
X110288152Y-34642857D02*
X110383390Y-34690476D01*
X110383390Y-34690476D02*
X110431009Y-34738095D01*
X110431009Y-34738095D02*
X110478628Y-34833333D01*
X110478628Y-34833333D02*
X110478628Y-35214285D01*
X110050057Y-34261904D02*
X110002438Y-34214285D01*
X110002438Y-34214285D02*
X109954819Y-34119047D01*
X109954819Y-34119047D02*
X109954819Y-33880952D01*
X109954819Y-33880952D02*
X110002438Y-33785714D01*
X110002438Y-33785714D02*
X110050057Y-33738095D01*
X110050057Y-33738095D02*
X110145295Y-33690476D01*
X110145295Y-33690476D02*
X110240533Y-33690476D01*
X110240533Y-33690476D02*
X110383390Y-33738095D01*
X110383390Y-33738095D02*
X110954819Y-34309523D01*
X110954819Y-34309523D02*
X110954819Y-33690476D01*
X110954819Y-32738095D02*
X110954819Y-33309523D01*
X110954819Y-33023809D02*
X109954819Y-33023809D01*
X109954819Y-33023809D02*
X110097676Y-33119047D01*
X110097676Y-33119047D02*
X110192914Y-33214285D01*
X110192914Y-33214285D02*
X110240533Y-33309523D01*
X107457142Y-78659580D02*
X107409523Y-78707200D01*
X107409523Y-78707200D02*
X107266666Y-78754819D01*
X107266666Y-78754819D02*
X107171428Y-78754819D01*
X107171428Y-78754819D02*
X107028571Y-78707200D01*
X107028571Y-78707200D02*
X106933333Y-78611961D01*
X106933333Y-78611961D02*
X106885714Y-78516723D01*
X106885714Y-78516723D02*
X106838095Y-78326247D01*
X106838095Y-78326247D02*
X106838095Y-78183390D01*
X106838095Y-78183390D02*
X106885714Y-77992914D01*
X106885714Y-77992914D02*
X106933333Y-77897676D01*
X106933333Y-77897676D02*
X107028571Y-77802438D01*
X107028571Y-77802438D02*
X107171428Y-77754819D01*
X107171428Y-77754819D02*
X107266666Y-77754819D01*
X107266666Y-77754819D02*
X107409523Y-77802438D01*
X107409523Y-77802438D02*
X107457142Y-77850057D01*
X108409523Y-78754819D02*
X107838095Y-78754819D01*
X108123809Y-78754819D02*
X108123809Y-77754819D01*
X108123809Y-77754819D02*
X108028571Y-77897676D01*
X108028571Y-77897676D02*
X107933333Y-77992914D01*
X107933333Y-77992914D02*
X107838095Y-78040533D01*
X109361904Y-78754819D02*
X108790476Y-78754819D01*
X109076190Y-78754819D02*
X109076190Y-77754819D01*
X109076190Y-77754819D02*
X108980952Y-77897676D01*
X108980952Y-77897676D02*
X108885714Y-77992914D01*
X108885714Y-77992914D02*
X108790476Y-78040533D01*
X106233333Y-88659580D02*
X106185714Y-88707200D01*
X106185714Y-88707200D02*
X106042857Y-88754819D01*
X106042857Y-88754819D02*
X105947619Y-88754819D01*
X105947619Y-88754819D02*
X105804762Y-88707200D01*
X105804762Y-88707200D02*
X105709524Y-88611961D01*
X105709524Y-88611961D02*
X105661905Y-88516723D01*
X105661905Y-88516723D02*
X105614286Y-88326247D01*
X105614286Y-88326247D02*
X105614286Y-88183390D01*
X105614286Y-88183390D02*
X105661905Y-87992914D01*
X105661905Y-87992914D02*
X105709524Y-87897676D01*
X105709524Y-87897676D02*
X105804762Y-87802438D01*
X105804762Y-87802438D02*
X105947619Y-87754819D01*
X105947619Y-87754819D02*
X106042857Y-87754819D01*
X106042857Y-87754819D02*
X106185714Y-87802438D01*
X106185714Y-87802438D02*
X106233333Y-87850057D01*
X107185714Y-88754819D02*
X106614286Y-88754819D01*
X106900000Y-88754819D02*
X106900000Y-87754819D01*
X106900000Y-87754819D02*
X106804762Y-87897676D01*
X106804762Y-87897676D02*
X106709524Y-87992914D01*
X106709524Y-87992914D02*
X106614286Y-88040533D01*
X58266666Y-31229819D02*
X58266666Y-31944104D01*
X58266666Y-31944104D02*
X58219047Y-32086961D01*
X58219047Y-32086961D02*
X58123809Y-32182200D01*
X58123809Y-32182200D02*
X57980952Y-32229819D01*
X57980952Y-32229819D02*
X57885714Y-32229819D01*
X58647619Y-31229819D02*
X59314285Y-31229819D01*
X59314285Y-31229819D02*
X58885714Y-32229819D01*
X115854819Y-47642857D02*
X115378628Y-47976190D01*
X115854819Y-48214285D02*
X114854819Y-48214285D01*
X114854819Y-48214285D02*
X114854819Y-47833333D01*
X114854819Y-47833333D02*
X114902438Y-47738095D01*
X114902438Y-47738095D02*
X114950057Y-47690476D01*
X114950057Y-47690476D02*
X115045295Y-47642857D01*
X115045295Y-47642857D02*
X115188152Y-47642857D01*
X115188152Y-47642857D02*
X115283390Y-47690476D01*
X115283390Y-47690476D02*
X115331009Y-47738095D01*
X115331009Y-47738095D02*
X115378628Y-47833333D01*
X115378628Y-47833333D02*
X115378628Y-48214285D01*
X114950057Y-47261904D02*
X114902438Y-47214285D01*
X114902438Y-47214285D02*
X114854819Y-47119047D01*
X114854819Y-47119047D02*
X114854819Y-46880952D01*
X114854819Y-46880952D02*
X114902438Y-46785714D01*
X114902438Y-46785714D02*
X114950057Y-46738095D01*
X114950057Y-46738095D02*
X115045295Y-46690476D01*
X115045295Y-46690476D02*
X115140533Y-46690476D01*
X115140533Y-46690476D02*
X115283390Y-46738095D01*
X115283390Y-46738095D02*
X115854819Y-47309523D01*
X115854819Y-47309523D02*
X115854819Y-46690476D01*
X114950057Y-46309523D02*
X114902438Y-46261904D01*
X114902438Y-46261904D02*
X114854819Y-46166666D01*
X114854819Y-46166666D02*
X114854819Y-45928571D01*
X114854819Y-45928571D02*
X114902438Y-45833333D01*
X114902438Y-45833333D02*
X114950057Y-45785714D01*
X114950057Y-45785714D02*
X115045295Y-45738095D01*
X115045295Y-45738095D02*
X115140533Y-45738095D01*
X115140533Y-45738095D02*
X115283390Y-45785714D01*
X115283390Y-45785714D02*
X115854819Y-46357142D01*
X115854819Y-46357142D02*
X115854819Y-45738095D01*
D13*
%TO.C,D7*%
X74200000Y-33465000D02*
X71915000Y-33465000D01*
X71915000Y-34935000D02*
X74200000Y-34935000D01*
X71915000Y-33465000D02*
X71915000Y-34935000D01*
%TO.C,R28*%
X105437258Y-34722500D02*
X104962742Y-34722500D01*
X105437258Y-33677500D02*
X104962742Y-33677500D01*
%TO.C,D8*%
X103385000Y-34935000D02*
X103385000Y-33465000D01*
X103385000Y-33465000D02*
X101100000Y-33465000D01*
X101100000Y-34935000D02*
X103385000Y-34935000D01*
%TO.C,R26*%
X76677500Y-39562742D02*
X76677500Y-40037258D01*
X77722500Y-39562742D02*
X77722500Y-40037258D01*
D11*
%TO.C,D5*%
X56650000Y-47010000D02*
G75*
G02*
X56550000Y-47010000I-50000J0D01*
G01*
X56550000Y-47010000D02*
G75*
G02*
X56650000Y-47010000I50000J0D01*
G01*
D13*
%TO.C,R25*%
X132477500Y-47237258D02*
X132477500Y-46762742D01*
X133522500Y-47237258D02*
X133522500Y-46762742D01*
%TO.C,R4*%
X98637258Y-91177500D02*
X98162742Y-91177500D01*
X98637258Y-92222500D02*
X98162742Y-92222500D01*
%TO.C,C4*%
X101459420Y-92890000D02*
X101740580Y-92890000D01*
X101459420Y-93910000D02*
X101740580Y-93910000D01*
%TO.C,R7*%
X87362742Y-90277500D02*
X87837258Y-90277500D01*
X87362742Y-91322500D02*
X87837258Y-91322500D01*
%TO.C,R27*%
X79077500Y-40362742D02*
X79077500Y-40837258D01*
X80122500Y-40362742D02*
X80122500Y-40837258D01*
%TO.C,SW1*%
X116200000Y-33300000D02*
X118800000Y-33300000D01*
X116200000Y-38200000D02*
X116200000Y-33300000D01*
X116200000Y-41900000D02*
X116200000Y-46700000D01*
X116200000Y-46700000D02*
X118700000Y-46700000D01*
X118400000Y-47200000D02*
X118700000Y-47500000D01*
X118400000Y-47800000D02*
X118400000Y-47200000D01*
X118700000Y-47500000D02*
X118400000Y-47800000D01*
X121200000Y-33300000D02*
X123800000Y-33300000D01*
X122000000Y-40000000D02*
X123000000Y-40000000D01*
X122500000Y-40500000D02*
X122500000Y-39500000D01*
X126200000Y-33300000D02*
X128800000Y-33300000D01*
X128800000Y-33300000D02*
X128800000Y-38200000D01*
X128800000Y-41800000D02*
X128800000Y-46700000D01*
X128800000Y-46700000D02*
X126000000Y-46700000D01*
X125500000Y-40000000D02*
G75*
G02*
X119500000Y-40000000I-3000000J0D01*
G01*
X119500000Y-40000000D02*
G75*
G02*
X125500000Y-40000000I3000000J0D01*
G01*
%TO.C,C24*%
X86490000Y-66140580D02*
X86490000Y-65859420D01*
X87510000Y-66140580D02*
X87510000Y-65859420D01*
%TO.C,R13*%
X98637258Y-79477500D02*
X98162742Y-79477500D01*
X98637258Y-80522500D02*
X98162742Y-80522500D01*
D11*
%TO.C,D1*%
X68450000Y-67595000D02*
G75*
G02*
X68350000Y-67595000I-50000J0D01*
G01*
X68350000Y-67595000D02*
G75*
G02*
X68450000Y-67595000I50000J0D01*
G01*
D13*
%TO.C,R17*%
X87362742Y-79177500D02*
X87837258Y-79177500D01*
X87362742Y-80222500D02*
X87837258Y-80222500D01*
%TO.C,R15*%
X84637258Y-75777500D02*
X84162742Y-75777500D01*
X84637258Y-76822500D02*
X84162742Y-76822500D01*
%TO.C,J8*%
X81670000Y-31670000D02*
X83000000Y-31670000D01*
X81670000Y-33000000D02*
X81670000Y-31670000D01*
X84270000Y-31670000D02*
X97030000Y-31670000D01*
X84270000Y-34330000D02*
X84270000Y-31670000D01*
X84270000Y-34330000D02*
X97030000Y-34330000D01*
X97030000Y-34330000D02*
X97030000Y-31670000D01*
%TO.C,R10*%
X88077500Y-69167742D02*
X88077500Y-69642258D01*
X89122500Y-69167742D02*
X89122500Y-69642258D01*
%TO.C,R20*%
X113477500Y-34237258D02*
X113477500Y-33762742D01*
X114522500Y-34237258D02*
X114522500Y-33762742D01*
%TO.C,C7*%
X84540580Y-91990000D02*
X84259420Y-91990000D01*
X84540580Y-93010000D02*
X84259420Y-93010000D01*
%TO.C,C15*%
X84259420Y-77490000D02*
X84540580Y-77490000D01*
X84259420Y-78510000D02*
X84540580Y-78510000D01*
%TO.C,U1*%
X93000000Y-88440000D02*
X91050000Y-88440000D01*
X93000000Y-88440000D02*
X94950000Y-88440000D01*
X93000000Y-93560000D02*
X91050000Y-93560000D01*
X93000000Y-93560000D02*
X94950000Y-93560000D01*
X95940000Y-93795000D02*
X95460000Y-93795000D01*
X95700000Y-93465000D01*
X95940000Y-93795000D01*
G36*
X95940000Y-93795000D02*
G01*
X95460000Y-93795000D01*
X95700000Y-93465000D01*
X95940000Y-93795000D01*
G37*
%TO.C,C23*%
X92490000Y-66140580D02*
X92490000Y-65859420D01*
X93510000Y-66140580D02*
X93510000Y-65859420D01*
%TO.C,C20*%
X59590000Y-47259420D02*
X59590000Y-47540580D01*
X60610000Y-47259420D02*
X60610000Y-47540580D01*
%TO.C,C26*%
X113140580Y-36490000D02*
X112859420Y-36490000D01*
X113140580Y-37510000D02*
X112859420Y-37510000D01*
%TO.C,C19*%
X66265000Y-39238748D02*
X66265000Y-39761252D01*
X67735000Y-39238748D02*
X67735000Y-39761252D01*
%TO.C,J6*%
X70405000Y-37995000D02*
X70405000Y-93995000D01*
X70405000Y-37995000D02*
X73005000Y-37995000D01*
X70405000Y-93995000D02*
X75605000Y-93995000D01*
X73005000Y-37995000D02*
X73005000Y-40595000D01*
X73005000Y-40595000D02*
X75605000Y-40595000D01*
X74275000Y-37995000D02*
X75605000Y-37995000D01*
X75605000Y-37995000D02*
X75605000Y-39325000D01*
X75605000Y-40595000D02*
X75605000Y-93995000D01*
%TO.C,J3*%
X112900000Y-56530000D02*
X115820000Y-56530000D01*
X112900000Y-65430000D02*
X112900000Y-56530000D01*
X112900000Y-65470000D02*
X115820000Y-65470000D01*
X115820000Y-51780000D02*
X119950000Y-51780000D01*
X115820000Y-56530000D02*
X115820000Y-51780000D01*
X115820000Y-70220000D02*
X115820000Y-65470000D01*
X119950000Y-70220000D02*
X115820000Y-70220000D01*
X122650000Y-51780000D02*
X126250000Y-51780000D01*
X126250000Y-70220000D02*
X122650000Y-70220000D01*
X129050000Y-51780000D02*
X132650000Y-51780000D01*
X132650000Y-70220000D02*
X129050000Y-70220000D01*
X136670000Y-51780000D02*
X135350000Y-51780000D01*
X136670000Y-55180000D02*
X136670000Y-51780000D01*
X136670000Y-55180000D02*
X139670000Y-55180000D01*
X136670000Y-66820000D02*
X139670000Y-66820000D01*
X136670000Y-70220000D02*
X135350000Y-70220000D01*
X136670000Y-70220000D02*
X136670000Y-66820000D01*
X139670000Y-66820000D02*
X139670000Y-55180000D01*
%TO.C,C5*%
X94840580Y-86890000D02*
X94559420Y-86890000D01*
X94840580Y-87910000D02*
X94559420Y-87910000D01*
%TO.C,R14*%
X101362742Y-81177500D02*
X101837258Y-81177500D01*
X101362742Y-82222500D02*
X101837258Y-82222500D01*
%TO.C,C8*%
X84540580Y-88590000D02*
X84259420Y-88590000D01*
X84540580Y-89610000D02*
X84259420Y-89610000D01*
%TO.C,D6*%
X57350000Y-45790000D02*
X57350000Y-48450000D01*
X59050000Y-45790000D02*
X57350000Y-45790000D01*
X59050000Y-45790000D02*
X59050000Y-48450000D01*
D11*
%TO.C,D3*%
X111950000Y-51310000D02*
G75*
G02*
X111850000Y-51310000I-50000J0D01*
G01*
X111850000Y-51310000D02*
G75*
G02*
X111950000Y-51310000I50000J0D01*
G01*
D13*
%TO.C,C25*%
X86490000Y-60140580D02*
X86490000Y-59859420D01*
X87510000Y-60140580D02*
X87510000Y-59859420D01*
%TO.C,R24*%
X130477500Y-46762742D02*
X130477500Y-47237258D01*
X131522500Y-46762742D02*
X131522500Y-47237258D01*
%TO.C,J1*%
X40615000Y-55180000D02*
X40615000Y-66820000D01*
X43615000Y-51780000D02*
X43615000Y-55180000D01*
X43615000Y-51780000D02*
X44935000Y-51780000D01*
X43615000Y-55180000D02*
X40615000Y-55180000D01*
X43615000Y-66820000D02*
X40615000Y-66820000D01*
X43615000Y-66820000D02*
X43615000Y-70220000D01*
X43615000Y-70220000D02*
X44935000Y-70220000D01*
X47635000Y-51780000D02*
X51235000Y-51780000D01*
X51235000Y-70220000D02*
X47635000Y-70220000D01*
X54035000Y-51780000D02*
X57635000Y-51780000D01*
X57635000Y-70220000D02*
X54035000Y-70220000D01*
X60335000Y-51780000D02*
X64465000Y-51780000D01*
X64465000Y-51780000D02*
X64465000Y-56530000D01*
X64465000Y-65470000D02*
X64465000Y-70220000D01*
X64465000Y-70220000D02*
X60335000Y-70220000D01*
X67385000Y-56530000D02*
X64465000Y-56530000D01*
X67385000Y-56570000D02*
X67385000Y-65470000D01*
X67385000Y-65470000D02*
X64465000Y-65470000D01*
%TO.C,C17*%
X84540580Y-79190000D02*
X84259420Y-79190000D01*
X84540580Y-80210000D02*
X84259420Y-80210000D01*
%TO.C,C13*%
X94840580Y-74890000D02*
X94559420Y-74890000D01*
X94840580Y-75910000D02*
X94559420Y-75910000D01*
%TO.C,R9*%
X86477500Y-69642258D02*
X86477500Y-69167742D01*
X87522500Y-69642258D02*
X87522500Y-69167742D01*
%TO.C,R23*%
X111477500Y-47237258D02*
X111477500Y-46762742D01*
X112522500Y-47237258D02*
X112522500Y-46762742D01*
%TO.C,C16*%
X87459420Y-77490000D02*
X87740580Y-77490000D01*
X87459420Y-78510000D02*
X87740580Y-78510000D01*
D11*
%TO.C,D4*%
X111950000Y-72310000D02*
G75*
G02*
X111850000Y-72310000I-50000J0D01*
G01*
X111850000Y-72310000D02*
G75*
G02*
X111950000Y-72310000I50000J0D01*
G01*
D13*
%TO.C,R3*%
X98267742Y-87777500D02*
X98742258Y-87777500D01*
X98267742Y-88822500D02*
X98742258Y-88822500D01*
%TO.C,U4*%
X90000000Y-58440000D02*
X89200000Y-58440000D01*
X90000000Y-58440000D02*
X90800000Y-58440000D01*
X90000000Y-61560000D02*
X89200000Y-61560000D01*
X90000000Y-61560000D02*
X90800000Y-61560000D01*
X91540000Y-61840000D02*
X91060000Y-61840000D01*
X91300000Y-61510000D01*
X91540000Y-61840000D01*
G36*
X91540000Y-61840000D02*
G01*
X91060000Y-61840000D01*
X91300000Y-61510000D01*
X91540000Y-61840000D01*
G37*
%TO.C,J2*%
X40630000Y-76295000D02*
X40630000Y-87935000D01*
X43630000Y-72895000D02*
X43630000Y-76295000D01*
X43630000Y-72895000D02*
X44950000Y-72895000D01*
X43630000Y-76295000D02*
X40630000Y-76295000D01*
X43630000Y-87935000D02*
X40630000Y-87935000D01*
X43630000Y-87935000D02*
X43630000Y-91335000D01*
X43630000Y-91335000D02*
X44950000Y-91335000D01*
X47650000Y-72895000D02*
X51250000Y-72895000D01*
X51250000Y-91335000D02*
X47650000Y-91335000D01*
X54050000Y-72895000D02*
X57650000Y-72895000D01*
X57650000Y-91335000D02*
X54050000Y-91335000D01*
X60350000Y-72895000D02*
X64480000Y-72895000D01*
X64480000Y-72895000D02*
X64480000Y-77645000D01*
X64480000Y-86585000D02*
X64480000Y-91335000D01*
X64480000Y-91335000D02*
X60350000Y-91335000D01*
X67400000Y-77645000D02*
X64480000Y-77645000D01*
X67400000Y-77685000D02*
X67400000Y-86585000D01*
X67400000Y-86585000D02*
X64480000Y-86585000D01*
%TO.C,C12*%
X98540580Y-76090000D02*
X98259420Y-76090000D01*
X98540580Y-77110000D02*
X98259420Y-77110000D01*
%TO.C,C6*%
X87459420Y-88590000D02*
X87740580Y-88590000D01*
X87459420Y-89610000D02*
X87740580Y-89610000D01*
%TO.C,C9*%
X87459420Y-91990000D02*
X87740580Y-91990000D01*
X87459420Y-93010000D02*
X87740580Y-93010000D01*
%TO.C,R18*%
X84637258Y-80877500D02*
X84162742Y-80877500D01*
X84637258Y-81922500D02*
X84162742Y-81922500D01*
%TO.C,R11*%
X101362742Y-76077500D02*
X101837258Y-76077500D01*
X101362742Y-77122500D02*
X101837258Y-77122500D01*
%TO.C,C22*%
X92490000Y-60140580D02*
X92490000Y-59859420D01*
X93510000Y-60140580D02*
X93510000Y-59859420D01*
%TO.C,FB1*%
X61290000Y-47237221D02*
X61290000Y-47562779D01*
X62310000Y-47237221D02*
X62310000Y-47562779D01*
%TO.C,R8*%
X84162742Y-90277500D02*
X84637258Y-90277500D01*
X84162742Y-91322500D02*
X84637258Y-91322500D01*
%TO.C,R5*%
X87837258Y-86877500D02*
X87362742Y-86877500D01*
X87837258Y-87922500D02*
X87362742Y-87922500D01*
D11*
%TO.C,D2*%
X68450000Y-88710000D02*
G75*
G02*
X68350000Y-88710000I-50000J0D01*
G01*
X68350000Y-88710000D02*
G75*
G02*
X68450000Y-88710000I50000J0D01*
G01*
D13*
%TO.C,C3*%
X98540580Y-92890000D02*
X98259420Y-92890000D01*
X98540580Y-93910000D02*
X98259420Y-93910000D01*
%TO.C,C28*%
X131859420Y-43490000D02*
X132140580Y-43490000D01*
X131859420Y-44510000D02*
X132140580Y-44510000D01*
%TO.C,C18*%
X66265000Y-43761252D02*
X66265000Y-43238748D01*
X67735000Y-43761252D02*
X67735000Y-43238748D01*
%TO.C,U2*%
X93000000Y-76440000D02*
X91050000Y-76440000D01*
X93000000Y-76440000D02*
X94950000Y-76440000D01*
X93000000Y-81560000D02*
X91050000Y-81560000D01*
X93000000Y-81560000D02*
X94950000Y-81560000D01*
X95940000Y-81795000D02*
X95460000Y-81795000D01*
X95700000Y-81465000D01*
X95940000Y-81795000D01*
G36*
X95940000Y-81795000D02*
G01*
X95460000Y-81795000D01*
X95700000Y-81465000D01*
X95940000Y-81795000D01*
G37*
%TO.C,R2*%
X101837258Y-89477500D02*
X101362742Y-89477500D01*
X101837258Y-90522500D02*
X101362742Y-90522500D01*
%TO.C,C27*%
X113140580Y-43490000D02*
X112859420Y-43490000D01*
X113140580Y-44510000D02*
X112859420Y-44510000D01*
%TO.C,U5*%
X90000000Y-64440000D02*
X89200000Y-64440000D01*
X90000000Y-64440000D02*
X90800000Y-64440000D01*
X90000000Y-67560000D02*
X89200000Y-67560000D01*
X90000000Y-67560000D02*
X90800000Y-67560000D01*
X91540000Y-67840000D02*
X91060000Y-67840000D01*
X91300000Y-67510000D01*
X91540000Y-67840000D01*
G36*
X91540000Y-67840000D02*
G01*
X91060000Y-67840000D01*
X91300000Y-67510000D01*
X91540000Y-67840000D01*
G37*
%TO.C,R12*%
X98162742Y-77777500D02*
X98637258Y-77777500D01*
X98162742Y-78822500D02*
X98637258Y-78822500D01*
%TO.C,C14*%
X101459420Y-79490000D02*
X101740580Y-79490000D01*
X101459420Y-80510000D02*
X101740580Y-80510000D01*
%TO.C,R1*%
X101837258Y-91177500D02*
X101362742Y-91177500D01*
X101837258Y-92222500D02*
X101362742Y-92222500D01*
%TO.C,J5*%
X40635000Y-39400000D02*
X55335000Y-39400000D01*
X40635000Y-48600000D02*
X40635000Y-39400000D01*
X49135000Y-48600000D02*
X40635000Y-48600000D01*
X55335000Y-39400000D02*
X55335000Y-41500000D01*
X55335000Y-46500000D02*
X55335000Y-48600000D01*
X55335000Y-48600000D02*
X53535000Y-48600000D01*
X55635000Y-39100000D02*
X54035000Y-39100000D01*
X55635000Y-40800000D02*
X55635000Y-39100000D01*
%TO.C,C2*%
X98645580Y-89490000D02*
X98364420Y-89490000D01*
X98645580Y-90510000D02*
X98364420Y-90510000D01*
%TO.C,R19*%
X69162742Y-33677500D02*
X69637258Y-33677500D01*
X69162742Y-34722500D02*
X69637258Y-34722500D01*
%TO.C,R6*%
X84162742Y-86877500D02*
X84637258Y-86877500D01*
X84162742Y-87922500D02*
X84637258Y-87922500D01*
%TO.C,C21*%
X62990000Y-47540580D02*
X62990000Y-47259420D01*
X64010000Y-47540580D02*
X64010000Y-47259420D01*
%TO.C,R16*%
X87837258Y-75777500D02*
X87362742Y-75777500D01*
X87837258Y-76822500D02*
X87362742Y-76822500D01*
%TO.C,C10*%
X89690000Y-69264420D02*
X89690000Y-69545580D01*
X90710000Y-69264420D02*
X90710000Y-69545580D01*
%TO.C,U3*%
X59090000Y-38090000D02*
X59090000Y-39350000D01*
X59090000Y-44910000D02*
X59090000Y-43650000D01*
X62850000Y-38090000D02*
X59090000Y-38090000D01*
X62850000Y-44910000D02*
X59090000Y-44910000D01*
X64370000Y-45140000D02*
X63890000Y-45140000D01*
X64130000Y-44810000D01*
X64370000Y-45140000D01*
G36*
X64370000Y-45140000D02*
G01*
X63890000Y-45140000D01*
X64130000Y-44810000D01*
X64370000Y-45140000D01*
G37*
%TO.C,J4*%
X112900000Y-77530000D02*
X115820000Y-77530000D01*
X112900000Y-86430000D02*
X112900000Y-77530000D01*
X112900000Y-86470000D02*
X115820000Y-86470000D01*
X115820000Y-72780000D02*
X119950000Y-72780000D01*
X115820000Y-77530000D02*
X115820000Y-72780000D01*
X115820000Y-91220000D02*
X115820000Y-86470000D01*
X119950000Y-91220000D02*
X115820000Y-91220000D01*
X122650000Y-72780000D02*
X126250000Y-72780000D01*
X126250000Y-91220000D02*
X122650000Y-91220000D01*
X129050000Y-72780000D02*
X132650000Y-72780000D01*
X132650000Y-91220000D02*
X129050000Y-91220000D01*
X136670000Y-72780000D02*
X135350000Y-72780000D01*
X136670000Y-76180000D02*
X136670000Y-72780000D01*
X136670000Y-76180000D02*
X139670000Y-76180000D01*
X136670000Y-87820000D02*
X139670000Y-87820000D01*
X136670000Y-91220000D02*
X135350000Y-91220000D01*
X136670000Y-91220000D02*
X136670000Y-87820000D01*
X139670000Y-87820000D02*
X139670000Y-76180000D01*
%TO.C,R21*%
X111477500Y-33762742D02*
X111477500Y-34237258D01*
X112522500Y-33762742D02*
X112522500Y-34237258D01*
%TO.C,C11*%
X101740580Y-77790000D02*
X101459420Y-77790000D01*
X101740580Y-78810000D02*
X101459420Y-78810000D01*
%TO.C,C1*%
X101459420Y-87790000D02*
X101740580Y-87790000D01*
X101459420Y-88810000D02*
X101740580Y-88810000D01*
%TO.C,J7*%
X49650000Y-30625000D02*
X49650000Y-31875000D01*
X49940000Y-30915000D02*
X49940000Y-36885000D01*
X49940000Y-36885000D02*
X57560000Y-36885000D01*
X49950000Y-30925000D02*
X49950000Y-31675000D01*
X49950000Y-31675000D02*
X51750000Y-31675000D01*
X49950000Y-33175000D02*
X50700000Y-33175000D01*
X50700000Y-33175000D02*
X50700000Y-36125000D01*
X50700000Y-36125000D02*
X53750000Y-36125000D01*
X50900000Y-30625000D02*
X49650000Y-30625000D01*
X51750000Y-30925000D02*
X49950000Y-30925000D01*
X51750000Y-31675000D02*
X51750000Y-30925000D01*
X53250000Y-30925000D02*
X53250000Y-31675000D01*
X53250000Y-31675000D02*
X54250000Y-31675000D01*
X54250000Y-30925000D02*
X53250000Y-30925000D01*
X54250000Y-31675000D02*
X54250000Y-30925000D01*
X55750000Y-30925000D02*
X55750000Y-31675000D01*
X55750000Y-31675000D02*
X57550000Y-31675000D01*
X56800000Y-33175000D02*
X56800000Y-36125000D01*
X56800000Y-36125000D02*
X53750000Y-36125000D01*
X57550000Y-30925000D02*
X55750000Y-30925000D01*
X57550000Y-31675000D02*
X57550000Y-30925000D01*
X57550000Y-33175000D02*
X56800000Y-33175000D01*
X57560000Y-30915000D02*
X49940000Y-30915000D01*
X57560000Y-36885000D02*
X57560000Y-30915000D01*
%TO.C,R22*%
X113477500Y-46762742D02*
X113477500Y-47237258D01*
X114522500Y-46762742D02*
X114522500Y-47237258D01*
%TD*%
M02*
