%TF.GenerationSoftware,KiCad,Pcbnew,9.0.4*%
%TF.CreationDate,2025-10-13T18:55:24+02:00*%
%TF.ProjectId,carry,63617272-792e-46b6-9963-61645f706362,rev?*%
%TF.SameCoordinates,Original*%
%TF.FileFunction,Soldermask,Top*%
%TF.FilePolarity,Negative*%
%FSLAX46Y46*%
G04 Gerber Fmt 4.6, Leading zero omitted, Abs format (unit mm)*
G04 Created by KiCad (PCBNEW 9.0.4) date 2025-10-13 18:55:24*
%MOMM*%
%LPD*%
G01*
G04 APERTURE LIST*
G04 Aperture macros list*
%AMRoundRect*
0 Rectangle with rounded corners*
0 $1 Rounding radius*
0 $2 $3 $4 $5 $6 $7 $8 $9 X,Y pos of 4 corners*
0 Add a 4 corners polygon primitive as box body*
4,1,4,$2,$3,$4,$5,$6,$7,$8,$9,$2,$3,0*
0 Add four circle primitives for the rounded corners*
1,1,$1+$1,$2,$3*
1,1,$1+$1,$4,$5*
1,1,$1+$1,$6,$7*
1,1,$1+$1,$8,$9*
0 Add four rect primitives between the rounded corners*
20,1,$1+$1,$2,$3,$4,$5,0*
20,1,$1+$1,$4,$5,$6,$7,0*
20,1,$1+$1,$6,$7,$8,$9,0*
20,1,$1+$1,$8,$9,$2,$3,0*%
G04 Aperture macros list end*
%ADD10RoundRect,0.218750X-0.218750X-0.256250X0.218750X-0.256250X0.218750X0.256250X-0.218750X0.256250X0*%
%ADD11RoundRect,0.200000X0.200000X0.275000X-0.200000X0.275000X-0.200000X-0.275000X0.200000X-0.275000X0*%
%ADD12RoundRect,0.218750X0.218750X0.256250X-0.218750X0.256250X-0.218750X-0.256250X0.218750X-0.256250X0*%
%ADD13RoundRect,0.200000X-0.275000X0.200000X-0.275000X-0.200000X0.275000X-0.200000X0.275000X0.200000X0*%
%ADD14RoundRect,0.147500X-0.172500X0.147500X-0.172500X-0.147500X0.172500X-0.147500X0.172500X0.147500X0*%
%ADD15RoundRect,0.200000X0.275000X-0.200000X0.275000X0.200000X-0.275000X0.200000X-0.275000X-0.200000X0*%
%ADD16RoundRect,0.225000X-0.225000X-0.250000X0.225000X-0.250000X0.225000X0.250000X-0.225000X0.250000X0*%
%ADD17RoundRect,0.200000X-0.200000X-0.275000X0.200000X-0.275000X0.200000X0.275000X-0.200000X0.275000X0*%
%ADD18R,2.000000X2.000000*%
%ADD19C,2.000000*%
%ADD20C,2.800000*%
%ADD21RoundRect,0.225000X0.250000X-0.225000X0.250000X0.225000X-0.250000X0.225000X-0.250000X-0.225000X0*%
%ADD22R,1.700000X1.700000*%
%ADD23C,1.700000*%
%ADD24C,0.800000*%
%ADD25C,6.400000*%
%ADD26RoundRect,0.225000X0.225000X0.250000X-0.225000X0.250000X-0.225000X-0.250000X0.225000X-0.250000X0*%
%ADD27RoundRect,0.150000X0.825000X0.150000X-0.825000X0.150000X-0.825000X-0.150000X0.825000X-0.150000X0*%
%ADD28RoundRect,0.225000X-0.250000X0.225000X-0.250000X-0.225000X0.250000X-0.225000X0.250000X0.225000X0*%
%ADD29RoundRect,0.250000X-0.475000X0.250000X-0.475000X-0.250000X0.475000X-0.250000X0.475000X0.250000X0*%
%ADD30C,3.000000*%
%ADD31RoundRect,0.112500X-0.112500X0.187500X-0.112500X-0.187500X0.112500X-0.187500X0.112500X0.187500X0*%
%ADD32RoundRect,0.150000X0.512500X0.150000X-0.512500X0.150000X-0.512500X-0.150000X0.512500X-0.150000X0*%
%ADD33RoundRect,0.218750X-0.256250X0.218750X-0.256250X-0.218750X0.256250X-0.218750X0.256250X0.218750X0*%
%ADD34RoundRect,0.250000X0.475000X-0.250000X0.475000X0.250000X-0.475000X0.250000X-0.475000X-0.250000X0*%
%ADD35R,1.800000X4.400000*%
%ADD36O,1.800000X4.000000*%
%ADD37O,4.000000X1.800000*%
%ADD38RoundRect,0.375000X0.625000X0.375000X-0.625000X0.375000X-0.625000X-0.375000X0.625000X-0.375000X0*%
%ADD39RoundRect,0.500000X0.500000X1.400000X-0.500000X1.400000X-0.500000X-1.400000X0.500000X-1.400000X0*%
%ADD40RoundRect,0.250000X-0.600000X-0.750000X0.600000X-0.750000X0.600000X0.750000X-0.600000X0.750000X0*%
%ADD41O,1.700000X2.000000*%
G04 APERTURE END LIST*
D10*
%TO.C,D7*%
X74187500Y-34200000D03*
X72612500Y-34200000D03*
%TD*%
D11*
%TO.C,R28*%
X106025000Y-34200000D03*
X104375000Y-34200000D03*
%TD*%
D12*
%TO.C,D8*%
X102687500Y-34200000D03*
X101112500Y-34200000D03*
%TD*%
D13*
%TO.C,R26*%
X77200000Y-38975000D03*
X77200000Y-40625000D03*
%TD*%
D14*
%TO.C,D5*%
X56600000Y-47615000D03*
X56600000Y-48585000D03*
%TD*%
D15*
%TO.C,R25*%
X133000000Y-47825000D03*
X133000000Y-46175000D03*
%TD*%
D11*
%TO.C,R4*%
X99225000Y-91700000D03*
X97575000Y-91700000D03*
%TD*%
D16*
%TO.C,C4*%
X100825000Y-93400000D03*
X102375000Y-93400000D03*
%TD*%
D17*
%TO.C,R7*%
X86775000Y-90800000D03*
X88425000Y-90800000D03*
%TD*%
D13*
%TO.C,R27*%
X79600000Y-39775000D03*
X79600000Y-41425000D03*
%TD*%
D18*
%TO.C,SW1*%
X120000000Y-47500000D03*
D19*
X125000000Y-47500000D03*
X122500000Y-47500000D03*
D20*
X116900000Y-40000000D03*
X128100000Y-40000000D03*
D19*
X120000000Y-33000000D03*
X125000000Y-33000000D03*
%TD*%
D21*
%TO.C,C24*%
X87000000Y-66775000D03*
X87000000Y-65225000D03*
%TD*%
D11*
%TO.C,R13*%
X99225000Y-80000000D03*
X97575000Y-80000000D03*
%TD*%
D14*
%TO.C,D1*%
X68400000Y-68200000D03*
X68400000Y-69170000D03*
%TD*%
D17*
%TO.C,R17*%
X86775000Y-79700000D03*
X88425000Y-79700000D03*
%TD*%
D11*
%TO.C,R15*%
X85225000Y-76300000D03*
X83575000Y-76300000D03*
%TD*%
D22*
%TO.C,J8*%
X83000000Y-33000000D03*
D23*
X85540000Y-33000000D03*
X88080000Y-33000000D03*
X90620000Y-33000000D03*
X93160000Y-33000000D03*
X95700000Y-33000000D03*
%TD*%
D24*
%TO.C,H4*%
X133600000Y-96000000D03*
X134302944Y-94302944D03*
X134302944Y-97697056D03*
X136000000Y-93600000D03*
D25*
X136000000Y-96000000D03*
D24*
X136000000Y-98400000D03*
X137697056Y-94302944D03*
X137697056Y-97697056D03*
X138400000Y-96000000D03*
%TD*%
D13*
%TO.C,R10*%
X88600000Y-68580000D03*
X88600000Y-70230000D03*
%TD*%
D15*
%TO.C,R20*%
X114000000Y-34825000D03*
X114000000Y-33175000D03*
%TD*%
D26*
%TO.C,C7*%
X85175000Y-92500000D03*
X83625000Y-92500000D03*
%TD*%
D16*
%TO.C,C15*%
X83625000Y-78000000D03*
X85175000Y-78000000D03*
%TD*%
D27*
%TO.C,U1*%
X95475000Y-92905000D03*
X95475000Y-91635000D03*
X95475000Y-90365000D03*
X95475000Y-89095000D03*
X90525000Y-89095000D03*
X90525000Y-90365000D03*
X90525000Y-91635000D03*
X90525000Y-92905000D03*
%TD*%
D21*
%TO.C,C23*%
X93000000Y-66775000D03*
X93000000Y-65225000D03*
%TD*%
D28*
%TO.C,C20*%
X60100000Y-46625000D03*
X60100000Y-48175000D03*
%TD*%
D26*
%TO.C,C26*%
X113775000Y-37000000D03*
X112225000Y-37000000D03*
%TD*%
D29*
%TO.C,C19*%
X67000000Y-38550000D03*
X67000000Y-40450000D03*
%TD*%
D22*
%TO.C,J6*%
X74275000Y-39325000D03*
D23*
X71735000Y-39325000D03*
X74275000Y-41865000D03*
X71735000Y-41865000D03*
X74275000Y-44405000D03*
X71735000Y-44405000D03*
X74275000Y-46945000D03*
X71735000Y-46945000D03*
X74275000Y-49485000D03*
X71735000Y-49485000D03*
X74275000Y-52025000D03*
X71735000Y-52025000D03*
X74275000Y-54565000D03*
X71735000Y-54565000D03*
X74275000Y-57105000D03*
X71735000Y-57105000D03*
X74275000Y-59645000D03*
X71735000Y-59645000D03*
X74275000Y-62185000D03*
X71735000Y-62185000D03*
X74275000Y-64725000D03*
X71735000Y-64725000D03*
X74275000Y-67265000D03*
X71735000Y-67265000D03*
X74275000Y-69805000D03*
X71735000Y-69805000D03*
X74275000Y-72345000D03*
X71735000Y-72345000D03*
X74275000Y-74885000D03*
X71735000Y-74885000D03*
X74275000Y-77425000D03*
X71735000Y-77425000D03*
X74275000Y-79965000D03*
X71735000Y-79965000D03*
X74275000Y-82505000D03*
X71735000Y-82505000D03*
X74275000Y-85045000D03*
X71735000Y-85045000D03*
X74275000Y-87585000D03*
X71735000Y-87585000D03*
X74275000Y-90125000D03*
X71735000Y-90125000D03*
X74275000Y-92665000D03*
X71735000Y-92665000D03*
%TD*%
D30*
%TO.C,J3*%
X127650000Y-52885000D03*
X127650000Y-69115000D03*
X134000000Y-52885000D03*
X134000000Y-69115000D03*
X121300000Y-52885000D03*
X121300000Y-69115000D03*
%TD*%
D26*
%TO.C,C5*%
X95475000Y-87400000D03*
X93925000Y-87400000D03*
%TD*%
D24*
%TO.C,H5*%
X41600000Y-96000000D03*
X42302944Y-94302944D03*
X42302944Y-97697056D03*
X44000000Y-93600000D03*
D25*
X44000000Y-96000000D03*
D24*
X44000000Y-98400000D03*
X45697056Y-94302944D03*
X45697056Y-97697056D03*
X46400000Y-96000000D03*
%TD*%
D17*
%TO.C,R14*%
X100775000Y-81700000D03*
X102425000Y-81700000D03*
%TD*%
D26*
%TO.C,C8*%
X85175000Y-89100000D03*
X83625000Y-89100000D03*
%TD*%
D31*
%TO.C,D6*%
X58200000Y-46350000D03*
X58200000Y-48450000D03*
%TD*%
D14*
%TO.C,D3*%
X111900000Y-51915000D03*
X111900000Y-52885000D03*
%TD*%
D21*
%TO.C,C25*%
X87000000Y-60775000D03*
X87000000Y-59225000D03*
%TD*%
D13*
%TO.C,R24*%
X131000000Y-46175000D03*
X131000000Y-47825000D03*
%TD*%
D30*
%TO.C,J1*%
X52635000Y-69115000D03*
X52635000Y-52885000D03*
X46285000Y-69115000D03*
X46285000Y-52885000D03*
X58985000Y-69115000D03*
X58985000Y-52885000D03*
%TD*%
D26*
%TO.C,C17*%
X85175000Y-79700000D03*
X83625000Y-79700000D03*
%TD*%
%TO.C,C13*%
X95475000Y-75400000D03*
X93925000Y-75400000D03*
%TD*%
D15*
%TO.C,R9*%
X87000000Y-70230000D03*
X87000000Y-68580000D03*
%TD*%
%TO.C,R23*%
X112000000Y-47825000D03*
X112000000Y-46175000D03*
%TD*%
D16*
%TO.C,C16*%
X86825000Y-78000000D03*
X88375000Y-78000000D03*
%TD*%
D14*
%TO.C,D4*%
X111900000Y-72915000D03*
X111900000Y-73885000D03*
%TD*%
D17*
%TO.C,R3*%
X97680000Y-88300000D03*
X99330000Y-88300000D03*
%TD*%
D32*
%TO.C,U4*%
X91137500Y-60950000D03*
X91137500Y-60000000D03*
X91137500Y-59050000D03*
X88862500Y-59050000D03*
X88862500Y-60950000D03*
%TD*%
D30*
%TO.C,J2*%
X52650000Y-90230000D03*
X52650000Y-74000000D03*
X46300000Y-90230000D03*
X46300000Y-74000000D03*
X59000000Y-90230000D03*
X59000000Y-74000000D03*
%TD*%
D26*
%TO.C,C12*%
X99175000Y-76600000D03*
X97625000Y-76600000D03*
%TD*%
D16*
%TO.C,C6*%
X86825000Y-89100000D03*
X88375000Y-89100000D03*
%TD*%
%TO.C,C9*%
X86825000Y-92500000D03*
X88375000Y-92500000D03*
%TD*%
D11*
%TO.C,R18*%
X85225000Y-81400000D03*
X83575000Y-81400000D03*
%TD*%
D17*
%TO.C,R11*%
X100775000Y-76600000D03*
X102425000Y-76600000D03*
%TD*%
D21*
%TO.C,C22*%
X93000000Y-60775000D03*
X93000000Y-59225000D03*
%TD*%
D24*
%TO.C,H3*%
X133600000Y-34000000D03*
X134302944Y-32302944D03*
X134302944Y-35697056D03*
X136000000Y-31600000D03*
D25*
X136000000Y-34000000D03*
D24*
X136000000Y-36400000D03*
X137697056Y-32302944D03*
X137697056Y-35697056D03*
X138400000Y-34000000D03*
%TD*%
D33*
%TO.C,FB1*%
X61800000Y-46612500D03*
X61800000Y-48187500D03*
%TD*%
D17*
%TO.C,R8*%
X83575000Y-90800000D03*
X85225000Y-90800000D03*
%TD*%
D11*
%TO.C,R5*%
X88425000Y-87400000D03*
X86775000Y-87400000D03*
%TD*%
D14*
%TO.C,D2*%
X68400000Y-89315000D03*
X68400000Y-90285000D03*
%TD*%
D26*
%TO.C,C3*%
X99175000Y-93400000D03*
X97625000Y-93400000D03*
%TD*%
D16*
%TO.C,C28*%
X131225000Y-44000000D03*
X132775000Y-44000000D03*
%TD*%
D34*
%TO.C,C18*%
X67000000Y-44450000D03*
X67000000Y-42550000D03*
%TD*%
D27*
%TO.C,U2*%
X95475000Y-80905000D03*
X95475000Y-79635000D03*
X95475000Y-78365000D03*
X95475000Y-77095000D03*
X90525000Y-77095000D03*
X90525000Y-78365000D03*
X90525000Y-79635000D03*
X90525000Y-80905000D03*
%TD*%
D11*
%TO.C,R2*%
X102425000Y-90000000D03*
X100775000Y-90000000D03*
%TD*%
D26*
%TO.C,C27*%
X113775000Y-44000000D03*
X112225000Y-44000000D03*
%TD*%
D32*
%TO.C,U5*%
X91137500Y-66950000D03*
X91137500Y-66000000D03*
X91137500Y-65050000D03*
X88862500Y-65050000D03*
X88862500Y-66950000D03*
%TD*%
D17*
%TO.C,R12*%
X97575000Y-78300000D03*
X99225000Y-78300000D03*
%TD*%
D16*
%TO.C,C14*%
X100825000Y-80000000D03*
X102375000Y-80000000D03*
%TD*%
D11*
%TO.C,R1*%
X102425000Y-91700000D03*
X100775000Y-91700000D03*
%TD*%
D35*
%TO.C,J5*%
X54335000Y-44000000D03*
D36*
X48535000Y-44000000D03*
D37*
X51335000Y-48800000D03*
%TD*%
D26*
%TO.C,C2*%
X99280000Y-90000000D03*
X97730000Y-90000000D03*
%TD*%
D17*
%TO.C,R19*%
X68575000Y-34200000D03*
X70225000Y-34200000D03*
%TD*%
%TO.C,R6*%
X83575000Y-87400000D03*
X85225000Y-87400000D03*
%TD*%
D21*
%TO.C,C21*%
X63500000Y-48175000D03*
X63500000Y-46625000D03*
%TD*%
D11*
%TO.C,R16*%
X88425000Y-76300000D03*
X86775000Y-76300000D03*
%TD*%
D28*
%TO.C,C10*%
X90200000Y-68630000D03*
X90200000Y-70180000D03*
%TD*%
D38*
%TO.C,U3*%
X64150000Y-43800000D03*
X64150000Y-41500000D03*
D39*
X57850000Y-41500000D03*
D38*
X64150000Y-39200000D03*
%TD*%
D30*
%TO.C,J4*%
X127650000Y-73885000D03*
X127650000Y-90115000D03*
X134000000Y-73885000D03*
X134000000Y-90115000D03*
X121300000Y-73885000D03*
X121300000Y-90115000D03*
%TD*%
D13*
%TO.C,R21*%
X112000000Y-33175000D03*
X112000000Y-34825000D03*
%TD*%
D24*
%TO.C,H1*%
X103600000Y-40000000D03*
X104302944Y-38302944D03*
X104302944Y-41697056D03*
X106000000Y-37600000D03*
D25*
X106000000Y-40000000D03*
D24*
X106000000Y-42400000D03*
X107697056Y-38302944D03*
X107697056Y-41697056D03*
X108400000Y-40000000D03*
%TD*%
D26*
%TO.C,C11*%
X102375000Y-78300000D03*
X100825000Y-78300000D03*
%TD*%
D16*
%TO.C,C1*%
X100825000Y-88300000D03*
X102375000Y-88300000D03*
%TD*%
D24*
%TO.C,H2*%
X41600000Y-34000000D03*
X42302944Y-32302944D03*
X42302944Y-35697056D03*
X44000000Y-31600000D03*
D25*
X44000000Y-34000000D03*
D24*
X44000000Y-36400000D03*
X45697056Y-32302944D03*
X45697056Y-35697056D03*
X46400000Y-34000000D03*
%TD*%
D40*
%TO.C,J7*%
X52500000Y-33375000D03*
D41*
X55000000Y-33375000D03*
%TD*%
D13*
%TO.C,R22*%
X114000000Y-46175000D03*
X114000000Y-47825000D03*
%TD*%
M02*
